<svg width="164" height="46" viewBox="0 0 164 46" fill="none" xmlns="http://www.w3.org/2000/svg">
<path d="M151.812 12.1641C152.906 12.1641 153.812 13.1016 153.812 14.1953V23.3516L158.938 17.4766H163.938L158.219 23.6016L164 33.4141H159L156.062 27.9766C155.531 27.0391 155 26.5703 154.469 26.5703C154.031 26.6641 153.812 26.9453 153.812 27.3828V33.4141H149.656V12.1641H151.812Z" fill="#424242"/>
<path d="M147.789 33.4141H145.664C144.289 33.3203 143.602 32.6641 143.602 31.3516V22.8516C143.508 21.1328 142.57 20.2891 140.727 20.2891C138.883 20.2891 137.945 21.1328 137.914 22.8516V33.4141H133.695V23.6953C133.695 18.9766 136.07 16.6328 140.789 16.6328C145.508 16.6328 147.82 18.9766 147.789 23.6953V33.4141Z" fill="#424242"/>
<path d="M127.195 12.1641H129.352C130.727 12.1641 131.383 12.8516 131.352 14.1953V15.4141H127.195V12.1641ZM127.195 16.8828H129.352C130.695 16.8828 131.352 17.5391 131.352 18.8828V33.4141H127.195V16.8828Z" fill="#424242"/>
<path d="M122.24 12.1641C123.334 12.1641 124.24 13.1016 124.24 14.1953V33.4141H120.084V12.1641H122.24Z" fill="#424242"/>
<path d="M106.938 14.2578V19.1953C108 17.4766 109.563 16.6328 111.625 16.6328C116.031 16.7891 118.219 19.6641 118.219 25.2891C118.219 30.7891 115.656 33.5703 110.531 33.6641C105.375 33.6953 102.781 31.2266 102.781 26.2578V12.1641H104.875C106.25 12.1641 106.938 12.8828 106.938 14.2578ZM110.469 20.3516C108.219 20.3516 107.063 21.9141 106.938 25.1016C106.906 28.4453 108.031 30.1328 110.406 30.1328C112.781 30.1328 113.969 28.4453 113.969 25.1016C113.875 21.9141 112.719 20.3516 110.469 20.3516Z" fill="#424242"/>
<path d="M98.4365 12.1641C99.5303 12.1641 100.437 13.1016 100.437 14.1953V33.4141H96.2803V12.1641H98.4365Z" fill="#424242"/>
<path d="M91.3262 12.1641C92.4199 12.1641 93.3262 13.1016 93.3262 14.1953V33.4141H89.1699V12.1641H91.3262Z" fill="#424242"/>
<path d="M86.9805 28.3516C86.0742 31.8516 83.8242 33.7891 79.7617 33.7891C74.7617 33.6328 72.2617 30.7266 72.2617 25.1016C72.2617 19.4766 74.793 16.6641 79.8242 16.6328C85.0742 16.6328 87.543 19.8516 87.2305 26.3203H76.543C76.6992 28.8516 77.793 30.1328 79.8242 30.1328C80.793 30.1328 81.6992 29.7266 82.5117 28.9453C82.8867 28.5391 83.3555 28.3516 83.918 28.3516H86.9805ZM79.7617 20.0391C77.9805 20.0391 76.918 21.1641 76.6055 23.3516H82.8242C82.5742 21.1641 81.543 20.0391 79.7617 20.0391Z" fill="#424242"/>
<path d="M61.8213 30.1332C64.6025 30.1332 65.9463 29.2582 65.915 27.5082C65.915 26.4769 65.29 25.7894 63.9775 25.4144C62.7275 25.0394 61.29 24.6644 59.7588 24.2582C55.6025 23.1957 53.54 21.2581 53.54 18.4456C53.6338 13.9769 56.29 11.7894 61.54 11.8206C66.54 11.8206 69.1338 14.0081 69.3838 18.4144H66.9463C66.04 18.4144 65.415 17.9769 65.0088 17.1644C64.29 15.9456 63.0088 15.3519 61.165 15.3519C58.915 15.3831 57.79 16.2269 57.6963 17.8519C57.6963 19.1956 59.04 20.1644 61.8213 20.7894C63.415 21.1644 65.1025 21.6332 66.8838 22.2582C69.2588 23.0707 70.3838 24.8207 70.2588 27.5082C70.0088 31.6644 67.1963 33.7269 61.8213 33.7269C56.1963 33.7269 53.3525 31.3832 53.2275 26.7582H57.4463C57.6025 29.0082 59.04 30.1332 61.8213 30.1332Z" fill="#424242"/>
<path d="M35.9216 0.820312H7.57082C3.38957 0.820312 0 4.20988 0 8.39113V37.6107C0 41.792 3.38957 45.1815 7.57082 45.1815H35.9216C40.1029 45.1815 43.4925 41.792 43.4925 37.6107V8.39113C43.4925 4.20988 40.1029 0.820312 35.9216 0.820312Z" fill="#940000"/>
<path d="M23.298 14.334C20.4513 14.334 18.2956 15.498 16.8306 17.8696V17.8771H11.0957V27.6151C11.0957 34.4705 14.6748 37.8773 21.7895 37.8357C28.8606 37.707 32.3981 33.8686 32.3981 26.2788C32.3981 18.6891 29.3792 14.5498 23.2999 14.334H23.298ZM21.6154 32.962C18.3391 32.962 16.7852 30.634 16.8287 26.0195C17.0009 21.6209 18.5965 19.4651 21.7005 19.4651C24.8046 19.4651 26.4001 21.6209 26.5307 26.0195C26.5307 30.634 24.8916 32.962 21.6154 32.962Z" fill="white"/>
<path d="M16.8268 37.1221V17.3963C16.8268 15.5434 15.9221 14.6387 14.0691 14.6387H11.0957V27.617C11.0957 32.6326 13.013 35.801 16.8287 37.124L16.8268 37.1221Z" fill="white"/>
<path d="M16.8268 10.9843C16.8022 9.13514 15.8559 8.16797 13.984 8.16797H11.0957V12.612H16.8287V10.9843H16.8268Z" fill="white"/>
</svg>
