<svg width="17" height="17" viewBox="0 0 17 17" fill="none" xmlns="http://www.w3.org/2000/svg">
<path d="M12.75 13.3592H12.2117C11.645 13.3592 11.1067 13.5787 10.71 13.9754L9.49875 15.1725C8.94625 15.718 8.04667 15.718 7.49417 15.1725L6.28291 13.9754C5.88625 13.5787 5.34083 13.3592 4.78125 13.3592H4.25C3.07417 13.3592 2.125 12.4171 2.125 11.2554V3.5275C2.125 2.36583 3.07417 1.42377 4.25 1.42377H12.75C13.9258 1.42377 14.875 2.36583 14.875 3.5275V11.2554C14.875 12.41 13.9258 13.3592 12.75 13.3592Z" stroke="#424242" stroke-miterlimit="10" stroke-linecap="round" stroke-linejoin="round"/>
<path d="M4.95801 6.48836C4.95801 5.82961 5.49634 5.29123 6.15509 5.29123C6.81384 5.29123 7.35218 5.82961 7.35218 6.48836C7.35218 7.82002 5.46092 7.96169 5.043 9.2296C4.958 9.49169 5.17759 9.75376 5.45384 9.75376H7.35218" stroke="#424242" stroke-linecap="round" stroke-linejoin="round"/>
<path d="M11.3617 9.74666V5.70211C11.3617 5.51794 11.2413 5.35498 11.0642 5.3054C10.8872 5.25582 10.6959 5.32665 10.5968 5.48248C10.0868 6.30415 9.53424 7.23916 9.05258 8.06083C8.97466 8.19541 8.97466 8.3725 9.05258 8.50708C9.13049 8.64166 9.27925 8.72662 9.44216 8.72662H12.0417" stroke="#424242" stroke-linecap="round" stroke-linejoin="round"/>
</svg>
