<svg width="20" height="20" viewBox="0 0 20 20" fill="none" xmlns="http://www.w3.org/2000/svg">
<rect width="20" height="20" fill="white"/>
<path d="M2.1665 9.99935C2.1665 5.68382 5.68431 2.16602 9.99984 2.16602C14.3154 2.16602 17.8332 5.68382 17.8332 9.99935C17.8332 14.3149 14.3154 17.8327 9.99984 17.8327C5.68431 17.8327 2.1665 14.3149 2.1665 9.99935ZM11.1248 13.3327V11.1243H13.3332C13.951 11.1243 14.4582 10.6172 14.4582 9.99935C14.4582 9.38154 13.951 8.87435 13.3332 8.87435H11.1248V6.66602C11.1248 6.04821 10.6176 5.54102 9.99984 5.54102C9.38203 5.54102 8.87484 6.04821 8.87484 6.66602V8.87435H6.6665C6.0487 8.87435 5.5415 9.38154 5.5415 9.99935C5.5415 10.6172 6.0487 11.1243 6.6665 11.1243H8.87484V13.3327C8.87484 13.9505 9.38203 14.4577 9.99984 14.4577C10.6176 14.4577 11.1248 13.9505 11.1248 13.3327Z" fill="#940000" stroke="#940000"/>
</svg>
