<svg width="20" height="20" viewBox="0 0 20 20" fill="none" xmlns="http://www.w3.org/2000/svg">
<path d="M9.99935 18.4577C5.33383 18.4577 1.54102 14.6649 1.54102 9.99935C1.54102 5.33383 5.33383 1.54102 9.99935 1.54102C14.6649 1.54102 18.4577 5.33383 18.4577 9.99935C18.4577 14.6649 14.6649 18.4577 9.99935 18.4577ZM9.99935 1.79102C5.47321 1.79102 1.79102 5.47321 1.79102 9.99935C1.79102 14.5255 5.47321 18.2077 9.99935 18.2077C14.5255 18.2077 18.2077 14.5255 18.2077 9.99935C18.2077 5.47321 14.5255 1.79102 9.99935 1.79102Z" fill="#424242" stroke="#424242"/>
<path d="M13.3327 10.125H6.66602C6.63587 10.125 6.60459 10.1127 6.57894 10.0871C6.5533 10.0614 6.54102 10.0301 6.54102 10C6.54102 9.96985 6.5533 9.93857 6.57894 9.91293C6.60459 9.88728 6.63587 9.875 6.66602 9.875H13.3327C13.3628 9.875 13.3941 9.88728 13.4198 9.91293C13.4454 9.93857 13.4577 9.96985 13.4577 10C13.4577 10.0301 13.4454 10.0614 13.4198 10.0871C13.3941 10.1127 13.3628 10.125 13.3327 10.125Z" fill="#424242" stroke="#424242"/>
<path d="M10 13.4577C9.96985 13.4577 9.93857 13.4454 9.91293 13.4198C9.88728 13.3941 9.875 13.3628 9.875 13.3327V6.66602C9.875 6.63587 9.88728 6.60459 9.91293 6.57894C9.93857 6.5533 9.96985 6.54102 10 6.54102C10.0301 6.54102 10.0614 6.5533 10.0871 6.57894C10.1127 6.60459 10.125 6.63587 10.125 6.66602V13.3327C10.125 13.3628 10.1127 13.3941 10.0871 13.4198C10.0614 13.4454 10.0301 13.4577 10 13.4577Z" fill="#424242" stroke="#424242"/>
</svg>
