<?xml version="1.0" encoding="UTF-8"?>
<svg id="Layer_1" data-name="Layer 1" xmlns="http://www.w3.org/2000/svg" viewBox="0 0 512.04 511.98">
  <path d="M320,298.65c0-35.29-28.71-64-64-64H64C28.71,234.65,0,263.36,0,298.65c0,27.82,17.83,51.52,42.67,60.33v67.67H10.67c-5.89,0-10.67,4.78-10.67,10.67s4.78,10.67,10.67,10.67h32v53.33c0,5.89,4.78,10.67,10.67,10.67s10.67-4.78,10.67-10.67v-53.33h192v53.33c0,5.89,4.78,10.67,10.67,10.67s10.67-4.78,10.67-10.67v-53.33h32c5.89,0,10.67-4.78,10.67-10.67s-4.78-10.67-10.67-10.67h-32v-67.67c24.83-8.81,42.67-32.51,42.67-60.33h0ZM256,426.65H64v-64h192v64ZM256,341.32H64c-23.53,0-42.67-19.14-42.67-42.67s19.14-42.67,42.67-42.67h192c23.53,0,42.67,19.14,42.67,42.67s-19.14,42.67-42.67,42.67ZM509.21,277.91c-7.94,31.17-33.62,55.38-65.43,61.7-11.84,2.35-22.68,2.54-33.66,2.54-15.68,0-26.11,4.31-26.11,25.41v133.76c0,5.89-4.78,10.67-10.67,10.67s-10.67-4.78-10.67-10.67v-133.76c0-17.45,6.17-46.74,47.45-46.74,9.88,0,19.56-.17,29.5-2.13,23.42-4.65,43.09-23.15,48.92-46.02,4.03-15.83,2.33-31.64-4.91-45.74-4.39-8.49-4.35-18.75.06-27.41,4.63-9.05,6.98-18.75,6.98-28.89,0-20.74-9.37-39.64-25.05-50.58-10.73-7.51-17.39-20.01-18.28-34.3-1.41-22.29-13.93-41.92-34.39-53.8-22.83-13.35-51.16-14.12-75.71-2.18-20.93,10.18-35.18,32.53-38.12,59.84-1.32,12.22-7.89,23.34-18.07,30.44-15.68,10.97-25.05,29.87-25.05,50.6,0,3.11.21,6.14.66,9.13.85,5.8-3.18,11.24-9,12.1-5.91.68-11.24-3.18-12.1-9.02-.58-3.99-.9-8.06-.9-12.2,0-27.69,12.78-53.14,34.18-68.07,5.1-3.56,8.43-9.13,9.07-15.25,3.71-34.65,22.4-63.34,49.98-76.74,31-15.08,66.79-13.99,95.81,2.92,26.69,15.55,43.07,41.39,44.93,70.91.49,7.79,3.86,14.4,9.22,18.15,21.38,14.93,34.15,40.41,34.15,68.07,0,13.53-3.14,26.5-9.3,38.59-1.3,2.52-1.32,5.57-.11,7.96,9.69,18.77,11.97,39.77,6.63,60.74l-.02-.02Z"/>
</svg>