<?xml version="1.0" encoding="UTF-8"?>
<svg id="Layer_1" data-name="Layer 1" xmlns="http://www.w3.org/2000/svg" viewBox="0 0 512 511.97">
  <defs>
    <style>
      .cls-1 {
        fill: #424242;
      }
    </style>
  </defs>
  <path class="cls-1" d="M501.33,490.63h-74.67V117.3c0-41.17-33.49-74.67-74.67-74.67h-17.86c-4.65-9.81-11.48-18.6-20.14-25.71-17.37-14.23-39.96-19.84-61.99-15.49l-89.51,17.9c-44.71,8.94-77.16,48.53-77.16,94.14v377.15H10.67c-5.89,0-10.67,4.78-10.67,10.67s4.78,10.67,10.67,10.67h490.67c5.89,0,10.67-4.78,10.67-10.67s-4.78-10.67-10.67-10.67ZM352,63.97c29.4,0,53.33,23.91,53.33,53.33v373.33h-64V74.66c0-3.61-.26-7.17-.77-10.69h11.43ZM106.67,113.48c0-35.48,25.24-66.26,60.01-73.24l89.51-17.9c15.68-3.2,31.87.87,44.29,11.07,12.39,10.18,19.52,25.19,19.52,41.24v415.98H106.67V113.48ZM277.33,255.97c0,11.78-9.56,21.33-21.33,21.33s-21.33-9.56-21.33-21.33,9.56-21.33,21.33-21.33,21.33,9.56,21.33,21.33Z"/>
</svg>