<?xml version="1.0" encoding="UTF-8"?>
<svg id="Layer_1" data-name="Layer 1" xmlns="http://www.w3.org/2000/svg" viewBox="0 0 512 512">
  <defs>
    <style>
      .cls-1 {
        fill: #940000;
      }
    </style>
  </defs>
  <path class="cls-1" d="M416,42.67h-32V10.67c0-5.89-4.78-10.67-10.67-10.67s-10.67,4.78-10.67,10.67v32h-213.33V10.67c0-5.89-4.78-10.67-10.67-10.67s-10.67,4.78-10.67,10.67v32h-32C43.07,42.67,0,85.74,0,138.67v277.33c0,52.93,43.07,96,96,96h320c52.93,0,96-43.07,96-96V138.67c0-52.93-43.07-96-96-96ZM96,64h320c41.17,0,74.67,33.49,74.67,74.67v32H21.33v-32c0-41.17,33.49-74.67,74.67-74.67ZM416,490.67H96c-41.17,0-74.67-33.49-74.67-74.67v-224h469.33v224c0,41.17-33.49,74.67-74.67,74.67ZM341.33,330.67c0,5.89-4.78,10.67-10.67,10.67h-149.33c-5.89,0-10.67-4.78-10.67-10.67s4.78-10.67,10.67-10.67h149.33c5.89,0,10.67,4.78,10.67,10.67Z"/>
</svg>