<svg width="21" height="20" viewBox="0 0 21 20" fill="none" xmlns="http://www.w3.org/2000/svg">
<path d="M16.3796 19.1976C15.2394 20.253 13.9944 20.0864 12.796 19.5864C11.5278 19.0754 10.3643 19.0532 9.02626 19.5864C7.3508 20.2752 6.46653 20.0752 5.46592 19.1976C-0.212018 13.6094 0.62571 5.09936 7.07156 4.78828C8.6423 4.86605 9.736 5.6104 10.6552 5.67706C12.0281 5.41043 13.3429 4.64386 14.8089 4.74385C16.5658 4.87716 17.8922 5.54374 18.7648 6.74359C15.1347 8.82111 15.9957 13.3872 19.3233 14.6648C18.6601 16.3313 17.7991 17.9866 16.368 19.2087L16.3796 19.1976ZM10.5388 4.72163C10.3643 2.24416 12.4703 0.199975 14.8904 0C15.2278 2.8663 12.1677 4.99937 10.5388 4.72163Z" fill="black"/>
</svg>
