<svg width="21" height="21" viewBox="0 0 21 21" fill="none" xmlns="http://www.w3.org/2000/svg">
<path d="M15.5942 18.0215L15.5937 18.0212L11.529 15.764C11.2227 15.5905 10.8515 15.5188 10.5082 15.5188C10.1637 15.5188 9.79148 15.591 9.4827 15.7631C9.48259 15.7632 9.48248 15.7633 9.48238 15.7633L5.41807 18.0203C5.4178 18.0205 5.41754 18.0206 5.41727 18.0208C4.85554 18.3299 4.45463 18.2939 4.2234 18.1577C3.99244 18.0217 3.76758 17.6895 3.76758 17.05V5.30834C3.76758 3.81782 4.99372 2.59167 6.48424 2.59167H14.5176C16.0148 2.59167 17.2349 3.8164 17.2426 5.30954V17.05C17.2426 17.695 17.0168 18.0285 16.7868 18.164C16.5569 18.2993 16.1568 18.3349 15.5942 18.0215ZM10.5378 11.7119L13.8711 8.37856C14.3081 7.94163 14.3081 7.22505 13.8711 6.78812C13.4342 6.35119 12.7176 6.35119 12.2807 6.78812L9.74258 9.32623L9.2878 8.87145C8.85087 8.43453 8.13429 8.43453 7.69736 8.87145C7.26043 9.30838 7.26043 10.025 7.69736 10.4619L8.94736 11.7119C9.17107 11.9356 9.45879 12.0417 9.74258 12.0417C10.0264 12.0417 10.3141 11.9356 10.5378 11.7119Z" fill="#940000" stroke="#940000"/>
</svg>
