<?xml version="1.0" encoding="UTF-8"?>
<svg id="Layer_1" data-name="Layer 1" xmlns="http://www.w3.org/2000/svg" viewBox="0 0 512 512">
  <path d="M501.33,512H53.33c-29.4,0-53.33-23.94-53.33-53.33V10.67C0,4.78,4.78,0,10.67,0s10.67,4.78,10.67,10.67v448c0,17.64,14.36,32,32,32h448c5.89,0,10.67,4.78,10.67,10.67s-4.78,10.67-10.67,10.67ZM512,394.79v-133.03c0-13.25-4.89-25.94-13.76-35.78l-55.19-61.03c-20.12-20.14-55.3-20.14-75.41,0l-47.62,47.62-90.28-90.28c-20.14-20.14-55.38-20.05-75.33-.09l-74.35,72.79c-10.2,9.96-16.02,23.87-16.02,38.12v161.56c0,29.4,23.94,53.33,53.33,53.33h341.29c29.31,0,53.25-23.85,53.33-53.21ZM214.63,137.37h0l97.83,97.81c4.16,4.16,10.92,4.16,15.08,0l55.17-55.15c12.07-12.07,33.54-11.69,44.89-.38l54.83,60.63c5.33,5.91,8.26,13.53,8.26,21.46v132.99c-.04,17.6-14.4,31.91-32,31.91H117.33c-17.64,0-32-14.36-32-32v-161.56c0-8.55,3.5-16.9,9.62-22.87l74.43-72.87c6.04-6.04,14.08-9.37,22.63-9.37s16.58,3.33,22.63,9.37l-.02.02Z"/>
</svg>