<?xml version="1.0" encoding="UTF-8"?>
<svg id="Layer_1" data-name="Layer 1" xmlns="http://www.w3.org/2000/svg" viewBox="0 0 24 24.02">
  <defs>
    <style>
      .cls-1 {
        fill: #940000;
      }
    </style>
  </defs>
  <path class="cls-1" d="M23.3,12.86c-.5-.56-1.17-.86-1.89-.86H1v-7.96c0-.84.3-1.68.91-2.26,1.13-1.07,2.72-.97,3.74-.12l-.62,3.59c-.08.44.01.89.26,1.27h0c.27.42.7.71,1.19.79.1.02.21.03.32.03.38,0,.76-.12,1.07-.36l3.43-2.57c.74-.56.94-1.61.42-2.41-.31-.49-.85-.79-1.43-.82l-3.85-.17C5.01-.29,2.67-.45,1.08,1.21c-.73.76-1.08,1.81-1.08,2.87v8.11c0,.21.01.43.04.64.09.79.33,2.79.33,2.79.28,2.36,1.47,4.39,3.16,5.73,0,.01-.51,2.06-.51,2.06-.07.27.1.54.37.6.04.01.08.01.12.01.22,0,.43-.15.48-.38l.42-1.7c1.15.68,2.47,1.06,3.86,1.06h7.75c1.3,0,2.53-.33,3.62-.92l.38,1.54c.06.23.26.38.49.38.04,0,.08,0,.12-.01.27-.07.43-.34.36-.6l-.46-1.87c1.82-1.33,3.1-3.43,3.39-5.9l.06-.56c.09-.8-.15-1.6-.68-2.19h0ZM10.88,2.56c.22.35.14.81-.19,1.05l-3.43,2.57c-.18.13-.4.18-.61.15-.22-.04-.4-.16-.52-.35-.11-.17-.15-.37-.11-.56l.59-3.4,3.63.16c.26.01.49.15.64.38h0ZM22.99,14.94l-.06.56c-.44,3.71-3.41,6.5-6.91,6.5h-7.75c-3.5,0-6.47-2.8-6.91-6.5l-.29-2.5h20.35c.44,0,.84.19,1.15.53.34.38.49.89.43,1.41h0Z"/>
</svg>