<?xml version="1.0" encoding="UTF-8"?>
<svg id="Layer_1" data-name="Layer 1" xmlns="http://www.w3.org/2000/svg" viewBox="0 0 22 24">
  <defs>
    <style>
      .cls-1 {
        fill: #940000;
      }
    </style>
  </defs>
  <path class="cls-1" d="M22,4.5c0,.28-.22.5-.5.5h-1.5s0,.03,0,.05l-1.37,14.87c-.22,2.33-2.14,4.09-4.48,4.09h-6.27c-2.34,0-4.26-1.75-4.48-4.08l-1.39-14.87s0-.03,0-.05H.5c-.28,0-.5-.22-.5-.5s.22-.5.5-.5h5.03C5.78,1.75,7.69,0,10,0h2c2.31,0,4.22,1.75,4.47,4h5.03c.28,0,.5.22.5.5h0ZM6.54,4h8.93c-.24-1.69-1.7-3-3.46-3h-2c-1.76,0-3.22,1.31-3.46,3ZM19,5H3l1.39,14.83c.17,1.81,1.67,3.17,3.48,3.17h6.27c1.82,0,3.32-1.37,3.49-3.18l1.37-14.82h0Z"/>
</svg>