<svg width="17" height="17" viewBox="0 0 17 17" fill="none" xmlns="http://www.w3.org/2000/svg">
<path d="M5.66626 15.5833H11.3329C14.1804 15.5833 14.6904 14.4429 14.8392 13.0546L15.3704 7.38792C15.5617 5.65958 15.0658 4.25 12.0413 4.25H4.95793C1.93334 4.25 1.43751 5.65958 1.62876 7.38792L2.16001 13.0546C2.30876 14.4429 2.81876 15.5833 5.66626 15.5833Z" stroke="#424242" stroke-miterlimit="10" stroke-linecap="round" stroke-linejoin="round"/>
<path d="M5.66699 4.25V3.68333C5.66699 2.42958 5.66699 1.41667 7.93366 1.41667H9.06699C11.3337 1.41667 11.3337 2.42958 11.3337 3.68333V4.25" stroke="#424242" stroke-miterlimit="10" stroke-linecap="round" stroke-linejoin="round"/>
<path d="M9.91634 9.20833V9.91667C9.91634 9.92375 9.91634 9.92375 9.91634 9.93083C9.91634 10.7029 9.90926 11.3333 8.49967 11.3333C7.09717 11.3333 7.08301 10.71 7.08301 9.93792V9.20833C7.08301 8.5 7.08301 8.5 7.79134 8.5H9.20801C9.91634 8.5 9.91634 8.5 9.91634 9.20833Z" stroke="#424242" stroke-miterlimit="10" stroke-linecap="round" stroke-linejoin="round"/>
<path d="M15.3357 7.79167C13.6995 8.98167 11.8295 9.69 9.91699 9.93083" stroke="#424242" stroke-miterlimit="10" stroke-linecap="round" stroke-linejoin="round"/>
<path d="M1.85547 7.98292C3.44922 9.07375 5.24839 9.7325 7.08297 9.93792" stroke="#424242" stroke-miterlimit="10" stroke-linecap="round" stroke-linejoin="round"/>
</svg>
