<svg width="20" height="20" viewBox="0 0 20 20" fill="none" xmlns="http://www.w3.org/2000/svg">
<path d="M18.1751 3.28421C16.8918 6.48421 13.6751 10.8342 10.9834 12.9925L9.34176 14.3092C9.13343 14.4592 8.9251 14.5925 8.69176 14.6842C8.69176 14.5342 8.68343 14.3675 8.65843 14.2092C8.56676 13.5092 8.2501 12.8592 7.69176 12.3009C7.1251 11.7342 6.43343 11.4009 5.7251 11.3092C5.55843 11.3009 5.39176 11.2842 5.2251 11.3009C5.31676 11.0425 5.45843 10.8009 5.63343 10.6009L6.93343 8.95921C9.08343 6.26754 13.4501 3.03421 16.6418 1.75921C17.1334 1.57587 17.6084 1.70921 17.9084 2.01754C18.2251 2.32587 18.3751 2.80087 18.1751 3.28421Z" stroke="#424242" stroke-linecap="round" stroke-linejoin="round"/>
<path d="M8.69173 14.6837C8.69173 15.6003 8.34173 16.4753 7.6834 17.142C7.17507 17.6503 6.4834 18.0003 5.6584 18.1087L3.6084 18.3337C2.49173 18.4587 1.5334 17.5087 1.66673 16.3753L1.89173 14.3253C2.09173 12.5003 3.61673 11.3337 5.2334 11.3003C5.40007 11.292 5.57507 11.3003 5.7334 11.3087C6.44173 11.4003 7.1334 11.7253 7.70006 12.3003C8.2584 12.8587 8.57506 13.5087 8.66673 14.2087C8.67506 14.367 8.69173 14.5253 8.69173 14.6837Z" stroke="#424242" stroke-linecap="round" stroke-linejoin="round"/>
<path d="M11.8665 12.0589C11.8665 9.88385 10.0998 8.11719 7.9248 8.11719" stroke="#424242" stroke-linecap="round" stroke-linejoin="round"/>
</svg>
