<svg width="17" height="17" viewBox="0 0 17 17" fill="none" xmlns="http://www.w3.org/2000/svg">
<path d="M0.708252 15.5833H16.2916" stroke="white" stroke-miterlimit="10" stroke-linecap="round" stroke-linejoin="round"/>
<path d="M14.0107 15.5904V12.4312" stroke="white" stroke-miterlimit="10" stroke-linecap="round" stroke-linejoin="round"/>
<path d="M14.0249 7.71376C13.1607 7.71376 12.4666 8.40794 12.4666 9.2721V10.88C12.4666 11.7442 13.1607 12.4383 14.0249 12.4383C14.8891 12.4383 15.5832 11.7442 15.5832 10.88V9.2721C15.5832 8.40794 14.8891 7.71376 14.0249 7.71376Z" stroke="white" stroke-miterlimit="10" stroke-linecap="round" stroke-linejoin="round"/>
<path d="M1.48755 15.5833V4.27127C1.48755 2.84752 2.19592 2.13209 3.6055 2.13209H8.0184C9.42799 2.13209 10.1292 2.84752 10.1292 4.27127V15.5833" stroke="white" stroke-miterlimit="10" stroke-linecap="round" stroke-linejoin="round"/>
<path d="M4.1084 5.84375H7.61466" stroke="white" stroke-miterlimit="10" stroke-linecap="round" stroke-linejoin="round"/>
<path d="M4.1084 8.5H7.61466" stroke="white" stroke-miterlimit="10" stroke-linecap="round" stroke-linejoin="round"/>
<path d="M5.84375 15.5833V12.9271" stroke="white" stroke-miterlimit="10" stroke-linecap="round" stroke-linejoin="round"/>
</svg>
