<svg width="21" height="20" viewBox="0 0 21 20" fill="none" xmlns="http://www.w3.org/2000/svg">
<rect width="20" height="20" transform="translate(0.5)" fill="white"/>
<path d="M2.16602 18.209H18.8327C18.8628 18.209 18.8941 18.2213 18.9198 18.2469C18.9454 18.2726 18.9577 18.3038 18.9577 18.334C18.9577 18.3641 18.9454 18.3954 18.9198 18.4211C18.8941 18.4467 18.8628 18.459 18.8327 18.459H2.16602C2.13587 18.459 2.10459 18.4467 2.07894 18.4211C2.0533 18.3954 2.04102 18.3641 2.04102 18.334C2.04102 18.3038 2.0533 18.2726 2.07894 18.2469C2.10459 18.2213 2.13587 18.209 2.16602 18.209Z" fill="#940000" stroke="#940000"/>
<path d="M6.33333 2.16602H14.6667C15.8143 2.16602 16.4914 2.50452 16.8924 2.96885C17.3052 3.44689 17.5 4.14376 17.5 4.99935V17.8327H3.5V4.99935C3.5 4.14376 3.69478 3.44689 4.10759 2.96885C4.50857 2.50452 5.18569 2.16602 6.33333 2.16602ZM6.33333 14.8743H8.83333C9.45114 14.8743 9.95833 14.3672 9.95833 13.7493C9.95833 13.1315 9.45114 12.6243 8.83333 12.6243H6.33333C5.71552 12.6243 5.20833 13.1315 5.20833 13.7493C5.20833 14.3672 5.71552 14.8743 6.33333 14.8743ZM6.33333 11.1243H8.83333C9.45114 11.1243 9.95833 10.6172 9.95833 9.99935C9.95833 9.38154 9.45114 8.87435 8.83333 8.87435H6.33333C5.71552 8.87435 5.20833 9.38154 5.20833 9.99935C5.20833 10.6172 5.71552 11.1243 6.33333 11.1243ZM6.33333 7.37435H8.83333C9.45114 7.37435 9.95833 6.86716 9.95833 6.24935C9.95833 5.63154 9.45114 5.12435 8.83333 5.12435H6.33333C5.71552 5.12435 5.20833 5.63154 5.20833 6.24935C5.20833 6.86716 5.71552 7.37435 6.33333 7.37435ZM12.1667 14.8743H14.6667C15.2845 14.8743 15.7917 14.3672 15.7917 13.7493C15.7917 13.1315 15.2845 12.6243 14.6667 12.6243H12.1667C11.5489 12.6243 11.0417 13.1315 11.0417 13.7493C11.0417 14.3672 11.5489 14.8743 12.1667 14.8743ZM12.1667 11.1243H14.6667C15.2845 11.1243 15.7917 10.6172 15.7917 9.99935C15.7917 9.38154 15.2845 8.87435 14.6667 8.87435H12.1667C11.5489 8.87435 11.0417 9.38154 11.0417 9.99935C11.0417 10.6172 11.5489 11.1243 12.1667 11.1243ZM12.1667 7.37435H14.6667C15.2845 7.37435 15.7917 6.86716 15.7917 6.24935C15.7917 5.63154 15.2845 5.12435 14.6667 5.12435H12.1667C11.5489 5.12435 11.0417 5.63154 11.0417 6.24935C11.0417 6.86716 11.5489 7.37435 12.1667 7.37435Z" fill="#940000" stroke="#940000"/>
</svg>
