<?xml version="1.0" encoding="UTF-8"?>
<svg id="Layer_1" data-name="Layer 1" xmlns="http://www.w3.org/2000/svg" viewBox="0 0 23.99 23.99">
  <defs>
    <style>
      .cls-1 {
        fill: #424242;
      }
    </style>
  </defs>
  <path class="cls-1" d="M23.85,23.85c-.1.1-.23.15-.35.15s-.26-.05-.35-.15l-6.44-6.44c-1.77,1.61-4.12,2.6-6.7,2.6C4.49,20,0,15.51,0,10S4.49,0,10,0s10,4.49,10,10c0,2.58-.99,4.92-2.6,6.7l6.44,6.44c.19.19.19.51,0,.71h0ZM19,10C19,5.04,14.96,1,10,1S1,5.04,1,10s4.04,9,9,9,9-4.04,9-9h0Z"/>
</svg>