<svg width="21" height="21" viewBox="0 0 21 21" fill="none" xmlns="http://www.w3.org/2000/svg">
<path d="M8.83333 18.8327H12.1667C16.3333 18.8327 18 17.166 18 12.9993V7.99935C18 3.83268 16.3333 2.16602 12.1667 2.16602H8.83333C4.66667 2.16602 3 3.83268 3 7.99935V12.9993C3 17.166 4.66667 18.8327 8.83333 18.8327Z" stroke="white" stroke-linecap="round" stroke-linejoin="round"/>
<path d="M14.25 6.81641V7.64974C14.25 8.33307 13.6917 8.89974 13 8.89974H8C7.31667 8.89974 6.75 8.34141 6.75 7.64974V6.81641C6.75 6.13307 7.30833 5.56641 8 5.56641H13C13.6917 5.56641 14.25 6.12474 14.25 6.81641Z" stroke="white" stroke-linecap="round" stroke-linejoin="round"/>
<path d="M7.2801 12.1667H7.28973" stroke="white" stroke-linecap="round" stroke-linejoin="round"/>
<path d="M10.4959 12.1667H10.5055" stroke="white" stroke-linecap="round" stroke-linejoin="round"/>
<path d="M13.7117 12.1667H13.7214" stroke="white" stroke-linecap="round" stroke-linejoin="round"/>
<path d="M7.2801 15.0827H7.28973" stroke="white" stroke-linecap="round" stroke-linejoin="round"/>
<path d="M10.4959 15.0827H10.5055" stroke="white" stroke-linecap="round" stroke-linejoin="round"/>
<path d="M13.7117 15.0827H13.7214" stroke="white" stroke-linecap="round" stroke-linejoin="round"/>
</svg>
