<?xml version="1.0" encoding="UTF-8"?>
<svg id="Layer_1" data-name="Layer 1" xmlns="http://www.w3.org/2000/svg" viewBox="0 0 24 24">
  <defs>
    <style>
      .cls-1 {
        fill: #fff;
      }
    </style>
  </defs>
  <path class="cls-1" d="M12,8c-3.31,0-6,2.69-6,6s2.69,6,6,6,6-2.69,6-6-2.69-6-6-6ZM12,19c-2.76,0-5-2.24-5-5s2.24-5,5-5,5,2.24,5,5-2.24,5-5,5ZM19.5,4h-1.25l-2.25-3c-.47-.63-1.22-1-2-1h-4c-.78,0-1.53.37-2,1l-2.25,3h-1.25C2.02,4,0,6.02,0,8.5v11c0,2.48,2.02,4.5,4.5,4.5h15c2.48,0,4.5-2.02,4.5-4.5v-11c0-2.48-2.02-4.5-4.5-4.5ZM8.8,1.6c.28-.38.73-.6,1.2-.6h4c.47,0,.92.22,1.2.6l1.8,2.4H7s1.8-2.4,1.8-2.4ZM23,19.5c0,1.93-1.57,3.5-3.5,3.5H4.5c-1.93,0-3.5-1.57-3.5-3.5v-11c0-1.93,1.57-3.5,3.5-3.5h15c1.93,0,3.5,1.57,3.5,3.5v11Z"/>
</svg>