<svg width="17" height="17" viewBox="0 0 17 17" fill="none" xmlns="http://www.w3.org/2000/svg">
<path d="M4.78813 15.5833H12.2115C14.1665 15.5833 14.9456 14.3862 15.0377 12.927L15.406 7.07622C15.5052 5.54622 14.2869 4.24997 12.7498 4.24997C12.3177 4.24997 11.921 4.00205 11.7227 3.61955L11.2127 2.59247C10.8869 1.94788 10.0369 1.41663 9.31438 1.41663H7.69229C6.96271 1.41663 6.11271 1.94788 5.78688 2.59247L5.27688 3.61955C5.07854 4.00205 4.68188 4.24997 4.24979 4.24997C2.71271 4.24997 1.49438 5.54622 1.59354 7.07622L1.96188 12.927C2.04688 14.3862 2.83313 15.5833 4.78813 15.5833Z" stroke="#424242" stroke-linecap="round" stroke-linejoin="round"/>
<path d="M7.4375 5.66663H9.5625" stroke="#424242" stroke-linecap="round" stroke-linejoin="round"/>
<path d="M8.49984 12.75C9.76775 12.75 10.8019 11.7158 10.8019 10.4479C10.8019 9.17997 9.76775 8.14581 8.49984 8.14581C7.23192 8.14581 6.19775 9.17997 6.19775 10.4479C6.19775 11.7158 7.23192 12.75 8.49984 12.75Z" stroke="#424242" stroke-linecap="round" stroke-linejoin="round"/>
</svg>
