<svg width="17" height="17" viewBox="0 0 17 17" fill="none" xmlns="http://www.w3.org/2000/svg">
<path d="M4.78813 15.5833H12.2115C14.1665 15.5833 14.9456 14.3862 15.0377 12.9271L15.406 7.07625C15.5052 5.54625 14.2869 4.25 12.7498 4.25C12.3177 4.25 11.921 4.00208 11.7227 3.61958L11.2127 2.5925C10.8869 1.94791 10.0369 1.41666 9.31438 1.41666H7.69229C6.96271 1.41666 6.11271 1.94791 5.78688 2.5925L5.27688 3.61958C5.07854 4.00208 4.68188 4.25 4.24979 4.25C2.71271 4.25 1.49438 5.54625 1.59354 7.07625L1.96188 12.9271C2.04688 14.3862 2.83313 15.5833 4.78813 15.5833Z" stroke="#424242" stroke-linecap="round" stroke-linejoin="round"/>
<path d="M7.4375 5.66666H9.5625" stroke="#424242" stroke-linecap="round" stroke-linejoin="round"/>
<path d="M8.49984 12.75C9.76775 12.75 10.8019 11.7158 10.8019 10.4479C10.8019 9.18 9.76775 8.14584 8.49984 8.14584C7.23192 8.14584 6.19775 9.18 6.19775 10.4479C6.19775 11.7158 7.23192 12.75 8.49984 12.75Z" stroke="#424242" stroke-linecap="round" stroke-linejoin="round"/>
</svg>
