<?xml version="1.0" encoding="UTF-8"?>
<svg id="Layer_1" data-name="Layer 1" xmlns="http://www.w3.org/2000/svg" viewBox="0 0 426.67 512">
  <defs>
    <style>
      .cls-1 {
        fill: #424242;
      }
    </style>
  </defs>
  <path class="cls-1" d="M330.67,512H96c-52.93,0-96-43.07-96-96V96C0,43.07,43.07,0,96,0h234.67c52.93,0,96,43.07,96,96v320c0,52.93-43.07,96-96,96ZM96,21.33c-41.17,0-74.67,33.49-74.67,74.67v320c0,41.17,33.49,74.67,74.67,74.67h234.67c41.17,0,74.67-33.49,74.67-74.67V96c0-41.17-33.49-74.67-74.67-74.67H96ZM341.33,117.33c0-5.89-4.78-10.67-10.67-10.67h-128c-5.89,0-10.67,4.78-10.67,10.67s4.78,10.67,10.67,10.67h128c5.89,0,10.67-4.78,10.67-10.67ZM341.33,245.33c0-5.89-4.78-10.67-10.67-10.67h-128c-5.89,0-10.67,4.78-10.67,10.67s4.78,10.67,10.67,10.67h128c5.89,0,10.67-4.78,10.67-10.67ZM341.33,373.33c0-5.89-4.78-10.67-10.67-10.67h-128c-5.89,0-10.67,4.78-10.67,10.67s4.78,10.67,10.67,10.67h128c5.89,0,10.67-4.78,10.67-10.67ZM138.67,149.33h-42.67c-5.89,0-10.67-4.78-10.67-10.67v-42.67c0-5.89,4.78-10.67,10.67-10.67h42.67c5.89,0,10.67,4.78,10.67,10.67v42.67c0,5.89-4.78,10.67-10.67,10.67ZM106.67,128h21.33v-21.33h-21.33v21.33ZM138.67,277.33h-42.67c-5.89,0-10.67-4.78-10.67-10.67v-42.67c0-5.89,4.78-10.67,10.67-10.67h42.67c5.89,0,10.67,4.78,10.67,10.67v42.67c0,5.89-4.78,10.67-10.67,10.67ZM106.67,256h21.33v-21.33h-21.33v21.33ZM138.67,405.33h-42.67c-5.89,0-10.67-4.78-10.67-10.67v-42.67c0-5.89,4.78-10.67,10.67-10.67h42.67c5.89,0,10.67,4.78,10.67,10.67v42.67c0,5.89-4.78,10.67-10.67,10.67ZM106.67,384h21.33v-21.33h-21.33v21.33Z"/>
</svg>