<?xml version="1.0" encoding="UTF-8"?>
<svg id="Layer_1" data-name="Layer 1" xmlns="http://www.w3.org/2000/svg" viewBox="0 0 512 512.08">
  <defs>
    <style>
      .cls-1 {
        fill: #424242;
      }
    </style>
  </defs>
  <path class="cls-1" d="M469.7,124.47l-21.7-14.63V32.08c0-5.89-4.78-10.67-10.67-10.67s-10.67,4.78-10.67,10.67v63.36l-116.97-78.93c-32.62-22.02-74.79-21.99-107.37,0L42.3,124.47C15.81,142.33,0,172.09,0,204.05v212.03c0,52.93,43.07,96,96,96h64c5.89,0,10.67-4.78,10.67-10.67v-192c0-17.64,14.36-32,32-32h106.67c17.64,0,32,14.36,32,32v192c0,5.89,4.78,10.67,10.67,10.67h64c52.93,0,96-43.07,96-96v-212.03c0-31.98-15.81-61.72-42.3-79.57ZM490.67,416.08c0,41.17-33.49,74.67-74.67,74.67h-53.33v-181.33c0-29.4-23.91-53.33-53.33-53.33h-106.67c-29.42,0-53.33,23.94-53.33,53.33v181.33h-53.33c-41.17,0-74.67-33.49-74.67-74.67v-212.03c0-24.87,12.29-48,32.9-61.89L214.23,34.19c25.37-17.13,58.18-17.13,83.54,0l160,107.97c20.61,13.89,32.9,37.03,32.9,61.89v212.03Z"/>
</svg>