<svg width="20" height="21" viewBox="0 0 20 21" fill="none" xmlns="http://www.w3.org/2000/svg">
<path fill-rule="evenodd" clip-rule="evenodd" d="M4.70602 5.20541C4.86874 5.04269 5.13256 5.04269 5.29528 5.20541L10.0007 9.9108L14.7061 5.20541C14.8688 5.04269 15.1326 5.04269 15.2953 5.20541C15.458 5.36813 15.458 5.63195 15.2953 5.79467L10.5899 10.5001L15.2953 15.2054C15.458 15.3681 15.458 15.6319 15.2953 15.7946C15.1325 15.9574 14.8687 15.9574 14.706 15.7946L10.0007 11.0893L5.29528 15.7947C5.13256 15.9574 4.86874 15.9574 4.70602 15.7947C4.5433 15.632 4.5433 15.3682 4.70602 15.2054L9.41141 10.5001L4.70602 5.79467C4.5433 5.63195 4.5433 5.36813 4.70602 5.20541Z" fill="#424242"/>
</svg>
