<?xml version="1.0" encoding="UTF-8"?>
<svg id="Layer_1" data-name="Layer 1" xmlns="http://www.w3.org/2000/svg" viewBox="0 0 511.99 511.91">
  <defs>
    <style>
      .cls-1 {
        fill: #940000;
      }
    </style>
  </defs>
  <path class="cls-1" d="M510.83,127.85c-1.9,3.69-5.63,5.8-9.51,5.8-1.64,0-3.29-.38-4.84-1.17L298.22,31.04c-26.41-12.97-58.07-12.95-84.59.06L15.53,132.5c-5.25,2.67-11.67.58-14.36-4.65s-.6-11.67,4.65-14.36L204.07,12.03c32.58-16.02,71.3-16.04,103.7-.06l198.4,101.53c5.25,2.69,7.32,9.13,4.65,14.36h0ZM472.38,274.43c11.97,20.93,18.26,44.74,18.26,68.82v29.99c0,29.72-17.47,55.45-42.67,67.46v17.88c0,29.42-23.94,53.33-53.33,53.33s-53.33-23.91-53.33-53.33v-10.67h-170.65v10.67c0,29.42-23.94,53.33-53.33,53.33s-53.33-23.91-53.33-53.33v-17.88c-25.19-12.01-42.67-37.74-42.67-67.46v-29.99c0-24.09,6.31-47.87,18.26-68.82l43.9-76.82c17.07-29.82,49-48.38,83.35-48.38h178.28c34.35,0,66.28,18.54,83.35,48.38l43.9,76.82h0ZM58.11,285.01c-2.5,4.37-4.71,8.92-6.61,13.57h409c-1.92-4.65-4.12-9.17-6.61-13.57l-43.9-76.82c-13.27-23.21-38.12-37.63-64.83-37.63h-178.3c-26.71,0-51.56,14.42-64.83,37.63l-43.9,76.82h0ZM149.31,447.91h-53.33c-3.63,0-7.19-.26-10.67-.77v11.43c0,17.64,14.36,32,32,32s32-14.36,32-32v-10.67ZM426.64,447.15c-3.48.49-7.04.77-10.67.77h-53.33v10.67c0,17.64,14.36,32,32,32s32-14.36,32-32v-11.43ZM469.31,343.25c0-7.85-.81-15.68-2.37-23.34h-61.63v32c0,5.89-4.78,10.67-10.67,10.67s-10.67-4.78-10.67-10.67v-32H128v32c0,5.89-4.78,10.67-10.67,10.67s-10.67-4.78-10.67-10.67v-32h-61.63c-1.56,7.66-2.37,15.49-2.37,23.34v29.99c0,29.42,23.94,53.33,53.33,53.33h320c29.4,0,53.33-23.91,53.33-53.33v-29.99h-.02Z"/>
</svg>