<?xml version="1.0" encoding="UTF-8"?>
<svg id="Layer_1" data-name="Layer 1" xmlns="http://www.w3.org/2000/svg" viewBox="0 0 512 426.67">
  <defs>
    <style>
      .cls-1 {
        fill: #424242;
      }
    </style>
  </defs>
  <path class="cls-1" d="M416,426.67H96c-52.93,0-96-43.07-96-96V96C0,43.07,43.07,0,96,0h320c52.93,0,96,43.07,96,96v234.67c0,52.93-43.07,96-96,96ZM96,21.33c-41.17,0-74.67,33.49-74.67,74.67v234.67c0,41.17,33.49,74.67,74.67,74.67h320c41.17,0,74.67-33.49,74.67-74.67V96c0-41.17-33.49-74.67-74.67-74.67H96ZM106.67,330.67V96c0-5.89-4.78-10.67-10.67-10.67s-10.67,4.78-10.67,10.67v234.67c0,5.89,4.78,10.67,10.67,10.67s10.67-4.78,10.67-10.67ZM320,330.67V96c0-5.89-4.78-10.67-10.67-10.67s-10.67,4.78-10.67,10.67v234.67c0,5.89,4.78,10.67,10.67,10.67s10.67-4.78,10.67-10.67ZM192,320V106.67c0-11.78-9.54-21.33-21.33-21.33s-21.33,9.56-21.33,21.33v213.33c0,11.8,9.54,21.33,21.33,21.33s21.33-9.54,21.33-21.33ZM256,320V106.67c0-11.78-9.54-21.33-21.33-21.33s-21.33,9.56-21.33,21.33v213.33c0,11.8,9.54,21.33,21.33,21.33s21.33-9.54,21.33-21.33ZM426.67,320V106.67c0-11.78-9.54-21.33-21.33-21.33s-21.33,9.56-21.33,21.33v213.33c0,11.8,9.54,21.33,21.33,21.33s21.33-9.54,21.33-21.33ZM362.67,330.67V96c0-5.89-4.78-10.67-10.67-10.67s-10.67,4.78-10.67,10.67v234.67c0,5.89,4.78,10.67,10.67,10.67s10.67-4.78,10.67-10.67Z"/>
</svg>