<svg width="85" height="80" viewBox="0 0 85 80" fill="none" xmlns="http://www.w3.org/2000/svg">
<path opacity="0.5" d="M78.0185 0H6.98153C3.12574 0 0 2.7615 0 6.16798V73.832C0 77.2385 3.12574 80 6.98153 80H78.0185C81.8743 80 85 77.2385 85 73.832V6.16798C85 2.7615 81.8743 0 78.0185 0Z" fill="#EDEDED"/>
<path d="M27.8801 20.4512V53.5003H26.6536C26.5684 53.5003 26.4832 53.5028 26.3979 53.508C26.3614 53.508 26.3219 53.5106 26.2853 53.5158C26.2153 53.5184 26.1453 53.5235 26.0753 53.5339V21.3902H24.0484C23.7288 21.3902 23.4153 21.4264 23.1201 21.4911C23.7927 20.8521 24.7697 20.4512 25.8562 20.4512H27.8801Z" fill="white"/>
<path d="M26.5204 21.6543V53.446C26.4535 53.4537 26.3897 53.4614 26.326 53.469C26.2591 53.4793 26.1953 53.4869 26.1316 53.4997C26.0678 53.51 26.0041 53.5228 25.9403 53.5356C25.7076 53.5816 25.4845 53.6456 25.2709 53.7198C25.2104 53.7402 25.153 53.7607 25.0956 53.7837C25.0574 53.7965 25.0223 53.8119 24.9841 53.8272C24.9458 53.8426 24.9107 53.8579 24.8725 53.8758C24.8597 53.881 24.8438 53.8886 24.8279 53.8963C24.7322 53.9372 24.6398 53.9833 24.5474 54.0319C24.5346 54.0421 24.5187 54.0498 24.5027 54.0575C24.4422 54.0907 24.3816 54.124 24.3242 54.1598C24.2637 54.1956 24.2031 54.234 24.1457 54.2724C24.031 54.3492 23.9194 54.431 23.8142 54.5155C22.9759 55.1883 22.45 56.1171 22.4404 57.143V23.8162C22.4404 23.0231 22.8134 22.299 23.4254 21.7541C23.7346 21.6901 24.0629 21.6543 24.3976 21.6543H26.5204Z" fill="#CB9390"/>
<path d="M62.5595 53.5337V61.3532H60.8409V54.4962H26.5195V53.5683C26.5862 53.5603 26.6529 53.5523 26.7195 53.5496C26.7543 53.5443 26.792 53.5417 26.8267 53.5417C26.9079 53.5363 26.9891 53.5337 27.0702 53.5337H62.5595Z" fill="white"/>
<path d="M61.2004 54.4657V61.3532H26.7825C24.387 61.3532 22.4404 59.596 22.4404 57.4274V57.3927C22.4493 56.3218 22.9367 55.3524 23.7135 54.65C23.811 54.5619 23.9144 54.4764 24.0207 54.3963C24.0739 54.3562 24.13 54.3162 24.1861 54.2788C24.2393 54.2414 24.2954 54.2067 24.3515 54.172C24.3663 54.164 24.3811 54.1559 24.3929 54.1453C24.4786 54.0972 24.5642 54.0491 24.6528 54.0037C24.6676 53.9957 24.6824 53.9877 24.6942 53.9824C24.7296 53.9637 24.7621 53.9476 24.7976 53.9316C24.833 53.9156 24.8655 53.8996 24.901 53.8862C24.9541 53.8622 25.0073 53.8408 25.0634 53.8194C25.2613 53.742 25.4681 53.6752 25.6837 53.6272C25.7428 53.6138 25.8019 53.6005 25.8609 53.5898C25.92 53.5764 25.9791 53.5684 26.0411 53.5577C26.1002 53.5497 26.1593 53.5417 26.2213 53.5337V54.4657H61.2004Z" fill="white"/>
<path d="M26.5204 21.6543V54.5858H25.2359C24.7386 54.5858 24.2637 54.6477 23.8142 54.7637C23.3138 54.8925 22.8516 55.0885 22.4404 55.3385V23.8325C22.4404 23.0334 22.8134 22.3039 23.4254 21.7548C23.7346 21.6904 24.0629 21.6543 24.3976 21.6543H26.5204Z" fill="white"/>
<path d="M61.2004 54.7368V61.3534H26.7825C24.387 61.3534 22.4404 59.6652 22.4404 57.582V55.486C22.8215 55.2371 23.2498 55.0421 23.7135 54.9138C24.13 54.7984 24.5701 54.7368 25.0309 54.7368H61.2004Z" fill="white"/>
<path d="M62.5599 20.4512V53.5339H27.8799V20.4512H62.5599Z" fill="white"/>
<path fill-rule="evenodd" clip-rule="evenodd" d="M27.8799 20.1915C27.8799 20.0027 28.0499 19.8496 28.2597 19.8496H62.86C63.0698 19.8496 63.2399 20.0027 63.2399 20.1915V53.7934C63.2399 53.9822 63.0698 54.1353 62.86 54.1353C62.6503 54.1353 62.4802 53.9822 62.4802 53.7934V20.5334H28.2597C28.0499 20.5334 27.8799 20.3804 27.8799 20.1915Z" fill="black"/>
<path fill-rule="evenodd" clip-rule="evenodd" d="M26.0253 20.5294C24.1278 20.5294 22.5886 21.7917 22.5886 23.3478V57.4045C22.5886 57.5922 22.4031 57.7443 22.1742 57.7443C21.9453 57.7443 21.7598 57.5922 21.7598 57.4045V23.3478C21.7598 21.4162 23.67 19.8496 26.0253 19.8496H28.1453C28.3742 19.8496 28.5598 20.0018 28.5598 20.1895V53.5899C28.5598 53.7776 28.3742 53.9298 28.1453 53.9298C27.9164 53.9298 27.7309 53.7776 27.7309 53.5899V20.5294H26.0253Z" fill="black"/>
<path fill-rule="evenodd" clip-rule="evenodd" d="M26.5088 53.6161C25.4105 53.6161 24.4153 54.0113 23.6951 54.6496C22.9856 55.2808 22.54 56.1507 22.5315 57.1111V57.144C22.5315 59.0913 24.3118 60.6692 26.5088 60.6692H62.468V53.6161H26.5088ZM23.1491 54.1662C24.0079 53.405 25.1971 52.9321 26.5088 52.9321H62.8539C63.067 52.9321 63.2398 53.0852 63.2398 53.2741V61.0112C63.2398 61.2001 63.067 61.3532 62.8539 61.3532H26.5088C23.8856 61.3532 21.7598 59.469 21.7598 57.144V57.1072C21.7695 55.9583 22.3031 54.9188 23.1486 54.1666L23.1491 54.1662Z" fill="black"/>
<path fill-rule="evenodd" clip-rule="evenodd" d="M53.7197 57.4438C53.7197 57.2777 53.884 57.1431 54.0867 57.1431H60.8328C61.0354 57.1431 61.1997 57.2777 61.1997 57.4438C61.1997 57.6099 61.0354 57.7446 60.8328 57.7446H54.0867C53.884 57.7446 53.7197 57.6099 53.7197 57.4438Z" fill="black"/>
<path fill-rule="evenodd" clip-rule="evenodd" d="M29.9199 57.4438C29.9199 57.2777 30.0911 57.1431 30.3022 57.1431H47.8977C48.1088 57.1431 48.2799 57.2777 48.2799 57.4438C48.2799 57.6099 48.1088 57.7446 47.8977 57.7446H30.3022C30.0911 57.7446 29.9199 57.6099 29.9199 57.4438Z" fill="black"/>
<path d="M46.863 41.5035H45.5626C46.0833 37.7774 51.9355 38.3492 50.8996 32.8391C50.2719 29.727 47.426 28.2171 43.6147 28.2171C42.5957 28.2171 41.6499 28.3488 40.7998 28.6071C41.9511 27.9904 43.367 27.6689 44.9546 27.6689C48.7659 27.6689 51.6117 29.1789 52.2366 32.291C53.3232 38.0567 46.863 37.1634 46.863 41.5035Z" fill="white"/>
<path d="M45.4266 41.5036H42.3863C42.4696 34.9999 48.217 36.4014 47.74 33.2467C47.5676 32.105 46.3606 31.4935 44.8059 31.4935C44.053 31.4935 43.3777 31.7061 42.8604 32.084C42.2397 32.5328 41.8431 33.2178 41.7972 34.0524H37.4004C37.4176 31.5119 38.6188 29.6799 40.5643 28.6589C41.4322 28.4017 42.3978 28.2705 43.438 28.2705C47.329 28.2705 50.2344 29.7744 50.8752 32.874C51.9327 38.362 45.9583 37.7924 45.4266 41.5036Z" fill="#941303"/>
<path d="M47.5998 45.4367C47.5998 47.0843 46.3963 47.9797 45.0874 48.1201C45.678 47.6738 46.0802 46.9721 46.0802 46.0205C46.0802 44.0445 44.3882 43.1435 42.8398 43.3119C44.4872 42.0516 47.5998 42.7589 47.5998 45.4367Z" fill="white"/>
<path d="M45.5602 46.0163C45.5602 46.9608 45.2373 47.6573 44.7633 48.1003C43.5207 48.2674 42.1602 47.3787 42.1602 45.4369C42.1602 44.4813 42.483 43.7792 42.9596 43.3278C44.2022 43.1607 45.5602 44.055 45.5602 46.0163Z" fill="#941303"/>
<path d="M45.4266 41.5036H42.3863C42.4696 34.9999 48.217 36.4014 47.74 33.2467C47.5676 32.105 46.3606 31.4935 44.8059 31.4935C44.053 31.4935 43.3777 31.7061 42.8604 32.084C41.688 32.2651 40.7914 32.9947 40.5155 34.0524H37.4004C37.4176 31.5119 38.6188 29.6799 40.5643 28.6589C41.4322 28.4017 42.3978 28.2705 43.438 28.2705C47.329 28.2705 50.2344 29.7744 50.8752 32.874C51.9327 38.362 45.9583 37.7924 45.4266 41.5036Z" fill="#941303"/>
<path d="M45.5602 46.0163C45.5602 46.9608 45.2373 47.6573 44.7633 48.1003C43.5207 48.2674 42.1602 47.3787 42.1602 45.4369C42.1602 44.4813 42.483 43.7792 42.9596 43.3278C44.2022 43.1607 45.5602 44.055 45.5602 46.0163Z" fill="white"/>
<path fill-rule="evenodd" clip-rule="evenodd" d="M37.5064 33.9869H41.3244C41.5776 32.4442 43.008 31.4293 44.7983 31.4293C46.4883 31.4293 48.0137 32.0797 48.2327 33.4739C48.3018 33.9134 48.2608 34.2938 48.119 34.6307C47.9776 34.9669 47.7452 35.2378 47.4687 35.4703C47.1954 35.7001 46.8714 35.8984 46.5397 36.0869C46.4089 36.1612 46.2797 36.2326 46.15 36.3042C45.9383 36.4211 45.7254 36.5386 45.5028 36.6707C44.8049 37.085 44.1181 37.5837 43.5955 38.3541C43.1123 39.0663 42.7538 40.0344 42.6869 41.4237H46.4506C46.6073 39.5332 48.0656 38.6007 49.399 37.7481C49.559 37.6458 49.7172 37.5446 49.8711 37.4431C50.6473 36.9311 51.3361 36.407 51.7741 35.6863C52.2056 34.976 52.4148 34.0372 52.1402 32.6644C51.8266 31.2105 50.9674 30.1436 49.7152 29.433C48.453 28.7167 46.7683 28.3503 44.7983 28.3503C42.6335 28.3503 40.8192 28.8945 39.5469 29.897C38.3551 30.836 37.6045 32.2039 37.5064 33.9869ZM39.0286 29.3899C40.4751 28.2502 42.4897 27.6689 44.7983 27.6689C46.8692 27.6689 48.7134 28.0533 50.1364 28.8608C51.5688 29.6736 52.5507 30.9029 52.903 32.54L52.9039 32.5442C53.2031 34.0371 52.9874 35.1367 52.4587 36.007C51.9361 36.8671 51.1289 37.4656 50.3371 37.9878C50.1758 38.0942 50.0157 38.1975 49.8582 38.299C48.4297 39.2204 47.2127 40.0052 47.2127 41.7644C47.2127 41.9525 47.039 42.105 46.8247 42.105H42.2885C42.1849 42.105 42.0855 42.0686 42.0126 42.0039C41.9398 41.9392 41.8994 41.8515 41.9006 41.7605C41.9221 40.0898 42.3233 38.8981 42.9288 38.0054C43.5339 37.1135 44.3247 36.5476 45.0683 36.1063C45.2982 35.9698 45.5347 35.8391 45.7562 35.7167C45.8831 35.6465 46.0051 35.5791 46.1181 35.5149C46.4408 35.3315 46.7139 35.1616 46.9321 34.9782C47.147 34.7974 47.3005 34.6102 47.3912 34.3946C47.4815 34.1798 47.5187 33.9149 47.464 33.567L47.464 33.567C47.3249 32.6813 46.3374 32.1106 44.7983 32.1106C43.2734 32.1106 42.1373 33.0063 42.0642 34.3438C42.0543 34.5254 41.8838 34.6682 41.6767 34.6682H37.1077C37.0043 34.6682 36.9052 34.632 36.8324 34.5676C36.7596 34.5031 36.719 34.4159 36.7197 34.3251C36.7368 32.2096 37.577 30.5338 39.0286 29.3899Z" fill="black"/>
<path fill-rule="evenodd" clip-rule="evenodd" d="M42.9688 43.8556C42.5503 44.1885 42.2518 44.7006 42.2518 45.4198C42.2518 46.1292 42.5494 46.6371 42.9682 46.969C43.3921 47.3048 43.9632 47.4785 44.542 47.4804C45.1206 47.4822 45.6904 47.3123 46.1131 46.9784C46.5307 46.6483 46.8292 46.1388 46.8292 45.4198C46.8292 44.7006 46.5307 44.1885 46.1121 43.8556C45.6887 43.5188 45.1186 43.3462 44.5405 43.3462C43.9624 43.3462 43.3922 43.5188 42.9688 43.8556ZM46.646 43.3939C47.2304 43.8587 47.6005 44.5433 47.6005 45.4198C47.6005 46.2963 47.2303 46.9791 46.6451 47.4415C46.0649 47.9 45.2975 48.1225 44.539 48.1201C43.7806 48.1176 43.0145 47.8903 42.4355 47.4315C41.8514 46.9688 41.4805 46.2887 41.4805 45.4198C41.4805 44.5433 41.8506 43.8587 42.4349 43.3939C43.0144 42.9329 43.7814 42.7065 44.5405 42.7065C45.2995 42.7065 46.0665 42.9329 46.646 43.3939Z" fill="black"/>
<path d="M78.2003 10.0254V23.239C78.2003 24.0649 77.5146 24.7491 76.636 24.8357V29.4735L74.2651 27.3525V26.3904C75.1466 26.3038 75.8294 25.6196 75.8294 24.7937V11.5801C75.8294 10.694 75.0458 9.97559 74.0721 9.97559H48.2803C48.3062 9.11304 49.084 8.4209 50.0347 8.4209H76.443C77.4167 8.4209 78.2003 9.13926 78.2003 10.0254Z" fill="white"/>
<path d="M76.1603 11.7807V24.5876C76.1603 25.3881 75.4694 26.0513 74.5774 26.1351V27.0677L71.7381 24.6359H50.0585C49.079 24.6359 48.2803 23.9346 48.2803 23.0808V10.2739C48.2803 10.2586 48.2803 10.2408 48.2832 10.2256H74.3821C75.3674 10.2256 76.1603 10.9218 76.1603 11.7807Z" fill="#C1C1C1"/>
<path d="M76.1603 11.7807V24.5876C76.1603 25.3881 75.4694 26.0513 74.5774 26.1351V27.0677L71.7381 24.6359H50.0585C49.079 24.6359 48.2803 23.9346 48.2803 23.0808V10.2739C48.2803 10.2586 48.2803 10.2408 48.2832 10.2256H74.3821C75.3674 10.2256 76.1603 10.9218 76.1603 11.7807Z" fill="#C1C1C1"/>
<path fill-rule="evenodd" clip-rule="evenodd" d="M47.5996 10.3052C47.5996 9.26524 48.5748 8.4209 49.7737 8.4209H76.7056C77.9111 8.4209 78.8796 9.26595 78.8796 10.3052V23.1044C78.8796 23.9673 78.2046 24.7007 77.2843 24.9204V29.1434C77.2843 29.2764 77.192 29.3964 77.0501 29.4478C76.9083 29.4993 76.7445 29.4721 76.6348 29.3789L71.4638 24.9887H49.7737C48.574 24.9887 47.5996 24.1386 47.5996 23.1044V10.3052ZM49.7737 9.08117C48.9983 9.08117 48.3635 9.62849 48.3635 10.3052V23.1044C48.3635 23.7768 48.9991 24.3285 49.7737 24.3285H71.62C71.7201 24.3285 71.8162 24.3624 71.8876 24.4231L76.5205 28.3564V24.6484C76.5205 24.4798 76.6674 24.3383 76.8613 24.3202C77.5639 24.2545 78.1157 23.7329 78.1157 23.1044V10.3052C78.1157 9.62778 77.486 9.08117 76.7056 9.08117H49.7737Z" fill="black"/>
<path d="M18.6193 65.7459H14.377L9.08014 70.3759V65.7354C8.18161 65.6489 7.48047 64.9646 7.48047 64.1414V50.9278C7.48047 50.0416 8.28178 49.3232 9.27752 49.3232H36.2834C37.2733 49.3232 38.0805 50.0416 38.0805 50.9278V64.1414C38.0805 65.0223 37.2733 65.7459 36.2834 65.7459H18.6193Z" fill="white"/>
<path fill-rule="evenodd" clip-rule="evenodd" d="M9.60726 49.9835C8.84378 49.9835 8.22772 50.5301 8.22772 51.2076V64.0067C8.22772 64.6352 8.76759 65.1568 9.45489 65.2226C9.64458 65.2407 9.78833 65.3822 9.78833 65.5508V69.2587L14.3204 65.3254C14.3903 65.2648 14.4843 65.2308 14.5822 65.2308H35.9537C36.7114 65.2308 37.3332 64.6791 37.3332 64.0067V51.2076C37.3332 50.5308 36.7122 49.9835 35.9537 49.9835H9.60726ZM7.48047 51.2076C7.48047 50.1683 8.4279 49.3232 9.60726 49.3232H35.9537C37.1265 49.3232 38.0805 50.1676 38.0805 51.2076V64.0067C38.0805 65.0409 37.1273 65.8911 35.9537 65.8911H14.735L9.67651 70.2813C9.56914 70.3744 9.40897 70.4016 9.27017 70.3502C9.13138 70.2987 9.04108 70.1787 9.04108 70.0457V65.8228C8.14081 65.6031 7.48047 64.8696 7.48047 64.0067V51.2076Z" fill="black"/>
<path d="M56.7801 18.6466C57.719 18.6466 58.4801 17.8387 58.4801 16.8421C58.4801 15.8455 57.719 15.0376 56.7801 15.0376C55.8412 15.0376 55.0801 15.8455 55.0801 16.8421C55.0801 17.8387 55.8412 18.6466 56.7801 18.6466Z" fill="white"/>
<path fill-rule="evenodd" clip-rule="evenodd" d="M56.7804 15.6453C55.9086 15.6453 55.2019 16.1811 55.2019 16.8421C55.2019 17.5031 55.9086 18.0389 56.7804 18.0389C57.6521 18.0389 58.3588 17.5031 58.3588 16.8421C58.3588 16.1811 57.6521 15.6453 56.7804 15.6453ZM54.4004 16.8421C54.4004 15.8455 55.466 15.0376 56.7804 15.0376C58.0948 15.0376 59.1604 15.8455 59.1604 16.8421C59.1604 17.8387 58.0948 18.6466 56.7804 18.6466C55.466 18.6466 54.4004 17.8387 54.4004 16.8421Z" fill="black"/>
<path d="M63.2402 18.6466C64.3669 18.6466 65.2802 17.8387 65.2802 16.8421C65.2802 15.8455 64.3669 15.0376 63.2402 15.0376C62.1135 15.0376 61.2002 15.8455 61.2002 16.8421C61.2002 17.8387 62.1135 18.6466 63.2402 18.6466Z" fill="white"/>
<path fill-rule="evenodd" clip-rule="evenodd" d="M63.2402 15.6453C62.493 15.6453 61.8872 16.1811 61.8872 16.8421C61.8872 17.5031 62.493 18.0389 63.2402 18.0389C63.9874 18.0389 64.5931 17.5031 64.5931 16.8421C64.5931 16.1811 63.9874 15.6453 63.2402 15.6453ZM61.2002 16.8421C61.2002 15.8455 62.1135 15.0376 63.2402 15.0376C64.3669 15.0376 65.2802 15.8455 65.2802 16.8421C65.2802 17.8387 64.3669 18.6466 63.2402 18.6466C62.1135 18.6466 61.2002 17.8387 61.2002 16.8421Z" fill="black"/>
<path d="M69.7 18.6466C70.6389 18.6466 71.4 17.8387 71.4 16.8421C71.4 15.8455 70.6389 15.0376 69.7 15.0376C68.7611 15.0376 68 15.8455 68 16.8421C68 17.8387 68.7611 18.6466 69.7 18.6466Z" fill="white"/>
<path fill-rule="evenodd" clip-rule="evenodd" d="M69.7003 15.6453C68.8286 15.6453 68.1219 16.1811 68.1219 16.8421C68.1219 17.5031 68.8286 18.0389 69.7003 18.0389C70.5721 18.0389 71.2788 17.5031 71.2788 16.8421C71.2788 16.1811 70.5721 15.6453 69.7003 15.6453ZM67.3203 16.8421C67.3203 15.8455 68.3859 15.0376 69.7003 15.0376C71.0148 15.0376 72.0803 15.8455 72.0803 16.8421C72.0803 17.8387 71.0148 18.6466 69.7003 18.6466C68.3859 18.6466 67.3203 17.8387 67.3203 16.8421Z" fill="black"/>
<path fill-rule="evenodd" clip-rule="evenodd" d="M15.6396 54.7368C15.6396 54.4046 15.8075 54.1353 16.0145 54.1353H22.7448C22.9518 54.1353 23.1196 54.4046 23.1196 54.7368C23.1196 55.069 22.9518 55.3383 22.7448 55.3383H16.0145C15.8075 55.3383 15.6396 55.069 15.6396 54.7368Z" fill="black"/>
<path fill-rule="evenodd" clip-rule="evenodd" d="M26.5195 57.4438C26.5195 57.2777 26.6857 57.1431 26.8906 57.1431H29.5484C29.7534 57.1431 29.9195 57.2777 29.9195 57.4438C29.9195 57.6099 29.7534 57.7446 29.5484 57.7446H26.8906C26.6857 57.7446 26.5195 57.6099 26.5195 57.4438Z" fill="black"/>
<path fill-rule="evenodd" clip-rule="evenodd" d="M15.6396 57.4438C15.6396 57.2777 15.8008 57.1431 15.9996 57.1431H24.1197C24.3185 57.1431 24.4796 57.2777 24.4796 57.4438C24.4796 57.6099 24.3185 57.7446 24.1197 57.7446H15.9996C15.8008 57.7446 15.6396 57.6099 15.6396 57.4438Z" fill="black"/>
<path fill-rule="evenodd" clip-rule="evenodd" d="M15.6396 60.4511C15.6396 60.285 15.8068 60.1504 16.013 60.1504H29.5463C29.7525 60.1504 29.9196 60.285 29.9196 60.4511C29.9196 60.6172 29.7525 60.7519 29.5463 60.7519H16.013C15.8068 60.7519 15.6396 60.6172 15.6396 60.4511Z" fill="black"/>
<path fill-rule="evenodd" clip-rule="evenodd" d="M70.38 33.0825C70.5678 33.0825 70.72 33.2475 70.72 33.4511V36.9244C70.72 37.128 70.5678 37.293 70.38 37.293C70.1923 37.293 70.04 37.128 70.04 36.9244V33.4511C70.04 33.2475 70.1923 33.0825 70.38 33.0825Z" fill="black"/>
<path fill-rule="evenodd" clip-rule="evenodd" d="M68 35.188C68 35.0219 68.1866 34.8872 68.4167 34.8872H72.3433C72.5734 34.8872 72.76 35.0219 72.76 35.188C72.76 35.3541 72.5734 35.4887 72.3433 35.4887H68.4167C68.1866 35.4887 68 35.3541 68 35.188Z" fill="black"/>
<path fill-rule="evenodd" clip-rule="evenodd" d="M46.5802 67.9697C46.768 67.9697 46.9202 68.1112 46.9202 68.2857V71.2628C46.9202 71.4373 46.768 71.5788 46.5802 71.5788C46.3925 71.5788 46.2402 71.4373 46.2402 71.2628V68.2857C46.2402 68.1112 46.3925 67.9697 46.5802 67.9697Z" fill="black"/>
<path fill-rule="evenodd" clip-rule="evenodd" d="M44.2002 69.7744C44.2002 69.4422 44.3868 69.1729 44.6169 69.1729H48.5435C48.7736 69.1729 48.9602 69.4422 48.9602 69.7744C48.9602 70.1066 48.7736 70.3759 48.5435 70.3759H44.6169C44.3868 70.3759 44.2002 70.1066 44.2002 69.7744Z" fill="black"/>
<path fill-rule="evenodd" clip-rule="evenodd" d="M14.6203 21.0527C14.808 21.0527 14.9603 21.2086 14.9603 21.4009V25.5166C14.9603 25.7089 14.808 25.8648 14.6203 25.8648C14.4325 25.8648 14.2803 25.7089 14.2803 25.5166V21.4009C14.2803 21.2086 14.4325 21.0527 14.6203 21.0527Z" fill="black"/>
<path fill-rule="evenodd" clip-rule="evenodd" d="M11.5596 23.7592C11.5596 23.5931 11.7357 23.4585 11.9529 23.4585H16.6062C16.8235 23.4585 16.9996 23.5931 16.9996 23.7592C16.9996 23.9253 16.8235 24.06 16.6062 24.06H11.9529C11.7357 24.06 11.5596 23.9253 11.5596 23.7592Z" fill="black"/>
<path fill-rule="evenodd" clip-rule="evenodd" d="M8.83984 15.9399C8.83984 15.7738 9.01405 15.6392 9.22894 15.6392H26.1307C26.3456 15.6392 26.5198 15.7738 26.5198 15.9399C26.5198 16.106 26.3456 16.2407 26.1307 16.2407H9.22894C9.01405 16.2407 8.83984 16.106 8.83984 15.9399Z" fill="black"/>
<path fill-rule="evenodd" clip-rule="evenodd" d="M21.0801 12.9321C21.0801 12.766 21.2508 12.6313 21.4613 12.6313H26.1388C26.3494 12.6313 26.5201 12.766 26.5201 12.9321C26.5201 13.0982 26.3494 13.2329 26.1388 13.2329H21.4613C21.2508 13.2329 21.0801 13.0982 21.0801 12.9321Z" fill="black"/>
<path fill-rule="evenodd" clip-rule="evenodd" d="M8.83984 12.9321C8.83984 12.766 9.01327 12.6313 9.2272 12.6313H17.9725C18.1864 12.6313 18.3598 12.766 18.3598 12.9321C18.3598 13.0982 18.1864 13.2329 17.9725 13.2329H9.2272C9.01327 13.2329 8.83984 13.0982 8.83984 12.9321Z" fill="black"/>
<path fill-rule="evenodd" clip-rule="evenodd" d="M8.83984 9.92478C8.83984 9.75867 9.01071 9.62402 9.2215 9.62402H19.3382C19.549 9.62402 19.7198 9.75867 19.7198 9.92478C19.7198 10.0909 19.549 10.2255 19.3382 10.2255H9.2215C9.01071 10.2255 8.83984 10.0909 8.83984 9.92478Z" fill="black"/>
<path fill-rule="evenodd" clip-rule="evenodd" d="M61.2002 70.6767C61.2002 70.5106 61.3677 70.376 61.5743 70.376H77.8261C78.0327 70.376 78.2002 70.5106 78.2002 70.6767C78.2002 70.8428 78.0327 70.9775 77.8261 70.9775H61.5743C61.3677 70.9775 61.2002 70.8428 61.2002 70.6767Z" fill="black"/>
<path fill-rule="evenodd" clip-rule="evenodd" d="M61.2002 67.6694C61.2002 67.5033 61.3617 67.3687 61.5609 67.3687H71.0395C71.2387 67.3687 71.4002 67.5033 71.4002 67.6694C71.4002 67.8355 71.2387 67.9702 71.0395 67.9702H61.5609C61.3617 67.9702 61.2002 67.8355 61.2002 67.6694Z" fill="black"/>
<path fill-rule="evenodd" clip-rule="evenodd" d="M73.4404 67.6694C73.4404 67.5033 73.6087 67.3687 73.8164 67.3687H77.8245C78.0321 67.3687 78.2004 67.5033 78.2004 67.6694C78.2004 67.8355 78.0321 67.9702 77.8245 67.9702H73.8164C73.6087 67.9702 73.4404 67.8355 73.4404 67.6694Z" fill="black"/>
<path fill-rule="evenodd" clip-rule="evenodd" d="M67.3203 64.6616C67.3203 64.4955 67.4911 64.3608 67.7019 64.3608H77.8188C78.0295 64.3608 78.2003 64.4955 78.2003 64.6616C78.2003 64.8277 78.0295 64.9623 77.8188 64.9623H67.7019C67.4911 64.9623 67.3203 64.8277 67.3203 64.6616Z" fill="black"/>
</svg>
