<?xml version="1.0" encoding="UTF-8"?>
<svg id="Layer_1" data-name="Layer 1" xmlns="http://www.w3.org/2000/svg" viewBox="0 0 512.16 512.03">
  <path d="M362.67,394.69v21.33c0,52.91-43.09,96-96,96H96c-52.91,0-96-43.09-96-96v-170.67c0-52.91,43.09-96,96-96h42.67c5.97,0,10.67,4.69,10.67,10.67s-4.69,10.67-10.67,10.67h-42.67c-41.17,0-74.67,33.49-74.67,74.67v170.67c0,41.17,33.49,74.67,74.67,74.67h170.67c41.17,0,74.67-33.49,74.67-74.67v-21.33c0-5.97,4.69-10.67,10.67-10.67s10.67,4.69,10.67,10.67ZM496.43,122.48L381.01,3.23c-4.05-4.27-10.88-4.27-15.15-.21-4.27,4.05-4.27,10.88-.21,15.15l115.63,119.25c3.63,3.63,5.97,7.89,7.47,12.59-.85-.21-1.92-.64-2.99-.64h-219.09c-52.91,0-96,43.09-96,96v128c0,5.97,4.69,10.67,10.67,10.67s10.67-4.69,10.67-10.67v-128c0-41.17,33.49-74.67,74.67-74.67h219.09s1.92-.21,2.99-.64c-1.49,4.69-3.84,8.96-7.47,12.59l-115.41,119.04c-4.05,4.27-4.05,10.88.21,15.15,2.13,1.92,4.69,2.99,7.47,2.99s5.55-1.07,7.68-3.2l115.41-119.04c20.69-20.69,20.69-54.61,0-75.31l-.21.21Z"/>
</svg>