<?xml version="1.0" encoding="UTF-8"?>
<svg id="Layer_1" data-name="Layer 1" xmlns="http://www.w3.org/2000/svg" viewBox="0 0 494.89 511.79">
  <defs>
    <style>
      .cls-1 {
        fill: #fff;
      }
    </style>
  </defs>
  <path class="cls-1" d="M254.91,210.35l-28.37-16.64c6.19-13.65,10.03-28.59,10.03-44.37s-3.84-30.93-10.03-44.37l28.37-16.64c5.12-2.99,6.83-9.6,3.84-14.51-2.99-5.12-9.6-6.83-14.51-3.84l-28.37,16.64c-17.49-23.68-44.37-39.68-75.09-42.67V10.67c0-5.97-4.69-10.67-10.67-10.67s-10.67,4.69-10.67,10.67v33.07c-30.72,3.2-57.6,18.99-75.09,42.67l-28.37-16.64c-5.12-2.99-11.52-1.28-14.51,3.84s-1.28,11.52,3.84,14.51l28.37,16.64c-6.19,13.65-10.03,28.59-10.03,44.37s3.84,30.93,10.03,44.37l-28.37,16.64c-5.12,2.99-6.83,9.6-3.84,14.51,1.92,3.41,5.55,5.33,9.17,5.33,1.92,0,3.63-.43,5.33-1.49l28.37-16.64c17.49,23.68,44.37,39.68,75.09,42.67v33.07c0,5.97,4.69,10.67,10.67,10.67s10.67-4.69,10.67-10.67v-33.07c30.72-3.2,57.6-18.99,75.09-42.67l28.37,16.64c1.71,1.07,3.63,1.49,5.33,1.49,3.63,0,7.25-1.92,9.17-5.33,2.99-5.12,1.28-11.52-3.84-14.51v.21ZM129.9,234.67c-47.15,0-85.33-38.19-85.33-85.33s38.19-85.33,85.33-85.33,85.33,38.19,85.33,85.33-38.19,85.33-85.33,85.33h0ZM489.58,423.68l-28.37-16.64c6.19-13.65,10.03-28.59,10.03-44.37s-3.84-30.93-10.03-44.37l28.37-16.64c5.12-2.99,6.83-9.6,3.84-14.51-2.99-5.12-9.6-6.83-14.51-3.84l-28.37,16.64c-17.49-23.68-44.37-39.68-75.09-42.67v-33.07c0-5.97-4.69-10.67-10.67-10.67s-10.67,4.69-10.67,10.67v33.07c-30.72,3.2-57.6,18.99-75.09,42.67l-28.37-16.64c-5.12-2.99-11.52-1.28-14.51,3.84-2.99,5.12-1.28,11.52,3.84,14.51l28.37,16.64c-6.19,13.65-10.03,28.59-10.03,44.37s3.84,30.93,10.03,44.37l-28.37,16.64c-5.12,2.99-6.83,9.6-3.84,14.51,1.92,3.41,5.55,5.33,9.17,5.33,1.92,0,3.63-.43,5.33-1.49l28.37-16.64c17.49,23.68,44.37,39.68,75.09,42.67v33.07c0,5.97,4.69,10.67,10.67,10.67s10.67-4.69,10.67-10.67v-33.07c30.72-3.2,57.6-18.99,75.09-42.67l28.37,16.64c1.71,1.07,3.63,1.49,5.33,1.49,3.63,0,7.25-1.92,9.17-5.33,2.99-5.12,1.28-11.52-3.84-14.51ZM364.56,448c-47.15,0-85.33-38.19-85.33-85.33s38.19-85.33,85.33-85.33,85.33,38.19,85.33,85.33-38.19,85.33-85.33,85.33Z"/>
</svg>