<?xml version="1.0" encoding="UTF-8"?>
<svg id="Layer_1" data-name="Layer 1" xmlns="http://www.w3.org/2000/svg" viewBox="0 0 512 512">
  <defs>
    <style>
      .cls-1 {
        fill: #fff;
      }
    </style>
  </defs>
  <path class="cls-1" d="M437.33,234.67h-53.33v-74.67c0-41.17-33.49-74.67-74.67-74.67h-32C277.33,38.27,239.06,0,192,0s-85.33,38.27-85.33,85.33h-32C33.49,85.33,0,118.83,0,160v128c0,52.93,43.07,96,96,96h53.33v32c0,52.93,43.07,96,96,96h170.67c52.93,0,96-43.07,96-96v-106.67c0-41.17-33.49-74.67-74.67-74.67ZM192,21.33c35.29,0,64,28.71,64,64h-128c0-35.29,28.71-64,64-64ZM96,362.67c-41.17,0-74.67-33.49-74.67-74.67v-128c0-29.42,23.94-53.33,53.33-53.33h32v53.33c0,5.89,4.78,10.67,10.67,10.67s10.67-4.78,10.67-10.67v-53.33h128v53.33c0,5.89,4.78,10.67,10.67,10.67s10.67-4.78,10.67-10.67v-53.33h32c29.4,0,53.33,23.91,53.33,53.33v74.67h-138.67c-41.17,0-74.67,33.49-74.67,74.67v53.33h-53.33ZM490.67,416c0,41.17-33.49,74.67-74.67,74.67h-170.67c-41.17,0-74.67-33.49-74.67-74.67v-106.67c0-29.42,23.94-53.33,53.33-53.33h213.33c29.4,0,53.33,23.91,53.33,53.33v106.67ZM405.33,309.33v42.67c0,41.17-33.49,74.67-74.67,74.67s-74.67-33.49-74.67-74.67v-42.67c0-5.89,4.78-10.67,10.67-10.67s10.67,4.78,10.67,10.67v42.67c0,29.42,23.94,53.33,53.33,53.33s53.33-23.91,53.33-53.33v-42.67c0-5.89,4.78-10.67,10.67-10.67s10.67,4.78,10.67,10.67Z"/>
</svg>