<svg width="20" height="21" viewBox="0 0 20 21" fill="none" xmlns="http://www.w3.org/2000/svg">
<path d="M13.3337 11.2501V14.7501C13.3337 17.6667 12.167 18.8334 9.25033 18.8334H5.75033C2.83366 18.8334 1.66699 17.6667 1.66699 14.7501V11.2501C1.66699 8.33341 2.83366 7.16675 5.75033 7.16675H9.25033C12.167 7.16675 13.3337 8.33341 13.3337 11.2501Z" stroke="#424242" stroke-linecap="round" stroke-linejoin="round"/>
<path d="M18.3337 6.25008V9.75008C18.3337 12.6667 17.167 13.8334 14.2503 13.8334H13.3337V11.2501C13.3337 8.33341 12.167 7.16675 9.25033 7.16675H6.66699V6.25008C6.66699 3.33341 7.83366 2.16675 10.7503 2.16675H14.2503C17.167 2.16675 18.3337 3.33341 18.3337 6.25008Z" stroke="#424242" stroke-linecap="round" stroke-linejoin="round"/>
</svg>
