<?xml version="1.0" encoding="UTF-8"?>
<svg id="Layer_1" data-name="Layer 1" xmlns="http://www.w3.org/2000/svg" viewBox="0 0 24 21.5">
  <defs>
    <style>
      .cls-1 {
        fill: #940000;
      }
    </style>
  </defs>
  <path class="cls-1" d="M20.95,1.01c-1.88-1.22-3.94-1.34-5.79-.33-1.43.78-2.55,2.13-3.16,3.7-.61-1.57-1.73-2.92-3.16-3.7-1.85-1.01-3.91-.89-5.79.33C1.13,2.25-.04,4.31,0,6.38c.09,4.56,4.81,10.5,9.16,14.1.82.68,1.83,1.02,2.84,1.02s2.02-.34,2.84-1.02c4.35-3.59,9.07-9.54,9.16-14.1.04-2.07-1.13-4.13-3.05-5.38h0ZM14.21,19.71c-1.28,1.06-3.14,1.06-4.41,0C5.62,16.26,1.08,10.61,1,6.37c-.03-1.73.96-3.46,2.59-4.52.86-.56,1.77-.84,2.66-.84.72,0,1.43.18,2.11.55,1.85,1,3.14,3.24,3.14,5.45,0,.28.22.5.5.5s.5-.22.5-.5c0-2.2,1.29-4.44,3.14-5.45,1.52-.82,3.21-.72,4.77.29,1.63,1.06,2.63,2.79,2.59,4.52-.08,4.24-4.61,9.89-8.79,13.34h0Z"/>
</svg>