<?xml version="1.0" encoding="UTF-8"?>
<svg id="Layer_1" data-name="Layer 1" xmlns="http://www.w3.org/2000/svg" viewBox="0 0 512 448">
  <defs>
    <style>
      .cls-1 {
        fill: #424242;
      }
    </style>
  </defs>
  <path class="cls-1" d="M416,0H160c-53.12,0-96,42.88-96,96v192c0,53.12,42.88,96,96,96h256c53.12,0,96-42.88,96-96V96c0-53.12-42.88-96-96-96ZM416,21.33c20.27,0,38.83,8.11,52.27,21.33l-127.36,127.36c-29.23,29.23-76.37,29.23-105.6,0L107.73,42.67c13.44-13.23,32-21.33,52.27-21.33h256ZM490.67,288c0,41.17-33.49,74.67-74.67,74.67H160c-41.17,0-74.67-33.49-74.67-74.67V96c0-13.23,3.41-25.39,9.39-36.27l125.44,125.44c18.77,18.77,43.31,28.16,67.84,28.16s49.07-9.39,67.84-28.16l125.44-125.44c5.97,10.67,9.39,23.04,9.39,36.27v192h0ZM384,437.33c0,5.97-4.69,10.67-10.67,10.67H96c-52.91,0-96-43.09-96-96V117.33c0-5.97,4.69-10.67,10.67-10.67s10.67,4.69,10.67,10.67v234.67c0,41.17,33.49,74.67,74.67,74.67h277.33c5.97,0,10.67,4.69,10.67,10.67Z"/>
</svg>