<svg width="17" height="17" viewBox="0 0 17 17" fill="none" xmlns="http://www.w3.org/2000/svg">
<path d="M4.95833 8.5C2.125 8.5 2.125 9.76792 2.125 11.3333V12.0417C2.125 13.9967 2.125 15.5833 5.66667 15.5833H11.3333C14.1667 15.5833 14.875 13.9967 14.875 12.0417V11.3333C14.875 9.76792 14.875 8.5 12.0417 8.5C11.3333 8.5 11.135 8.64875 10.7667 8.925L10.0442 9.69C9.20833 10.5825 7.79167 10.5825 6.94875 9.69L6.23333 8.925C5.865 8.64875 5.66667 8.5 4.95833 8.5Z" stroke="white" stroke-miterlimit="10" stroke-linecap="round" stroke-linejoin="round"/>
<path d="M13.4587 8.50008V4.25008C13.4587 2.68466 13.4587 1.41675 10.6253 1.41675H6.37533C3.54199 1.41675 3.54199 2.68466 3.54199 4.25008V8.50008" stroke="white" stroke-miterlimit="10" stroke-linecap="round" stroke-linejoin="round"/>
</svg>
