<?xml version="1.0" encoding="UTF-8"?>
<svg id="Layer_1" data-name="Layer 1" xmlns="http://www.w3.org/2000/svg" viewBox="0 0 512 512">
  <defs>
    <style>
      .cls-1 {
        fill: #940000;
      }
    </style>
  </defs>
  <path class="cls-1" d="M362.67,0c-83.73,0-149.33,37.48-149.33,85.33v93.4c-19.33-5.12-40.94-8.06-64-8.06C65.6,170.67,0,208.15,0,256v170.67c0,47.85,65.6,85.33,149.33,85.33s149.33-37.48,149.33-85.33v-8.21c19.9,5.29,41.71,8.21,64,8.21,83.73,0,149.33-37.48,149.33-85.33V85.33C512,37.48,446.4,0,362.67,0ZM490.67,256c0,34.69-58.62,64-128,64-22.63,0-44.5-3.22-64-9.05v-54.95c0-2.79-.28-5.55-.7-8.26,20.01,5.4,41.98,8.26,64.7,8.26,55.06,0,102.12-16.26,128-40.96v40.96ZM21.33,300.37c25.88,24.7,72.94,40.96,128,40.96s102.12-16.26,128-40.96v40.96c0,34.69-58.62,64-128,64s-128-29.31-128-64v-40.96ZM362.67,21.33c69.38,0,128,29.31,128,64s-58.62,64-128,64-128-29.31-128-64,58.62-64,128-64ZM234.67,129.71c25.88,24.7,72.94,40.96,128,40.96s102.12-16.26,128-40.96v40.96c0,34.69-58.62,64-128,64-27.67,0-53.99-4.54-76.29-13.08-11.05-14.68-29.01-27.09-51.71-36.01v-55.87h0ZM149.33,192c69.38,0,128,29.31,128,64s-58.62,64-128,64-128-29.31-128-64,58.62-64,128-64ZM149.33,490.67c-69.38,0-128-29.31-128-64v-40.96c25.88,24.7,72.94,40.96,128,40.96s102.12-16.26,128-40.96v40.96c0,34.69-58.62,64-128,64ZM362.67,405.33c-22.55,0-44.5-3.18-64-9v-63.19c19.88,5.29,41.66,8.17,64,8.17,55.06,0,102.12-16.26,128-40.96v40.96c0,34.69-58.62,64-128,64v.02Z"/>
</svg>