<svg width="85" height="80" viewBox="0 0 85 80" fill="none" xmlns="http://www.w3.org/2000/svg">
<g clip-path="url(#clip0_2403_27548)">
<path opacity="0.5" d="M78.0185 0H6.98153C3.12574 0 0 2.7615 0 6.16798V73.832C0 77.2385 3.12574 80 6.98153 80H78.0185C81.8743 80 85 77.2385 85 73.832V6.16798C85 2.7615 81.8743 0 78.0185 0Z" fill="#EDEDED"/>
<path d="M66.8945 65.3164V68.6036" stroke="black" stroke-width="0.7" stroke-linecap="round" stroke-linejoin="round"/>
<path d="M68.7549 66.96H65.0342" stroke="black" stroke-width="0.7" stroke-linecap="round" stroke-linejoin="round"/>
<path d="M12.8379 48.1997V51.4869" stroke="black" stroke-width="0.7" stroke-linecap="round" stroke-linejoin="round"/>
<path d="M14.6983 49.8433H10.9775" stroke="black" stroke-width="0.7" stroke-linecap="round" stroke-linejoin="round"/>
<path d="M66.4199 38.0742V42.2026" stroke="black" stroke-width="0.7" stroke-linecap="round" stroke-linejoin="round"/>
<path d="M68.7549 40.1396H64.082" stroke="black" stroke-width="0.7" stroke-linecap="round" stroke-linejoin="round"/>
<path d="M68.9981 6.26611L73.0352 10.9096H70.6153V30.5653H68.9981H67.3809V10.9096H64.9609L68.9981 6.26611Z" fill="#F0DEDD"/>
<path d="M58.2081 10.2754L62.2511 14.9188H59.8282V30.5653H58.2081H56.5909V14.9188H54.1709L58.2081 10.2754Z" fill="#C1C1C1"/>
<path d="M47.4239 14.2847L51.461 18.9255H49.0411V30.5652H47.4239H45.8067V18.9255H43.3867L47.4239 14.2847Z" fill="#F0DEDD"/>
<path d="M47.4239 30.5652H49.0411V18.9255H51.461L47.4239 14.2847L43.3867 18.9255H45.8067V30.5652H47.4239Z" stroke="black" stroke-width="0.7" stroke-linecap="round" stroke-linejoin="round"/>
<path d="M58.2081 30.5653H59.8282V14.9188H62.2511L58.2081 10.2754L54.1709 14.9188H56.5909V30.5653H58.2081Z" stroke="black" stroke-width="0.7" stroke-linecap="round" stroke-linejoin="round"/>
<path d="M68.9981 30.5653H70.6153V10.9096H73.0352L68.9981 6.26611L64.9609 10.9096H67.3809V30.5653H68.9981Z" stroke="black" stroke-width="0.7" stroke-linecap="round" stroke-linejoin="round"/>
<path d="M53.4174 70.3504H21.8204C19.3096 70.3504 17.2734 68.5515 17.2734 66.3333C17.2734 65.2255 17.7832 64.2213 18.6035 63.4939C19.4268 62.7692 20.5635 62.3188 21.8174 62.3188H53.3002C50.848 62.3706 48.8705 64.1514 48.8705 66.3333V66.3385C48.8705 68.5541 50.9096 70.353 53.4174 70.353V70.3504Z" fill="#F0DEDD"/>
<path d="M53.3031 62.3191H21.9023V62.0835L21.8203 27.3922C21.8203 26.639 22.5147 26.0229 23.3701 26.0229H57.6567C58.5151 26.0229 59.2065 26.639 59.2065 27.3922L59.2592 50.7337L59.2182 50.7751L56.5346 48.8158C56.725 48.0574 56.7719 47.2576 56.6547 46.4423C56.1186 42.7125 52.348 40.062 48.2376 40.5253C47.2649 40.6366 46.3655 40.9058 45.5569 41.3096L51.9261 45.7848L48.2435 50.1022L41.9035 45.6451C41.6955 46.4319 41.6399 47.2628 41.76 48.1169C42.2961 51.8493 46.0667 54.4997 50.18 54.0364C51.1615 53.9251 52.0726 53.6507 52.8871 53.2366L59.4291 58.0121L59.2944 58.1519V65.5312C59.3002 68.1894 56.8598 70.348 53.851 70.348H53.4174C50.9095 70.348 48.8704 68.5492 48.8704 66.3336V66.3284C48.8704 64.149 50.8451 62.3682 53.3002 62.3139L53.3031 62.3191Z" fill="white"/>
<path d="M56.6577 46.4451C56.7749 47.2604 56.7281 48.0602 56.5376 48.816C56.0718 50.6951 54.7388 52.3102 52.8901 53.2394C52.0757 53.651 51.1645 53.9279 50.1831 54.0392C46.0697 54.5025 42.2992 51.8521 41.763 48.1197C41.64 47.2656 41.6986 46.4347 41.9066 45.6479L48.2465 50.105L51.9292 45.7876L45.56 41.3124C46.3686 40.9112 47.268 40.6395 48.2407 40.5282C52.3511 40.0648 56.1216 42.7153 56.6577 46.4451Z" fill="#941303"/>
<path d="M67.9777 58.1261C68.0656 58.7499 67.9162 59.3996 67.5002 59.9587C66.4953 61.3279 64.3654 61.6152 62.9445 60.5773L59.4346 58.0148L52.8926 53.2394C54.7412 52.3102 56.0743 50.695 56.5401 48.8159L59.2237 50.7779L66.882 56.3661C67.509 56.8242 67.884 57.4583 67.9806 58.1235L67.9777 58.1261Z" fill="#941303"/>
<path d="M59.2973 58.1543V65.5336C59.3032 68.1918 56.8627 70.3505 53.8539 70.3505H21.9199" stroke="black" stroke-width="0.7" stroke-linecap="round" stroke-linejoin="round"/>
<path d="M21.9023 62.0835L21.8203 27.3922C21.8203 26.639 22.5147 26.0229 23.3701 26.0229H57.6567C58.5151 26.0229 59.2065 26.639 59.2065 27.3922L59.2592 50.7337" stroke="black" stroke-width="0.7" stroke-linecap="round" stroke-linejoin="round"/>
<path d="M21.8204 70.3504C19.3096 70.3504 17.2734 68.5515 17.2734 66.3333C17.2734 65.2255 17.7832 64.2213 18.6035 63.4939C19.4268 62.7692 20.5635 62.3188 21.8174 62.3188H54.5571" stroke="black" stroke-width="0.7" stroke-linecap="round" stroke-linejoin="round"/>
<path d="M54.5596 62.3164H53.42C53.379 62.3164 53.3409 62.3164 53.3028 62.3164C50.8506 62.3682 48.873 64.1489 48.873 66.3309V66.3361C48.873 68.5517 50.9121 70.3506 53.42 70.3506" stroke="black" stroke-width="0.7" stroke-linecap="round" stroke-linejoin="round"/>
<path d="M30.1699 37.3804H52.7669" stroke="black" stroke-width="0.7" stroke-linecap="round" stroke-linejoin="round"/>
<path d="M42.6564 41.3252H30.1699" stroke="black" stroke-width="0.7" stroke-linecap="round" stroke-linejoin="round"/>
<path d="M39.7208 45.2695H30.1699" stroke="black" stroke-width="0.7" stroke-linecap="round" stroke-linejoin="round"/>
<path d="M39.9786 49.2144H30.1699" stroke="black" stroke-width="0.7" stroke-linecap="round" stroke-linejoin="round"/>
<path d="M30.1699 53.1592H42.258" stroke="black" stroke-width="0.7" stroke-linecap="round" stroke-linejoin="round"/>
<path d="M52.8896 53.2391L59.4317 58.0145L62.9415 60.577C64.3624 61.6175 66.4953 61.3276 67.4972 59.9584C67.9133 59.3993 68.0627 58.747 67.9748 58.1258C67.8781 57.4606 67.506 56.8239 66.8761 56.3684L59.2178 50.7802L56.5342 48.8208" stroke="black" stroke-width="0.7" stroke-linecap="round" stroke-linejoin="round"/>
<path d="M52.8901 53.2394C52.0757 53.651 51.1645 53.9279 50.1831 54.0392C46.0697 54.5025 42.2992 51.8521 41.763 48.1197C41.64 47.2656 41.6986 46.4347 41.9066 45.6479L48.2465 50.105L51.9292 45.7876L45.56 41.3124C46.3686 40.9112 47.268 40.6395 48.2407 40.5282C52.3511 40.0648 56.1216 42.7153 56.6577 46.4451C56.7749 47.2604 56.7281 48.0602 56.5376 48.816C56.0718 50.6951 54.7388 52.3102 52.8901 53.2394Z" stroke="black" stroke-width="0.7" stroke-linecap="round" stroke-linejoin="round"/>
<path d="M25.8722 44.2836C25.8722 44.9799 25.2335 45.5467 24.4424 45.5467H20.1592C19.3682 45.5467 18.7295 44.9799 18.7295 44.2836V43.502H25.8722V44.2836Z" fill="#C1C1C1"/>
<path d="M25.6495 41.457C25.6788 41.457 25.7081 41.4622 25.7374 41.47C25.8165 41.501 25.8722 41.5709 25.8722 41.6537V43.5018H18.7295V41.6537C18.7295 41.5942 18.75 41.5528 18.7939 41.514C18.835 41.4829 18.8965 41.457 18.9522 41.457H25.6495Z" fill="#C1C1C1"/>
<path d="M21.1495 41.4571H18.9522C18.8936 41.4571 18.835 41.4804 18.794 41.5141L18.7794 41.4571C18.0762 40.735 17.6133 39.666 17.6133 38.8093V38.773C17.6133 36.6791 15.7969 34.6265 14.458 32.8923C13.4004 31.5231 12.7852 29.864 12.7852 28.0677C12.7852 23.3699 17.0479 19.5547 22.298 19.5547C27.548 19.5547 31.8137 23.3699 31.8137 28.0677C31.8137 29.864 31.1955 31.5231 30.1408 32.8923C29.4728 33.7646 28.6818 34.7042 28.0637 35.7007C27.4367 36.6894 26.9855 37.7273 26.9855 38.773C26.9972 39.6375 26.5373 40.722 25.8195 41.4597L25.7316 41.4726C25.7023 41.4649 25.673 41.4597 25.6437 41.4597H21.1437L21.1495 41.4571Z" fill="#F0DEDD"/>
<path d="M25.8224 41.4573C26.5373 40.7196 27.0002 39.6351 26.9884 38.7706C26.9884 37.7223 27.4396 36.687 28.0666 35.6982C28.6848 34.7017 29.4758 33.7622 30.1438 32.8899C31.2014 31.5207 31.8166 29.8616 31.8166 28.0653C31.8166 23.3674 27.5539 19.5522 22.3009 19.5522C17.0479 19.5522 12.7881 23.3674 12.7881 28.0653C12.7881 29.8616 13.4063 31.5207 14.461 32.8899C15.7969 34.6241 17.6163 36.6766 17.6163 38.7706V38.8068C17.6163 39.6635 18.0762 40.7325 18.7823 41.4547" stroke="black" stroke-width="0.7" stroke-linecap="round" stroke-linejoin="round"/>
<path d="M25.8722 43.5023V44.284C25.8722 44.9802 25.2335 45.5471 24.4424 45.5471H20.1592C19.3682 45.5471 18.7295 44.9802 18.7295 44.284V41.6542C18.7295 41.5947 18.75 41.5533 18.7939 41.5145C18.835 41.4834 18.8965 41.4575 18.9522 41.4575H25.6495C25.6788 41.4575 25.7081 41.4627 25.7374 41.4705C25.8165 41.5015 25.8722 41.5714 25.8722 41.6542V43.5023Z" stroke="black" stroke-width="0.7" stroke-linecap="round" stroke-linejoin="round"/>
<path d="M18.7295 43.502H25.8722" stroke="black" stroke-width="0.7" stroke-linecap="round" stroke-linejoin="round"/>
<path d="M22.3008 15.7578V17.6188" stroke="black" stroke-width="0.7" stroke-linecap="round" stroke-linejoin="round"/>
<path d="M14.4082 17.9243L15.5889 19.4592" stroke="black" stroke-width="0.7" stroke-linecap="round" stroke-linejoin="round"/>
<path d="M9.24023 23.6211L11.1826 24.3122" stroke="black" stroke-width="0.7" stroke-linecap="round" stroke-linejoin="round"/>
<path d="M8.55176 30.8892L10.6084 30.501" stroke="black" stroke-width="0.7" stroke-linecap="round" stroke-linejoin="round"/>
<path d="M30.1934 17.9243L29.0127 19.4592" stroke="black" stroke-width="0.7" stroke-linecap="round" stroke-linejoin="round"/>
<path d="M35.3614 23.6211L33.4189 24.3122" stroke="black" stroke-width="0.7" stroke-linecap="round" stroke-linejoin="round"/>
<path d="M36.0498 30.8892L33.9932 30.501" stroke="black" stroke-width="0.7" stroke-linecap="round" stroke-linejoin="round"/>
</g>
<defs>
<clipPath id="clip0_2403_27548">
<rect width="85" height="80" fill="white"/>
</clipPath>
</defs>
</svg>
