<?xml version="1.0" encoding="UTF-8"?>
<svg id="Layer_1" data-name="Layer 1" xmlns="http://www.w3.org/2000/svg" viewBox="0 0 512 511.98">
  <defs>
    <style>
      .cls-1 {
        fill: #940000;
      }
    </style>
  </defs>
  <path class="cls-1" d="M96,21.31h117.65c7.13,0,14.14.64,21.01,1.88v115.46c0,29.4,23.94,53.33,53.33,53.33h115.43c.7,3.8,1.22,7.66,1.51,11.54.47,5.87,5.85,10.22,11.5,9.77,5.87-.47,10.24-5.63,9.77-11.5-2.67-32.77-16.92-63.59-40.17-86.83l-74.35-74.35C285.5,14.42,250.69,0,213.65,0h-117.65C43.07-.02,0,43.05,0,95.98v320c0,52.93,43.07,96,96,96h85.33c5.89,0,10.67-4.78,10.67-10.67s-4.78-10.67-10.67-10.67h-85.33c-41.17,0-74.67-33.49-74.67-74.67V95.98c0-41.17,33.49-74.67,74.67-74.67ZM370.97,130.03c11.63,11.63,20.59,25.49,26.45,40.62h-109.42c-17.64,0-32-14.36-32-32V29.16c15.06,5.82,28.86,14.76,40.62,26.52l74.35,74.35h0ZM496.36,250.26c-20.12-20.14-55.3-20.14-75.41,0l-164.42,164.42c-14.1,14.1-21.87,32.85-21.87,52.8v33.83c0,5.89,4.78,10.67,10.67,10.67h33.83c19.95,0,38.7-7.77,52.8-21.87l164.42-164.42c10.07-10.07,15.62-23.47,15.62-37.72s-5.55-27.65-15.62-37.72h-.02ZM481.28,310.59l-164.42,164.42c-10.07,10.07-23.47,15.62-37.72,15.62h-23.17v-23.17c0-14.25,5.55-27.63,15.62-37.72l164.42-164.42c12.07-12.07,33.17-12.07,45.25,0,6.04,6.04,9.37,14.08,9.37,22.63s-3.33,16.58-9.37,22.63h.02Z"/>
</svg>