<?xml version="1.0" encoding="UTF-8"?>
<svg id="Layer_1" data-name="Layer 1" xmlns="http://www.w3.org/2000/svg" viewBox="0 0 512 512">
  <defs>
    <style>
      .cls-1 {
        fill: #fff;
      }
    </style>
  </defs>
  <path class="cls-1" d="M416,85.33h-43.31C367.36,37.33,326.61,0,277.33,0h-53.33c-49.28,0-90.03,37.33-95.36,85.33h-32.64C43.09,85.33,0,128.43,0,181.33v234.67c0,52.91,43.09,96,96,96h320c52.91,0,96-43.09,96-96v-234.67c0-52.91-43.09-96-96-96ZM224,21.33h53.33c37.55,0,68.69,27.95,73.81,64h-200.96c5.12-36.05,36.27-64,73.81-64ZM490.67,416c0,41.17-33.49,74.67-74.67,74.67H96c-41.17,0-74.67-33.49-74.67-74.67v-234.67c0-41.17,33.49-74.67,74.67-74.67h320c41.17,0,74.67,33.49,74.67,74.67v234.67Z"/>
</svg>