<?xml version="1.0" encoding="UTF-8"?>
<svg id="Layer_1" data-name="Layer 1" xmlns="http://www.w3.org/2000/svg" viewBox="0 0 24.01 24">
  <defs>
    <style>
      .cls-1 {
        fill: #424242;
      }
    </style>
  </defs>
  <path class="cls-1" d="M4,6.5c0-.28.22-.5.5-.5h5c.28,0,.5.22.5.5s-.22.5-.5.5h-5c-.28,0-.5-.22-.5-.5ZM11.5,10h-7c-.28,0-.5.22-.5.5s.22.5.5.5h7c.28,0,.5-.22.5-.5s-.22-.5-.5-.5ZM11.5,14h-7c-.28,0-.5.22-.5.5s.22.5.5.5h7c.28,0,.5-.22.5-.5s-.22-.5-.5-.5ZM23.51,6.5l-1.9,1.55.78,2.23c.19.58,0,1.21-.48,1.57-.48.37-1.14.39-1.64.06l-2.25-1.46-2.21,1.48c-.23.16-.51.24-.79.24-.31,0-.6-.1-.85-.28-.48-.36-.68-.98-.5-1.56l.76-2.27-1.91-1.56c-.46-.39-.62-1.02-.42-1.57.2-.55.74-.93,1.33-.93h2.4l.86-2.4c.21-.56.74-.93,1.33-.93s1.12.37,1.33.92l.86,2.4h2.4c.59,0,1.13.37,1.33.93.2.56.04,1.19-.42,1.57h0ZM22.99,5.27c-.06-.16-.22-.27-.39-.27h-2.75c-.21,0-.4-.13-.47-.33l-.97-2.73c-.11-.31-.66-.32-.78,0l-.97,2.73c-.07.2-.26.33-.47.33h-2.75c-.17,0-.33.11-.39.27-.06.16-.01.35.12.46l2.17,1.77c.16.13.23.35.16.55l-.86,2.59c-.05.16,0,.35.15.45.14.1.34.11.48.01l2.48-1.66c.17-.11.38-.11.55,0l2.52,1.64c.15.1.34.09.48-.02.14-.11.2-.29.14-.46l-.89-2.55c-.07-.2,0-.42.16-.55l2.17-1.77c.13-.11.18-.29.12-.46h0ZM21,21c0,1.65-1.35,3-3,3H3c-1.65,0-3-1.35-3-3V4.5C0,2.02,2.02,0,4.5,0h10c.28,0,.5.22.5.5s-.22.5-.5.5H4.5c-1.93,0-3.5,1.57-3.5,3.5v16.5c0,1.1.9,2,2,2s2-.9,2-2c0-1.65,1.35-3,3-3h9v-4.5c0-.28.22-.5.5-.5s.5.22.5.5v4.5c1.65,0,3,1.35,3,3h0ZM20,21c0-1.1-.9-2-2-2h-10c-1.1,0-2,.9-2,2,0,.77-.29,1.47-.77,2h12.77c1.1,0,2-.9,2-2Z"/>
</svg>