<?xml version="1.0" encoding="UTF-8"?>
<svg id="Layer_1" data-name="Layer 1" xmlns="http://www.w3.org/2000/svg" viewBox="0 0 511.82 512.06">
  <defs>
    <style>
      .cls-1 {
        fill: #424242;
      }
    </style>
  </defs>
  <path class="cls-1" d="M472.03,193.57L71.56,5.2C52.94-3.89,31.8-.92,16.4,12.97.97,26.88-4.19,47.61,3.57,68.45l100.01,187.63L4.79,445.05c-7.1,19.5-1.92,40.23,13.55,54.1,9.49,8.53,21.18,12.91,33.07,12.91,7.45,0,14.93-1.71,22.06-5.21l398.63-188.2c24.51-11.5,39.74-35.5,39.72-62.61,0-27.09-15.3-51.05-39.79-62.49v.02ZM23.01,59.77c-4.89-13.31.75-24.7,7.66-30.93,4.57-4.1,11.29-7.45,19.03-7.45,3.99,0,8.23.9,12.59,3.03.04,0,.11.04.15.06l400.53,188.42c13.87,6.49,23.23,18.22,26.37,32.47H122.04L23.01,59.77ZM462.99,299.37L64.2,487.65c-12.74,6.21-24.66,1.83-31.59-4.37s-12.61-17.6-8.32-29.65l97.81-186.94h367.27c-3.07,14.31-12.46,26.13-26.39,32.66v.02Z"/>
</svg>