<?xml version="1.0" encoding="UTF-8"?>
<svg id="Layer_1" data-name="Layer 1" xmlns="http://www.w3.org/2000/svg" viewBox="0 0 512 512">
  <defs>
    <style>
      .cls-1 {
        fill: #fff;
      }
    </style>
  </defs>
  <path class="cls-1" d="M416,42.67h-32V10.67c0-5.89-4.78-10.67-10.67-10.67s-10.67,4.78-10.67,10.67v32h-213.33V10.67c0-5.89-4.78-10.67-10.67-10.67s-10.67,4.78-10.67,10.67v32h-32C43.07,42.67,0,85.74,0,138.67v277.33c0,52.93,43.07,96,96,96h320c52.93,0,96-43.07,96-96V138.67c0-52.93-43.07-96-96-96ZM96,64h320c41.17,0,74.67,33.49,74.67,74.67v32H21.33v-32c0-41.17,33.49-74.67,74.67-74.67ZM416,490.67H96c-41.17,0-74.67-33.49-74.67-74.67v-224h469.33v224c0,41.17-33.49,74.67-74.67,74.67ZM336.43,298.92h-41.47l-11.09-42.56c-3.29-12.52-14.66-21.46-28.05-21.72-13.01.26-24.38,9.17-27.65,21.72l-11.09,42.54h-41.47c-16.58,0-26.84,13.29-26.84,25.62,0,11.41,6.91,22.31,18.01,28.48l26.65,14.81-12.22,33.32c-4.61,12.61-.51,26.52,10.22,34.6,5.38,4.05,11.8,6.06,18.22,6.06s13.08-2.11,18.52-6.29l27.9-21.57,27.88,21.57c10.75,8.32,25.86,8.41,36.74.23,10.73-8.09,14.83-21.99,10.22-34.6l-12.22-33.32,26.62-14.81c11.11-6.17,18.03-17.09,18.03-28.48,0-12.33-10.26-25.62-26.84-25.62l-.04.02ZM334.87,334.38l-42.58,23.68,18.5,50.43c1.34,3.67.11,7.87-3.01,10.22-3.2,2.39-7.66,2.37-10.84-.06l-40.94-31.66-40.94,31.66c-3.18,2.45-7.64,2.5-10.84.06-3.11-2.35-4.35-6.55-3.03-10.22l18.52-50.45-42.58-23.68c-3.5-1.94-7.04-5.76-7.04-9.83,0-1.15,1.3-4.29,5.5-4.29h57.94l15.25-58.5c.87-3.33,3.93-5.72,7.02-5.78,3.5.06,6.55,2.43,7.4,5.76l15.25,58.5h57.94c4.2,0,5.5,3.14,5.5,4.29,0,4.1-3.54,7.89-7.06,9.83l.02.04Z"/>
</svg>