<svg width="17" height="17" viewBox="0 0 17 17" fill="none" xmlns="http://www.w3.org/2000/svg">
<path d="M3.82487 1.4875H13.1749C13.954 1.4875 14.5915 2.125 14.5915 2.90417V4.4625C14.5915 5.02917 14.2374 5.7375 13.8832 6.09167L10.8374 8.78334C10.4124 9.1375 10.129 9.84584 10.129 10.4125V13.4583C10.129 13.8833 9.8457 14.45 9.49154 14.6625L8.49987 15.3C7.57904 15.8667 6.30404 15.2292 6.30404 14.0958V10.3417C6.30404 9.84584 6.0207 9.20834 5.73737 8.85417L3.0457 6.02084C2.69154 5.66667 2.4082 5.02917 2.4082 4.60417V2.975C2.4082 2.125 3.0457 1.4875 3.82487 1.4875Z" stroke="black" stroke-miterlimit="10" stroke-linecap="round" stroke-linejoin="round"/>
<path d="M7.74208 1.4875L4.25 7.08334" stroke="black" stroke-miterlimit="10" stroke-linecap="round" stroke-linejoin="round"/>
</svg>
