<svg width="20" height="21" viewBox="0 0 20 21" fill="none" xmlns="http://www.w3.org/2000/svg">
<path d="M4.49967 2.25H15.4997C16.4163 2.25 17.1663 3 17.1663 3.91667V5.75C17.1663 6.41667 16.7497 7.25 16.333 7.66667L12.7497 10.8333C12.2497 11.25 11.9163 12.0833 11.9163 12.75V16.3333C11.9163 16.8333 11.583 17.5 11.1663 17.75L9.99967 18.5C8.91634 19.1667 7.41634 18.4167 7.41634 17.0833V12.6667C7.41634 12.0833 7.08301 11.3333 6.74967 10.9167L3.58301 7.58333C3.16634 7.16667 2.83301 6.41667 2.83301 5.91667V4C2.83301 3 3.58301 2.25 4.49967 2.25Z" stroke="#424242" stroke-miterlimit="10" stroke-linecap="round" stroke-linejoin="round"/>
<path d="M9.10833 2.25L5 8.83333" stroke="#424242" stroke-miterlimit="10" stroke-linecap="round" stroke-linejoin="round"/>
</svg>
