<?xml version="1.0" encoding="UTF-8"?>
<svg id="Layer_1" data-name="Layer 1" xmlns="http://www.w3.org/2000/svg" viewBox="0 0 11.17 24">
  <defs>
    <style>
      .cls-1 {
        fill: #940000;
      }
    </style>
  </defs>
  <path class="cls-1" d="M.14,23.15c-.19.2-.19.51,0,.71.1.1.22.15.35.15s.26-.05.35-.15l9.29-9.38c.66-.66,1.02-1.54,1.02-2.47,0-.93-.36-1.81-1.03-2.47L.85.15c-.19-.2-.51-.2-.71,0-.2.19-.2.51,0,.71l9.29,9.38c.47.48.73,1.1.73,1.77,0,.67-.26,1.3-.73,1.77,0,0-9.29,9.38-9.29,9.38Z"/>
</svg>