<?xml version="1.0" encoding="UTF-8"?>
<svg id="Layer_1" data-name="Layer 1" xmlns="http://www.w3.org/2000/svg" viewBox="0 0 24.01 11.16">
  <defs>
    <style>
      .cls-1 {
        fill: #424242;
      }
    </style>
  </defs>
  <path class="cls-1" d="M23.15,11.01c.2.19.51.19.71,0,.1-.1.15-.22.15-.35,0-.13-.05-.26-.15-.35L14.48,1.02C13.82.36,12.94,0,12.01,0s-1.81.36-2.47,1.03L.15,10.3c-.2.19-.2.51,0,.71.19.2.51.2.71,0L10.24,1.72c.48-.47,1.1-.73,1.77-.73s1.3.26,1.77.73l9.38,9.29h-.01Z"/>
</svg>