<?xml version="1.0" encoding="UTF-8"?>
<svg id="Layer_1" data-name="Layer 1" xmlns="http://www.w3.org/2000/svg" viewBox="0 0 11.17 24">
  <defs>
    <style>
      .cls-1 {
        fill: #424242;
      }
    </style>
  </defs>
  <path class="cls-1" d="M1.73,13.77c-.47-.47-.73-1.1-.73-1.77s.26-1.3.73-1.77L11.03.85c.19-.2.19-.51,0-.71-.2-.19-.51-.19-.71,0L1.03,9.53C.36,10.19,0,11.07,0,12s.36,1.81,1.02,2.47l9.29,9.38c.1.1.23.15.35.15s.25-.05.35-.15c.2-.19.2-.51,0-.71,0,0-9.29-9.38-9.29-9.38Z"/>
</svg>