<svg width="17" height="17" viewBox="0 0 17 17" fill="none" xmlns="http://www.w3.org/2000/svg">
<path d="M8.49996 15.5833C12.412 15.5833 15.5833 12.412 15.5833 8.49999C15.5833 4.58797 12.412 1.41666 8.49996 1.41666C4.58794 1.41666 1.41663 4.58797 1.41663 8.49999C1.41663 12.412 4.58794 15.5833 8.49996 15.5833Z" stroke="white" stroke-linecap="round" stroke-linejoin="round"/>
<path d="M5.66672 2.125H6.37505C4.9938 6.26167 4.9938 10.7383 6.37505 14.875H5.66672" stroke="white" stroke-linecap="round" stroke-linejoin="round"/>
<path d="M10.625 2.125C12.0062 6.26167 12.0062 10.7383 10.625 14.875" stroke="white" stroke-linecap="round" stroke-linejoin="round"/>
<path d="M2.125 11.3333V10.625C6.26167 12.0062 10.7383 12.0062 14.875 10.625V11.3333" stroke="white" stroke-linecap="round" stroke-linejoin="round"/>
<path d="M2.125 6.37499C6.26167 4.99374 10.7383 4.99374 14.875 6.37499" stroke="white" stroke-linecap="round" stroke-linejoin="round"/>
</svg>
