<svg width="20" height="20" viewBox="0 0 20 20" fill="none" xmlns="http://www.w3.org/2000/svg">
<g clip-path="url(#clip0_1501_9290)">
<path d="M6.96709 0.657806C9.12781 -0.08398 11.4774 -0.0635778 13.6249 0.715618C14.8043 1.15712 15.8849 1.82724 16.8046 2.68749C16.4921 3.02187 16.1624 3.33437 15.8437 3.65937C15.2374 4.26458 14.6317 4.8677 14.0265 5.46874C13.4231 4.89177 12.6933 4.46373 11.8952 4.21874C10.8739 3.91037 9.78743 3.88926 8.75493 4.15772C7.72243 4.42618 6.78383 4.97384 6.04209 5.74062C5.39464 6.39927 4.90432 7.19564 4.60771 8.07031L1.36865 5.56249C2.52804 3.26337 4.53545 1.50472 6.96709 0.657806Z" fill="#E33629"/>
<path d="M0.509419 8.04688C0.683515 7.18405 0.97255 6.34848 1.36879 5.5625L4.60786 8.07656C4.18413 9.32438 4.18413 10.6772 4.60786 11.925C3.52869 12.7583 2.449 13.5958 1.36879 14.4375C0.376842 12.463 0.0743141 10.2133 0.509419 8.04688Z" fill="#F8BD00"/>
<path d="M10.1984 8.14844H19.4984C19.8166 9.89365 19.7305 11.6885 19.2469 13.3953C18.8019 14.9648 17.9376 16.3834 16.7469 17.4984C15.7016 16.6828 14.6516 15.8734 13.6063 15.0578C14.1245 14.7082 14.5668 14.2576 14.9067 13.733C15.2467 13.2084 15.4771 12.6205 15.5844 12.0047H10.1984C10.1969 10.7203 10.1984 9.43437 10.1984 8.14844Z" fill="#587DBD"/>
<path d="M1.36719 14.4375C2.4474 13.6042 3.52708 12.7667 4.60625 11.925C5.02376 13.1503 5.81782 14.2123 6.875 14.9594C7.53439 15.4254 8.28364 15.749 9.075 15.9094C9.85478 16.0544 10.6546 16.0544 11.4344 15.9094C12.2119 15.7778 12.9533 15.485 13.6109 15.05C14.6562 15.8656 15.7063 16.675 16.7516 17.4906C15.6076 18.5308 14.2132 19.2561 12.7047 19.5953C11.0397 19.9867 9.30457 19.968 7.64844 19.5406C6.3386 19.1909 5.11512 18.5744 4.05469 17.7297C2.93228 16.8386 2.01556 15.7156 1.36719 14.4375Z" fill="#319F43"/>
</g>
<defs>
<clipPath id="clip0_1501_9290">
<rect width="20" height="20" fill="white"/>
</clipPath>
</defs>
</svg>
