<svg width="21" height="21" viewBox="0 0 21 21" fill="none" xmlns="http://www.w3.org/2000/svg">
<path d="M10.0995 5.24119L10.4998 5.77632L10.9002 5.24119C11.6519 4.23639 12.8564 3.58333 14.1998 3.58333C16.4797 3.58333 18.3332 5.44046 18.3332 7.74166C18.3332 8.67895 18.1837 9.54374 17.9241 10.3461L17.9231 10.3493C17.3005 12.3194 16.0238 13.91 14.6417 15.0979C13.2573 16.2876 11.7961 17.0483 10.8554 17.3683L10.8554 17.3683L10.8501 17.3702C10.7786 17.3954 10.6516 17.4167 10.4998 17.4167C10.3481 17.4167 10.2211 17.3954 10.1496 17.3702L10.1496 17.3701L10.1442 17.3683C9.2036 17.0483 7.74234 16.2876 6.35803 15.0979C4.97591 13.91 3.69913 12.3194 3.0766 10.3493L3.07661 10.3493L3.07556 10.3461C2.81598 9.54374 2.6665 8.67895 2.6665 7.74166C2.6665 5.44046 4.51998 3.58333 6.79984 3.58333C8.14327 3.58333 9.34775 4.23639 10.0995 5.24119Z" fill="#940000" stroke="#940000"/>
</svg>
