<svg width="86" height="80" viewBox="0 0 86 80" fill="none" xmlns="http://www.w3.org/2000/svg">
<path opacity="0.5" d="M65.8875 0.987656H11.235C8.26922 0.987656 5.86499 3.6802 5.86499 7.00162V72.9984C5.86499 76.3198 8.26922 79.0124 11.235 79.0124H65.8875C68.8533 79.0124 71.2575 76.3198 71.2575 72.9984V7.00162C71.2575 3.6802 68.8533 0.987656 65.8875 0.987656Z" fill="#EDEDED"/>
<path d="M75.4039 68.9507C75.4039 69.1196 75.3946 69.0352 75.376 68.9507H75.4039Z" fill="#CB9390"/>
<path d="M72.3501 33.8396C71.5562 34.7287 70.2674 34.7287 69.4643 33.8396C68.6704 32.9506 68.6704 31.4968 69.4643 30.6078C70.2581 29.7188 71.5562 29.7188 72.3501 30.6078C73.1439 31.4968 73.1439 32.9401 72.3501 33.8396Z" fill="#940000"/>
<path d="M84.5097 38.2115L83.1742 39.7072C83.8279 38.975 83.8279 37.8036 83.1742 37.0715L64.2531 15.8814C63.8983 15.484 63.4033 15.2852 62.9083 15.348L56.2869 16.1115L50.9916 16.7181C50.9916 16.7181 50.8982 16.7286 50.8608 16.739C50.9916 15.9337 51.5893 15.3062 52.3271 15.2225L57.6224 14.6054L64.2438 13.8419C64.7388 13.7791 65.2337 13.9778 65.5886 14.3753L84.5097 35.5654C85.1634 36.2975 85.1634 37.4689 84.5097 38.2011V38.2115Z" fill="white"/>
<path d="M60.1252 31.6537C60.919 30.7647 62.2078 30.7647 63.0109 31.6537C63.8048 32.5427 63.8048 33.9965 63.0109 34.8855C62.2171 35.7745 60.919 35.7745 60.1252 34.8855C59.3313 33.9965 59.3313 32.5532 60.1252 31.6537Z" fill="#940000"/>
<path d="M54.223 43.4933H43.5857V58.523H54.223V43.4933Z" fill="white"/>
<path d="M52.7847 44.9681H42.1475V59.9978H52.7847V44.9681Z" fill="#940000"/>
<path d="M56.8847 63.9095C55.7733 64.422 54.8487 65.3737 54.2791 66.4719C54.9888 65.7607 55.8854 65.2378 56.8753 65.06C56.8567 64.8926 56.8473 64.7148 56.8473 64.5475C56.8473 64.3278 56.8567 64.1187 56.8847 63.9095Z" fill="#C1C1C1"/>
<path d="M75.404 68.9507H75.376C75.3573 68.8775 75.3293 68.8043 75.2919 68.9507H74.0498C73.5082 67.3191 72.1633 65.7816 70.5944 65.7816C70.5477 65.7816 70.501 65.7816 70.4636 65.7816C70.4636 65.7398 70.4636 65.698 70.4636 65.6457C70.4636 64.0245 69.0814 62.7067 67.363 62.7067C66.9054 62.7067 66.4851 62.8008 66.0929 62.9577C65.4485 61.0541 63.6834 59.6945 61.6008 59.6945C61.1432 59.6945 60.6949 59.7572 60.2746 59.8827C59.5649 60.0919 58.9298 60.458 58.3975 60.9496C58.9765 59.7154 60.0505 58.7636 61.3673 58.3766C61.7876 58.2511 62.2358 58.1884 62.6935 58.1884C64.7761 58.1884 66.5412 59.548 67.1856 61.4516C67.5778 61.2842 67.9981 61.2006 68.4557 61.2006C70.1648 61.2006 71.5563 62.5184 71.5563 64.1396C71.5563 64.1814 71.5563 64.2337 71.5563 64.2755C71.5936 64.2755 71.6403 64.2755 71.687 64.2755C73.7416 64.2755 75.404 66.9217 75.404 68.9507Z" fill="white"/>
<path d="M58.4068 60.96C57.5943 61.7131 57.0339 62.7485 56.8845 63.9199C57.2301 63.7631 57.5943 63.6375 57.9772 63.5643C57.9585 63.397 57.9492 63.2192 57.9492 63.0518C57.9492 62.3092 58.1173 61.598 58.4161 60.96H58.4068Z" fill="#C1C1C1"/>
<path d="M74.0406 68.9508H53.6533C53.6533 68.114 53.8868 67.2564 54.2884 66.472C54.9982 65.7607 55.8947 65.2378 56.8847 65.06C56.866 64.8926 56.8566 64.7148 56.8566 64.5475C56.8566 64.3278 56.866 64.1187 56.894 63.9095C57.2395 63.7526 57.6038 63.6271 57.9867 63.5539C57.968 63.3865 57.9587 63.2087 57.9587 63.0414C57.9587 62.2988 58.1268 61.5876 58.4256 60.9496C58.9579 60.458 59.593 60.0815 60.3028 59.8827C60.723 59.7572 61.1713 59.6945 61.6289 59.6945C63.7116 59.6945 65.4766 61.0542 66.121 62.9577C66.5133 62.8008 66.9336 62.7067 67.3912 62.7067C69.1002 62.7067 70.4918 64.0245 70.4918 65.6457C70.4918 65.6875 70.4918 65.7398 70.4918 65.7817C70.5291 65.7817 70.5758 65.7817 70.6225 65.7817C72.1915 65.7817 73.5363 67.3191 74.078 68.9508H74.0406Z" fill="#C1C1C1"/>
<path d="M43.5856 58.5231H54.2228V43.4934H43.5856V58.5231ZM35.5446 32.1034C35.5446 33.6828 36.6933 34.9692 38.1035 34.9692C39.5137 34.9692 40.6624 33.6828 40.6624 32.1034C40.6624 30.5241 39.5137 29.2376 38.1035 29.2376C36.6933 29.2376 35.5446 30.5241 35.5446 32.1034ZM14.8304 37.4271H10.5344V32.093L18.1551 26.9785L23.8707 23.14L38.0942 13.5909L44.1553 17.6594L50.3751 21.8326L49.6 30.2417C49.5439 30.796 49.7214 31.3504 50.0763 31.7478L61.3766 44.4033V58.3975C59.3874 58.9833 57.9398 60.845 57.9398 63.0623C57.9398 63.2401 57.9398 63.4074 57.9678 63.5748C55.493 64.035 53.6438 66.587 53.6438 68.9612H36.8614V44.6857H22.5539V68.9612H14.8304V37.4376V37.4271Z" fill="white"/>
<path d="M35.5447 32.1034C35.5447 30.5241 36.6934 29.2376 38.1036 29.2376C39.5138 29.2376 40.6625 30.5241 40.6625 32.1034C40.6625 33.6827 39.5138 34.9692 38.1036 34.9692C36.6934 34.9692 35.5447 33.6827 35.5447 32.1034ZM32.6496 55.584C33.3687 55.584 33.9571 56.243 33.9571 57.0483C33.9571 57.8537 33.3687 58.5126 32.6496 58.5126C31.9305 58.5126 31.3328 57.8537 31.3328 57.0483C31.3328 56.243 31.9211 55.584 32.6496 55.584Z" fill="white"/>
<path d="M36.8615 44.6752V68.9507H35.1431V46.3278H22.554V44.6752H36.8615Z" fill="white"/>
<path d="M35.1431 46.3278H22.554V68.9508H35.1431V46.3278Z" fill="#940000"/>
<path opacity="0.5" d="M22.6475 23.9663V18.0464H18.0339V17.0005H23.8335V23.0563L23.8802 23.14L22.6475 23.9663Z" fill="#EDEDED"/>
<path d="M22.6475 18.0464V23.9663L18.1553 26.9785L18.0339 26.7379V18.0464H22.6475Z" fill="#C1C1C1"/>
<path d="M22.6475 18.0464V23.9663L18.1553 26.9785L18.0339 26.7379V18.0464H22.6475Z" fill="#C1C1C1"/>
<path d="M12.5332 60.5103L12.169 61.096L10.7214 58.8368H4.30542V58.1361H11.0016L12.5332 60.5103Z" fill="white"/>
<path d="M12.169 61.096L11.0016 62.8949H4.30542V58.8368H10.7214L12.169 61.096Z" fill="#C1C1C1"/>
<path d="M12.169 61.096L11.0016 62.8949H4.30542V58.8368H10.7214L12.169 61.096Z" fill="#C1C1C1"/>
<path d="M84.5097 38.2115L83.1836 39.6967L71.3696 52.9274L71.3509 52.9484C71.3509 52.9484 71.2669 53.032 71.2295 53.0739H71.2108C71.2108 53.0739 71.1361 53.1471 71.0894 53.1785C71.0427 53.2098 70.996 53.2412 70.9493 53.2726C70.856 53.3249 70.7532 53.3667 70.6505 53.4086C70.6038 53.419 70.5478 53.4399 70.5011 53.4504C69.9781 53.5655 69.4177 53.3876 69.0161 52.9379L61.3861 44.4033L50.0858 31.7478C49.7309 31.3504 49.5628 30.796 49.6095 30.2417L50.3846 21.8431L50.8422 16.8959C50.8422 16.8959 50.8516 16.8018 50.8609 16.7495C50.9916 15.9442 51.5893 15.3166 52.3271 15.2329L57.6224 14.6263L64.2439 13.8628C64.7388 13.8 65.2338 13.9988 65.5887 14.3962L84.5097 35.5863C85.1635 36.3184 85.1635 37.4899 84.5097 38.222V38.2115Z" fill="#CB9390"/>
<path d="M61.386 44.3928V58.3871" stroke="black" stroke-width="0.63" stroke-linecap="round" stroke-linejoin="round"/>
<path d="M14.8306 68.9508V37.4271V35.0529L38.1037 19.8454L47.5922 26.0476" stroke="black" stroke-width="0.63" stroke-linecap="round" stroke-linejoin="round"/>
<path d="M50.3844 21.8221L44.1646 17.649L38.1035 13.5804L23.88 23.14L18.1551 26.9785L10.5344 32.093V37.4271H14.8304" stroke="black" stroke-width="0.63" stroke-linecap="round" stroke-linejoin="round"/>
<path d="M22.554 68.9507V44.6752H36.8615V68.9507" stroke="black" stroke-width="0.63" stroke-linecap="round" stroke-linejoin="round"/>
<path d="M33.9571 57.0483C33.9571 57.8537 33.3687 58.5126 32.6496 58.5126C31.9305 58.5126 31.3328 57.8537 31.3328 57.0483C31.3328 56.243 31.9211 55.584 32.6496 55.584C33.378 55.584 33.9571 56.243 33.9571 57.0483ZM38.1036 34.9692C36.6934 34.9692 35.5447 33.6827 35.5447 32.1034C35.5447 30.5241 36.6934 29.2376 38.1036 29.2376C39.5138 29.2376 40.6625 30.5241 40.6625 32.1034C40.6625 33.6827 39.5138 34.9692 38.1036 34.9692Z" stroke="black" stroke-width="0.63" stroke-linecap="round" stroke-linejoin="round"/>
<path d="M43.5857 58.523V51.003V43.4933H54.223V51.003V58.523" stroke="black" stroke-width="0.63" stroke-linecap="round" stroke-linejoin="round"/>
<path d="M41.2229 58.523H43.5857H54.223H56.4457" stroke="black" stroke-width="0.63" stroke-linecap="round" stroke-linejoin="round"/>
<path d="M43.707 51.003H54.2229" stroke="black" stroke-width="0.63" stroke-linecap="round" stroke-linejoin="round"/>
<path d="M11.0109 58.1361L12.5332 60.5207L11.0109 62.8949H7.95702H4.30542V58.1361H11.0109Z" stroke="black" stroke-width="0.63" stroke-linecap="round" stroke-linejoin="round"/>
<path d="M7.95703 62.8949V68.9508" stroke="black" stroke-width="0.63" stroke-linecap="round" stroke-linejoin="round"/>
<path d="M53.6533 68.8985C53.6813 66.5347 55.5305 64.0245 57.9773 63.5643C57.9587 63.397 57.9493 63.2192 57.9493 63.0518C57.9493 60.845 59.3969 58.9728 61.3861 58.3871C61.8064 58.2616 62.2546 58.1988 62.7123 58.1988C64.7949 58.1988 66.56 59.5585 67.2044 61.4621C67.5966 61.2947 68.0169 61.211 68.4745 61.211C70.1836 61.211 71.5751 62.5289 71.5751 64.15C71.5751 64.1919 71.5751 64.2442 71.5751 64.286C71.6124 64.286 71.6591 64.286 71.7058 64.286C73.7604 64.286 75.4228 66.9321 75.4228 68.9612" stroke="black" stroke-width="0.63" stroke-linecap="round" stroke-linejoin="round"/>
<path d="M18.0339 26.7379V17.0005H23.8335V23.0563" stroke="black" stroke-width="0.63" stroke-linecap="round" stroke-linejoin="round"/>
<path d="M84.5097 38.2115L83.1742 39.7072C83.8279 38.975 83.8279 37.8036 83.1742 37.0715L64.2531 15.8814C63.8983 15.484 63.4033 15.2852 62.9083 15.348L56.2869 16.1115L50.9916 16.7181C50.9916 16.7181 50.8982 16.7286 50.8608 16.739C50.9916 15.9337 51.5893 15.3062 52.3271 15.2225L57.6224 14.6054L64.2438 13.8419C64.7388 13.7791 65.2337 13.9778 65.5886 14.3753L84.5097 35.5654C85.1634 36.2975 85.1634 37.4689 84.5097 38.2011V38.2115Z" fill="white"/>
<path d="M84.5097 38.2115L83.1836 39.6967L71.3696 52.9274C71.3696 52.9274 71.3603 52.9379 71.3509 52.9484C71.3136 52.9902 71.2669 53.032 71.2295 53.0739C71.2295 53.0739 71.2295 53.0739 71.2108 53.0843C71.1735 53.1157 71.1361 53.1471 71.0894 53.1785C71.0427 53.2098 70.996 53.2412 70.9493 53.2726C70.856 53.3249 70.7532 53.3667 70.6505 53.4086C70.6038 53.419 70.5478 53.4399 70.5011 53.4504C69.9781 53.5655 69.4177 53.3876 69.0162 52.9379L61.3861 44.4033L50.0858 31.7478C49.7309 31.3504 49.5628 30.796 49.6095 30.2417L50.3846 21.8431L50.8422 16.8959C50.8422 16.8959 50.8516 16.8018 50.8609 16.7495C50.9916 15.9442 51.5893 15.3166 52.3271 15.2329L57.6224 14.6263L64.2439 13.8628C64.7388 13.8 65.2338 13.9988 65.5887 14.3962L84.5097 35.5863C85.1635 36.3184 85.1635 37.4899 84.5097 38.222V38.2115Z" stroke="black" stroke-width="0.63" stroke-linecap="round" stroke-linejoin="round"/>
<path d="M44.1647 17.649C44.0994 17.2202 44.062 16.7704 44.062 16.3207C44.062 12.0743 47.1346 8.63326 50.9263 8.63326C54.195 8.63326 56.922 11.1853 57.6224 14.6158C57.7345 15.1597 57.7905 15.735 57.7905 16.3207C57.7905 18.538 56.9593 20.5252 55.6238 21.9267" stroke="black" stroke-width="0.63" stroke-linecap="round" stroke-linejoin="round"/>
<path d="M60.1252 31.6537C60.919 30.7647 62.2078 30.7647 63.0109 31.6537C63.8048 32.5427 63.8048 33.9965 63.0109 34.8855C62.2171 35.7746 60.919 35.7746 60.1252 34.8855C59.3313 33.9965 59.3313 32.5532 60.1252 31.6537ZM72.3501 33.8396C71.5562 34.7287 70.2674 34.7287 69.4643 33.8396C68.6704 32.9506 68.6704 31.4968 69.4643 30.6078C70.2581 29.7188 71.5562 29.7188 72.3501 30.6078C73.1439 31.4968 73.1439 32.9401 72.3501 33.8396Z" stroke="black" stroke-width="0.63" stroke-linecap="round" stroke-linejoin="round"/>
<path d="M65.4858 24.6775L66.9334 40.8263" stroke="black" stroke-width="0.63" stroke-linecap="round" stroke-linejoin="round"/>
<path d="M71.248 10.2962V13.162" stroke="black" stroke-width="0.63" stroke-linecap="round" stroke-linejoin="round"/>
<path d="M72.5183 11.7291H69.9688" stroke="black" stroke-width="0.63" stroke-linecap="round" stroke-linejoin="round"/>
<path d="M3.10059 37.4794V42.1755" stroke="black" stroke-width="0.63" stroke-linecap="round" stroke-linejoin="round"/>
<path d="M5.19247 39.8327H1.00854" stroke="black" stroke-width="0.63" stroke-linecap="round" stroke-linejoin="round"/>
<path d="M28.5589 29.5932L20.7607 34.8855" stroke="black" stroke-width="0.63" stroke-linecap="round" stroke-linejoin="round"/>
<path d="M31.8184 27.3864L29.8945 28.6938" stroke="black" stroke-width="0.63" stroke-linecap="round" stroke-linejoin="round"/>
<path d="M13.0188 53.7537V55.3749" stroke="black" stroke-width="0.63" stroke-linecap="round" stroke-linejoin="round"/>
<path d="M13.0188 45.627V52.007" stroke="black" stroke-width="0.63" stroke-linecap="round" stroke-linejoin="round"/>
<path d="M36.1238 3.01674V5.87207" stroke="black" stroke-width="0.63" stroke-linecap="round" stroke-linejoin="round"/>
<path d="M37.3938 4.44963H34.8442" stroke="black" stroke-width="0.63" stroke-linecap="round" stroke-linejoin="round"/>
<path d="M2.68042 68.8985H66.2238H72.6958H75.3668" stroke="black" stroke-width="0.63" stroke-linecap="round" stroke-linejoin="round"/>
</svg>
