<svg width="17" height="17" viewBox="0 0 17 17" fill="none" xmlns="http://www.w3.org/2000/svg">
<path d="M7.13258 1.99752L2.22383 5.92876C1.67133 6.36793 1.31716 7.29587 1.43758 7.99004L2.37966 13.6283C2.54966 14.6342 3.51299 15.4488 4.53299 15.4488H12.4663C13.4792 15.4488 14.4497 14.6271 14.6197 13.6283L15.5617 7.99004C15.6751 7.29587 15.3209 6.36793 14.7755 5.92876L9.86674 2.00461C9.10882 1.39545 7.88341 1.39544 7.13258 1.99752Z" stroke="#424242" stroke-linecap="round" stroke-linejoin="round"/>
<path d="M8.50033 10.9792C9.47833 10.9792 10.2712 10.1863 10.2712 9.20833C10.2712 8.23033 9.47833 7.4375 8.50033 7.4375C7.52232 7.4375 6.72949 8.23033 6.72949 9.20833C6.72949 10.1863 7.52232 10.9792 8.50033 10.9792Z" stroke="#424242" stroke-linecap="round" stroke-linejoin="round"/>
</svg>
