<svg width="85" height="80" viewBox="0 0 85 80" fill="none" xmlns="http://www.w3.org/2000/svg">
<g clip-path="url(#clip0_281_15302)">
<path opacity="0.5" d="M73.9712 0H7.07762C3.4449 0 0.5 2.76261 0.5 6.17047V73.8295C0.5 77.2374 3.4449 80 7.07762 80H73.9712C77.6039 80 80.5488 77.2374 80.5488 73.8295V6.17047C80.5488 2.76261 77.6039 0 73.9712 0Z" fill="#EDEDED"/>
<path d="M47.5696 64.6333L55.4374 74.1754H28.7122H25.5098L33.3891 64.6333H47.5696Z" fill="#C1C1C1"/>
<path d="M78.4415 59.3057V62.4828C78.4415 63.6715 77.4162 64.644 76.1376 64.644H74.6055C75.8726 64.644 76.9094 63.6823 76.9094 62.4828V59.3057H78.4415Z" fill="#C1C1C1"/>
<path d="M76.1374 13.9727C77.4046 13.9727 78.4413 14.9345 78.4413 16.134V59.3165H66.0348C63.8231 57.2525 60.6207 54.3023 55.9899 49.9581C57.5565 47.6564 58.6624 45.4086 59.3651 43.2257H74.5938V31.8141H76.4254V29.9122L64.664 23.2987L57.1879 27.5024C53.5017 22.2396 47.0047 18.9113 40.2197 18.76C38.319 18.7167 36.3952 18.9221 34.506 19.4084C31.6031 20.154 28.7809 21.548 26.2351 23.6985C24.9449 24.79 23.8966 25.9246 23.0557 27.0809L16.3283 23.2987L4.56693 29.9122V31.8141H6.39853V43.2257H20.3141C22.9059 51.806 31.534 57.0796 40.1045 57.0796C45.0579 57.0796 48.4216 55.5991 52.799 52.9623C54.6651 54.713 57.0957 57.0039 59.5379 59.3057H0.984375V16.1232C0.984375 14.9345 2.00961 13.9619 3.28827 13.9619H76.1489L76.1374 13.9727Z" fill="white"/>
<path d="M66.0358 59.3057C69.8258 62.8502 70.6667 63.7579 70.6667 64.5792C70.6667 64.6008 70.6667 64.6224 70.6667 64.644H65.1719C63.467 63.0339 61.4972 61.1644 59.5273 59.3165H66.0474L66.0358 59.3057Z" fill="#941303"/>
<path d="M66.9908 33.9755H66.7949V39.3463H66.9908V33.9755Z" fill="#CB9390"/>
<path d="M66.035 59.3057H76.9093V62.4828C76.9093 63.6715 75.8841 64.644 74.6054 64.644H70.6543C70.6543 64.644 70.6543 64.6008 70.6543 64.5792C70.6543 63.7579 69.8249 62.8502 66.0234 59.3057H66.035Z" fill="#C1C1C1"/>
<path d="M65.1593 64.6333H70.6541C70.5965 66.438 68.1428 67.4214 66.7029 66.0922C66.2191 65.6383 65.7007 65.152 65.1593 64.6333ZM22.8252 37.909C22.8252 46.7703 30.4857 53.9566 39.9316 53.9566C49.3776 53.9566 57.0381 46.7703 57.0381 37.909C57.0381 29.0477 49.3776 21.8615 39.9316 21.8615C30.4857 21.8615 22.8252 29.0477 22.8252 37.909ZM55.9783 49.9474C60.6091 54.2916 63.823 57.2417 66.0232 59.3057H59.5032C57.0611 57.004 54.6305 54.713 52.7643 52.9624C48.3869 55.5883 45.0232 57.0796 40.0699 57.0796C31.4994 57.0796 22.8713 51.8061 20.2794 43.2258C19.7726 41.5508 19.4961 39.7569 19.4961 37.8442C19.4961 37.0337 19.5537 35.845 19.8302 34.4293C20.2333 32.3005 21.1203 29.6745 23.0326 27.081C23.8735 25.9355 24.9218 24.79 26.2119 23.6986C28.7578 21.5481 31.58 20.154 34.4829 19.4084C36.3721 18.9221 38.2959 18.7168 40.1966 18.76C46.9816 18.9113 53.4785 22.2397 57.1648 27.5024C58.5932 29.534 59.6069 31.8682 60.0562 34.3969C60.5285 37.1201 60.3557 40.0919 59.3535 43.215C58.6508 45.3979 57.5449 47.6456 55.9783 49.9474Z" fill="#941303"/>
<path d="M51.2676 53.6864C48.8485 55.1453 46.7289 56.2475 44.4941 56.9391C46.9247 56.388 49.1135 55.3722 51.5671 53.9566C51.4634 53.8701 51.3713 53.7729 51.2791 53.6864H51.2676ZM65.0334 65.0007C65.1601 65.1196 65.2983 65.2493 65.425 65.3682C65.8282 65.7464 66.2084 66.1138 66.577 66.4596C67.0262 66.8702 67.5676 67.0648 68.1091 67.0756C69.3071 67.108 70.4936 66.2435 70.5282 65.0007H65.0334Z" fill="#941303"/>
<path d="M70.5169 64.0065C70.7588 64.763 70.5169 65.3682 69.8603 65.8436C67.6716 63.8012 58.8477 54.7671 54.4818 50.6822C56.0485 48.3805 57.1543 46.1327 57.857 43.9498C58.8592 40.8268 59.0435 37.855 58.5597 35.1318C58.1105 32.5923 57.1083 30.2689 55.6683 28.2373C51.9821 22.9853 45.4851 19.6462 38.7001 19.4949C36.9492 19.4516 35.1867 19.6245 33.4473 20.0352C33.7468 19.9379 34.0578 19.8515 34.3573 19.7758C36.2465 19.2895 38.1702 19.0842 40.071 19.1274C46.8559 19.2787 53.3529 22.6071 57.0392 27.8698C58.4676 29.9123 59.4813 32.2356 59.9305 34.7752C60.4028 37.4984 60.23 40.4701 59.2278 43.5932C58.5252 45.7761 57.4193 48.0238 55.8526 50.3256C60.4835 54.6698 68.3052 61.9533 70.5054 64.0174L70.5169 64.0065Z" fill="white"/>
<path d="M43.8492 53.8701C42.559 54.1619 41.2112 54.324 39.8174 54.324C30.3714 54.324 22.7109 47.1377 22.7109 38.2656C22.7109 31.1766 27.6182 25.1574 34.4147 23.0286C36.1196 22.499 37.9282 22.2073 39.8174 22.2073C49.2633 22.2073 56.9353 29.3936 56.9353 38.2656C56.9353 45.8301 51.3599 52.1735 43.8492 53.8701Z" fill="#941303"/>
<path d="M56.9236 38.2656C56.9236 45.8301 51.3482 52.1735 43.8375 53.8701C42.5473 54.1619 41.1995 54.324 39.8056 54.324C30.3597 54.324 22.6992 47.1377 22.6992 38.2656C22.6992 31.1766 27.6065 25.1574 34.403 23.0286C36.1079 22.499 37.9164 22.2073 39.8056 22.2073C49.2516 22.2073 56.9236 29.3936 56.9236 38.2656Z" fill="#941303"/>
<path d="M60.0562 34.3969H64.1226V43.2149H59.3535C60.3557 40.0918 60.54 37.1201 60.0562 34.3969Z" fill="white"/>
<path d="M57.1657 27.5024L64.6419 23.2987L76.4032 29.9122V31.8142H74.5716V43.2258H64.1235V34.4077H60.0571C59.6078 31.8682 58.6057 29.5448 57.1657 27.5132V27.5024ZM30.0143 46.3164H49.8739V34.9048H51.7055V33.0029L39.9441 26.3893L33.8733 29.8042L33.8503 29.7718V27.6105H31.3736V31.0901L31.4312 31.1766L28.1827 33.0029V34.9048H30.0143V46.3164ZM39.9326 21.8615C49.3786 21.8615 57.039 29.0477 57.039 37.909C57.039 46.7703 49.3786 53.9566 39.9326 53.9566C30.4866 53.9566 22.8262 46.7703 22.8262 37.909C22.8262 29.0477 30.4866 21.8615 39.9326 21.8615Z" fill="white"/>
<path d="M42.2698 42.4369H46.8084V37.0661H42.2698V42.4369ZM51.6927 32.9921V34.894H49.8611V46.3056H39.4014V37.4875H33.2961V46.3056H30.0015V34.894H28.1699V32.9921L31.4184 31.1658L33.8605 29.7934L39.9313 26.3785L51.6927 32.9921Z" fill="white"/>
<path d="M40.243 62.9367C40.8075 62.9367 41.2682 62.5044 41.2682 61.9749C41.2682 61.4454 40.8075 61.0131 40.243 61.0131C39.6786 61.0131 39.2178 61.4454 39.2178 61.9749C39.2178 62.5044 39.6786 62.9367 40.243 62.9367ZM59.5151 59.3057C61.4849 61.1644 63.4548 63.0231 65.1596 64.6333H6.35272C5.08558 64.6333 4.04883 63.6715 4.04883 62.472V59.2949H59.5151V59.3057Z" fill="#C1C1C1"/>
<path d="M46.8082 37.066H42.2695V42.4368H46.8082V37.066Z" fill="#CB9390"/>
<path d="M40.244 62.9366C40.8102 62.9366 41.2692 62.506 41.2692 61.9748C41.2692 61.4437 40.8102 61.0131 40.244 61.0131C39.6778 61.0131 39.2188 61.4437 39.2188 61.9748C39.2188 62.506 39.6778 62.9366 40.244 62.9366Z" fill="white"/>
<path d="M39.4139 37.4875H33.3086V46.3056H39.4139V37.4875Z" fill="#CB9390"/>
<path d="M33.8497 29.7718L33.8728 29.7934L31.4306 31.1658L31.373 31.0901V27.6105H33.8497V29.7718Z" fill="#CB9390"/>
<path d="M23.0337 27.081C21.133 29.6745 20.2344 32.3005 19.8313 34.4293L19.693 34.4077H16.8247V43.2258H6.37652V31.8142H4.54492V29.9122L16.3063 23.2987L23.0337 27.081Z" fill="white"/>
<path d="M19.5085 37.8333C19.5085 39.746 19.7849 41.5399 20.2918 43.2149H16.8359V34.3969H19.7043L19.8425 34.4185C19.5661 35.8341 19.5085 37.0228 19.5085 37.8333Z" fill="white"/>
<path d="M4.04855 62.4828C4.04855 63.6715 5.07379 64.644 6.35245 64.644H3.28827C2.02113 64.644 0.984375 63.6823 0.984375 62.4828V59.3057H4.04855V62.4828Z" fill="#C1C1C1"/>
<path d="M78.4415 25.1357V62.4828C78.4415 63.6715 77.4162 64.644 76.1376 64.644H70.6543" stroke="black" stroke-width="0.62" stroke-linecap="round" stroke-linejoin="round"/>
<path d="M65.1592 64.6333H3.27655C2.00941 64.6333 0.972656 63.6715 0.972656 62.472V16.1232C0.972656 14.9345 1.99789 13.9619 3.27655 13.9619H56.8767" stroke="black" stroke-width="0.62" stroke-linecap="round" stroke-linejoin="round"/>
<path d="M66.0352 59.3057H76.9095H78.4416" stroke="black" stroke-width="0.62" stroke-linecap="round" stroke-linejoin="round"/>
<path d="M0.984375 59.3057H4.04855H59.5148" stroke="black" stroke-width="0.62" stroke-linecap="round" stroke-linejoin="round"/>
<path d="M33.3998 64.6224L33.3883 64.6332L25.509 74.1753L25.4629 74.2294" stroke="black" stroke-width="0.62" stroke-linecap="round" stroke-linejoin="round"/>
<path d="M47.5566 64.6224L47.5682 64.6332L55.436 74.1753L55.4936 74.2294" stroke="black" stroke-width="0.62" stroke-linecap="round" stroke-linejoin="round"/>
<path d="M22.8242 37.909C22.8242 46.7703 30.4847 53.9565 39.9306 53.9565C49.3766 53.9565 57.0371 46.7703 57.0371 37.909C57.0371 29.0477 49.3766 21.8615 39.9306 21.8615C30.4847 21.8615 22.8242 29.0477 22.8242 37.909Z" stroke="black" stroke-width="0.62" stroke-linecap="round" stroke-linejoin="round"/>
<path d="M23.0328 27.081C23.8737 25.9355 24.922 24.79 26.2121 23.6985C28.758 21.5481 31.5802 20.154 34.4831 19.4084C36.3723 18.9221 38.2961 18.7168 40.1968 18.76C46.9818 18.9113 53.4787 22.2397 57.165 27.5024C58.5934 29.534 59.6071 31.8682 60.0564 34.3969C60.5287 37.1201 60.3559 40.0919 59.3537 43.215C58.651 45.3979 57.5451 47.6456 55.9785 49.9474C60.6093 54.2916 63.8232 57.2417 66.0235 59.3057C69.8134 62.8502 70.6543 63.758 70.6543 64.5793C70.6543 64.6009 70.6543 64.6225 70.6543 64.6441C70.5967 66.4488 68.143 67.4322 66.7031 66.103C66.2193 65.6491 65.7009 65.1628 65.1595 64.6441C63.4546 63.034 61.4848 61.1644 59.5149 59.3165C57.0728 57.0148 54.6422 54.7238 52.7761 52.9732C48.3987 55.5991 45.035 57.0904 40.0816 57.0904C31.5111 57.0904 22.883 51.8169 20.2911 43.2366C19.7843 41.5616 19.5078 39.7677 19.5078 37.855C19.5078 37.0445 19.5654 35.8558 19.8419 34.4401C20.2451 32.3113 21.1321 29.6853 23.0443 27.0918L23.0328 27.081Z" stroke="black" stroke-width="0.62" stroke-linecap="round" stroke-linejoin="round"/>
<path d="M30.0132 46.3164V34.9048H28.1816V32.9921L31.4301 31.1658L33.8723 29.7934L39.9315 26.3785L51.6929 32.9921V34.9048H49.8613V46.3164" stroke="black" stroke-width="0.62" stroke-linecap="round" stroke-linejoin="round"/>
<path d="M33.3086 46.3164V37.4875H39.4024V46.3164" stroke="black" stroke-width="0.62" stroke-linecap="round" stroke-linejoin="round"/>
<path d="M42.2695 42.4368V37.066H46.8082V42.4368" stroke="black" stroke-width="0.62" stroke-linecap="round" stroke-linejoin="round"/>
<path d="M41.2676 42.4369H42.2698H46.8084H47.753" stroke="black" stroke-width="0.62" stroke-linecap="round" stroke-linejoin="round"/>
<path d="M31.373 31.0901V27.6105H33.8497V29.7718" stroke="black" stroke-width="0.62" stroke-linecap="round" stroke-linejoin="round"/>
<path d="M28.793 46.3164H30.014H33.3086H39.4024H49.8621H51.6937" stroke="black" stroke-width="0.62" stroke-linecap="round" stroke-linejoin="round"/>
<path d="M40.242 62.9366C40.8082 62.9366 41.2673 62.506 41.2673 61.9748C41.2673 61.4437 40.8082 61.0131 40.242 61.0131C39.6758 61.0131 39.2168 61.4437 39.2168 61.9748C39.2168 62.506 39.6758 62.9366 40.242 62.9366Z" stroke="black" stroke-width="0.62" stroke-linecap="round" stroke-linejoin="round"/>
<path d="M82.082 67.3889V70.4471" stroke="black" stroke-width="0.62" stroke-linecap="round" stroke-linejoin="round"/>
<path d="M83.7053 68.9235H80.4453" stroke="black" stroke-width="0.62" stroke-linecap="round" stroke-linejoin="round"/>
<path d="M11.4219 71.2576V74.3158" stroke="black" stroke-width="0.62" stroke-linecap="round" stroke-linejoin="round"/>
<path d="M13.0452 72.7812H9.78516" stroke="black" stroke-width="0.62" stroke-linecap="round" stroke-linejoin="round"/>
<path d="M30.3477 5.60852V9.4448" stroke="black" stroke-width="0.62" stroke-linecap="round" stroke-linejoin="round"/>
<path d="M32.3863 7.53204H28.2969" stroke="black" stroke-width="0.62" stroke-linecap="round" stroke-linejoin="round"/>
<path d="M5.14258 25.8922V27.913" stroke="black" stroke-width="0.62" stroke-linecap="round" stroke-linejoin="round"/>
<path d="M5.14258 19.095V24.3577" stroke="black" stroke-width="0.62" stroke-linecap="round" stroke-linejoin="round"/>
<path d="M21.5117 74.3158H59.5836" stroke="black" stroke-width="0.62" stroke-linecap="round" stroke-linejoin="round"/>
<path d="M16.0162 37.1417C13.6316 37.6172 12.1917 38.968 11.6848 41.2049C11.178 38.968 9.73805 37.6172 7.35352 37.1417C9.73805 36.6662 11.178 35.3154 11.6848 33.0785C12.1917 35.3154 13.6316 36.6662 16.0162 37.1417Z" fill="#CB9390"/>
<path d="M23.9637 44.5873C19.9434 45.387 17.5013 47.6779 16.6489 51.4494C15.7964 47.6779 13.3543 45.387 9.33398 44.5873C13.3543 43.7876 15.7964 41.4967 16.6489 37.7252C17.5013 41.4967 19.9434 43.7876 23.9637 44.5873Z" fill="#CB9390"/>
<path d="M75.3071 9.49883L80.6176 4.18207L78.1178 12.3625H84.1425L72.1047 26.8432L75.7909 14.8048H70.3652L72.6576 12.395" fill="#CB9390"/>
<path d="M75.3071 9.49883L80.6176 4.18207L78.1178 12.3625H84.1425L72.1047 26.8432L75.7909 14.8048H70.3652L72.6576 12.395" stroke="black" stroke-width="0.62" stroke-linecap="round" stroke-linejoin="round"/>
<path d="M74.3974 10.7957H59.3184" stroke="black" stroke-width="0.62" stroke-linecap="round" stroke-linejoin="round"/>
<path d="M73.5683 7.82385H65.8848" stroke="black" stroke-width="0.62" stroke-linecap="round" stroke-linejoin="round"/>
<path d="M67.751 14.3293H60.3555" stroke="black" stroke-width="0.62" stroke-linecap="round" stroke-linejoin="round"/>
<path d="M66.1254 18.6735H62.877" stroke="black" stroke-width="0.62" stroke-linecap="round" stroke-linejoin="round"/>
<path d="M71.149 21.9802H64.9746" stroke="black" stroke-width="0.62" stroke-linecap="round" stroke-linejoin="round"/>
<path d="M16.0162 37.1417C13.6316 37.6172 12.1917 38.968 11.6848 41.2049C11.178 38.968 9.73805 37.6172 7.35352 37.1417C9.73805 36.6662 11.178 35.3154 11.6848 33.0785C12.1917 35.3154 13.6316 36.6662 16.0162 37.1417Z" stroke="black" stroke-width="0.62" stroke-linecap="round" stroke-linejoin="round"/>
<path d="M23.9637 44.5873C19.9434 45.387 17.5013 47.6779 16.6489 51.4494C15.7964 47.6779 13.3543 45.387 9.33398 44.5873C13.3543 43.7876 15.7964 41.4967 16.6489 37.7252C17.5013 41.4967 19.9434 43.7876 23.9637 44.5873Z" stroke="black" stroke-width="0.62" stroke-linecap="round" stroke-linejoin="round"/>
<path d="M61.1959 44.9656C60.8734 45.5815 60.5047 46.1759 60.1016 46.7594" stroke="black" stroke-width="0.62" stroke-linecap="round" stroke-linejoin="round"/>
<path d="M61.2188 29.1881C63.5457 33.6187 63.7761 38.6978 62.0021 43.2149" stroke="black" stroke-width="0.62" stroke-linecap="round" stroke-linejoin="round"/>
<path d="M65.9297 47.7104H70.526" stroke="black" stroke-width="0.62" stroke-linecap="round" stroke-linejoin="round"/>
<path d="M71.4238 50.1202H73.8199" stroke="black" stroke-width="0.62" stroke-linecap="round" stroke-linejoin="round"/>
<path d="M65.9297 50.1202H69.5929" stroke="black" stroke-width="0.62" stroke-linecap="round" stroke-linejoin="round"/>
<path d="M65.9297 52.5302H73.8205" stroke="black" stroke-width="0.62" stroke-linecap="round" stroke-linejoin="round"/>
</g>
<defs>
<clipPath id="clip0_281_15302">
<rect width="84" height="80" fill="white" transform="translate(0.5)"/>
</clipPath>
</defs>
</svg>
