<svg width="84" height="80" viewBox="0 0 84 80" fill="none" xmlns="http://www.w3.org/2000/svg">
<g clip-path="url(#clip0_281_14793)">
<path opacity="0.5" d="M74.8465 0H13.0597C9.70654 0 6.98828 2.761 6.98828 6.16687V73.8331C6.98828 77.239 9.70654 80 13.0597 80H74.8465C78.1996 80 80.9179 77.239 80.9179 73.8331V6.16687C80.9179 2.761 78.1996 0 74.8465 0Z" fill="#EDEDED"/>
<g opacity="0.24">
<path d="M66.1588 23.3663L71.6574 28.2215L71.595 28.3062V36.853H67.7418V32.8546H64.6279V36.853H60.7747V28.2427L60.7227 28.1898L66.1588 23.3663Z" fill="#005063"/>
<path d="M58.6094 30.0621L60.7234 28.1898L66.1596 23.3663L71.6582 28.2215L73.7515 30.0621" fill="#005063"/>
<path d="M60.7754 28.2427V36.853H64.6286H67.7424H71.5956V28.3061" fill="#005063"/>
<path d="M67.7427 36.853V32.8546H64.6289V36.853" fill="#005063"/>
<path d="M55.2976 67.021C55.0997 67.2854 54.6727 67.4229 54.3603 67.3383L53.1835 67.0104C52.9752 66.9575 52.6941 66.9258 52.4233 66.9469C52.2879 66.9469 52.1525 66.9575 52.038 66.9893L50.8508 67.2537C50.5279 67.3277 50.1218 67.1691 49.9343 66.8941L49.2366 65.8786C49.0491 65.6036 48.6638 65.2545 48.3722 65.0958L48.0494 64.9266L47.2996 64.5246C47.008 64.3765 46.7893 63.9746 46.8309 63.6467L46.9455 62.4091C46.9767 62.0811 46.9038 61.5628 46.7685 61.2455L46.2998 60.1031C46.1749 59.7963 46.2686 59.3626 46.4977 59.1194L47.3621 58.252C47.5912 58.0193 47.8723 57.575 47.9661 57.2577L48.3306 56.0835C48.4347 55.7662 48.7784 55.4912 49.1012 55.4594L50.3197 55.3537C50.6425 55.3219 51.132 55.1633 51.4131 54.9834L52.4337 54.317C52.7149 54.1372 53.1523 54.1584 53.4231 54.3488L54.4124 55.0575C54.6832 55.2585 55.1622 55.4489 55.485 55.4806L56.6931 55.6393C57.0159 55.6816 57.3492 55.9777 57.4325 56.3057L57.7345 57.501C57.8178 57.8183 58.0573 58.2837 58.2864 58.527L59.1091 59.4367C59.3278 59.68 59.4007 60.1243 59.2549 60.4204L58.7342 61.5417C58.5989 61.8379 58.4843 62.3562 58.5051 62.6841L58.5676 63.9217C58.578 64.2496 58.3489 64.641 58.0573 64.7785L57.5887 65.0006L56.9534 65.2968C56.6514 65.4343 56.2557 65.7622 56.0578 66.0267L55.3184 66.9998L55.2976 67.021ZM52.7982 64.8525C54.9643 64.8525 56.7243 63.0649 56.7243 60.8647C56.7243 58.6645 54.9643 56.8769 52.7982 56.8769C50.6321 56.8769 48.8617 58.6539 48.8617 60.8647C48.8617 63.0755 50.6217 64.8525 52.7982 64.8525Z" fill="#005063"/>
<path d="M56.724 60.8647C56.724 63.0649 54.964 64.8525 52.7979 64.8525C50.6317 64.8525 48.8613 63.0649 48.8613 60.8647C48.8613 58.6645 50.6213 56.8768 52.7979 56.8768C54.9744 56.8768 56.724 58.6539 56.724 60.8647Z" fill="#005063"/>
<path d="M48.0709 64.9266L47.3211 64.5246C47.0295 64.3765 46.8108 63.9746 46.8524 63.6467L46.967 62.4091C46.9982 62.0811 46.9253 61.5628 46.7899 61.2455L46.3213 60.1031C46.1963 59.7963 46.2901 59.3626 46.5192 59.1194L47.3835 58.252C47.6127 58.0193 47.8938 57.575 47.9876 57.2577L48.3521 56.0835C48.4562 55.7662 48.7999 55.4912 49.1227 55.4594L50.3411 55.3537C50.664 55.3219 51.1534 55.1633 51.4346 54.9834L52.4552 54.317C52.7364 54.1372 53.1738 54.1584 53.4445 54.3488L54.4339 55.0575C54.7046 55.2585 55.1837 55.4489 55.5065 55.4806L56.7146 55.6393C57.0374 55.6816 57.3706 55.9777 57.454 56.3057L57.756 57.501C57.8393 57.8183 58.0788 58.2837 58.3079 58.527L59.1306 59.4367C59.3493 59.68 59.4222 60.1243 59.2764 60.4204L58.7557 61.5417C58.6203 61.8379 58.5058 62.3562 58.5266 62.6841L58.5891 63.9217C58.5995 64.2496 58.3704 64.641 58.0788 64.7785L57.6102 65.0006L56.9749 65.2968C56.6729 65.4343 56.2772 65.7622 56.0793 66.0267L55.3399 66.9998C55.142 67.2643 54.7151 67.4018 54.4026 67.3172L53.2258 66.9893C53.0176 66.9364 52.7364 66.9046 52.4656 66.9258C52.3302 66.9258 52.1948 66.9364 52.0803 66.9681L50.8931 67.2325C50.5703 67.3066 50.1641 67.1479 49.9767 66.8729L49.2789 65.8574C49.0915 65.5824 48.7061 65.2333 48.4145 65.0747L48.0917 64.9054L48.0709 64.9266Z" fill="#005063"/>
<path d="M56.7259 60.8647C56.7259 63.0649 54.9659 64.8525 52.7998 64.8525C50.6337 64.8525 48.8633 63.0649 48.8633 60.8647C48.8633 58.6645 50.6233 56.8768 52.7998 56.8768C54.9764 56.8768 56.7259 58.6539 56.7259 60.8647Z" fill="#005063"/>
</g>
<path d="M82.3023 21.2296V67.7826H43.7285V15.4647H77.5014L82.3023 21.2296Z" fill="white"/>
<path d="M82.3023 21.2296V67.7826H43.7285V15.4647H77.5014L82.3023 21.2296Z" stroke="black" stroke-width="0.64" stroke-linecap="round" stroke-linejoin="round"/>
<path d="M68.5553 21.7585L74.0539 26.6032L73.981 26.6878V35.2347H70.1278V31.2468H67.014V35.2347H63.1608V26.6243L63.1191 26.5715L68.5553 21.7585Z" fill="#941303"/>
<path d="M61.0059 28.4437L63.1199 26.5715L68.5561 21.7585L74.0547 26.6032L76.1479 28.4437" stroke="black" stroke-width="0.64" stroke-linecap="round" stroke-linejoin="round"/>
<path d="M63.1621 26.6244V35.2347H67.0153H70.1291H73.9823V26.6879" stroke="black" stroke-width="0.64" stroke-linecap="round" stroke-linejoin="round"/>
<path d="M70.1294 35.2347V31.2468H67.0156V35.2347" stroke="black" stroke-width="0.64" stroke-linecap="round" stroke-linejoin="round"/>
<path d="M67.6074 38.6725H74.991" stroke="black" stroke-width="0.64" stroke-linecap="round" stroke-linejoin="round"/>
<path d="M51.873 38.6725H65.3072" stroke="black" stroke-width="0.64" stroke-linecap="round" stroke-linejoin="round"/>
<path d="M62.5371 42.1526H74.9924" stroke="black" stroke-width="0.64" stroke-linecap="round" stroke-linejoin="round"/>
<path d="M51.873 42.1526H60.6313" stroke="black" stroke-width="0.64" stroke-linecap="round" stroke-linejoin="round"/>
<path d="M68.7227 45.6327H74.9919" stroke="black" stroke-width="0.64" stroke-linecap="round" stroke-linejoin="round"/>
<path d="M51.873 45.6327H66.0258" stroke="black" stroke-width="0.64" stroke-linecap="round" stroke-linejoin="round"/>
<path d="M51.873 49.1233H74.9923" stroke="black" stroke-width="0.64" stroke-linecap="round" stroke-linejoin="round"/>
<path d="M70.8359 52.6034H74.9912" stroke="black" stroke-width="0.64" stroke-linecap="round" stroke-linejoin="round"/>
<path d="M64.4102 52.6034H69.2527" stroke="black" stroke-width="0.64" stroke-linecap="round" stroke-linejoin="round"/>
<path d="M73.3574 56.0835H74.9924" stroke="black" stroke-width="0.64" stroke-linecap="round" stroke-linejoin="round"/>
<path d="M64.4102 56.0835H71.7" stroke="black" stroke-width="0.64" stroke-linecap="round" stroke-linejoin="round"/>
<path d="M68.4824 59.5636H74.9912" stroke="black" stroke-width="0.64" stroke-linecap="round" stroke-linejoin="round"/>
<path d="M64.4102 59.5636H66.9616" stroke="black" stroke-width="0.64" stroke-linecap="round" stroke-linejoin="round"/>
<path d="M72.7734 63.0543H74.9916" stroke="black" stroke-width="0.64" stroke-linecap="round" stroke-linejoin="round"/>
<path d="M64.4102 63.0543H71.2522" stroke="black" stroke-width="0.64" stroke-linecap="round" stroke-linejoin="round"/>
<path d="M58.4335 64.4294C58.6314 64.1649 59.0376 63.837 59.3292 63.6995L59.9644 63.4033L63.1615 70.0568L60.0269 68.6393L59.2042 72.0348L55.5801 65.392L56.7569 65.7199C57.0693 65.8045 57.4859 65.667 57.6941 65.4025L58.4335 64.4294Z" fill="#941303"/>
<path d="M54.4338 65.3708C54.5483 65.3391 54.6837 65.3285 54.8191 65.3285L51.1637 72.0454L50.341 68.6499L47.2168 70.0674L50.4556 63.3187L50.7784 63.488C51.07 63.6466 51.4553 63.9851 51.6428 64.2707L52.3405 65.2862C52.5176 65.5612 52.9341 65.7199 53.257 65.6458L54.4442 65.3814L54.4338 65.3708Z" fill="#941303"/>
<path d="M57.6941 65.4026C57.4962 65.667 57.0692 65.8045 56.7568 65.7199L55.58 65.392C55.3717 65.3391 55.0906 65.3074 54.8198 65.3285C54.6844 65.3285 54.549 65.3391 54.4345 65.3708L53.2473 65.6353C52.9244 65.7093 52.5183 65.5507 52.3308 65.2756L51.6331 64.2602C51.4456 63.9852 51.0603 63.6361 50.7687 63.4774L50.4459 63.3082L49.6961 62.9062C49.4045 62.7581 49.1858 62.3562 49.2274 62.0283L49.342 60.7907C49.3732 60.4627 49.3003 59.9444 49.1649 59.6271L48.6963 58.4847C48.5713 58.1779 48.6651 57.7442 48.8942 57.501L49.7585 56.6336C49.9877 56.4009 50.2688 55.9566 50.3626 55.6393L50.7271 54.4651C50.8312 54.1478 51.1749 53.8728 51.4977 53.841L52.7161 53.7353C53.039 53.7035 53.5284 53.5449 53.8096 53.365L54.8302 52.6986C55.1114 52.5188 55.5488 52.54 55.8195 52.7304L56.8089 53.4391C57.0796 53.6401 57.5587 53.8304 57.8815 53.8622L59.0896 54.0209C59.4124 54.0632 59.7456 54.3593 59.829 54.6873L60.131 55.8825C60.2143 56.1999 60.4538 56.6653 60.6829 56.9086L61.5056 57.8183C61.7243 58.0616 61.7972 58.5058 61.6514 58.802L61.1307 59.9233C60.9953 60.2195 60.8808 60.7378 60.9016 61.0657L60.9641 62.3033C60.9745 62.6312 60.7454 63.0226 60.4538 63.1601L59.9852 63.3822L59.3499 63.6784C59.0479 63.8159 58.6522 64.1438 58.4543 64.4083L57.7149 65.3814L57.6941 65.4026ZM55.1947 62.3773C56.8922 62.3773 58.2773 60.9705 58.2773 59.2463C58.2773 57.5221 56.8922 56.1153 55.1947 56.1153C53.4972 56.1153 52.1017 57.5115 52.1017 59.2463C52.1017 60.9811 53.4868 62.3773 55.1947 62.3773Z" fill="#941303"/>
<path d="M57.9433 59.2462C57.9433 60.7906 56.704 62.0494 55.1836 62.0494C53.6631 62.0494 52.4238 60.7906 52.4238 59.2462C52.4238 57.7019 53.6631 56.4431 55.1836 56.4431C56.704 56.4431 57.9433 57.6913 57.9433 59.2462Z" fill="white"/>
<path d="M50.4556 63.3082L49.7058 62.9062C49.4142 62.7581 49.1955 62.3562 49.2372 62.0283L49.3517 60.7907C49.383 60.4627 49.3101 59.9444 49.1747 59.6271L48.7061 58.4847C48.5811 58.1779 48.6748 57.7442 48.9039 57.501L49.7683 56.6336C49.9974 56.4009 50.2786 55.9566 50.3723 55.6393L50.7368 54.4651C50.841 54.1478 51.1846 53.8728 51.5075 53.841L52.7259 53.7353C53.0487 53.7035 53.5382 53.5449 53.8194 53.365L54.84 52.6986C55.1211 52.5188 55.5585 52.54 55.8293 52.7304L56.8186 53.4391C57.0894 53.6401 57.5685 53.8305 57.8913 53.8622L59.0993 54.0209C59.4222 54.0632 59.7554 54.3593 59.8387 54.6873L60.1407 55.8825C60.224 56.1999 60.4636 56.6653 60.6927 56.9086L61.5154 57.8183C61.7341 58.0616 61.807 58.5058 61.6612 58.802L61.1405 59.9233C61.0051 60.2195 60.8905 60.7378 60.9114 61.0657L60.9739 62.3033C60.9843 62.6312 60.7552 63.0226 60.4636 63.1601L59.9949 63.3822L59.3597 63.6784C59.0577 63.8159 58.6619 64.1438 58.4641 64.4083L57.7247 65.3814C57.5268 65.6459 57.0998 65.7834 56.7874 65.6988L55.6106 65.3708C55.4023 65.318 55.1211 65.2862 54.8504 65.3074C54.715 65.3074 54.5796 65.318 54.4651 65.3497L53.2779 65.6141C52.955 65.6882 52.5489 65.5295 52.3614 65.2545L51.6637 64.239C51.4762 63.964 51.0909 63.6149 50.7993 63.4563L50.4765 63.287L50.4556 63.3082Z" stroke="black" stroke-width="0.64" stroke-linecap="round" stroke-linejoin="round"/>
<path d="M54.8191 65.3286L51.1637 72.0455L50.3514 68.65L47.2168 70.0675L50.4556 63.3082" stroke="black" stroke-width="0.64" stroke-linecap="round" stroke-linejoin="round"/>
<path d="M55.5801 65.4025L59.2042 72.0454L60.0269 68.6499L63.1615 70.0673L59.9644 63.4033" stroke="black" stroke-width="0.64" stroke-linecap="round" stroke-linejoin="round"/>
<g opacity="0.19">
<path d="M33.3355 49.4513V67.6769H27.6495H26.9517H21.2656V49.4513H33.3355Z" fill="#005063"/>
<path d="M33.3355 67.6769H27.6495H26.9517H21.2656V49.4513H33.3355V67.6769Z" fill="#005063"/>
<path d="M21.4112 22.0759C21.4112 22.5836 21.078 22.9856 20.6197 23.102L20.3906 23.0596C20.3906 22.3827 20.5885 21.748 20.9217 21.1874C21.2238 21.3672 21.4008 21.7057 21.4008 22.0865L21.4112 22.0759Z" fill="#005063"/>
<path d="M21.4112 22.0759C21.4112 22.5836 21.078 22.9856 20.6197 23.102L20.3906 23.0596C20.3906 22.3827 20.5885 21.748 20.9217 21.1874C21.2238 21.3672 21.4008 21.7057 21.4008 22.0865L21.4112 22.0759Z" fill="#005063"/>
<path d="M21.4112 22.0759C21.4112 22.5836 21.078 22.9856 20.6197 23.102L20.3906 23.0596C20.3906 22.3827 20.5885 21.748 20.9217 21.1874C21.2238 21.3672 21.4008 21.7057 21.4008 22.0865L21.4112 22.0759Z" fill="#005063"/>
</g>
<path d="M31.0758 49.4407V67.6768H28.7326V51.0062H19.0059V49.4407H31.0758Z" fill="white"/>
<path d="M28.7326 51.0062H19.0059V67.6874H28.7326V51.0062Z" fill="#CB9390"/>
<path d="M28.7326 51.0062H19.0059V67.6874H28.7326V51.0062Z" fill="#CB9390"/>
<path d="M49.7383 43.8767L48.0721 45.0614L26.2025 26.9628C26.2337 26.857 26.2441 26.7406 26.2441 26.6243C26.2441 25.9367 25.7026 25.3761 25.0257 25.3761C24.8174 25.3761 24.63 25.429 24.4529 25.5136L23.5052 24.7203L21.0475 26.7618C21.0475 26.7618 21.0163 26.7618 21.0059 26.7512L25.0257 23.4192L26.7648 24.8684L49.7279 43.8767H49.7383Z" fill="white"/>
<path d="M23.8183 26.6243C23.8183 26.6243 23.8183 26.6877 23.8183 26.7195C23.8183 26.7829 23.8287 26.8464 23.8496 26.9099C23.4955 26.9945 23.1206 27.0368 22.7248 27.0368C22.704 27.0368 22.6832 27.0368 22.6624 27.0368C22.0896 27.0368 21.5585 26.9416 21.0586 26.7724L23.5163 24.7308L24.464 25.5242C24.0683 25.7357 23.8079 26.1483 23.8079 26.6243H23.8183Z" fill="#CB9390"/>
<path d="M18.1103 23.1336C18.6935 23.1336 19.1517 22.6576 19.1517 22.0759C19.1517 21.7056 18.9642 21.3672 18.6726 21.1873C18.506 21.071 18.3081 21.0181 18.1103 21.0181C17.5375 21.0181 17.0689 21.5047 17.0689 22.0759C17.0689 22.6471 17.5375 23.1336 18.1103 23.1336ZM20.2139 20.6161C20.995 21.1027 21.172 22.1499 20.6097 22.8692L18.8184 25.1434L17.173 27.2273L2.99944 29.163C2.44749 29.2476 1.92679 28.8562 1.85389 28.2956L0.864551 20.8383C0.802067 20.2882 1.15615 19.7911 1.69768 19.6959L15.4234 17.6649L19.537 20.193L20.2139 20.6055V20.6161Z" fill="#C1C1C1"/>
<path d="M25.0466 29.5861C22.4431 31.7334 6.3325 45.072 6.3325 45.072V48.129L0.333984 43.8767L21.0268 26.7618C21.5579 26.9417 22.1307 27.0474 22.7347 27.0474C23.1304 27.0474 23.5053 27.0051 23.8594 26.9205C23.9844 27.4706 24.4634 27.8725 25.0466 27.8725V29.5861Z" fill="#CB9390"/>
<path d="M22.673 27.0369C22.4439 27.259 22.3086 27.5763 22.3086 27.9254C22.3086 28.0312 22.3086 28.1264 22.3502 28.211C21.9961 28.2956 21.6108 28.3379 21.2255 28.3379C20.6215 28.3379 20.0487 28.2322 19.5176 28.0523L21.0797 26.7618C21.5796 26.9311 22.1211 27.0263 22.6835 27.0263L22.673 27.0369Z" fill="#CB9390"/>
<path d="M42.2291 49.4406V46.373C42.2291 46.373 26.1185 33.0344 23.5254 30.8871V29.1735C24.1919 29.1735 24.7438 28.6129 24.7438 27.9253C24.7438 27.3436 24.3481 26.857 23.817 26.7195C23.817 26.6877 23.817 26.656 23.817 26.6243C23.817 26.1377 24.0878 25.7251 24.4731 25.5242L25.2645 26.18L26.2122 26.9628L48.0818 45.0614L48.2276 45.1777L42.2291 49.4406Z" fill="#CB9390"/>
<path d="M23.8177 26.6243C23.8177 26.6243 23.8177 26.6877 23.8177 26.7195C23.724 26.6983 23.6198 26.6772 23.5261 26.6772C23.1928 26.6772 22.8908 26.8147 22.6721 27.0368C22.0994 27.0368 21.5682 26.9416 21.0684 26.7724L23.5261 24.7308L24.4738 25.5242C24.078 25.7357 23.8177 26.1483 23.8177 26.6243Z" fill="#CB9390"/>
<path d="M6.33203 45.072C6.33203 45.072 22.4426 31.7334 25.0461 29.5861C27.6392 31.7334 43.7498 45.072 43.7498 45.072V67.6768H31.0759V49.4406H19.006V67.6768H6.33203V45.072Z" fill="white"/>
<path d="M6.3325 48.129L0.333984 43.8767L21.0164 26.7512L25.0466 23.4298L26.7858 24.8684L49.7384 43.8767L43.7399 48.1396" stroke="black" stroke-width="0.64" stroke-linecap="round" stroke-linejoin="round"/>
<path d="M31.0759 67.6768H43.7498V45.072C43.7498 45.072 27.6392 31.7334 25.0461 29.5861C22.4426 31.7334 6.33203 45.072 6.33203 45.072V67.6768H19.006" stroke="black" stroke-width="0.64" stroke-linecap="round" stroke-linejoin="round"/>
<path d="M31.0764 67.6769H25.3799H24.6926H18.9961V49.4513H31.0764V67.6769Z" stroke="black" stroke-width="0.64" stroke-linecap="round" stroke-linejoin="round"/>
<path d="M23.86 26.9099C23.8288 26.8147 23.8184 26.7195 23.8184 26.6243C23.8184 25.9367 24.3703 25.3761 25.0472 25.3761C25.7241 25.3761 26.2657 25.9367 26.2657 26.6243C26.2657 27.3118 25.7137 27.8725 25.0472 27.8725C24.464 27.8725 23.985 27.4705 23.86 26.9205V26.9099Z" stroke="black" stroke-width="0.64" stroke-linecap="round" stroke-linejoin="round"/>
<path d="M18.1309 23.049C18.1309 22.372 18.3287 21.7373 18.6724 21.1767C18.9015 20.8065 19.1931 20.468 19.5368 20.193C20.3491 19.4948 21.4842 19.0612 22.7235 19.0612C25.2645 19.0612 27.3265 20.8488 27.3265 23.049C27.3265 23.6414 27.1807 24.202 26.9099 24.6991" stroke="black" stroke-width="0.64" stroke-linecap="round" stroke-linejoin="round"/>
<path d="M25.87 25.9685C25.3076 26.4128 24.6307 26.7513 23.8601 26.9099C23.4956 26.9946 23.1207 27.0369 22.7354 27.0369C22.1313 27.0369 21.5586 26.9417 21.0275 26.7513C20.111 26.4233 19.3404 25.8627 18.8301 25.1434" stroke="black" stroke-width="0.64" stroke-linecap="round" stroke-linejoin="round"/>
<path d="M18.8184 25.1434L17.173 27.2273L2.99944 29.163C2.44749 29.2476 1.92679 28.8562 1.85389 28.2956L0.864551 20.8383C0.802067 20.2882 1.15615 19.7911 1.69768 19.6959L15.4234 17.6649L19.537 20.193L20.2139 20.6055C20.995 21.0921 21.172 22.1393 20.6097 22.8586L18.8184 25.1329" stroke="black" stroke-width="0.64" stroke-linecap="round" stroke-linejoin="round"/>
<path d="M19.1531 22.0758C19.1531 22.6682 18.6845 23.1336 18.1117 23.1336C17.5389 23.1336 17.0703 22.6576 17.0703 22.0758C17.0703 21.4941 17.5389 21.0181 18.1117 21.0181C18.32 21.0181 18.5075 21.071 18.6741 21.1873C18.9657 21.3671 19.1531 21.7056 19.1531 22.0758Z" stroke="black" stroke-width="0.64" stroke-linecap="round" stroke-linejoin="round"/>
<path d="M82.1562 69.1471V72.2041" stroke="black" stroke-width="0.64" stroke-linecap="round" stroke-linejoin="round"/>
<path d="M83.6659 70.6809H80.6562" stroke="black" stroke-width="0.64" stroke-linecap="round" stroke-linejoin="round"/>
<path d="M16.9023 73.0081V76.0651" stroke="black" stroke-width="0.64" stroke-linecap="round" stroke-linejoin="round"/>
<path d="M18.412 74.5419H15.4023" stroke="black" stroke-width="0.64" stroke-linecap="round" stroke-linejoin="round"/>
<path d="M34.3867 7.37268V11.2124" stroke="black" stroke-width="0.64" stroke-linecap="round" stroke-linejoin="round"/>
<path d="M36.2725 9.28723H32.4922" stroke="black" stroke-width="0.64" stroke-linecap="round" stroke-linejoin="round"/>
<path d="M40.2812 22.5413V30.4429" stroke="black" stroke-width="0.64" stroke-linecap="round" stroke-linejoin="round"/>
<path d="M40.2812 18.014V21.0499" stroke="black" stroke-width="0.64" stroke-linecap="round" stroke-linejoin="round"/>
</g>
<defs>
<clipPath id="clip0_281_14793">
<rect width="84" height="80" fill="white"/>
</clipPath>
</defs>
</svg>
