<svg width="85" height="80" viewBox="0 0 85 80" fill="none" xmlns="http://www.w3.org/2000/svg">
<g clip-path="url(#clip0_416_9462)">
<path opacity="0.5" d="M73.7212 0H6.82762C3.1949 0 0.25 2.76261 0.25 6.17047V73.8295C0.25 77.2374 3.1949 80 6.82762 80H73.7212C77.3539 80 80.2988 77.2374 80.2988 73.8295V6.17047C80.2988 2.76261 77.3539 0 73.7212 0Z" fill="#EDEDED"/>
<path d="M47.3186 64.6333L55.1864 74.1753H28.4612H25.2588L33.1381 64.6333H47.3186Z" fill="#C1C1C1"/>
<path d="M78.191 59.3057V62.4828C78.191 63.6715 77.1657 64.6441 75.8871 64.6441H74.355C75.6221 64.6441 76.6589 63.6823 76.6589 62.4828V59.3057H78.191Z" fill="#C1C1C1"/>
<path d="M75.8869 13.9727C77.1541 13.9727 78.1908 14.9345 78.1908 16.134V59.3165H65.7844C63.5726 57.2525 60.3702 54.3023 55.7394 49.9581C57.306 47.6564 58.4119 45.4086 59.1146 43.2257H74.3433V31.8141H76.1749V29.9122L64.4135 23.2987L56.9374 27.5024C53.2512 22.2396 46.7542 18.9113 39.9692 18.76C38.0685 18.7167 36.1447 18.9221 34.2556 19.4084C31.3526 20.154 28.5304 21.548 25.9846 23.6985C24.6944 24.79 23.6461 25.9246 22.8052 27.0809L16.0778 23.2987L4.31644 29.9122V31.8141H6.14804V43.2257H20.0636C22.6554 51.806 31.2835 57.0796 39.854 57.0796C44.8074 57.0796 48.1711 55.5991 52.5485 52.9623C54.4146 54.713 56.8452 57.0039 59.2874 59.3057H0.733887V16.1232C0.733887 14.9345 1.75912 13.9619 3.03778 13.9619H75.8985L75.8869 13.9727Z" fill="white"/>
<path d="M65.7844 59.3057C69.5743 62.8502 70.4152 63.7579 70.4152 64.5792C70.4152 64.6008 70.4152 64.6225 70.4152 64.6441H64.9204C63.2155 63.0339 61.2457 61.1644 59.2759 59.3165H65.7959L65.7844 59.3057Z" fill="#941303"/>
<path d="M66.7405 33.9754H66.5447V39.3462H66.7405V33.9754Z" fill="#CB9390"/>
<path d="M65.7845 59.3057H76.6589V62.4828C76.6589 63.6715 75.6336 64.6441 74.355 64.6441H70.4038C70.4038 64.6441 70.4038 64.6008 70.4038 64.5792C70.4038 63.7579 69.5744 62.8502 65.7729 59.3057H65.7845Z" fill="#C1C1C1"/>
<path d="M64.9088 64.6333H70.4036C70.346 66.438 67.8923 67.4213 66.4524 66.0921C65.9686 65.6383 65.4502 65.152 64.9088 64.6333ZM22.5747 37.909C22.5747 46.7703 30.2352 53.9565 39.6812 53.9565C49.1271 53.9565 56.7876 46.7703 56.7876 37.909C56.7876 29.0477 49.1271 21.8614 39.6812 21.8614C30.2352 21.8614 22.5747 29.0477 22.5747 37.909ZM55.7278 49.9473C60.3586 54.2915 63.5725 57.2417 65.7728 59.3057H59.2527C56.8106 57.0039 54.38 54.713 52.5138 52.9623C48.1364 55.5883 44.7728 57.0796 39.8194 57.0796C31.2489 57.0796 22.6208 51.806 20.0289 43.2257C19.5221 41.5507 19.2456 39.7569 19.2456 37.8441C19.2456 37.0337 19.3032 35.8449 19.5797 34.4293C19.9829 32.3004 20.8699 29.6745 22.7821 27.0809C23.623 25.9355 24.6713 24.79 25.9615 23.6985C28.5073 21.548 31.3295 20.154 34.2324 19.4084C36.1216 18.9221 38.0454 18.7168 39.9461 18.76C46.7311 18.9113 53.2281 22.2397 56.9143 27.5024C58.3427 29.534 59.3564 31.8682 59.8057 34.3969C60.278 37.1201 60.1052 40.0919 59.103 43.2149C58.4003 45.3978 57.2944 47.6456 55.7278 49.9473Z" fill="#941303"/>
<path d="M51.0164 53.6863C48.5973 55.1452 46.4777 56.2475 44.2429 56.9391C46.6735 56.3879 48.8622 55.3721 51.3159 53.9565C51.2122 53.87 51.12 53.7728 51.0279 53.6863H51.0164ZM64.7821 65.0007C64.9089 65.1195 65.0471 65.2492 65.1738 65.3681C65.577 65.7463 65.9571 66.1137 66.3258 66.4595C66.775 66.8702 67.3164 67.0647 67.8578 67.0755C69.0559 67.1079 70.2424 66.2434 70.2769 65.0007H64.7821Z" fill="#941303"/>
<path d="M70.2655 64.0065C70.5074 64.7629 70.2655 65.3681 69.6089 65.8436C67.4202 63.8012 58.5962 54.767 54.2304 50.6822C55.797 48.3804 56.9029 46.1326 57.6056 43.9498C58.6078 40.8267 58.7921 37.8549 58.3083 35.1317C57.859 32.5922 56.8568 30.2688 55.4169 28.2372C51.7306 22.9853 45.2337 19.6461 38.4487 19.4948C36.6977 19.4516 34.9352 19.6245 33.1958 20.0351C33.4953 19.9379 33.8063 19.8514 34.1058 19.7758C35.995 19.2895 37.9188 19.0842 39.8195 19.1274C46.6045 19.2787 53.1015 22.6071 56.7877 27.8698C58.2161 29.9122 59.2298 32.2356 59.6791 34.7751C60.1514 37.4983 59.9786 40.4701 58.9764 43.5931C58.2737 45.776 57.1678 48.0238 55.6012 50.3255C60.232 54.6697 68.0537 61.9533 70.2539 64.0173L70.2655 64.0065Z" fill="white"/>
<path d="M43.598 53.8701C42.3078 54.1618 40.96 54.3239 39.5661 54.3239C30.1202 54.3239 22.4597 47.1376 22.4597 38.2656C22.4597 31.1766 27.367 25.1574 34.1635 23.0285C35.8684 22.499 37.6769 22.2072 39.5661 22.2072C49.0121 22.2072 56.6841 29.3935 56.6841 38.2656C56.6841 45.8301 51.1086 52.1734 43.598 53.8701Z" fill="#941303"/>
<path d="M56.6726 38.2656C56.6726 45.8301 51.0972 52.1734 43.5865 53.8701C42.2963 54.1618 40.9485 54.3239 39.5547 54.3239C30.1087 54.3239 22.4482 47.1376 22.4482 38.2656C22.4482 31.1766 27.3555 25.1574 34.152 23.0285C35.8569 22.499 37.6655 22.2072 39.5547 22.2072C49.0006 22.2072 56.6726 29.3935 56.6726 38.2656Z" fill="#941303"/>
<path d="M59.8057 34.3969H63.8721V43.2149H59.103C60.1052 40.0919 60.2895 37.1201 59.8057 34.3969Z" fill="white"/>
<path d="M56.9145 27.5024L64.3906 23.2987L76.152 29.9122V31.8141H74.3204V43.2257H63.8723V34.4077H59.8059C59.3566 31.8682 58.3544 29.5448 56.9145 27.5132V27.5024ZM29.7631 46.3164H49.6227V34.9048H51.4543V33.0029L39.6929 26.3893L33.6221 29.8041L33.5991 29.7717V27.6104H31.1224V31.0901L31.18 31.1766L27.9315 33.0029V34.9048H29.7631V46.3164ZM39.6814 21.8614C49.1273 21.8614 56.7878 29.0477 56.7878 37.909C56.7878 46.7702 49.1273 53.9565 39.6814 53.9565C30.2354 53.9565 22.575 46.7702 22.575 37.909C22.575 29.0477 30.2354 21.8614 39.6814 21.8614Z" fill="white"/>
<path d="M42.0198 42.4369H46.5584V37.0661H42.0198V42.4369ZM51.4427 32.992V34.894H49.6111V46.3056H39.1514V37.4875H33.0461V46.3056H29.7515V34.894H27.9199V32.992L31.1684 31.1658L33.6105 29.7933L39.6813 26.3785L51.4427 32.992Z" fill="white"/>
<path d="M39.9923 62.9367C40.5567 62.9367 41.0175 62.5044 41.0175 61.9749C41.0175 61.4454 40.5567 61.0131 39.9923 61.0131C39.4278 61.0131 38.967 61.4454 38.967 61.9749C38.967 62.5044 39.4278 62.9367 39.9923 62.9367ZM59.2644 59.3057C61.2342 61.1644 63.204 63.0231 64.9089 64.6333H6.10199C4.83485 64.6333 3.7981 63.6715 3.7981 62.472V59.2949H59.2644V59.3057Z" fill="#C1C1C1"/>
<path d="M46.5585 37.0661H42.0198V42.4369H46.5585V37.0661Z" fill="#CB9390"/>
<path d="M39.9923 62.9367C40.5585 62.9367 41.0175 62.5061 41.0175 61.9749C41.0175 61.4437 40.5585 61.0131 39.9923 61.0131C39.4261 61.0131 38.967 61.4437 38.967 61.9749C38.967 62.5061 39.4261 62.9367 39.9923 62.9367Z" fill="white"/>
<path d="M39.1629 37.4875H33.0576V46.3056H39.1629V37.4875Z" fill="#CB9390"/>
<path d="M33.599 29.7717L33.622 29.7933L31.1799 31.1658L31.1223 31.0901V27.6104H33.599V29.7717Z" fill="#CB9390"/>
<path d="M22.7822 27.0809C20.8815 29.6745 19.983 32.3004 19.5798 34.4293L19.4416 34.4077H16.5732V43.2257H6.12505V31.8141H4.29346V29.9122L16.0548 23.2987L22.7822 27.0809Z" fill="white"/>
<path d="M19.2572 37.8333C19.2572 39.7461 19.5337 41.5399 20.0406 43.2149H16.5847V34.3969H19.4531L19.5913 34.4185C19.3148 35.8341 19.2572 37.0228 19.2572 37.8333Z" fill="white"/>
<path d="M3.79782 62.4828C3.79782 63.6715 4.82306 64.6441 6.10172 64.6441H3.03754C1.7704 64.6441 0.733643 63.6823 0.733643 62.4828V59.3057H3.79782V62.4828Z" fill="#C1C1C1"/>
<path d="M78.191 25.1358V62.4828C78.191 63.6715 77.1657 64.6441 75.8871 64.6441H70.4038" stroke="black" stroke-width="0.62" stroke-linecap="round" stroke-linejoin="round"/>
<path d="M64.9089 64.6333H3.02631C1.75916 64.6333 0.722412 63.6715 0.722412 62.472V16.1232C0.722412 14.9345 1.74765 13.9619 3.02631 13.9619H56.6264" stroke="black" stroke-width="0.62" stroke-linecap="round" stroke-linejoin="round"/>
<path d="M65.7844 59.3057H76.6588H78.1909" stroke="black" stroke-width="0.62" stroke-linecap="round" stroke-linejoin="round"/>
<path d="M0.733643 59.3057H3.79782H59.2641" stroke="black" stroke-width="0.62" stroke-linecap="round" stroke-linejoin="round"/>
<path d="M33.1498 64.6225L33.1383 64.6333L25.259 74.1754L25.2129 74.2294" stroke="black" stroke-width="0.62" stroke-linecap="round" stroke-linejoin="round"/>
<path d="M47.3071 64.6225L47.3187 64.6333L55.1864 74.1754L55.2441 74.2294" stroke="black" stroke-width="0.62" stroke-linecap="round" stroke-linejoin="round"/>
<path d="M22.575 37.909C22.575 46.7702 30.2354 53.9565 39.6814 53.9565C49.1273 53.9565 56.7878 46.7702 56.7878 37.909C56.7878 29.0477 49.1273 21.8614 39.6814 21.8614C30.2354 21.8614 22.575 29.0477 22.575 37.909Z" stroke="black" stroke-width="0.62" stroke-linecap="round" stroke-linejoin="round"/>
<path d="M22.7823 27.0809C23.6232 25.9354 24.6715 24.79 25.9617 23.6985C28.5075 21.548 31.3297 20.154 34.2326 19.4084C36.1218 18.9221 38.0456 18.7168 39.9463 18.76C46.7313 18.9113 53.2283 22.2397 56.9145 27.5024C58.3429 29.534 59.3566 31.8682 59.8059 34.3969C60.2782 37.1201 60.1054 40.0919 59.1032 43.2149C58.4005 45.3978 57.2946 47.6456 55.728 49.9473C60.3588 54.2915 63.5727 57.2417 65.773 59.3057C69.5629 62.8502 70.4038 63.758 70.4038 64.5792C70.4038 64.6009 70.4038 64.6225 70.4038 64.6441C70.3462 66.4488 67.8925 67.4321 66.4526 66.1029C65.9688 65.6491 65.4504 65.1628 64.909 64.6441C63.2041 63.0339 61.2343 61.1644 59.2645 59.3165C56.8223 57.0147 54.3917 54.7238 52.5256 52.9731C48.1482 55.5991 44.7845 57.0904 39.8311 57.0904C31.2606 57.0904 22.6325 51.8168 20.0406 43.2365C19.5338 41.5615 19.2573 39.7677 19.2573 37.8549C19.2573 37.0445 19.3149 35.8558 19.5914 34.4401C19.9946 32.3112 20.8816 29.6853 22.7938 27.0917L22.7823 27.0809Z" stroke="black" stroke-width="0.62" stroke-linecap="round" stroke-linejoin="round"/>
<path d="M29.763 46.3164V34.9048H27.9314V32.992L31.1799 31.1658L33.622 29.7933L39.6813 26.3785L51.4426 32.992V34.9048H49.611V46.3164" stroke="black" stroke-width="0.62" stroke-linecap="round" stroke-linejoin="round"/>
<path d="M33.0576 46.3164V37.4875H39.1514V46.3164" stroke="black" stroke-width="0.62" stroke-linecap="round" stroke-linejoin="round"/>
<path d="M42.0198 42.4369V37.0661H46.5585V42.4369" stroke="black" stroke-width="0.62" stroke-linecap="round" stroke-linejoin="round"/>
<path d="M41.0176 42.4369H42.0198H46.5584H47.503" stroke="black" stroke-width="0.62" stroke-linecap="round" stroke-linejoin="round"/>
<path d="M31.1223 31.0901V27.6104H33.599V29.7717" stroke="black" stroke-width="0.62" stroke-linecap="round" stroke-linejoin="round"/>
<path d="M28.542 46.3164H29.7631H33.0576H39.1514H49.6111H51.4427" stroke="black" stroke-width="0.62" stroke-linecap="round" stroke-linejoin="round"/>
<path d="M39.9923 62.9367C40.5585 62.9367 41.0175 62.5061 41.0175 61.9749C41.0175 61.4437 40.5585 61.0131 39.9923 61.0131C39.4261 61.0131 38.967 61.4437 38.967 61.9749C38.967 62.5061 39.4261 62.9367 39.9923 62.9367Z" stroke="black" stroke-width="0.62" stroke-linecap="round" stroke-linejoin="round"/>
<path d="M81.8311 67.3889V70.4471" stroke="black" stroke-width="0.62" stroke-linecap="round" stroke-linejoin="round"/>
<path d="M83.4553 68.9234H80.1953" stroke="black" stroke-width="0.62" stroke-linecap="round" stroke-linejoin="round"/>
<path d="M11.1707 71.2576V74.3158" stroke="black" stroke-width="0.62" stroke-linecap="round" stroke-linejoin="round"/>
<path d="M12.7949 72.7813H9.53491" stroke="black" stroke-width="0.62" stroke-linecap="round" stroke-linejoin="round"/>
<path d="M30.0972 5.60855V9.44483" stroke="black" stroke-width="0.62" stroke-linecap="round" stroke-linejoin="round"/>
<path d="M32.136 7.5321H28.0466" stroke="black" stroke-width="0.62" stroke-linecap="round" stroke-linejoin="round"/>
<path d="M4.89258 25.8922V27.913" stroke="black" stroke-width="0.62" stroke-linecap="round" stroke-linejoin="round"/>
<path d="M4.89258 19.095V24.3577" stroke="black" stroke-width="0.62" stroke-linecap="round" stroke-linejoin="round"/>
<path d="M21.2615 74.3158H59.3333" stroke="black" stroke-width="0.62" stroke-linecap="round" stroke-linejoin="round"/>
<path d="M15.7666 37.1417C13.3821 37.6172 11.9422 38.968 11.4353 41.2049C10.9285 38.968 9.48853 37.6172 7.104 37.1417C9.48853 36.6662 10.9285 35.3154 11.4353 33.0785C11.9422 35.3154 13.3821 36.6662 15.7666 37.1417Z" fill="#CB9390"/>
<path d="M23.7152 44.5873C19.6949 45.387 17.2528 47.678 16.4003 51.4494C15.5479 47.678 13.1057 45.387 9.08545 44.5873C13.1057 43.7877 15.5479 41.4967 16.4003 37.7253C17.2528 41.4967 19.6949 43.7877 23.7152 44.5873Z" fill="#CB9390"/>
<path d="M75.0573 9.49886L80.3678 4.1821L77.8681 12.3626H83.8928L71.8549 26.8432L75.5411 14.8048H70.1155L72.4079 12.395" fill="#CB9390"/>
<path d="M75.0573 9.49886L80.3678 4.1821L77.8681 12.3626H83.8928L71.8549 26.8432L75.5411 14.8048H70.1155L72.4079 12.395" stroke="black" stroke-width="0.62" stroke-linecap="round" stroke-linejoin="round"/>
<path d="M74.1474 10.7956H59.0684" stroke="black" stroke-width="0.62" stroke-linecap="round" stroke-linejoin="round"/>
<path d="M73.318 7.82385H65.6345" stroke="black" stroke-width="0.62" stroke-linecap="round" stroke-linejoin="round"/>
<path d="M67.5007 14.3293H60.1052" stroke="black" stroke-width="0.62" stroke-linecap="round" stroke-linejoin="round"/>
<path d="M65.8764 18.6735H62.6279" stroke="black" stroke-width="0.62" stroke-linecap="round" stroke-linejoin="round"/>
<path d="M70.8988 21.9803H64.7244" stroke="black" stroke-width="0.62" stroke-linecap="round" stroke-linejoin="round"/>
<path d="M15.7666 37.1417C13.3821 37.6172 11.9422 38.968 11.4353 41.2049C10.9285 38.968 9.48853 37.6172 7.104 37.1417C9.48853 36.6662 10.9285 35.3154 11.4353 33.0785C11.9422 35.3154 13.3821 36.6662 15.7666 37.1417Z" stroke="black" stroke-width="0.62" stroke-linecap="round" stroke-linejoin="round"/>
<path d="M23.7152 44.5873C19.6949 45.387 17.2528 47.678 16.4003 51.4494C15.5479 47.678 13.1057 45.387 9.08545 44.5873C13.1057 43.7877 15.5479 41.4967 16.4003 37.7253C17.2528 41.4967 19.6949 43.7877 23.7152 44.5873Z" stroke="black" stroke-width="0.62" stroke-linecap="round" stroke-linejoin="round"/>
<path d="M60.9462 44.9655C60.6236 45.5815 60.255 46.1759 59.8518 46.7594" stroke="black" stroke-width="0.62" stroke-linecap="round" stroke-linejoin="round"/>
<path d="M60.9692 29.1882C63.2962 33.6188 63.5266 38.6978 61.7526 43.2149" stroke="black" stroke-width="0.62" stroke-linecap="round" stroke-linejoin="round"/>
<path d="M65.6807 47.7104H70.2769" stroke="black" stroke-width="0.62" stroke-linecap="round" stroke-linejoin="round"/>
<path d="M71.1755 50.1202H73.5716" stroke="black" stroke-width="0.62" stroke-linecap="round" stroke-linejoin="round"/>
<path d="M65.6807 50.1202H69.3439" stroke="black" stroke-width="0.62" stroke-linecap="round" stroke-linejoin="round"/>
<path d="M65.6807 52.5301H73.5715" stroke="black" stroke-width="0.62" stroke-linecap="round" stroke-linejoin="round"/>
</g>
<defs>
<clipPath id="clip0_416_9462">
<rect width="84" height="80" fill="white" transform="translate(0.25)"/>
</clipPath>
</defs>
</svg>
