<svg width="84" height="80" viewBox="0 0 84 80" fill="none" xmlns="http://www.w3.org/2000/svg">
<g clip-path="url(#clip0_281_15302)">
<path opacity="0.5" d="M73.4712 0H6.57762C2.9449 0 0 2.76261 0 6.17047V73.8295C0 77.2374 2.9449 80 6.57762 80H73.4712C77.1039 80 80.0488 77.2374 80.0488 73.8295V6.17047C80.0488 2.76261 77.1039 0 73.4712 0Z" fill="#EDEDED"/>
<path d="M47.0686 64.6333L54.9364 74.1754H28.2112H25.0088L32.8881 64.6333H47.0686Z" fill="#C1C1C1"/>
<path d="M77.9407 59.3057V62.4828C77.9407 63.6715 76.9155 64.644 75.6368 64.644H74.1047C75.3719 64.644 76.4086 63.6823 76.4086 62.4828V59.3057H77.9407Z" fill="#C1C1C1"/>
<path d="M75.6368 13.9727C76.904 13.9727 77.9407 14.9345 77.9407 16.134V59.3165H65.5342C63.3225 57.2525 60.1201 54.3023 55.4893 49.9581C57.0559 47.6564 58.1618 45.4086 58.8645 43.2257H74.0932V31.8141H75.9248V29.9122L64.1634 23.2987L56.6873 27.5024C53.001 22.2396 46.5041 18.9113 39.7191 18.76C37.8184 18.7167 35.8946 18.9221 34.0054 19.4084C31.1025 20.154 28.2803 21.548 25.7345 23.6985C24.4443 24.79 23.396 25.9246 22.5551 27.0809L15.8277 23.2987L4.06632 29.9122V31.8141H5.89792V43.2257H19.8134C22.4053 51.806 31.0334 57.0796 39.6039 57.0796C44.5573 57.0796 47.921 55.5991 52.2984 52.9623C54.1645 54.713 56.5951 57.0039 59.0373 59.3057H0.483765V16.1232C0.483765 14.9345 1.509 13.9619 2.78766 13.9619H75.6483L75.6368 13.9727Z" fill="white"/>
<path d="M65.5343 59.3057C69.3242 62.8502 70.1651 63.7579 70.1651 64.5792C70.1651 64.6008 70.1651 64.6224 70.1651 64.644H64.6703C62.9654 63.0339 60.9956 61.1644 59.0258 59.3165H65.5458L65.5343 59.3057Z" fill="#941303"/>
<path d="M66.4904 33.9754H66.2946V39.3462H66.4904V33.9754Z" fill="#CB9390"/>
<path d="M65.5342 59.3057H76.4086V62.4828C76.4086 63.6715 75.3834 64.644 74.1047 64.644H70.1535C70.1535 64.644 70.1535 64.6008 70.1535 64.5792C70.1535 63.7579 69.3241 62.8502 65.5227 59.3057H65.5342Z" fill="#C1C1C1"/>
<path d="M64.6588 64.6333H70.1536C70.096 66.4379 67.6423 67.4213 66.2024 66.0921C65.7186 65.6382 65.2002 65.152 64.6588 64.6333ZM22.3247 37.9089C22.3247 46.7702 29.9852 53.9565 39.4312 53.9565C48.8771 53.9565 56.5376 46.7702 56.5376 37.9089C56.5376 29.0477 48.8771 21.8614 39.4312 21.8614C29.9852 21.8614 22.3247 29.0477 22.3247 37.9089ZM55.4778 49.9473C60.1086 54.2915 63.3225 57.2417 65.5228 59.3057H59.0027C56.5606 57.0039 54.13 54.7129 52.2638 52.9623C47.8864 55.5883 44.5228 57.0796 39.5694 57.0796C30.9989 57.0796 22.3708 51.806 19.7789 43.2257C19.2721 41.5507 18.9956 39.7568 18.9956 37.8441C18.9956 37.0336 19.0532 35.8449 19.3297 34.4293C19.7329 32.3004 20.6199 29.6744 22.5321 27.0809C23.373 25.9354 24.4213 24.7899 25.7115 23.6985C28.2573 21.548 31.0795 20.154 33.9824 19.4083C35.8716 18.922 37.7954 18.7167 39.6961 18.76C46.4811 18.9112 52.9781 22.2396 56.6643 27.5024C58.0927 29.534 59.1064 31.8681 59.5557 34.3969C60.028 37.1201 59.8552 40.0918 58.853 43.2149C58.1503 45.3978 57.0444 47.6455 55.4778 49.9473Z" fill="#941303"/>
<path d="M50.7662 53.6863C48.3472 55.1452 46.2276 56.2475 43.9928 56.9391C46.4234 56.3879 48.6121 55.3721 51.0658 53.9565C50.9621 53.87 50.8699 53.7728 50.7778 53.6863H50.7662ZM64.532 65.0007C64.6587 65.1195 64.797 65.2492 64.9237 65.3681C65.3269 65.7463 65.707 66.1137 66.0756 66.4595C66.5249 66.8702 67.0663 67.0647 67.6077 67.0755C68.8057 67.1079 69.9923 66.2434 70.0268 65.0007H64.532Z" fill="#941303"/>
<path d="M70.0153 64.0065C70.2573 64.7629 70.0153 65.3681 69.3587 65.8436C67.17 63.8012 58.3461 54.767 53.9802 50.6822C55.5469 48.3804 56.6528 46.1326 57.3554 43.9498C58.3576 40.8267 58.542 37.8549 58.0581 35.1317C57.6089 32.5922 56.6067 30.2688 55.1667 28.2372C51.4805 22.9853 44.9835 19.6461 38.1986 19.4948C36.4476 19.4516 34.6851 19.6245 32.9457 20.0351C33.2452 19.9379 33.5562 19.8514 33.8557 19.7758C35.7449 19.2895 37.6687 19.0842 39.5694 19.1274C46.3543 19.2787 52.8513 22.6071 56.5376 27.8698C57.966 29.9122 58.9797 32.2356 59.4289 34.7751C59.9012 37.4983 59.7285 40.4701 58.7263 43.5931C58.0236 45.776 56.9177 48.0238 55.3511 50.3255C59.9819 54.6697 67.8036 61.9533 70.0038 64.0173L70.0153 64.0065Z" fill="white"/>
<path d="M43.3477 53.8701C42.0575 54.1618 40.7097 54.3239 39.3159 54.3239C29.8699 54.3239 22.2095 47.1376 22.2095 38.2656C22.2095 31.1766 27.1168 25.1574 33.9133 23.0285C35.6181 22.499 37.4267 22.2072 39.3159 22.2072C48.7619 22.2072 56.4338 29.3935 56.4338 38.2656C56.4338 45.8301 50.8584 52.1734 43.3477 53.8701Z" fill="#941303"/>
<path d="M56.4224 38.2656C56.4224 45.8301 50.8469 52.1734 43.3362 53.8701C42.0461 54.1618 40.6983 54.3239 39.3044 54.3239C29.8584 54.3239 22.198 47.1376 22.198 38.2656C22.198 31.1766 27.1053 25.1574 33.9018 23.0285C35.6067 22.499 37.4152 22.2072 39.3044 22.2072C48.7504 22.2072 56.4224 29.3935 56.4224 38.2656Z" fill="#941303"/>
<path d="M59.5557 34.3969H63.6221V43.2149H58.853C59.8552 40.0918 60.0395 37.1201 59.5557 34.3969Z" fill="white"/>
<path d="M56.6643 27.5023L64.1404 23.2986L75.9018 29.9122V31.8141H74.0702V43.2257H63.622V34.4077H59.5556C59.1064 31.8681 58.1042 29.5448 56.6643 27.5132V27.5023ZM29.5129 46.3163H49.3724V34.9048H51.204V33.0028L39.4426 26.3893L33.3719 29.8041L33.3488 29.7717V27.6104H30.8722V31.0901L30.9298 31.1765L27.6813 33.0028V34.9048H29.5129V46.3163ZM39.4311 21.8614C48.8771 21.8614 56.5375 29.0477 56.5375 37.9089C56.5375 46.7702 48.8771 53.9565 39.4311 53.9565C29.9852 53.9565 22.3247 46.7702 22.3247 37.9089C22.3247 29.0477 29.9852 21.8614 39.4311 21.8614Z" fill="white"/>
<path d="M41.7696 42.4368H46.3083V37.066H41.7696V42.4368ZM51.1926 32.992V34.8939H49.361V46.3055H38.9013V37.4875H32.796V46.3055H29.5014V34.8939H27.6698V32.992L30.9183 31.1657L33.3604 29.7933L39.4312 26.3785L51.1926 32.992Z" fill="white"/>
<path d="M39.7422 62.9367C40.3066 62.9367 40.7674 62.5044 40.7674 61.9749C40.7674 61.4454 40.3066 61.0131 39.7422 61.0131C39.1777 61.0131 38.7169 61.4454 38.7169 61.9749C38.7169 62.5044 39.1777 62.9367 39.7422 62.9367ZM59.0142 59.3057C60.9841 61.1644 62.9539 63.0231 64.6588 64.6333H5.85187C4.58473 64.6333 3.54797 63.6715 3.54797 62.472V59.2949H59.0142V59.3057Z" fill="#C1C1C1"/>
<path d="M46.3082 37.066H41.7695V42.4368H46.3082V37.066Z" fill="#CB9390"/>
<path d="M39.7422 62.9366C40.3084 62.9366 40.7674 62.506 40.7674 61.9748C40.7674 61.4437 40.3084 61.0131 39.7422 61.0131C39.1759 61.0131 38.7169 61.4437 38.7169 61.9748C38.7169 62.506 39.1759 62.9366 39.7422 62.9366Z" fill="white"/>
<path d="M38.9128 37.4875H32.8075V46.3055H38.9128V37.4875Z" fill="#CB9390"/>
<path d="M33.3489 29.7717L33.3719 29.7933L30.9298 31.1657L30.8722 31.0901V27.6104H33.3489V29.7717Z" fill="#CB9390"/>
<path d="M22.5321 27.0809C20.6314 29.6744 19.7329 32.3004 19.3297 34.4293L19.1914 34.4077H16.3231V43.2257H5.87493V31.8141H4.04333V29.9122L15.8047 23.2986L22.5321 27.0809Z" fill="white"/>
<path d="M19.0071 37.8333C19.0071 39.746 19.2836 41.5399 19.7904 43.2149H16.3346V34.3969H19.2029L19.3412 34.4185C19.0647 35.8341 19.0071 37.0228 19.0071 37.8333Z" fill="white"/>
<path d="M3.5477 62.4828C3.5477 63.6715 4.57293 64.644 5.85159 64.644H2.78742C1.52027 64.644 0.483521 63.6823 0.483521 62.4828V59.3057H3.5477V62.4828Z" fill="#C1C1C1"/>
<path d="M77.9407 25.1357V62.4828C77.9407 63.6715 76.9155 64.644 75.6368 64.644H70.1536" stroke="black" stroke-width="0.62" stroke-linecap="round" stroke-linejoin="round"/>
<path d="M64.6588 64.6333H2.77618C1.50904 64.6333 0.47229 63.6715 0.47229 62.472V16.1232C0.47229 14.9345 1.49752 13.9619 2.77618 13.9619H56.3763" stroke="black" stroke-width="0.62" stroke-linecap="round" stroke-linejoin="round"/>
<path d="M65.5343 59.3057H76.4087H77.9408" stroke="black" stroke-width="0.62" stroke-linecap="round" stroke-linejoin="round"/>
<path d="M0.483521 59.3057H3.5477H59.014" stroke="black" stroke-width="0.62" stroke-linecap="round" stroke-linejoin="round"/>
<path d="M32.8996 64.6224L32.888 64.6332L25.0087 74.1753L24.9626 74.2294" stroke="black" stroke-width="0.62" stroke-linecap="round" stroke-linejoin="round"/>
<path d="M47.057 64.6224L47.0685 64.6332L54.9363 74.1753L54.9939 74.2294" stroke="black" stroke-width="0.62" stroke-linecap="round" stroke-linejoin="round"/>
<path d="M22.3247 37.9089C22.3247 46.7702 29.9852 53.9565 39.4311 53.9565C48.8771 53.9565 56.5375 46.7702 56.5375 37.9089C56.5375 29.0477 48.8771 21.8614 39.4311 21.8614C29.9852 21.8614 22.3247 29.0477 22.3247 37.9089Z" stroke="black" stroke-width="0.62" stroke-linecap="round" stroke-linejoin="round"/>
<path d="M22.532 27.0809C23.373 25.9354 24.4212 24.7899 25.7114 23.6985C28.2572 21.548 31.0795 20.154 33.9824 19.4083C35.8716 18.922 37.7953 18.7167 39.6961 18.76C46.481 18.9112 52.978 22.2396 56.6642 27.5024C58.0927 29.534 59.1064 31.8681 59.5556 34.3969C60.0279 37.1201 59.8551 40.0918 58.8529 43.2149C58.1503 45.3978 57.0444 47.6455 55.4777 49.9473C60.1086 54.2915 63.3225 57.2416 65.5227 59.3057C69.3126 62.8502 70.1536 63.7579 70.1536 64.5792C70.1536 64.6008 70.1536 64.6224 70.1536 64.6441C70.096 66.4487 67.6423 67.4321 66.2024 66.1029C65.7186 65.649 65.2002 65.1628 64.6588 64.6441C62.9539 63.0339 60.984 61.1644 59.0142 59.3165C56.5721 57.0147 54.1415 54.7237 52.2753 52.9731C47.8979 55.5991 44.5342 57.0904 39.5809 57.0904C31.0104 57.0904 22.3823 51.8168 19.7904 43.2365C19.2835 41.5615 19.0071 39.7676 19.0071 37.8549C19.0071 37.0444 19.0647 35.8557 19.3411 34.4401C19.7443 32.3112 20.6313 29.6852 22.5436 27.0917L22.532 27.0809Z" stroke="black" stroke-width="0.62" stroke-linecap="round" stroke-linejoin="round"/>
<path d="M29.5129 46.3163V34.9048H27.6813V32.992L30.9298 31.1657L33.3719 29.7933L39.4311 26.3785L51.1925 32.992V34.9048H49.3609V46.3163" stroke="black" stroke-width="0.62" stroke-linecap="round" stroke-linejoin="round"/>
<path d="M32.8075 46.3163V37.4875H38.9013V46.3163" stroke="black" stroke-width="0.62" stroke-linecap="round" stroke-linejoin="round"/>
<path d="M41.7697 42.4368V37.066H46.3083V42.4368" stroke="black" stroke-width="0.62" stroke-linecap="round" stroke-linejoin="round"/>
<path d="M40.7675 42.4369H41.7696H46.3083H47.2529" stroke="black" stroke-width="0.62" stroke-linecap="round" stroke-linejoin="round"/>
<path d="M30.8722 31.0901V27.6104H33.3489V29.7717" stroke="black" stroke-width="0.62" stroke-linecap="round" stroke-linejoin="round"/>
<path d="M28.2919 46.3163H29.5129H32.8075H38.9013H49.361H51.1926" stroke="black" stroke-width="0.62" stroke-linecap="round" stroke-linejoin="round"/>
<path d="M39.7422 62.9366C40.3084 62.9366 40.7674 62.506 40.7674 61.9748C40.7674 61.4437 40.3084 61.0131 39.7422 61.0131C39.1759 61.0131 38.7169 61.4437 38.7169 61.9748C38.7169 62.506 39.1759 62.9366 39.7422 62.9366Z" stroke="black" stroke-width="0.62" stroke-linecap="round" stroke-linejoin="round"/>
<path d="M81.5808 67.3889V70.4471" stroke="black" stroke-width="0.62" stroke-linecap="round" stroke-linejoin="round"/>
<path d="M83.2051 68.9235H79.9451" stroke="black" stroke-width="0.62" stroke-linecap="round" stroke-linejoin="round"/>
<path d="M10.9204 71.2576V74.3158" stroke="black" stroke-width="0.62" stroke-linecap="round" stroke-linejoin="round"/>
<path d="M12.5447 72.7812H9.28467" stroke="black" stroke-width="0.62" stroke-linecap="round" stroke-linejoin="round"/>
<path d="M29.8469 5.60852V9.4448" stroke="black" stroke-width="0.62" stroke-linecap="round" stroke-linejoin="round"/>
<path d="M31.8859 7.53204H27.7965" stroke="black" stroke-width="0.62" stroke-linecap="round" stroke-linejoin="round"/>
<path d="M4.64233 25.8922V27.913" stroke="black" stroke-width="0.62" stroke-linecap="round" stroke-linejoin="round"/>
<path d="M4.64233 19.095V24.3577" stroke="black" stroke-width="0.62" stroke-linecap="round" stroke-linejoin="round"/>
<path d="M21.0115 74.3158H59.0833" stroke="black" stroke-width="0.62" stroke-linecap="round" stroke-linejoin="round"/>
<path d="M15.5168 37.1417C13.1322 37.6172 11.6923 38.968 11.1854 41.2049C10.6786 38.968 9.23866 37.6172 6.85413 37.1417C9.23866 36.6662 10.6786 35.3154 11.1854 33.0785C11.6923 35.3154 13.1322 36.6662 15.5168 37.1417Z" fill="#CB9390"/>
<path d="M23.4652 44.5874C19.4449 45.387 17.0028 47.678 16.1503 51.4494C15.2979 47.678 12.8557 45.387 8.83545 44.5874C12.8557 43.7877 15.2979 41.4967 16.1503 37.7253C17.0028 41.4967 19.4449 43.7877 23.4652 44.5874Z" fill="#CB9390"/>
<path d="M74.8076 9.49883L80.1181 4.18207L77.6183 12.3625H83.643L71.6052 26.8432L75.2914 14.8048H69.8657L72.1581 12.395" fill="#CB9390"/>
<path d="M74.8076 9.49883L80.1181 4.18207L77.6183 12.3625H83.643L71.6052 26.8432L75.2914 14.8048H69.8657L72.1581 12.395" stroke="black" stroke-width="0.62" stroke-linecap="round" stroke-linejoin="round"/>
<path d="M73.8975 10.7956H58.8185" stroke="black" stroke-width="0.62" stroke-linecap="round" stroke-linejoin="round"/>
<path d="M73.0681 7.82385H65.3846" stroke="black" stroke-width="0.62" stroke-linecap="round" stroke-linejoin="round"/>
<path d="M67.2507 14.3293H59.8552" stroke="black" stroke-width="0.62" stroke-linecap="round" stroke-linejoin="round"/>
<path d="M65.6265 18.6735H62.3781" stroke="black" stroke-width="0.62" stroke-linecap="round" stroke-linejoin="round"/>
<path d="M70.649 21.9803H64.4746" stroke="black" stroke-width="0.62" stroke-linecap="round" stroke-linejoin="round"/>
<path d="M15.5168 37.1417C13.1322 37.6172 11.6923 38.968 11.1854 41.2049C10.6786 38.968 9.23866 37.6172 6.85413 37.1417C9.23866 36.6662 10.6786 35.3154 11.1854 33.0785C11.6923 35.3154 13.1322 36.6662 15.5168 37.1417Z" stroke="black" stroke-width="0.62" stroke-linecap="round" stroke-linejoin="round"/>
<path d="M23.4652 44.5874C19.4449 45.387 17.0028 47.678 16.1503 51.4494C15.2979 47.678 12.8557 45.387 8.83545 44.5874C12.8557 43.7877 15.2979 41.4967 16.1503 37.7253C17.0028 41.4967 19.4449 43.7877 23.4652 44.5874Z" stroke="black" stroke-width="0.62" stroke-linecap="round" stroke-linejoin="round"/>
<path d="M60.6962 44.9656C60.3736 45.5815 60.005 46.1759 59.6018 46.7594" stroke="black" stroke-width="0.62" stroke-linecap="round" stroke-linejoin="round"/>
<path d="M60.7191 29.1882C63.046 33.6188 63.2764 38.6978 61.5024 43.2149" stroke="black" stroke-width="0.62" stroke-linecap="round" stroke-linejoin="round"/>
<path d="M65.4307 47.7104H70.0269" stroke="black" stroke-width="0.62" stroke-linecap="round" stroke-linejoin="round"/>
<path d="M70.9254 50.1202H73.3215" stroke="black" stroke-width="0.62" stroke-linecap="round" stroke-linejoin="round"/>
<path d="M65.4307 50.1202H69.0939" stroke="black" stroke-width="0.62" stroke-linecap="round" stroke-linejoin="round"/>
<path d="M65.4307 52.53H73.3215" stroke="black" stroke-width="0.62" stroke-linecap="round" stroke-linejoin="round"/>
</g>
<defs>
<clipPath id="clip0_281_15302">
<rect width="84" height="80" fill="white"/>
</clipPath>
</defs>
</svg>
