<svg width="86" height="80" viewBox="0 0 86 80" fill="none" xmlns="http://www.w3.org/2000/svg">
<path opacity="0.5" d="M72.2424 0H13.0158C9.80357 0 7.19958 2.75965 7.19958 6.16386V73.8361C7.19958 77.2404 9.80357 80 13.0158 80H72.2424C75.4545 80 78.0585 77.2404 78.0585 73.8361V6.16386C78.0585 2.75965 75.4545 0 72.2424 0Z" fill="#EDEDED"/>
<path d="M73.6657 11.1774H10.292C8.83861 11.1774 7.6604 12.4261 7.6604 13.9664V57.3304C7.6604 58.8707 8.83861 60.1194 10.292 60.1194H73.6657C75.1191 60.1194 76.2973 58.8707 76.2973 57.3304V13.9664C76.2973 12.4261 75.1191 11.1774 73.6657 11.1774Z" fill="white"/>
<path d="M55.9408 71.5898H52.7972L46.6841 63.2339H35.5637L36.4239 62.0619H48.9778L55.9408 71.5898Z" fill="white"/>
<path d="M52.7973 71.5898H29.4404L35.5638 63.2339H46.6841L52.7973 71.5898Z" fill="#940000"/>
<path d="M54.323 71.5898H29.4404L35.5638 63.2339H48.2201L54.323 71.5898Z" fill="#940000"/>
<path d="M25.0782 71.796H60.6408" stroke="black" stroke-width="0.62" stroke-linecap="round" stroke-linejoin="round"/>
<path d="M77.1575 7.68315C79.4103 8.61641 80.5264 11.3077 79.6458 13.6951C79.0621 15.2794 77.7617 16.3321 76.2872 16.5925V13.5432C76.2872 12.3494 75.3758 11.3836 74.2495 11.3836H71.2185C71.2595 11.0255 71.3516 10.6674 71.4847 10.3201C72.3653 7.93273 74.9048 6.74989 77.1575 7.68315Z" fill="#940000"/>
<path d="M10.4458 56.7227V59.8915C10.4458 61.0852 11.3571 62.051 12.4835 62.051H74.2598C75.3862 62.051 76.2975 61.0852 76.2975 59.8915V56.7227H10.4458ZM42.4859 60.3473C41.9842 60.3473 41.5848 59.9132 41.5848 59.3923C41.5848 58.8714 41.9944 58.4373 42.4859 58.4373C42.9774 58.4373 43.387 58.8714 43.387 59.3923C43.387 59.9132 42.9774 60.3473 42.4859 60.3473Z" fill="#C1C1C1"/>
<path d="M42.4858 60.3581C42.9891 60.3581 43.3971 59.9257 43.3971 59.3923C43.3971 58.8589 42.9891 58.4265 42.4858 58.4265C41.9825 58.4265 41.5745 58.8589 41.5745 59.3923C41.5745 59.9257 41.9825 60.3581 42.4858 60.3581Z" fill="white"/>
<path d="M10.4457 59.9024C10.4457 61.0961 11.357 62.0619 12.4834 62.0619H9.76988C8.64351 62.0619 7.73218 61.0961 7.73218 59.9024V56.7336H10.4457V59.9024Z" fill="#C1C1C1"/>
<path d="M64.5422 62.0618H9.76988C8.64351 62.0618 7.73218 61.096 7.73218 59.9023V13.554C7.73218 12.3603 8.64351 11.3945 9.76988 11.3945H74.2597C75.3861 11.3945 76.2974 12.3603 76.2974 13.554V59.9023C76.2974 61.096 75.3861 62.0618 74.2597 62.0618H61.9515" stroke="black" stroke-width="0.62" stroke-linecap="round" stroke-linejoin="round"/>
<path d="M56.9034 56.7227H74.9356H76.2975" stroke="black" stroke-width="0.62" stroke-linecap="round" stroke-linejoin="round"/>
<path d="M7.73218 56.7227H10.4457H59.5452" stroke="black" stroke-width="0.62" stroke-linecap="round" stroke-linejoin="round"/>
<path d="M36.4342 62.0402L36.424 62.051L29.4405 71.5898L29.3995 71.6549" stroke="black" stroke-width="0.62" stroke-linecap="round" stroke-linejoin="round"/>
<path d="M48.9677 62.0402L48.9779 62.051L55.9409 71.5898L55.9819 71.6549" stroke="black" stroke-width="0.62" stroke-linecap="round" stroke-linejoin="round"/>
<path d="M42.4858 60.3581C42.9891 60.3581 43.3971 59.9257 43.3971 59.3923C43.3971 58.8589 42.9891 58.4265 42.4858 58.4265C41.9825 58.4265 41.5745 58.8589 41.5745 59.3923C41.5745 59.9257 41.9825 60.3581 42.4858 60.3581Z" stroke="black" stroke-width="0.62" stroke-linecap="round" stroke-linejoin="round"/>
<path d="M78.3864 4.36247L79.5025 1.30223" stroke="black" stroke-width="0.62" stroke-linecap="round" stroke-linejoin="round"/>
<path d="M65.4741 7.84592L68.3617 9.03963" stroke="black" stroke-width="0.62" stroke-linecap="round" stroke-linejoin="round"/>
<path d="M82.7894 14.9864L85.6668 16.1801" stroke="black" stroke-width="0.62" stroke-linecap="round" stroke-linejoin="round"/>
<path d="M82.6562 8.71405L85.4927 7.39012" stroke="black" stroke-width="0.62" stroke-linecap="round" stroke-linejoin="round"/>
<path d="M71.2084 1.49759L72.4576 4.50355" stroke="black" stroke-width="0.62" stroke-linecap="round" stroke-linejoin="round"/>
<path d="M78.6833 19.5225L79.9326 22.5285" stroke="black" stroke-width="0.62" stroke-linecap="round" stroke-linejoin="round"/>
<path d="M71.2288 11.3945C71.2697 11.0364 71.3619 10.6783 71.495 10.331C72.3756 7.94358 74.9151 6.76072 77.1678 7.69398C79.4205 8.62724 80.5367 11.3185 79.6561 13.7059C79.0724 15.2903 77.772 16.3429 76.2974 16.6034C76.2974 16.6034 76.2974 16.6034 76.2872 16.6034" stroke="black" stroke-width="0.62" stroke-linecap="round" stroke-linejoin="round"/>
<path d="M79.5127 64.8074V67.8676" stroke="black" stroke-width="0.62" stroke-linecap="round" stroke-linejoin="round"/>
<path d="M80.9565 66.3375H78.0688" stroke="black" stroke-width="0.62" stroke-linecap="round" stroke-linejoin="round"/>
<path d="M2.1106 63.6028V66.663" stroke="black" stroke-width="0.62" stroke-linecap="round" stroke-linejoin="round"/>
<path d="M3.55435 65.1329H0.666748" stroke="black" stroke-width="0.62" stroke-linecap="round" stroke-linejoin="round"/>
<path d="M33.7308 2.44167V7.46609" stroke="black" stroke-width="0.62" stroke-linecap="round" stroke-linejoin="round"/>
<path d="M36.0962 4.94844H31.3552" stroke="black" stroke-width="0.62" stroke-linecap="round" stroke-linejoin="round"/>
<path d="M5.05957 43.1253V45.1438" stroke="black" stroke-width="0.62" stroke-linecap="round" stroke-linejoin="round"/>
<path d="M5.05957 30.2767V41.5844" stroke="black" stroke-width="0.62" stroke-linecap="round" stroke-linejoin="round"/>
<path d="M30.024 29.3868L30.0445 29.4086L28.1092 30.6348L28.058 30.5589V27.4444H30.024V29.3868Z" fill="#CB9390"/>
<path d="M40.2943 35.9197H36.7002V40.7271H40.2943V35.9197Z" fill="#CB9390"/>
<path d="M34.427 36.2995H29.5939V44.1129H34.427V36.2995Z" fill="#CB9390"/>
<path d="M21.3508 44.1129H25.8051ZM25.8051 20.9658V22.8649H21.3508V20.9658C21.3508 20.8248 21.4123 20.6837 21.5044 20.5969L23.2554 18.9257C23.4397 18.752 23.706 18.752 23.8903 18.9257L25.6413 20.5969C25.7437 20.6945 25.7949 20.8248 25.7949 20.9658H25.8051Z" fill="#CB9390"/>
<path d="M67.0918 22.8757V39.3706C67.0918 41.9967 65.0848 44.1237 62.6068 44.1237H42.7213V33.9881H44.1753V32.2734L34.8572 26.3592L30.0445 29.4194L30.024 29.3977V27.4661H28.058V30.5806L28.0989 30.6565L25.5185 32.2952V34.0097H26.9726V44.1454H19.4976V22.8974H67.0816L67.0918 22.8757Z" fill="white"/>
<path d="M36.7002 40.7271H40.2944V35.9197H36.7002V40.7271ZM44.165 32.2734V33.9772H42.7109V44.1128H34.427V36.2995H29.5939V44.1128H26.9827V33.9772H25.5287V32.2734L28.0989 30.6348L30.0342 29.4086L34.8468 26.3483L44.165 32.2734Z" fill="white"/>
<path d="M21.3508 22.8758V20.9767C21.3508 20.8356 21.4123 20.6946 21.5044 20.6077L23.2554 18.9365C23.4397 18.7629 23.706 18.7629 23.8903 18.9365L25.6413 20.6077C25.7437 20.7054 25.7949 20.8356 25.7949 20.9767V22.8758" stroke="black" stroke-width="0.62" stroke-linecap="round" stroke-linejoin="round"/>
<path d="M25.8052 44.1129V56.6685" stroke="black" stroke-width="0.62" stroke-linecap="round" stroke-linejoin="round"/>
<path d="M21.3508 56.6143V44.1129" stroke="black" stroke-width="0.62" stroke-linecap="round" stroke-linejoin="round"/>
<path d="M25.805 22.8758H67.0916V39.3706C67.0916 41.9968 65.0846 44.1237 62.6066 44.1237H19.5076V22.8758H25.805Z" stroke="black" stroke-width="0.62" stroke-linecap="round" stroke-linejoin="round"/>
<path d="M26.9827 44.1129V36.5491V33.9772H25.5287V32.2735L28.1091 30.6349L30.0444 29.4086L34.8468 26.3592L44.165 32.2735V33.9772H42.7109L42.7212 44.1129V44.1997" stroke="black" stroke-width="0.62" stroke-linecap="round" stroke-linejoin="round"/>
<path d="M29.5938 44.1129V36.2995H34.4269V44.1129" stroke="black" stroke-width="0.62" stroke-linecap="round" stroke-linejoin="round"/>
<path d="M36.7002 40.7271V35.9197H40.2943V40.7271" stroke="black" stroke-width="0.62" stroke-linecap="round" stroke-linejoin="round"/>
<path d="M35.9015 40.7271H36.7002H40.2943H41.0521" stroke="black" stroke-width="0.62" stroke-linecap="round" stroke-linejoin="round"/>
<path d="M42.9362 36.6902H44.9739V38.7846H46.8273V34.6067H48.5987" stroke="black" stroke-width="0.62" stroke-linecap="round" stroke-linejoin="round"/>
<path d="M28.058 30.5589V27.4444H30.024V29.3869" stroke="black" stroke-width="0.62" stroke-linecap="round" stroke-linejoin="round"/>
<path d="M19.5076 38.9148H22.6819V40.0977H24.781V36.5491H26.9826" stroke="black" stroke-width="0.62" stroke-linecap="round" stroke-linejoin="round"/>
<path d="M52.9302 31.1557C53.7494 31.1557 54.1692 30.6891 54.1692 29.7667V28.9854C54.1692 28.0629 53.7494 27.5963 52.9302 27.5963H51.7117V33.4129H52.4182V31.2534C52.4182 31.1991 52.4592 31.1557 52.5104 31.1557H52.9302ZM52.4182 30.3961V28.356C52.4182 28.3017 52.4592 28.2583 52.5104 28.2583H52.9302C53.2886 28.2583 53.4627 28.4753 53.4627 28.9202V29.821C53.4627 30.2767 53.2988 30.4829 52.9302 30.4829H52.5104C52.4592 30.4829 52.4182 30.4395 52.4182 30.3853V30.3961Z" fill="black"/>
<path d="M55.951 33.4889C56.76 33.4889 57.2105 32.9897 57.2105 32.0781V28.9528C57.2105 28.0412 56.76 27.5421 55.951 27.5421C55.1421 27.5421 54.6915 28.0412 54.6915 28.9528V32.0781C54.6915 32.9897 55.1421 33.4889 55.951 33.4889ZM55.3981 28.8877C55.3981 28.3125 55.695 28.1932 55.951 28.1932C56.207 28.1932 56.504 28.3125 56.504 28.8877V32.1324C56.504 32.7075 56.207 32.8269 55.951 32.8269C55.695 32.8269 55.3981 32.7075 55.3981 32.1324V28.8877Z" fill="black"/>
<path d="M59.3607 30.2659C58.7668 29.7125 58.5723 29.3652 58.5723 28.8877C58.5723 28.4102 58.7566 28.1932 59.115 28.1932C59.4733 28.1932 59.6577 28.4211 59.6577 28.8877V29.0396H60.313V28.9528C60.313 28.0304 59.8932 27.5421 59.0945 27.5421C58.2958 27.5421 57.8759 28.0304 57.8759 28.9528C57.8759 29.6365 58.1217 30.1031 58.8282 30.7542C59.4221 31.3077 59.6167 31.6549 59.6167 32.1324C59.6167 32.6967 59.3197 32.8161 59.0638 32.8161C58.8078 32.8161 58.5108 32.6967 58.5108 32.1324V31.8068H57.8555V32.0781C57.8555 33.0006 58.2855 33.4889 59.0945 33.4889C59.9034 33.4889 60.3335 33.0006 60.3335 32.0781C60.3335 31.3945 60.0877 30.9278 59.3812 30.2767L59.3607 30.2659Z" fill="black"/>
<path d="M61.6852 28.3668V33.4238H62.3918V28.3668C62.3918 28.3126 62.4327 28.2691 62.4839 28.2691H63.3236V27.6072H60.7534V28.2691H61.5931C61.6443 28.2691 61.6852 28.3126 61.6852 28.3668Z" fill="black"/>
<path d="M51.4864 37.3088C51.4352 37.3088 51.3943 37.2653 51.3943 37.2111V34.7369H50.6877V40.5535H51.3943V38.0792C51.3943 38.025 51.4352 37.9816 51.4864 37.9816H52.5002C52.5514 37.9816 52.5923 38.025 52.5923 38.0792V40.5535H53.3091V34.7369H52.5923V37.2111C52.5923 37.2653 52.5514 37.3088 52.5002 37.3088H51.4864Z" fill="black"/>
<path d="M56.3913 39.8806H54.9475C54.8963 39.8806 54.8553 39.8372 54.8553 39.783V38.025C54.8553 37.9707 54.8963 37.9273 54.9475 37.9273H56.0739V37.2653H54.9475C54.8963 37.2653 54.8553 37.2219 54.8553 37.1677V35.4965C54.8553 35.4422 54.8963 35.3988 54.9475 35.3988H56.3913V34.7369H54.1488V40.5535H56.3913V39.8915V39.8806Z" fill="black"/>
<path d="M59.6168 38.98C59.6168 38.3289 59.453 37.9599 59.0843 37.7971C59.0536 37.7862 59.0229 37.7428 59.0229 37.7103C59.0229 37.6777 59.0434 37.6235 59.0741 37.6018C59.4325 37.4173 59.6066 37.07 59.6066 36.484V36.0065C59.6066 35.1167 59.2277 34.726 58.3778 34.726H57.1285V40.5426H57.8351V38.1986C57.8351 38.1444 57.876 38.1009 57.9272 38.1009H58.2344C58.7055 38.1009 58.9103 38.3722 58.9103 38.9691V39.9132C58.9103 40.3147 58.9307 40.4341 58.9615 40.5535H59.668C59.6168 40.3581 59.6066 40.1628 59.6066 39.9241V39.0017L59.6168 38.98ZM58.9103 36.7011C58.9103 37.2002 58.7055 37.439 58.2856 37.439H57.9375C57.8863 37.439 57.8453 37.3956 57.8453 37.3413V35.4965C57.8453 35.4422 57.8863 35.3988 57.9375 35.3988H58.3675C58.7362 35.3988 58.9103 35.6376 58.9103 36.1151V36.7119V36.7011Z" fill="black"/>
<path d="M62.6375 39.8806H61.1937C61.1425 39.8806 61.1016 39.8372 61.1016 39.783V38.025C61.1016 37.9707 61.1425 37.9273 61.1937 37.9273H62.3201V37.2653H61.1937C61.1425 37.2653 61.1016 37.2219 61.1016 37.1677V35.4965C61.1016 35.4422 61.1425 35.3988 61.1937 35.3988H62.6375V34.7369H60.395V40.5535H62.6375V39.8915V39.8806Z" fill="black"/>
<path d="M63.9687 39.2078L64.0813 37.1351V34.726H63.3748V37.1351L63.4874 39.2078H63.9687Z" fill="black"/>
<path d="M64.0711 39.8264H63.3953V40.5426H64.0711V39.8264Z" fill="black"/>
</svg>
