<svg width="86" height="80" viewBox="0 0 86 80" fill="none" xmlns="http://www.w3.org/2000/svg">
<path opacity="0.5" d="M71.4836 0H12.9538C9.77941 0 7.20605 2.75965 7.20605 6.16386V73.8361C7.20605 77.2404 9.77941 80 12.9538 80H71.4836C74.658 80 77.2314 77.2404 77.2314 73.8361V6.16386C77.2314 2.75965 74.658 0 71.4836 0Z" fill="#EDEDED"/>
<path d="M72.8904 11.1774H10.2623C8.82597 11.1774 7.66162 12.4261 7.66162 13.9664V57.3304C7.66162 58.8707 8.82597 60.1194 10.2623 60.1194H72.8904C74.3267 60.1194 75.491 58.8707 75.491 57.3304V13.9664C75.491 12.4261 74.3267 11.1774 72.8904 11.1774Z" fill="white"/>
<path d="M55.3737 71.5898H52.267L46.2258 63.2339H35.2363L36.0863 62.0619H48.4926L55.3737 71.5898Z" fill="white"/>
<path d="M52.2671 71.5898H29.1851L35.2364 63.2339H46.2259L52.2671 71.5898Z" fill="#941303"/>
<path d="M53.7749 71.5898H29.1851L35.2364 63.2339H47.7438L53.7749 71.5898Z" fill="#941303"/>
<path d="M24.8745 71.796H60.0187" stroke="black" stroke-width="0.62" stroke-linecap="round" stroke-linejoin="round"/>
<path d="M76.3408 7.68316C78.5671 8.61642 79.6701 11.3077 78.7998 13.6951C78.223 15.2795 76.9379 16.3321 75.4807 16.5925V13.5432C75.4807 12.3495 74.5801 11.3837 73.467 11.3837H70.4717C70.5122 11.0255 70.6032 10.6674 70.7348 10.3202C71.605 7.93275 74.1146 6.7499 76.3408 7.68316Z" fill="#941303"/>
<path d="M10.4141 56.7227V59.8915C10.4141 61.0852 11.3147 62.051 12.4278 62.051H73.4773C74.5904 62.051 75.491 61.0852 75.491 59.8915V56.7227H10.4141ZM42.0772 60.3473C41.5814 60.3473 41.1867 59.9132 41.1867 59.3923C41.1867 58.8714 41.5915 58.4374 42.0772 58.4374C42.563 58.4374 42.9677 58.8714 42.9677 59.3923C42.9677 59.9132 42.563 60.3473 42.0772 60.3473Z" fill="#C1C1C1"/>
<path d="M42.0774 60.3581C42.5748 60.3581 42.978 59.9258 42.978 59.3923C42.978 58.8589 42.5748 58.4265 42.0774 58.4265C41.58 58.4265 41.1768 58.8589 41.1768 59.3923C41.1768 59.9258 41.58 60.3581 42.0774 60.3581Z" fill="white"/>
<path d="M10.414 59.9024C10.414 61.0961 11.3146 62.0619 12.4278 62.0619H9.74616C8.63304 62.0619 7.73242 61.0961 7.73242 59.9024V56.7336H10.414V59.9024Z" fill="#C1C1C1"/>
<path d="M63.8741 62.0619H9.74616C8.63304 62.0619 7.73242 61.0961 7.73242 59.9024V13.554C7.73242 12.3603 8.63304 11.3945 9.74616 11.3945H73.4773C74.5904 11.3945 75.491 12.3603 75.491 13.554V59.9024C75.491 61.0961 74.5904 62.0619 73.4773 62.0619H61.3139" stroke="black" stroke-width="0.62" stroke-linecap="round" stroke-linejoin="round"/>
<path d="M56.3252 56.7227H74.1452H75.4911" stroke="black" stroke-width="0.62" stroke-linecap="round" stroke-linejoin="round"/>
<path d="M7.73242 56.7227H10.414H58.9359" stroke="black" stroke-width="0.62" stroke-linecap="round" stroke-linejoin="round"/>
<path d="M36.097 62.0402L36.0868 62.051L29.1855 71.5898L29.145 71.6549" stroke="black" stroke-width="0.62" stroke-linecap="round" stroke-linejoin="round"/>
<path d="M48.4829 62.0402L48.493 62.051L55.3741 71.5898L55.4146 71.6549" stroke="black" stroke-width="0.62" stroke-linecap="round" stroke-linejoin="round"/>
<path d="M42.0774 60.3581C42.5748 60.3581 42.978 59.9257 42.978 59.3923C42.978 58.8589 42.5748 58.4265 42.0774 58.4265C41.58 58.4265 41.1768 58.8589 41.1768 59.3923C41.1768 59.9257 41.58 60.3581 42.0774 60.3581Z" stroke="black" stroke-width="0.62" stroke-linecap="round" stroke-linejoin="round"/>
<path d="M77.5552 4.36248L78.6582 1.30225" stroke="black" stroke-width="0.62" stroke-linecap="round" stroke-linejoin="round"/>
<path d="M64.7949 7.84592L67.6486 9.03963" stroke="black" stroke-width="0.62" stroke-linecap="round" stroke-linejoin="round"/>
<path d="M81.9067 14.9865L84.7503 16.1802" stroke="black" stroke-width="0.62" stroke-linecap="round" stroke-linejoin="round"/>
<path d="M81.7749 8.71407L84.5779 7.39014" stroke="black" stroke-width="0.62" stroke-linecap="round" stroke-linejoin="round"/>
<path d="M70.4619 1.49759L71.6965 4.50355" stroke="black" stroke-width="0.62" stroke-linecap="round" stroke-linejoin="round"/>
<path d="M77.8486 19.5226L79.0832 22.5285" stroke="black" stroke-width="0.62" stroke-linecap="round" stroke-linejoin="round"/>
<path d="M70.4819 11.3945C70.5224 11.0364 70.6135 10.6783 70.745 10.331C71.6153 7.9436 74.1249 6.76073 76.3511 7.69399C78.5773 8.62726 79.6803 11.3185 78.8101 13.7059C78.2333 15.2903 76.9481 16.3429 75.491 16.6034C75.491 16.6034 75.491 16.6034 75.4809 16.6034" stroke="black" stroke-width="0.62" stroke-linecap="round" stroke-linejoin="round"/>
<path d="M78.6685 64.8074V67.8676" stroke="black" stroke-width="0.62" stroke-linecap="round" stroke-linejoin="round"/>
<path d="M80.0953 66.3375H77.2417" stroke="black" stroke-width="0.62" stroke-linecap="round" stroke-linejoin="round"/>
<path d="M2.17676 63.6028V66.663" stroke="black" stroke-width="0.62" stroke-linecap="round" stroke-linejoin="round"/>
<path d="M3.60363 65.1329H0.75" stroke="black" stroke-width="0.62" stroke-linecap="round" stroke-linejoin="round"/>
<path d="M33.4248 2.44168V7.4661" stroke="black" stroke-width="0.62" stroke-linecap="round" stroke-linejoin="round"/>
<path d="M35.7624 4.94846H31.0771" stroke="black" stroke-width="0.62" stroke-linecap="round" stroke-linejoin="round"/>
<path d="M5.09131 43.1253V45.1438" stroke="black" stroke-width="0.62" stroke-linecap="round" stroke-linejoin="round"/>
<path d="M5.09131 30.2767V41.5844" stroke="black" stroke-width="0.62" stroke-linecap="round" stroke-linejoin="round"/>
<path d="M29.7617 29.3868L29.782 29.4086L27.8694 30.6348L27.8188 30.5588V27.4444H29.7617V29.3868Z" fill="#CB9390"/>
<path d="M39.9117 35.9197H36.3599V40.727H39.9117V35.9197Z" fill="#CB9390"/>
<path d="M34.1132 36.2995H29.3369V44.1128H34.1132V36.2995Z" fill="#CB9390"/>
<path d="M21.1909 44.1129H25.5928H21.1909ZM25.5928 20.9658V22.8649H21.1909V20.9658C21.1909 20.8247 21.2516 20.6837 21.3427 20.5968L23.0731 18.9257C23.2552 18.752 23.5183 18.752 23.7005 18.9257L25.4309 20.5968C25.5321 20.6945 25.5827 20.8247 25.5827 20.9658H25.5928Z" fill="#CB9390"/>
<path d="M66.3937 22.8757V39.3706C66.3937 41.9967 64.4103 44.1237 61.9615 44.1237H42.3099V33.988H43.7468V32.2734L34.5383 26.3592L29.7822 29.4194L29.762 29.3977V27.4661H27.8191V30.5805L27.8596 30.6565L25.3095 32.2952V34.0097H26.7464V44.1454H19.3594V22.8974H66.3836L66.3937 22.8757Z" fill="white"/>
<path d="M36.3594 40.7271H39.9113V35.9197H36.3594V40.7271ZM43.7364 32.2734V33.9772H42.2995V44.1128H34.113V36.2995H29.3367V44.1128H26.7563V33.9772H25.3193V32.2734L27.8593 30.6348L29.7718 29.4086L34.5279 26.3483L43.7364 32.2734Z" fill="white"/>
<path d="M21.1909 22.8757V20.9767C21.1909 20.8356 21.2516 20.6945 21.3427 20.6077L23.0731 18.9365C23.2552 18.7629 23.5183 18.7629 23.7005 18.9365L25.4309 20.6077C25.5321 20.7054 25.5827 20.8356 25.5827 20.9767V22.8757" stroke="black" stroke-width="0.62" stroke-linecap="round" stroke-linejoin="round"/>
<path d="M25.5933 44.1129V56.6685" stroke="black" stroke-width="0.62" stroke-linecap="round" stroke-linejoin="round"/>
<path d="M21.1909 56.6143V44.1129" stroke="black" stroke-width="0.62" stroke-linecap="round" stroke-linejoin="round"/>
<path d="M25.593 22.8758H66.3938V39.3706C66.3938 41.9968 64.4105 44.1237 61.9616 44.1237H19.3696V22.8758H25.593Z" stroke="black" stroke-width="0.62" stroke-linecap="round" stroke-linejoin="round"/>
<path d="M26.7568 44.1129V36.5491V33.9772H25.3198V32.2735L27.8699 30.6349L29.7824 29.4086L34.5283 26.3592L43.7369 32.2735V33.9772H42.2999L42.3101 44.1129V44.1997" stroke="black" stroke-width="0.62" stroke-linecap="round" stroke-linejoin="round"/>
<path d="M29.3369 44.1129V36.2995H34.1132V44.1129" stroke="black" stroke-width="0.62" stroke-linecap="round" stroke-linejoin="round"/>
<path d="M36.3599 40.7271V35.9197H39.9117V40.7271" stroke="black" stroke-width="0.62" stroke-linecap="round" stroke-linejoin="round"/>
<path d="M35.5703 40.7271H36.3596H39.9115H40.6603" stroke="black" stroke-width="0.62" stroke-linecap="round" stroke-linejoin="round"/>
<path d="M42.5225 36.6902H44.5362V38.7846H46.3678V34.6066H48.1184" stroke="black" stroke-width="0.62" stroke-linecap="round" stroke-linejoin="round"/>
<path d="M27.8193 30.5589V27.4444H29.7622V29.3869" stroke="black" stroke-width="0.62" stroke-linecap="round" stroke-linejoin="round"/>
<path d="M19.3696 38.9148H22.5066V40.0977H24.581V36.5491H26.7567" stroke="black" stroke-width="0.62" stroke-linecap="round" stroke-linejoin="round"/>
<path d="M52.3985 31.1557C53.2081 31.1557 53.623 30.6891 53.623 29.7667V28.9854C53.623 28.0629 53.2081 27.5963 52.3985 27.5963H51.1943V33.4129H51.8926V31.2534C51.8926 31.1991 51.933 31.1557 51.9836 31.1557H52.3985ZM51.8926 30.3961V28.356C51.8926 28.3017 51.933 28.2583 51.9836 28.2583H52.3985C52.7527 28.2583 52.9247 28.4753 52.9247 28.9202V29.821C52.9247 30.2767 52.7628 30.4829 52.3985 30.4829H51.9836C51.933 30.4829 51.8926 30.4395 51.8926 30.3853V30.3961Z" fill="black"/>
<path d="M55.3838 33.4889C56.1833 33.4889 56.6285 32.9897 56.6285 32.0781V28.9528C56.6285 28.0412 56.1833 27.5421 55.3838 27.5421C54.5844 27.5421 54.1392 28.0412 54.1392 28.9528V32.0781C54.1392 32.9897 54.5844 33.4889 55.3838 33.4889ZM54.8374 28.8877C54.8374 28.3125 55.1308 28.1932 55.3838 28.1932C55.6368 28.1932 55.9303 28.3125 55.9303 28.8877V32.1324C55.9303 32.7075 55.6368 32.8269 55.3838 32.8269C55.1308 32.8269 54.8374 32.7075 54.8374 32.1324V28.8877Z" fill="black"/>
<path d="M58.7536 30.2659C58.1667 29.7124 57.9745 29.3652 57.9745 28.8877C57.9745 28.4102 58.1566 28.1932 58.5108 28.1932C58.865 28.1932 59.0471 28.421 59.0471 28.8877V29.0396H59.6947V28.9528C59.6947 28.0304 59.2798 27.5421 58.4905 27.5421C57.7012 27.5421 57.2864 28.0304 57.2864 28.9528C57.2864 29.6365 57.5292 30.1031 58.2274 30.7542C58.8144 31.3076 59.0066 31.6549 59.0066 32.1324C59.0066 32.6967 58.7132 32.816 58.4602 32.816C58.2072 32.816 57.9137 32.6967 57.9137 32.1324V31.8068H57.2661V32.0781C57.2661 33.0005 57.6911 33.4889 58.4905 33.4889C59.29 33.4889 59.715 33.0005 59.715 32.0781C59.715 31.3945 59.4721 30.9278 58.7739 30.2767L58.7536 30.2659Z" fill="black"/>
<path d="M61.0507 28.3668V33.4238H61.749V28.3668C61.749 28.3126 61.7894 28.2691 61.84 28.2691H62.6698V27.6072H60.1299V28.2691H60.9597C61.0103 28.2691 61.0507 28.3126 61.0507 28.3668Z" fill="black"/>
<path d="M50.9719 37.3088C50.9213 37.3088 50.8808 37.2654 50.8808 37.2111V34.7369H50.1826V40.5535H50.8808V38.0792C50.8808 38.025 50.9213 37.9816 50.9719 37.9816H51.9737C52.0243 37.9816 52.0648 38.025 52.0648 38.0792V40.5535H52.7731V34.7369H52.0648V37.2111C52.0648 37.2654 52.0243 37.3088 51.9737 37.3088H50.9719Z" fill="black"/>
<path d="M55.8191 39.8807H54.3923C54.3417 39.8807 54.3013 39.8373 54.3013 39.783V38.025C54.3013 37.9707 54.3417 37.9273 54.3923 37.9273H55.5054V37.2653H54.3923C54.3417 37.2653 54.3013 37.2219 54.3013 37.1677V35.4965C54.3013 35.4422 54.3417 35.3988 54.3923 35.3988H55.8191V34.7369H53.603V40.5535H55.8191V39.8915V39.8807Z" fill="black"/>
<path d="M59.0068 38.98C59.0068 38.3288 58.8449 37.9599 58.4806 37.7971C58.4503 37.7862 58.4199 37.7428 58.4199 37.7103C58.4199 37.6777 58.4402 37.6235 58.4705 37.6018C58.8247 37.4173 58.9967 37.07 58.9967 36.484V36.0065C58.9967 35.1167 58.6223 34.726 57.7824 34.726H56.5479V40.5426H57.2461V38.1986C57.2461 38.1444 57.2866 38.1009 57.3372 38.1009H57.6407C58.1062 38.1009 58.3086 38.3722 58.3086 38.9691V39.9132C58.3086 40.3147 58.3288 40.4341 58.3592 40.5535H59.0574C59.0068 40.3581 58.9967 40.1628 58.9967 39.9241V39.0017L59.0068 38.98ZM58.3086 36.7011C58.3086 37.2002 58.1062 37.439 57.6913 37.439H57.3473C57.2967 37.439 57.2562 37.3956 57.2562 37.3413V35.4965C57.2562 35.4422 57.2967 35.3988 57.3473 35.3988H57.7723C58.1366 35.3988 58.3086 35.6376 58.3086 36.1151V36.7119V36.7011Z" fill="black"/>
<path d="M61.992 39.8807H60.5652C60.5146 39.8807 60.4741 39.8373 60.4741 39.783V38.025C60.4741 37.9707 60.5146 37.9273 60.5652 37.9273H61.6783V37.2653H60.5652C60.5146 37.2653 60.4741 37.2219 60.4741 37.1677V35.4965C60.4741 35.4422 60.5146 35.3988 60.5652 35.3988H61.992V34.7369H59.7759V40.5535H61.992V39.8915V39.8807Z" fill="black"/>
<path d="M63.3071 39.2078L63.4184 37.1351V34.726H62.7202V37.1351L62.8315 39.2078H63.3071Z" fill="black"/>
<path d="M63.4086 39.8264H62.7407V40.5426H63.4086V39.8264Z" fill="black"/>
</svg>
