<svg width="85" height="80" viewBox="0 0 85 80" fill="none" xmlns="http://www.w3.org/2000/svg">
<g clip-path="url(#clip0_281_14793)">
<path opacity="0.5" d="M75.346 0H13.5592C10.2061 0 7.48779 2.761 7.48779 6.16687V73.8331C7.48779 77.239 10.2061 80 13.5592 80H75.346C78.6991 80 81.4174 77.239 81.4174 73.8331V6.16687C81.4174 2.761 78.6991 0 75.346 0Z" fill="#EDEDED"/>
<g opacity="0.24">
<path d="M66.6606 23.3663L72.1593 28.2215L72.0968 28.3062V36.853H68.2436V32.8546H65.1298V36.853H61.2766V28.2427L61.2245 28.1898L66.6606 23.3663Z" fill="#005063"/>
<path d="M59.1105 30.0621L61.2245 28.1898L66.6607 23.3663L72.1593 28.2215L74.2526 30.0621" fill="#005063"/>
<path d="M61.2766 28.2427V36.853H65.1298H68.2436H72.0968V28.3061" fill="#005063"/>
<path d="M68.2436 36.853V32.8546H65.1298V36.853" fill="#005063"/>
<path d="M55.7988 67.021C55.6009 67.2854 55.174 67.4229 54.8615 67.3383L53.6848 67.0104C53.4765 66.9575 53.1953 66.9258 52.9245 66.9469C52.7891 66.9469 52.6538 66.9575 52.5392 66.9893L51.352 67.2537C51.0292 67.3277 50.623 67.1691 50.4356 66.8941L49.7378 65.8786C49.5504 65.6036 49.165 65.2545 48.8734 65.0958L48.5506 64.9266L47.8008 64.5246C47.5092 64.3765 47.2905 63.9746 47.3322 63.6467L47.4467 62.4091C47.478 62.0811 47.4051 61.5628 47.2697 61.2455L46.801 60.1031C46.6761 59.7963 46.7698 59.3626 46.9989 59.1194L47.8633 58.252C48.0924 58.0193 48.3736 57.575 48.4673 57.2577L48.8318 56.0835C48.9359 55.7662 49.2796 55.4912 49.6024 55.4594L50.8209 55.3537C51.1437 55.3219 51.6332 55.1633 51.9144 54.9834L52.9349 54.317C53.2161 54.1372 53.6535 54.1584 53.9243 54.3488L54.9136 55.0575C55.1844 55.2585 55.6634 55.4489 55.9863 55.4806L57.1943 55.6393C57.5171 55.6816 57.8504 55.9777 57.9337 56.3057L58.2357 57.501C58.319 57.8183 58.5585 58.2837 58.7877 58.527L59.6104 59.4367C59.8291 59.68 59.902 60.1243 59.7562 60.4204L59.2355 61.5417C59.1001 61.8379 58.9855 62.3562 59.0063 62.6841L59.0688 63.9217C59.0792 64.2496 58.8501 64.641 58.5585 64.7785L58.0899 65.0006L57.4546 65.2968C57.1526 65.4343 56.7569 65.7622 56.559 66.0267L55.8196 66.9998L55.7988 67.021ZM53.2994 64.8525C55.4656 64.8525 57.2255 63.0649 57.2255 60.8647C57.2255 58.6645 55.4656 56.8769 53.2994 56.8769C51.1333 56.8769 49.3629 58.6539 49.3629 60.8647C49.3629 63.0755 51.1229 64.8525 53.2994 64.8525Z" fill="#005063"/>
<path d="M57.2256 60.8647C57.2256 63.0649 55.4656 64.8525 53.2994 64.8525C51.1333 64.8525 49.3629 63.0649 49.3629 60.8647C49.3629 58.6645 51.1229 56.8768 53.2994 56.8768C55.476 56.8768 57.2256 58.6539 57.2256 60.8647Z" fill="#005063"/>
<path d="M48.5715 64.9266L47.8217 64.5246C47.5301 64.3765 47.3114 63.9746 47.353 63.6467L47.4676 62.4091C47.4988 62.0811 47.4259 61.5628 47.2905 61.2455L46.8219 60.1031C46.6969 59.7963 46.7907 59.3626 47.0198 59.1194L47.8842 58.252C48.1133 58.0193 48.3944 57.575 48.4882 57.2577L48.8527 56.0835C48.9568 55.7662 49.3005 55.4912 49.6233 55.4594L50.8418 55.3537C51.1646 55.3219 51.654 55.1633 51.9352 54.9834L52.9558 54.317C53.237 54.1372 53.6744 54.1584 53.9451 54.3488L54.9345 55.0575C55.2053 55.2585 55.6843 55.4489 56.0071 55.4806L57.2152 55.6393C57.538 55.6816 57.8713 55.9777 57.9546 56.3057L58.2566 57.501C58.3399 57.8183 58.5794 58.2837 58.8085 58.527L59.6312 59.4367C59.8499 59.68 59.9228 60.1243 59.777 60.4204L59.2563 61.5417C59.1209 61.8379 59.0064 62.3562 59.0272 62.6841L59.0897 63.9217C59.1001 64.2496 58.871 64.641 58.5794 64.7785L58.1108 65.0006L57.4755 65.2968C57.1735 65.4343 56.7778 65.7622 56.5799 66.0267L55.8405 66.9998C55.6426 67.2643 55.2157 67.4018 54.9032 67.3172L53.7265 66.9893C53.5182 66.9364 53.237 66.9046 52.9662 66.9258C52.8308 66.9258 52.6955 66.9364 52.5809 66.9681L51.3937 67.2325C51.0709 67.3066 50.6647 67.1479 50.4773 66.8729L49.7795 65.8574C49.5921 65.5824 49.2067 65.2333 48.9151 65.0747L48.5923 64.9054L48.5715 64.9266Z" fill="#005063"/>
<path d="M57.2256 60.8647C57.2256 63.0649 55.4656 64.8525 53.2994 64.8525C51.1333 64.8525 49.3629 63.0649 49.3629 60.8647C49.3629 58.6645 51.1229 56.8768 53.2994 56.8768C55.476 56.8768 57.2256 58.6539 57.2256 60.8647Z" fill="#005063"/>
</g>
<path d="M82.8025 21.2296V67.7826H44.2288V15.4647H78.0016L82.8025 21.2296Z" fill="white"/>
<path d="M82.8025 21.2296V67.7826H44.2288V15.4647H78.0016L82.8025 21.2296Z" stroke="black" stroke-width="0.64" stroke-linecap="round" stroke-linejoin="round"/>
<path d="M69.0559 21.7585L74.5545 26.6032L74.4816 26.6878V35.2347H70.6284V31.2468H67.5146V35.2347H63.6614V26.6243L63.6198 26.5715L69.0559 21.7585Z" fill="#941303"/>
<path d="M61.5057 28.4437L63.6198 26.5715L69.0559 21.7585L74.5546 26.6032L76.6478 28.4437" stroke="black" stroke-width="0.64" stroke-linecap="round" stroke-linejoin="round"/>
<path d="M63.6615 26.6244V35.2347H67.5147H70.6285H74.4817V26.6879" stroke="black" stroke-width="0.64" stroke-linecap="round" stroke-linejoin="round"/>
<path d="M70.6285 35.2347V31.2468H67.5146V35.2347" stroke="black" stroke-width="0.64" stroke-linecap="round" stroke-linejoin="round"/>
<path d="M68.1083 38.6725H75.4919" stroke="black" stroke-width="0.64" stroke-linecap="round" stroke-linejoin="round"/>
<path d="M52.3726 38.6725H65.8067" stroke="black" stroke-width="0.64" stroke-linecap="round" stroke-linejoin="round"/>
<path d="M63.0366 42.1526H75.4919" stroke="black" stroke-width="0.64" stroke-linecap="round" stroke-linejoin="round"/>
<path d="M52.3726 42.1526H61.1308" stroke="black" stroke-width="0.64" stroke-linecap="round" stroke-linejoin="round"/>
<path d="M69.2225 45.6327H75.4918" stroke="black" stroke-width="0.64" stroke-linecap="round" stroke-linejoin="round"/>
<path d="M52.3726 45.6327H66.5253" stroke="black" stroke-width="0.64" stroke-linecap="round" stroke-linejoin="round"/>
<path d="M52.3726 49.1233H75.4918" stroke="black" stroke-width="0.64" stroke-linecap="round" stroke-linejoin="round"/>
<path d="M71.3367 52.6034H75.4919" stroke="black" stroke-width="0.64" stroke-linecap="round" stroke-linejoin="round"/>
<path d="M64.9111 52.6034H69.7537" stroke="black" stroke-width="0.64" stroke-linecap="round" stroke-linejoin="round"/>
<path d="M73.8568 56.0835H75.4918" stroke="black" stroke-width="0.64" stroke-linecap="round" stroke-linejoin="round"/>
<path d="M64.9111 56.0835H72.201" stroke="black" stroke-width="0.64" stroke-linecap="round" stroke-linejoin="round"/>
<path d="M68.983 59.5636H75.4918" stroke="black" stroke-width="0.64" stroke-linecap="round" stroke-linejoin="round"/>
<path d="M64.9111 59.5636H67.4626" stroke="black" stroke-width="0.64" stroke-linecap="round" stroke-linejoin="round"/>
<path d="M73.2737 63.0543H75.4919" stroke="black" stroke-width="0.64" stroke-linecap="round" stroke-linejoin="round"/>
<path d="M64.9111 63.0543H71.7532" stroke="black" stroke-width="0.64" stroke-linecap="round" stroke-linejoin="round"/>
<path d="M58.9335 64.4294C59.1314 64.1649 59.5376 63.837 59.8292 63.6995L60.4644 63.4033L63.6615 70.0568L60.5269 68.6393L59.7042 72.0348L56.0801 65.392L57.2569 65.7199C57.5693 65.8045 57.9859 65.667 58.1941 65.4025L58.9335 64.4294Z" fill="#941303"/>
<path d="M54.9345 65.3708C55.049 65.3391 55.1844 65.3285 55.3198 65.3285L51.6645 72.0454L50.8418 68.6499L47.7175 70.0674L50.9563 63.3187L51.2791 63.488C51.5707 63.6466 51.9561 63.9851 52.1435 64.2707L52.8413 65.2862C53.0183 65.5612 53.4349 65.7199 53.7577 65.6458L54.9449 65.3814L54.9345 65.3708Z" fill="#941303"/>
<path d="M58.1941 65.4026C57.9962 65.667 57.5692 65.8045 57.2568 65.7199L56.08 65.392C55.8717 65.3391 55.5906 65.3074 55.3198 65.3285C55.1844 65.3285 55.049 65.3391 54.9345 65.3708L53.7473 65.6353C53.4244 65.7093 53.0183 65.5507 52.8308 65.2756L52.1331 64.2602C51.9456 63.9852 51.5603 63.6361 51.2687 63.4774L50.9459 63.3082L50.1961 62.9062C49.9045 62.7581 49.6858 62.3562 49.7274 62.0283L49.842 60.7907C49.8732 60.4627 49.8003 59.9444 49.6649 59.6271L49.1963 58.4847C49.0713 58.1779 49.1651 57.7442 49.3942 57.501L50.2585 56.6336C50.4877 56.4009 50.7688 55.9566 50.8626 55.6393L51.2271 54.4651C51.3312 54.1478 51.6749 53.8728 51.9977 53.841L53.2161 53.7353C53.539 53.7035 54.0284 53.5449 54.3096 53.365L55.3302 52.6986C55.6114 52.5188 56.0488 52.54 56.3195 52.7304L57.3089 53.4391C57.5796 53.6401 58.0587 53.8304 58.3815 53.8622L59.5896 54.0209C59.9124 54.0632 60.2456 54.3593 60.329 54.6873L60.631 55.8825C60.7143 56.1999 60.9538 56.6653 61.1829 56.9086L62.0056 57.8183C62.2243 58.0616 62.2972 58.5058 62.1514 58.802L61.6307 59.9233C61.4953 60.2195 61.3808 60.7378 61.4016 61.0657L61.4641 62.3033C61.4745 62.6312 61.2454 63.0226 60.9538 63.1601L60.4852 63.3822L59.8499 63.6784C59.5479 63.8159 59.1522 64.1438 58.9543 64.4083L58.2149 65.3814L58.1941 65.4026ZM55.6947 62.3773C57.3922 62.3773 58.7773 60.9705 58.7773 59.2463C58.7773 57.5221 57.3922 56.1153 55.6947 56.1153C53.9972 56.1153 52.6017 57.5115 52.6017 59.2463C52.6017 60.9811 53.9868 62.3773 55.6947 62.3773Z" fill="#941303"/>
<path d="M58.444 59.2462C58.444 60.7906 57.2048 62.0494 55.6843 62.0494C54.1638 62.0494 52.9246 60.7906 52.9246 59.2462C52.9246 57.7019 54.1638 56.4431 55.6843 56.4431C57.2048 56.4431 58.444 57.6913 58.444 59.2462Z" fill="white"/>
<path d="M50.9564 63.3082L50.2066 62.9062C49.915 62.7581 49.6963 62.3562 49.7379 62.0283L49.8525 60.7907C49.8837 60.4627 49.8108 59.9444 49.6754 59.6271L49.2068 58.4847C49.0818 58.1779 49.1756 57.7442 49.4047 57.501L50.269 56.6336C50.4981 56.4009 50.7793 55.9566 50.8731 55.6393L51.2376 54.4651C51.3417 54.1478 51.6854 53.8728 52.0082 53.841L53.2266 53.7353C53.5495 53.7035 54.0389 53.5449 54.3201 53.365L55.3407 52.6986C55.6219 52.5188 56.0593 52.54 56.33 52.7304L57.3194 53.4391C57.5901 53.6401 58.0692 53.8305 58.392 53.8622L59.6001 54.0209C59.9229 54.0632 60.2561 54.3593 60.3395 54.6873L60.6415 55.8825C60.7248 56.1999 60.9643 56.6653 61.1934 56.9086L62.0161 57.8183C62.2348 58.0616 62.3077 58.5058 62.1619 58.802L61.6412 59.9233C61.5058 60.2195 61.3913 60.7378 61.4121 61.0657L61.4746 62.3033C61.485 62.6312 61.2559 63.0226 60.9643 63.1601L60.4957 63.3822L59.8604 63.6784C59.5584 63.8159 59.1627 64.1438 58.9648 64.4083L58.2254 65.3814C58.0275 65.6459 57.6006 65.7834 57.2881 65.6988L56.1113 65.3708C55.9031 65.318 55.6219 65.2862 55.3511 65.3074C55.2157 65.3074 55.0803 65.318 54.9658 65.3497L53.7786 65.6141C53.4557 65.6882 53.0496 65.5295 52.8621 65.2545L52.1644 64.239C51.9769 63.964 51.5916 63.6149 51.3 63.4563L50.9772 63.287L50.9564 63.3082Z" stroke="black" stroke-width="0.64" stroke-linecap="round" stroke-linejoin="round"/>
<path d="M55.3198 65.3286L51.6645 72.0455L50.8522 68.65L47.7175 70.0675L50.9563 63.3082" stroke="black" stroke-width="0.64" stroke-linecap="round" stroke-linejoin="round"/>
<path d="M56.0801 65.4025L59.7042 72.0454L60.5269 68.6499L63.6615 70.0673L60.4644 63.4033" stroke="black" stroke-width="0.64" stroke-linecap="round" stroke-linejoin="round"/>
<g opacity="0.19">
<path d="M33.8354 49.4513V67.6769H28.1493H27.4516H21.7655V49.4513H33.8354Z" fill="#005063"/>
<path d="M33.8354 67.6769H28.1493H27.4516H21.7655V49.4513H33.8354V67.6769Z" fill="#005063"/>
<path d="M21.9113 22.0759C21.9113 22.5836 21.5781 22.9856 21.1199 23.102L20.8907 23.0596C20.8907 22.3827 21.0886 21.748 21.4219 21.1874C21.7239 21.3672 21.9009 21.7057 21.9009 22.0865L21.9113 22.0759Z" fill="#005063"/>
<path d="M21.9113 22.0759C21.9113 22.5836 21.5781 22.9856 21.1199 23.102L20.8907 23.0596C20.8907 22.3827 21.0886 21.748 21.4219 21.1874C21.7239 21.3672 21.9009 21.7057 21.9009 22.0865L21.9113 22.0759Z" fill="#005063"/>
<path d="M21.9113 22.0759C21.9113 22.5836 21.5781 22.9856 21.1199 23.102L20.8907 23.0596C20.8907 22.3827 21.0886 21.748 21.4219 21.1874C21.7239 21.3672 21.9009 21.7057 21.9009 22.0865L21.9113 22.0759Z" fill="#005063"/>
</g>
<path d="M31.5757 49.4407V67.6768H29.2325V51.0062H19.5057V49.4407H31.5757Z" fill="white"/>
<path d="M29.2325 51.0062H19.5057V67.6874H29.2325V51.0062Z" fill="#CB9390"/>
<path d="M29.2325 51.0062H19.5057V67.6874H29.2325V51.0062Z" fill="#CB9390"/>
<path d="M50.2377 43.8767L48.5715 45.0614L26.7019 26.9628C26.7331 26.857 26.7435 26.7406 26.7435 26.6243C26.7435 25.9367 26.202 25.3761 25.5251 25.3761C25.3168 25.3761 25.1293 25.429 24.9523 25.5136L24.0046 24.7203L21.5469 26.7618C21.5469 26.7618 21.5157 26.7618 21.5052 26.7512L25.5251 23.4192L27.2642 24.8684L50.2273 43.8767H50.2377Z" fill="white"/>
<path d="M24.317 26.6243C24.317 26.6243 24.317 26.6877 24.317 26.7195C24.317 26.7829 24.3274 26.8464 24.3482 26.9099C23.9941 26.9945 23.6192 27.0368 23.2235 27.0368C23.2027 27.0368 23.1818 27.0368 23.161 27.0368C22.5882 27.0368 22.0571 26.9416 21.5573 26.7724L24.015 24.7308L24.9627 25.5242C24.5669 25.7357 24.3066 26.1483 24.3066 26.6243H24.317Z" fill="#CB9390"/>
<path d="M18.6101 23.1336C19.1933 23.1336 19.6516 22.6576 19.6516 22.0759C19.6516 21.7056 19.4641 21.3672 19.1725 21.1873C19.0059 21.071 18.808 21.0181 18.6101 21.0181C18.0374 21.0181 17.5687 21.5047 17.5687 22.0759C17.5687 22.6471 18.0374 23.1336 18.6101 23.1336ZM20.7138 20.6161C21.4949 21.1027 21.6719 22.1499 21.1095 22.8692L19.3183 25.1434L17.6729 27.2273L3.49932 29.163C2.94737 29.2476 2.42667 28.8562 2.35377 28.2956L1.36443 20.8383C1.30194 20.2882 1.65602 19.7911 2.19756 19.6959L15.9233 17.6649L20.0369 20.193L20.7138 20.6055V20.6161Z" fill="#C1C1C1"/>
<path d="M25.5459 29.5861C22.9424 31.7334 6.83176 45.072 6.83176 45.072V48.129L0.833252 43.8767L21.526 26.7618C22.0572 26.9417 22.6299 27.0474 23.2339 27.0474C23.6297 27.0474 24.0046 27.0051 24.3587 26.9205C24.4836 27.4706 24.9627 27.8725 25.5459 27.8725V29.5861Z" fill="#CB9390"/>
<path d="M23.1715 27.0369C22.9423 27.259 22.807 27.5763 22.807 27.9254C22.807 28.0312 22.807 28.1264 22.8486 28.211C22.4945 28.2956 22.1092 28.3379 21.7239 28.3379C21.1199 28.3379 20.5471 28.2322 20.016 28.0523L21.5781 26.7618C22.078 26.9311 22.6195 27.0263 23.1819 27.0263L23.1715 27.0369Z" fill="#CB9390"/>
<path d="M42.7291 49.4406V46.373C42.7291 46.373 26.6185 33.0344 24.0254 30.8871V29.1735C24.6919 29.1735 25.2438 28.6129 25.2438 27.9253C25.2438 27.3436 24.8481 26.857 24.317 26.7195C24.317 26.6877 24.317 26.656 24.317 26.6243C24.317 26.1377 24.5878 25.7251 24.9731 25.5242L25.7645 26.18L26.7122 26.9628L48.5818 45.0614L48.7276 45.1777L42.7291 49.4406Z" fill="#CB9390"/>
<path d="M24.3171 26.6243C24.3171 26.6243 24.3171 26.6877 24.3171 26.7195C24.2233 26.6983 24.1192 26.6772 24.0255 26.6772C23.6922 26.6772 23.3902 26.8147 23.1715 27.0368C22.5987 27.0368 22.0676 26.9416 21.5677 26.7724L24.0255 24.7308L24.9732 25.5242C24.5774 25.7357 24.3171 26.1483 24.3171 26.6243Z" fill="#CB9390"/>
<path d="M6.83179 45.072C6.83179 45.072 22.9424 31.7334 25.5459 29.5861C28.139 31.7334 44.2496 45.072 44.2496 45.072V67.6768H31.5756V49.4406H19.5057V67.6768H6.83179V45.072Z" fill="white"/>
<path d="M6.83176 48.129L0.833252 43.8767L21.5156 26.7512L25.5459 23.4298L27.285 24.8684L50.2377 43.8767L44.2392 48.1396" stroke="black" stroke-width="0.64" stroke-linecap="round" stroke-linejoin="round"/>
<path d="M31.5756 67.6768H44.2496V45.072C44.2496 45.072 28.139 31.7334 25.5459 29.5861C22.9424 31.7334 6.83179 45.072 6.83179 45.072V67.6768H19.5057" stroke="black" stroke-width="0.64" stroke-linecap="round" stroke-linejoin="round"/>
<path d="M31.5756 67.6769H25.8791H25.1917H19.4952V49.4513H31.5756V67.6769Z" stroke="black" stroke-width="0.64" stroke-linecap="round" stroke-linejoin="round"/>
<path d="M24.3587 26.9099C24.3274 26.8147 24.317 26.7195 24.317 26.6243C24.317 25.9367 24.869 25.3761 25.5459 25.3761C26.2228 25.3761 26.7643 25.9367 26.7643 26.6243C26.7643 27.3118 26.2124 27.8725 25.5459 27.8725C24.9627 27.8725 24.4836 27.4705 24.3587 26.9205V26.9099Z" stroke="black" stroke-width="0.64" stroke-linecap="round" stroke-linejoin="round"/>
<path d="M18.6309 23.049C18.6309 22.372 18.8287 21.7373 19.1724 21.1767C19.4015 20.8065 19.6931 20.468 20.0368 20.193C20.8491 19.4948 21.9842 19.0612 23.2235 19.0612C25.7645 19.0612 27.8265 20.8488 27.8265 23.049C27.8265 23.6414 27.6807 24.202 27.4099 24.6991" stroke="black" stroke-width="0.64" stroke-linecap="round" stroke-linejoin="round"/>
<path d="M26.3685 25.9685C25.8062 26.4128 25.1293 26.7513 24.3586 26.9099C23.9941 26.9946 23.6192 27.0369 23.2339 27.0369C22.6299 27.0369 22.0571 26.9417 21.526 26.7513C20.6095 26.4233 19.8389 25.8627 19.3286 25.1434" stroke="black" stroke-width="0.64" stroke-linecap="round" stroke-linejoin="round"/>
<path d="M19.3183 25.1434L17.6729 27.2273L3.49932 29.163C2.94737 29.2476 2.42667 28.8562 2.35377 28.2956L1.36443 20.8383C1.30194 20.2882 1.65602 19.7911 2.19756 19.6959L15.9233 17.6649L20.0369 20.193L20.7138 20.6055C21.4949 21.0921 21.6719 22.1393 21.1095 22.8586L19.3183 25.1329" stroke="black" stroke-width="0.64" stroke-linecap="round" stroke-linejoin="round"/>
<path d="M19.6515 22.0758C19.6515 22.6682 19.1829 23.1336 18.6101 23.1336C18.0374 23.1336 17.5687 22.6576 17.5687 22.0758C17.5687 21.4941 18.0374 21.0181 18.6101 21.0181C18.8184 21.0181 19.0059 21.071 19.1725 21.1873C19.4641 21.3671 19.6515 21.7056 19.6515 22.0758Z" stroke="black" stroke-width="0.64" stroke-linecap="round" stroke-linejoin="round"/>
<path d="M82.6567 69.1471V72.2041" stroke="black" stroke-width="0.64" stroke-linecap="round" stroke-linejoin="round"/>
<path d="M84.1668 70.6809H81.1571" stroke="black" stroke-width="0.64" stroke-linecap="round" stroke-linejoin="round"/>
<path d="M17.4021 73.0081V76.0651" stroke="black" stroke-width="0.64" stroke-linecap="round" stroke-linejoin="round"/>
<path d="M18.9121 74.5419H15.9025" stroke="black" stroke-width="0.64" stroke-linecap="round" stroke-linejoin="round"/>
<path d="M34.8873 7.37268V11.2124" stroke="black" stroke-width="0.64" stroke-linecap="round" stroke-linejoin="round"/>
<path d="M36.7723 9.28723H32.9919" stroke="black" stroke-width="0.64" stroke-linecap="round" stroke-linejoin="round"/>
<path d="M40.7816 22.5413V30.4429" stroke="black" stroke-width="0.64" stroke-linecap="round" stroke-linejoin="round"/>
<path d="M40.7816 18.014V21.0499" stroke="black" stroke-width="0.64" stroke-linecap="round" stroke-linejoin="round"/>
</g>
<defs>
<clipPath id="clip0_281_14793">
<rect width="84" height="80" fill="white" transform="translate(0.5)"/>
</clipPath>
</defs>
</svg>
