<svg width="80" height="80" viewBox="0 0 80 80" fill="none" xmlns="http://www.w3.org/2000/svg">
<g clip-path="url(#clip0_2336_9798)">
<path opacity="0.5" d="M65.7473 0H12.2527C9.35171 0 7 2.75927 7 6.16299V73.837C7 77.2407 9.35171 80 12.2527 80H65.7473C68.6483 80 71 77.2407 71 73.837V6.16299C71 2.75927 68.6483 0 65.7473 0Z" fill="#EDEDED"/>
<path d="M17.0301 36.9591L17.1775 36.9865C16.8734 38.6405 16.8181 40.0386 16.8181 40.9798C16.8181 43.2094 17.1222 45.3111 17.6844 47.2666H13.8691V36.9591H17.0393H17.0301Z" fill="white"/>
<path d="M10.6987 42.7433V36.4747H5.68546V42.7433H10.6987ZM13.2791 23.9924L20.716 28.4152C18.6056 31.4398 17.6288 34.5101 17.1772 36.9956L17.0298 36.9682H13.8596V47.2757H2.31257V33.9527H0.285156V31.7231L13.2791 24.0016V23.9924ZM60.8588 47.2666C61.9739 43.6114 62.1674 40.1482 61.6329 36.9591H66.1301V47.2666H60.8588Z" fill="white"/>
<path d="M69.2996 42.7433H74.3128V36.4747H69.2996V42.7433ZM79.7131 31.7139V33.9435H77.6857V47.2665H66.1294V36.959H61.6323C61.1438 33.9892 60.0288 31.2753 58.4437 28.8994L66.71 23.9833L79.7039 31.7048L79.7131 31.7139ZM39.4044 22.311C49.8548 22.311 58.3147 30.7087 58.3147 41.0619C58.3147 51.4151 49.8456 59.8128 39.4044 59.8128C28.9632 59.8128 20.4941 51.4151 20.4941 41.0619C20.4941 30.7087 28.9632 22.311 39.4044 22.311ZM29.9401 33.0937L29.9953 33.1942L26.4013 35.3325V37.5621H28.4287V50.8943H50.3709V37.5621H52.3983V35.3325L39.4044 27.6019L32.6955 31.586L32.6771 31.5494V29.0182H29.9401V33.0846V33.0937Z" fill="white"/>
<path d="M41.9858 46.3528H46.999V40.0842H41.9858V46.3528ZM52.3993 35.3234V37.5531H50.3719V50.8852H38.8157V40.5777H32.0699V50.8852H28.4298V37.5531H26.4023V35.3234L29.9964 33.1852L32.6965 31.586L39.4055 27.6019L52.3993 35.3326V35.3234Z" fill="white"/>
<path d="M46.9996 40.0842V46.3528H45.9766V40.7422H41.9863V40.0842H46.9996Z" fill="white"/>
<path d="M45.9767 40.7422H41.9863V46.362H45.9767V40.7422Z" fill="#941303"/>
<path d="M55.8816 55.9567C57.6141 53.2701 58.8398 50.6384 59.6139 48.089C60.7289 44.4338 60.9225 40.9706 60.3972 37.7815C59.9088 34.8208 58.7845 32.0977 57.2086 29.7219C53.1261 23.5812 45.9472 19.6794 38.4458 19.5057C36.3447 19.4509 34.2251 19.6976 32.1332 20.2733C30.161 20.8125 28.2073 21.6349 26.3458 22.7771C25.627 23.2888 24.9266 23.8462 24.2447 24.4493C22.8163 25.7195 21.6643 27.0536 20.7243 28.3969C18.614 31.4307 17.6371 34.4918 17.1856 36.9773C16.8815 38.6313 16.8262 40.0202 16.8262 40.9706C16.8262 43.2002 17.1303 45.3019 17.6832 47.2574C20.54 57.2817 30.0873 63.4406 39.5517 63.4406C45.0257 63.4406 48.7488 61.7044 53.5869 58.6341C57.8445 62.8649 64.7285 69.7366 68.9768 73.9765C69.7141 74.6984 70.6909 74.8355 71.5295 74.5705C71.8797 74.1593 72.0917 73.6293 72.0917 73.0262C72.0917 71.5093 69.7878 69.7274 55.8724 55.9384L55.8816 55.9567ZM49.2464 57.0806C46.3804 58.8168 43.0075 59.8129 39.4042 59.8129C28.963 59.8129 20.494 51.4152 20.494 41.062C20.494 34.8025 23.5812 29.265 28.3364 25.8566C28.3364 25.8566 28.3364 25.8566 28.3456 25.8566C31.4512 23.6269 35.2757 22.3111 39.4042 22.3111C49.8454 22.3111 58.3145 30.7088 58.3145 41.062C58.3145 47.8423 54.6836 53.7819 49.2464 57.0806Z" fill="#C1C1C1"/>
<path d="M73.3541 72.222C73.3541 73.3917 72.5431 74.278 71.5387 74.5887C71.8888 74.1775 72.1008 73.6475 72.1008 73.0444C72.1008 71.5276 69.7969 69.7457 55.8815 55.9566C57.614 53.2701 58.8397 50.6384 59.6138 48.0889C60.7288 44.4338 60.9224 40.9705 60.3971 37.7814C59.9087 34.8208 58.7844 32.0977 57.2085 29.7218C53.126 23.5812 45.9471 19.6793 38.4457 19.5057C36.3446 19.4509 34.225 19.6976 32.1331 20.2733C30.1609 20.8124 28.2072 21.6348 26.3457 22.7771C28.5759 21.1962 30.9535 20.0997 33.3772 19.4417C35.4691 18.8752 37.5886 18.6285 39.699 18.6742C47.2004 18.8478 54.3793 22.7405 58.4526 28.8903C60.0377 31.2661 61.1528 33.9801 61.6412 36.9499C62.1665 40.1299 61.9729 43.6023 60.8671 47.2574C60.093 49.8069 58.8765 52.4386 57.1348 55.1251C71.0502 68.9233 73.3541 70.696 73.3541 72.2129V72.222Z" fill="white"/>
<path d="M55.8816 55.9567C57.6141 53.2701 58.8398 50.6384 59.6139 48.089C60.7289 44.4338 60.9225 40.9706 60.3972 37.7815C59.9088 34.8208 58.7845 32.0977 57.2086 29.7219C53.1261 23.5812 45.9472 19.6794 38.4458 19.5057C36.3447 19.4509 34.2251 19.6976 32.1332 20.2733C30.161 20.8125 28.2073 21.6349 26.3458 22.7771C25.627 23.2888 24.9266 23.8462 24.2447 24.4493C22.8163 25.7195 21.6643 27.0536 20.7243 28.3969C18.614 31.4307 17.6371 34.4918 17.1856 36.9773C16.8815 38.6313 16.8262 40.0202 16.8262 40.9706C16.8262 43.2002 17.1303 45.3019 17.6832 47.2574C20.54 57.2817 30.0873 63.4406 39.5517 63.4406C45.0257 63.4406 48.7488 61.7044 53.5869 58.6341C57.8445 62.8649 64.7285 69.7366 68.9768 73.9765C69.7141 74.6984 70.6909 74.8355 71.5295 74.5705C71.8797 74.1593 72.0917 73.6293 72.0917 73.0262C72.0917 71.5093 69.7878 69.7274 55.8724 55.9384L55.8816 55.9567ZM49.2464 57.0806C46.1315 59.3194 42.2979 60.6444 38.1509 60.6444C27.7097 60.6444 19.2406 52.2467 19.2406 41.8935C19.2406 35.1041 22.8808 29.1553 28.3272 25.8657C28.3272 25.8657 28.3272 25.8657 28.3364 25.8657C31.442 23.6361 35.2664 22.3202 39.395 22.3202C49.8362 22.3202 58.3053 30.7179 58.3053 41.0711C58.3053 47.8514 54.6743 53.791 49.2372 57.0898L49.2464 57.0806Z" fill="#C1C1C1"/>
<path d="M37.6273 41.7565H32.0703V50.8852H37.6273V41.7565Z" fill="#941303"/>
<path d="M38.8146 40.5776H32.207V50.7207H38.8146V40.5776Z" fill="white"/>
<path d="M37.6273 41.7565H32.0703V50.8852H37.6273V41.7565Z" fill="#941303"/>
<path d="M39.6915 18.6925C39.498 18.6925 39.3045 18.6925 39.1109 18.6925C39.3505 17.3035 38.7884 15.8506 37.5535 14.9825C36.1712 14.023 34.3557 14.1144 33.084 15.083C33.1208 15.0282 33.1485 14.9734 33.1854 14.9277C34.3834 13.228 36.7333 12.8168 38.4474 14.0047C39.9864 15.0739 40.4748 17.0751 39.6915 18.6925Z" fill="white"/>
<path d="M39.1095 18.6834C37.2019 18.6834 35.2667 18.9392 33.3683 19.451C32.3546 18.2356 32.1979 16.472 33.0826 15.0831C34.3543 14.1053 36.1606 14.0139 37.5521 14.9825C38.7962 15.8415 39.3492 17.3036 39.1095 18.6925V18.6834Z" fill="#CB9390"/>
<path d="M31.849 32.0885V29.6396H29.9414V29.0273H32.6784V31.5585L32.6968 31.5859L31.849 32.0885Z" fill="white"/>
<path d="M31.849 29.6396V32.0886L29.9967 33.1943L29.9414 33.0938V29.6396H31.849Z" fill="#941303"/>
<path d="M10.6988 36.4747V42.7433H9.62979V37.3794H5.68555V36.4747H10.6988Z" fill="white"/>
<path d="M9.62979 37.3794H5.68555V42.7433H9.62979V37.3794Z" fill="#CB9390"/>
<path d="M9.62979 37.3794H5.68555V42.7433H9.62979V37.3794Z" fill="#CB9390"/>
<path d="M73.4739 37.3154H69.0781V42.7433H73.4739V37.3154Z" fill="#CB9390"/>
<path d="M39.4044 22.311C28.9632 22.311 20.4941 30.7087 20.4941 41.0619C20.4941 51.4151 28.9632 59.8128 39.4044 59.8128C49.8456 59.8128 58.3147 51.4151 58.3147 41.0619C58.3147 30.7087 49.8456 22.311 39.4044 22.311Z" stroke="black" stroke-width="0.62" stroke-linecap="round" stroke-linejoin="round"/>
<path d="M39.6913 18.6925C47.1927 18.8661 54.3716 22.7589 58.4541 28.9086C60.0392 31.2845 61.1543 34.0076 61.6427 36.9682C62.168 40.1482 61.9744 43.6206 60.8686 47.2757C60.0945 49.8252 58.878 52.4569 57.1363 55.1434C71.0425 68.9325 73.3556 70.7144 73.3556 72.2312C73.3556 74.3786 70.6002 75.5757 68.9875 74.004C64.7391 69.764 57.8551 62.8832 53.5883 58.6615C48.7502 61.7318 45.0271 63.468 39.5531 63.468C30.0887 63.468 20.5414 57.3091 17.6846 47.2849C17.1225 45.3294 16.8184 43.2277 16.8184 40.998C16.8184 40.0477 16.8829 38.6587 17.1778 37.0048C17.6201 34.5193 18.6062 31.4581 20.7165 28.4243C21.6473 27.0811 22.8085 25.7469 24.2369 24.4768C27.0568 21.9639 30.1717 20.3373 33.3694 19.4692C35.4614 18.9027 37.5809 18.656 39.6821 18.7016L39.6913 18.6925Z" stroke="black" stroke-width="0.62" stroke-linecap="round" stroke-linejoin="round"/>
<path d="M28.4298 50.8852V37.5531H26.4023V35.3234L29.9964 33.1943L32.6966 31.586L39.4055 27.6019L52.3994 35.3234V37.5531H50.3719V50.8852" stroke="black" stroke-width="0.62" stroke-linecap="round" stroke-linejoin="round"/>
<path d="M32.0703 50.8851V40.5776H38.8161V50.8851" stroke="black" stroke-width="0.62" stroke-linecap="round" stroke-linejoin="round"/>
<path d="M41.9863 46.3528V40.0842H46.9996V46.3528" stroke="black" stroke-width="0.62" stroke-linecap="round" stroke-linejoin="round"/>
<path d="M40.8711 46.3528H41.9862H46.9994H48.05" stroke="black" stroke-width="0.62" stroke-linecap="round" stroke-linejoin="round"/>
<path d="M29.9414 33.0937V29.0273H32.6784V31.5585" stroke="black" stroke-width="0.62" stroke-linecap="round" stroke-linejoin="round"/>
<path d="M27.084 50.8851H28.4295H32.0696H38.8154H50.3716H52.399" stroke="black" stroke-width="0.62" stroke-linecap="round" stroke-linejoin="round"/>
<path d="M58.4531 28.8995L66.7195 23.9924L79.7133 31.7139V33.9436H77.6859V47.2666" stroke="black" stroke-width="0.62" stroke-linecap="round" stroke-linejoin="round"/>
<path d="M61.6426 36.9683H66.1398V47.2666" stroke="black" stroke-width="0.62" stroke-linecap="round" stroke-linejoin="round"/>
<path d="M69.3008 42.7433V36.4747H74.314V42.7433" stroke="black" stroke-width="0.62" stroke-linecap="round" stroke-linejoin="round"/>
<path d="M68.1953 42.7433H69.3012H74.3144H75.365" stroke="black" stroke-width="0.62" stroke-linecap="round" stroke-linejoin="round"/>
<path d="M60.8672 47.2666H66.1385H77.6855H79.7129" stroke="black" stroke-width="0.62" stroke-linecap="round" stroke-linejoin="round"/>
<path d="M20.7252 28.4152L13.2791 23.9924L0.285156 31.7139V33.9436H2.31257V47.2666" stroke="black" stroke-width="0.62" stroke-linecap="round" stroke-linejoin="round"/>
<path d="M17.0301 36.9683H13.8691V47.2666" stroke="black" stroke-width="0.62" stroke-linecap="round" stroke-linejoin="round"/>
<path d="M10.6988 42.7433V36.4747H5.68555V42.7433" stroke="black" stroke-width="0.62" stroke-linecap="round" stroke-linejoin="round"/>
<path d="M11.8137 42.7433H10.6986H5.68534H4.63477" stroke="black" stroke-width="0.62" stroke-linecap="round" stroke-linejoin="round"/>
<path d="M17.6841 47.2666H13.8688H2.31257H0.285156" stroke="black" stroke-width="0.62" stroke-linecap="round" stroke-linejoin="round"/>
<path d="M40.1152 11.6472L41.645 9.47241" stroke="black" stroke-width="0.62" stroke-linecap="round" stroke-linejoin="round"/>
<path d="M28.623 11.7568L30.8163 13.2737" stroke="black" stroke-width="0.62" stroke-linecap="round" stroke-linejoin="round"/>
<path d="M27.084 18.6925L29.7196 18.2264" stroke="black" stroke-width="0.62" stroke-linecap="round" stroke-linejoin="round"/>
<path d="M42.8613 15.9145L45.4878 15.4485" stroke="black" stroke-width="0.62" stroke-linecap="round" stroke-linejoin="round"/>
<path d="M34.6582 7.94635L35.119 10.5506" stroke="black" stroke-width="0.62" stroke-linecap="round" stroke-linejoin="round"/>
<path d="M33.3787 19.4509C32.3189 18.1899 32.1991 16.3349 33.1944 14.9185C34.3924 13.2189 36.7424 12.8077 38.4565 13.9956C39.9955 15.0647 40.4839 17.0659 39.7006 18.6833" stroke="black" stroke-width="0.62" stroke-linecap="round" stroke-linejoin="round"/>
<path d="M13.6113 54.7596V57.3457" stroke="black" stroke-width="0.62" stroke-linecap="round" stroke-linejoin="round"/>
<path d="M14.9107 56.0481H12.3027" stroke="black" stroke-width="0.62" stroke-linecap="round" stroke-linejoin="round"/>
<path d="M71.9629 54.0377V56.6146" stroke="black" stroke-width="0.62" stroke-linecap="round" stroke-linejoin="round"/>
<path d="M73.2721 55.3262H70.6641" stroke="black" stroke-width="0.62" stroke-linecap="round" stroke-linejoin="round"/>
<path d="M17.0762 15.4576V18.0437" stroke="black" stroke-width="0.62" stroke-linecap="round" stroke-linejoin="round"/>
<path d="M18.3853 16.7461H15.7773" stroke="black" stroke-width="0.62" stroke-linecap="round" stroke-linejoin="round"/>
<path d="M60.0117 17.3674V20.6114" stroke="black" stroke-width="0.62" stroke-linecap="round" stroke-linejoin="round"/>
<path d="M61.6426 18.994H58.3711" stroke="black" stroke-width="0.62" stroke-linecap="round" stroke-linejoin="round"/>
<path d="M59.8184 68.3385L60.7676 69.2249" stroke="black" stroke-width="0.62" stroke-linecap="round" stroke-linejoin="round"/>
<path d="M54.6758 63.4863L58.8688 67.443" stroke="black" stroke-width="0.62" stroke-linecap="round" stroke-linejoin="round"/>
<path d="M17.5547 63.2396H23.7936" stroke="black" stroke-width="0.62" stroke-linecap="round" stroke-linejoin="round"/>
<path d="M25.0293 65.524H28.2732" stroke="black" stroke-width="0.62" stroke-linecap="round" stroke-linejoin="round"/>
<path d="M17.5547 65.524H22.5311" stroke="black" stroke-width="0.62" stroke-linecap="round" stroke-linejoin="round"/>
<path d="M17.5547 67.8086H28.2724" stroke="black" stroke-width="0.62" stroke-linecap="round" stroke-linejoin="round"/>
</g>
<defs>
<clipPath id="clip0_2336_9798">
<rect width="80" height="80" fill="white"/>
</clipPath>
</defs>
</svg>
