<svg width="85" height="80" viewBox="0 0 85 80" fill="none" xmlns="http://www.w3.org/2000/svg">
<g clip-path="url(#clip0_416_9468)">
<path opacity="0.5" d="M75.596 0H13.8092C10.4561 0 7.73779 2.761 7.73779 6.16687V73.8331C7.73779 77.239 10.4561 80 13.8092 80H75.596C78.9491 80 81.6674 77.239 81.6674 73.8331V6.16687C81.6674 2.761 78.9491 0 75.596 0Z" fill="#EDEDED"/>
<g opacity="0.24">
<path d="M66.9108 23.3664L72.4094 28.2216L72.3469 28.3062V36.8531H68.4937V32.8547H65.3799V36.8531H61.5267V28.2428L61.4746 28.1899L66.9108 23.3664Z" fill="#005063"/>
<path d="M59.3604 30.0622L61.4744 28.1899L66.9106 23.3664L72.4092 28.2216L74.5024 30.0622" fill="#005063"/>
<path d="M61.5264 28.2427V36.8531H65.3796H68.4934H72.3466V28.3062" fill="#005063"/>
<path d="M68.4937 36.8531V32.8547H65.3799V36.8531" fill="#005063"/>
<path d="M56.0486 67.021C55.8507 67.2855 55.4237 67.423 55.1113 67.3384L53.9345 67.0105C53.7262 66.9576 53.445 66.9258 53.1743 66.947C53.0389 66.947 52.9035 66.9576 52.789 66.9893L51.6018 67.2538C51.2789 67.3278 50.8728 67.1691 50.6853 66.8941L49.9876 65.8786C49.8001 65.6036 49.4148 65.2546 49.1232 65.0959L48.8004 64.9266L48.0505 64.5247C47.759 64.3766 47.5403 63.9746 47.5819 63.6467L47.6965 62.4091C47.7277 62.0812 47.6548 61.5629 47.5194 61.2456L47.0508 60.1032C46.9258 59.7964 47.0196 59.3627 47.2487 59.1194L48.113 58.252C48.3421 58.0193 48.6233 57.5751 48.7171 57.2577L49.0815 56.0836C49.1857 55.7663 49.5294 55.4912 49.8522 55.4595L51.0706 55.3537C51.3935 55.322 51.8829 55.1633 52.1641 54.9835L53.1847 54.3171C53.4659 54.1373 53.9033 54.1584 54.174 54.3488L55.1634 55.0575C55.4341 55.2585 55.9132 55.4489 56.236 55.4807L57.4441 55.6393C57.7669 55.6816 58.1001 55.9778 58.1835 56.3057L58.4855 57.501C58.5688 57.8184 58.8083 58.2838 59.0374 58.5271L59.8601 59.4368C60.0788 59.68 60.1517 60.1243 60.0059 60.4205L59.4852 61.5417C59.3498 61.8379 59.2353 62.3562 59.2561 62.6841L59.3186 63.9217C59.329 64.2497 59.0999 64.641 58.8083 64.7786L58.3397 65.0007L57.7044 65.2969C57.4024 65.4344 57.0067 65.7623 56.8088 66.0267L56.0694 66.9999L56.0486 67.021ZM53.5492 64.8526C55.7153 64.8526 57.4753 63.0649 57.4753 60.8648C57.4753 58.6646 55.7153 56.8769 53.5492 56.8769C51.3831 56.8769 49.6127 58.654 49.6127 60.8648C49.6127 63.0755 51.3726 64.8526 53.5492 64.8526Z" fill="#005063"/>
<path d="M57.4754 60.8648C57.4754 63.065 55.7154 64.8526 53.5493 64.8526C51.3832 64.8526 49.6128 63.065 49.6128 60.8648C49.6128 58.6646 51.3728 56.877 53.5493 56.877C55.7259 56.877 57.4754 58.654 57.4754 60.8648Z" fill="#005063"/>
<path d="M48.8214 64.9266L48.0715 64.5247C47.7799 64.3766 47.5613 63.9746 47.6029 63.6467L47.7175 62.4091C47.7487 62.0812 47.6758 61.5629 47.5404 61.2456L47.0718 60.1032C46.9468 59.7964 47.0405 59.3627 47.2697 59.1194L48.134 58.252C48.3631 58.0193 48.6443 57.5751 48.738 57.2577L49.1025 56.0836C49.2067 55.7663 49.5503 55.4912 49.8732 55.4595L51.0916 55.3537C51.4145 55.322 51.9039 55.1633 52.1851 54.9835L53.2057 54.3171C53.4869 54.1373 53.9243 54.1584 54.195 54.3488L55.1844 55.0575C55.4551 55.2585 55.9342 55.4489 56.257 55.4807L57.465 55.6393C57.7879 55.6816 58.1211 55.9778 58.2044 56.3057L58.5065 57.501C58.5898 57.8184 58.8293 58.2838 59.0584 58.5271L59.8811 59.4368C60.0998 59.68 60.1727 60.1243 60.0269 60.4205L59.5062 61.5417C59.3708 61.8379 59.2563 62.3562 59.2771 62.6841L59.3396 63.9217C59.35 64.2497 59.1209 64.641 58.8293 64.7786L58.3607 65.0007L57.7254 65.2969C57.4234 65.4344 57.0277 65.7623 56.8298 66.0267L56.0904 66.9999C55.8925 67.2643 55.4655 67.4018 55.1531 67.3172L53.9763 66.9893C53.7681 66.9364 53.4869 66.9047 53.2161 66.9258C53.0807 66.9258 52.9453 66.9364 52.8308 66.9682L51.6436 67.2326C51.3207 67.3067 50.9146 67.148 50.7271 66.873L50.0294 65.8575C49.8419 65.5825 49.4566 65.2334 49.165 65.0747L48.8422 64.9055L48.8214 64.9266Z" fill="#005063"/>
<path d="M57.4754 60.8648C57.4754 63.065 55.7154 64.8526 53.5493 64.8526C51.3832 64.8526 49.6128 63.065 49.6128 60.8648C49.6128 58.6646 51.3728 56.877 53.5493 56.877C55.7259 56.877 57.4754 58.654 57.4754 60.8648Z" fill="#005063"/>
</g>
<path d="M83.0523 21.2297V67.7826H44.4785V15.4648H78.2514L83.0523 21.2297Z" fill="white"/>
<path d="M83.0523 21.2297V67.7827H44.4785V15.4648H78.2514L83.0523 21.2297Z" stroke="black" stroke-width="0.64" stroke-linecap="round" stroke-linejoin="round"/>
<path d="M69.3058 21.7586L74.8044 26.6032L74.7315 26.6879V35.2347H70.8783V31.2469H67.7645V35.2347H63.9113V26.6244L63.8696 26.5715L69.3058 21.7586Z" fill="#941303"/>
<path d="M61.7554 28.4438L63.8694 26.5715L69.3056 21.7586L74.8042 26.6032L76.8974 28.4438" stroke="black" stroke-width="0.64" stroke-linecap="round" stroke-linejoin="round"/>
<path d="M63.9111 26.6244V35.2347H67.7643H70.8781H74.7314V26.6879" stroke="black" stroke-width="0.64" stroke-linecap="round" stroke-linejoin="round"/>
<path d="M70.878 35.2347V31.2469H67.7642V35.2347" stroke="black" stroke-width="0.64" stroke-linecap="round" stroke-linejoin="round"/>
<path d="M68.3579 38.6725H75.7415" stroke="black" stroke-width="0.64" stroke-linecap="round" stroke-linejoin="round"/>
<path d="M52.6226 38.6725H66.0567" stroke="black" stroke-width="0.64" stroke-linecap="round" stroke-linejoin="round"/>
<path d="M63.2861 42.1526H75.7414" stroke="black" stroke-width="0.64" stroke-linecap="round" stroke-linejoin="round"/>
<path d="M52.6226 42.1526H61.3808" stroke="black" stroke-width="0.64" stroke-linecap="round" stroke-linejoin="round"/>
<path d="M69.4722 45.6327H75.7415" stroke="black" stroke-width="0.64" stroke-linecap="round" stroke-linejoin="round"/>
<path d="M52.6226 45.6327H66.7753" stroke="black" stroke-width="0.64" stroke-linecap="round" stroke-linejoin="round"/>
<path d="M52.6226 49.1234H75.7418" stroke="black" stroke-width="0.64" stroke-linecap="round" stroke-linejoin="round"/>
<path d="M71.5864 52.6035H75.7417" stroke="black" stroke-width="0.64" stroke-linecap="round" stroke-linejoin="round"/>
<path d="M65.1606 52.6035H70.0032" stroke="black" stroke-width="0.64" stroke-linecap="round" stroke-linejoin="round"/>
<path d="M74.1064 56.0836H75.7415" stroke="black" stroke-width="0.64" stroke-linecap="round" stroke-linejoin="round"/>
<path d="M65.1606 56.0836H72.4505" stroke="black" stroke-width="0.64" stroke-linecap="round" stroke-linejoin="round"/>
<path d="M69.2329 59.5637H75.7417" stroke="black" stroke-width="0.64" stroke-linecap="round" stroke-linejoin="round"/>
<path d="M65.1606 59.5637H67.7121" stroke="black" stroke-width="0.64" stroke-linecap="round" stroke-linejoin="round"/>
<path d="M73.5234 63.0544H75.7416" stroke="black" stroke-width="0.64" stroke-linecap="round" stroke-linejoin="round"/>
<path d="M65.1606 63.0544H72.0027" stroke="black" stroke-width="0.64" stroke-linecap="round" stroke-linejoin="round"/>
<path d="M59.1831 64.4295C59.3809 64.165 59.7871 63.8371 60.0787 63.6996L60.7139 63.4034L63.911 70.0569L60.7764 68.6395L59.9537 72.0349L56.3296 65.3921L57.5064 65.72C57.8188 65.8046 58.2354 65.6671 58.4437 65.4027L59.1831 64.4295Z" fill="#941303"/>
<path d="M55.1842 65.3709C55.2988 65.3391 55.4342 65.3286 55.5696 65.3286L51.9142 72.0455L51.0915 68.65L47.9673 70.0674L51.2061 63.3188L51.5289 63.488C51.8205 63.6467 52.2058 63.9852 52.3933 64.2708L53.091 65.2863C53.2681 65.5613 53.6846 65.72 54.0075 65.6459L55.1947 65.3815L55.1842 65.3709Z" fill="#941303"/>
<path d="M58.4441 65.4026C58.2462 65.6671 57.8192 65.8046 57.5068 65.72L56.33 65.3921C56.1217 65.3392 55.8406 65.3074 55.5698 65.3286C55.4344 65.3286 55.299 65.3392 55.1845 65.3709L53.9973 65.6354C53.6744 65.7094 53.2683 65.5507 53.0808 65.2757L52.3831 64.2602C52.1956 63.9852 51.8103 63.6361 51.5187 63.4775L51.1959 63.3082L50.4461 62.9063C50.1545 62.7582 49.9358 62.3562 49.9774 62.0283L50.092 60.7907C50.1232 60.4628 50.0503 59.9445 49.9149 59.6272L49.4463 58.4848C49.3213 58.178 49.4151 57.7443 49.6442 57.501L50.5085 56.6336C50.7377 56.4009 51.0188 55.9567 51.1126 55.6393L51.4771 54.4652C51.5812 54.1478 51.9249 53.8728 52.2477 53.8411L53.4661 53.7353C53.789 53.7036 54.2784 53.5449 54.5596 53.3651L55.5802 52.6987C55.8614 52.5189 56.2988 52.54 56.5695 52.7304L57.5589 53.4391C57.8296 53.6401 58.3087 53.8305 58.6315 53.8622L59.8396 54.0209C60.1624 54.0632 60.4956 54.3594 60.579 54.6873L60.881 55.8826C60.9643 56.1999 61.2038 56.6654 61.4329 56.9087L62.2556 57.8183C62.4743 58.0616 62.5472 58.5059 62.4014 58.8021L61.8807 59.9233C61.7453 60.2195 61.6308 60.7378 61.6516 61.0657L61.7141 62.3033C61.7245 62.6313 61.4954 63.0226 61.2038 63.1601L60.7352 63.3823L60.0999 63.6785C59.7979 63.816 59.4022 64.1439 59.2043 64.4083L58.4649 65.3815L58.4441 65.4026ZM55.9447 62.3774C57.6422 62.3774 59.0273 60.9705 59.0273 59.2464C59.0273 57.5222 57.6422 56.1153 55.9447 56.1153C54.2472 56.1153 52.8517 57.5116 52.8517 59.2464C52.8517 60.9811 54.2368 62.3774 55.9447 62.3774Z" fill="#941303"/>
<path d="M58.6938 59.2464C58.6938 60.7907 57.4545 62.0495 55.9341 62.0495C54.4136 62.0495 53.1743 60.7907 53.1743 59.2464C53.1743 57.702 54.4136 56.4432 55.9341 56.4432C57.4545 56.4432 58.6938 57.6914 58.6938 59.2464Z" fill="white"/>
<path d="M51.2061 63.3082L50.4563 62.9063C50.1647 62.7582 49.946 62.3562 49.9877 62.0283L50.1022 60.7907C50.1335 60.4628 50.0606 59.9445 49.9252 59.6272L49.4566 58.4848C49.3316 58.178 49.4253 57.7443 49.6544 57.501L50.5188 56.6336C50.7479 56.4009 51.0291 55.9567 51.1228 55.6393L51.4873 54.4652C51.5914 54.1478 51.9351 53.8728 52.2579 53.8411L53.4764 53.7353C53.7992 53.7036 54.2887 53.5449 54.5699 53.3651L55.5905 52.6987C55.8716 52.5189 56.309 52.54 56.5798 52.7304L57.5691 53.4391C57.8399 53.6401 58.3189 53.8305 58.6418 53.8622L59.8498 54.0209C60.1726 54.0632 60.5059 54.3594 60.5892 54.6873L60.8912 55.8826C60.9745 56.1999 61.2141 56.6654 61.4432 56.9087L62.2659 57.8183C62.4846 58.0616 62.5575 58.5059 62.4117 58.8021L61.891 59.9233C61.7556 60.2195 61.641 60.7378 61.6619 61.0657L61.7243 62.3033C61.7348 62.6313 61.5057 63.0226 61.2141 63.1601L60.7454 63.3823L60.1102 63.6785C59.8082 63.816 59.4124 64.1439 59.2146 64.4083L58.4752 65.3815C58.2773 65.6459 57.8503 65.7834 57.5379 65.6988L56.3611 65.3709C56.1528 65.318 55.8716 65.2863 55.6009 65.3074C55.4655 65.3074 55.3301 65.318 55.2155 65.3498L54.0283 65.6142C53.7055 65.6882 53.2994 65.5296 53.1119 65.2545L52.4142 64.2391C52.2267 63.9641 51.8414 63.615 51.5498 63.4563L51.227 63.2871L51.2061 63.3082Z" stroke="black" stroke-width="0.64" stroke-linecap="round" stroke-linejoin="round"/>
<path d="M55.5696 65.3286L51.9142 72.0455L51.1019 68.65L47.9673 70.0675L51.2061 63.3082" stroke="black" stroke-width="0.64" stroke-linecap="round" stroke-linejoin="round"/>
<path d="M56.3296 65.4027L59.9537 72.0455L60.7764 68.65L63.911 70.0675L60.7139 63.4034" stroke="black" stroke-width="0.64" stroke-linecap="round" stroke-linejoin="round"/>
<g opacity="0.19">
<path d="M34.0855 49.4513V67.6769H28.3995H27.7017H22.0156V49.4513H34.0855Z" fill="#005063"/>
<path d="M34.0855 67.6769H28.3995H27.7017H22.0156V49.4513H34.0855V67.6769Z" fill="#005063"/>
<path d="M22.1612 22.0759C22.1612 22.5836 21.828 22.9856 21.3697 23.102L21.1406 23.0596C21.1406 22.3827 21.3385 21.748 21.6717 21.1874C21.9738 21.3672 22.1508 21.7057 22.1508 22.0865L22.1612 22.0759Z" fill="#005063"/>
<path d="M22.1612 22.0759C22.1612 22.5836 21.828 22.9856 21.3697 23.102L21.1406 23.0596C21.1406 22.3827 21.3385 21.748 21.6717 21.1874C21.9738 21.3672 22.1508 21.7057 22.1508 22.0865L22.1612 22.0759Z" fill="#005063"/>
<path d="M22.1612 22.0759C22.1612 22.5836 21.828 22.9856 21.3697 23.102L21.1406 23.0596C21.1406 22.3827 21.3385 21.748 21.6717 21.1874C21.9738 21.3672 22.1508 21.7057 22.1508 22.0865L22.1612 22.0759Z" fill="#005063"/>
</g>
<path d="M31.8253 49.4407V67.6769H29.4821V51.0063H19.7554V49.4407H31.8253Z" fill="white"/>
<path d="M29.4821 51.0062H19.7554V67.6874H29.4821V51.0062Z" fill="#CB9390"/>
<path d="M29.4821 51.0062H19.7554V67.6874H29.4821V51.0062Z" fill="#CB9390"/>
<path d="M50.4873 43.8768L48.8211 45.0615L26.9515 26.9629C26.9828 26.8571 26.9932 26.7407 26.9932 26.6244C26.9932 25.9368 26.4516 25.3762 25.7747 25.3762C25.5664 25.3762 25.379 25.4291 25.2019 25.5137L24.2543 24.7204L21.7965 26.7619C21.7965 26.7619 21.7653 26.7619 21.7549 26.7513L25.7747 23.4193L27.5139 24.8685L50.4769 43.8768H50.4873Z" fill="white"/>
<path d="M24.5669 26.6244C24.5669 26.6244 24.5669 26.6879 24.5669 26.7196C24.5669 26.7831 24.5773 26.8465 24.5981 26.91C24.244 26.9946 23.8691 27.0369 23.4734 27.0369C23.4526 27.0369 23.4317 27.0369 23.4109 27.0369C22.8381 27.0369 22.307 26.9417 21.8071 26.7725L24.2649 24.731L25.2125 25.5243C24.8168 25.7358 24.5564 26.1484 24.5564 26.6244H24.5669Z" fill="#CB9390"/>
<path d="M18.8598 23.1337C19.443 23.1337 19.9012 22.6577 19.9012 22.0759C19.9012 21.7057 19.7137 21.3672 19.4221 21.1874C19.2555 21.071 19.0577 21.0181 18.8598 21.0181C18.287 21.0181 17.8184 21.5047 17.8184 22.0759C17.8184 22.6471 18.287 23.1337 18.8598 23.1337ZM20.9634 20.6162C21.7445 21.1028 21.9215 22.15 21.3592 22.8693L19.5679 25.1435L17.9225 27.2273L3.74895 29.1631C3.197 29.2477 2.6763 28.8563 2.6034 28.2957L1.61406 20.8383C1.55158 20.2883 1.90566 19.7911 2.44719 19.6959L16.173 17.665L20.2865 20.1931L20.9634 20.6056V20.6162Z" fill="#C1C1C1"/>
<path d="M25.7956 29.5862C23.1921 31.7335 7.08152 45.0721 7.08152 45.0721V48.1291L1.08301 43.8768L21.7758 26.7619C22.3069 26.9417 22.8797 27.0475 23.4837 27.0475C23.8794 27.0475 24.2543 27.0052 24.6084 26.9206C24.7334 27.4706 25.2124 27.8726 25.7956 27.8726V29.5862Z" fill="#CB9390"/>
<path d="M23.4211 27.0369C23.192 27.2591 23.0566 27.5764 23.0566 27.9255C23.0566 28.0312 23.0566 28.1264 23.0983 28.2111C22.7442 28.2957 22.3589 28.338 21.9735 28.338C21.3695 28.338 20.7967 28.2322 20.2656 28.0524L21.8277 26.7619C22.3276 26.9311 22.8691 27.0263 23.4315 27.0263L23.4211 27.0369Z" fill="#CB9390"/>
<path d="M42.9791 49.4407V46.3732C42.9791 46.3732 26.8685 33.0345 24.2754 30.8872V29.1736C24.9419 29.1736 25.4938 28.613 25.4938 27.9255C25.4938 27.3437 25.0981 26.8571 24.567 26.7196C24.567 26.6879 24.567 26.6561 24.567 26.6244C24.567 26.1378 24.8378 25.7253 25.2231 25.5243L26.0145 26.1801L26.9622 26.9629L48.8318 45.0615L48.9776 45.1779L42.9791 49.4407Z" fill="#CB9390"/>
<path d="M24.5667 26.6244C24.5667 26.6244 24.5667 26.6879 24.5667 26.7196C24.473 26.6984 24.3688 26.6773 24.2751 26.6773C23.9419 26.6773 23.6398 26.8148 23.4212 27.0369C22.8484 27.0369 22.3173 26.9417 21.8174 26.7725L24.2751 24.731L25.2228 25.5243C24.8271 25.7358 24.5667 26.1484 24.5667 26.6244Z" fill="#CB9390"/>
<path d="M7.08154 45.0721C7.08154 45.0721 23.1921 31.7335 25.7956 29.5862C28.3888 31.7335 44.4993 45.0721 44.4993 45.0721V67.6769H31.8254V49.4407H19.7555V67.6769H7.08154V45.0721Z" fill="white"/>
<path d="M7.08152 48.1291L1.08301 43.8768L21.7654 26.7513L25.7956 23.4299L27.5348 24.8685L50.4874 43.8768L44.4889 48.1396" stroke="black" stroke-width="0.64" stroke-linecap="round" stroke-linejoin="round"/>
<path d="M31.8254 67.6769H44.4993V45.0721C44.4993 45.0721 28.3888 31.7335 25.7956 29.5862C23.1921 31.7335 7.08154 45.0721 7.08154 45.0721V67.6769H19.7555" stroke="black" stroke-width="0.64" stroke-linecap="round" stroke-linejoin="round"/>
<path d="M31.8255 67.6769H26.129H25.4416H19.7451V49.4513H31.8255V67.6769Z" stroke="black" stroke-width="0.64" stroke-linecap="round" stroke-linejoin="round"/>
<path d="M24.6085 26.91C24.5773 26.8148 24.5669 26.7196 24.5669 26.6244C24.5669 25.9368 25.1188 25.3762 25.7958 25.3762C26.4727 25.3762 27.0142 25.9368 27.0142 26.6244C27.0142 27.312 26.4623 27.8726 25.7958 27.8726C25.2126 27.8726 24.7335 27.4706 24.6085 26.9206V26.91Z" stroke="black" stroke-width="0.64" stroke-linecap="round" stroke-linejoin="round"/>
<path d="M18.8809 23.0491C18.8809 22.3721 19.0787 21.7375 19.4224 21.1768C19.6515 20.8066 19.9431 20.4681 20.2868 20.1931C21.0991 19.495 22.2342 19.0613 23.4735 19.0613C26.0145 19.0613 28.0765 20.8489 28.0765 23.0491C28.0765 23.6415 27.9307 24.2021 27.6599 24.6993" stroke="black" stroke-width="0.64" stroke-linecap="round" stroke-linejoin="round"/>
<path d="M26.6185 25.9686C26.0562 26.4128 25.3793 26.7513 24.6086 26.91C24.2441 26.9946 23.8692 27.0369 23.4839 27.0369C22.8799 27.0369 22.3071 26.9417 21.776 26.7513C20.8595 26.4234 20.0889 25.8628 19.5786 25.1435" stroke="black" stroke-width="0.64" stroke-linecap="round" stroke-linejoin="round"/>
<path d="M19.5679 25.1435L17.9225 27.2273L3.74895 29.1631C3.197 29.2477 2.6763 28.8563 2.6034 28.2957L1.61406 20.8383C1.55158 20.2883 1.90566 19.7911 2.44719 19.6959L16.173 17.665L20.2865 20.1931L20.9634 20.6056C21.7445 21.0922 21.9215 22.1394 21.3592 22.8587L19.5679 25.1329" stroke="black" stroke-width="0.64" stroke-linecap="round" stroke-linejoin="round"/>
<path d="M19.9012 22.0759C19.9012 22.6683 19.4325 23.1337 18.8598 23.1337C18.287 23.1337 17.8184 22.6577 17.8184 22.0759C17.8184 21.4941 18.287 21.0181 18.8598 21.0181C19.068 21.0181 19.2555 21.071 19.4221 21.1874C19.7137 21.3672 19.9012 21.7057 19.9012 22.0759Z" stroke="black" stroke-width="0.64" stroke-linecap="round" stroke-linejoin="round"/>
<path d="M82.9067 69.1472V72.2041" stroke="black" stroke-width="0.64" stroke-linecap="round" stroke-linejoin="round"/>
<path d="M84.4169 70.6809H81.4072" stroke="black" stroke-width="0.64" stroke-linecap="round" stroke-linejoin="round"/>
<path d="M17.6519 73.0081V76.0651" stroke="black" stroke-width="0.64" stroke-linecap="round" stroke-linejoin="round"/>
<path d="M19.162 74.5419H16.1523" stroke="black" stroke-width="0.64" stroke-linecap="round" stroke-linejoin="round"/>
<path d="M35.1372 7.37274V11.2125" stroke="black" stroke-width="0.64" stroke-linecap="round" stroke-linejoin="round"/>
<path d="M37.022 9.28735H33.2417" stroke="black" stroke-width="0.64" stroke-linecap="round" stroke-linejoin="round"/>
<path d="M41.0317 22.5413V30.4429" stroke="black" stroke-width="0.64" stroke-linecap="round" stroke-linejoin="round"/>
<path d="M41.0317 18.014V21.0499" stroke="black" stroke-width="0.64" stroke-linecap="round" stroke-linejoin="round"/>
</g>
<defs>
<clipPath id="clip0_416_9468">
<rect width="84" height="80" fill="white" transform="translate(0.75)"/>
</clipPath>
</defs>
</svg>
