<svg width="85" height="80" viewBox="0 0 85 80" fill="none" xmlns="http://www.w3.org/2000/svg">
<g clip-path="url(#clip0_281_15297)">
<path opacity="0.5" d="M69.5346 0H13.3653C10.3193 0 7.84998 2.75927 7.84998 6.16299V73.837C7.84998 77.2407 10.3193 80 13.3653 80H69.5346C72.5807 80 75.05 77.2407 75.05 73.837V6.16299C75.05 2.75927 72.5807 0 69.5346 0Z" fill="#EDEDED"/>
<path d="M18.3817 36.959L18.5365 36.9865C18.2172 38.6404 18.1592 40.0385 18.1592 40.9797C18.1592 43.2093 18.4785 45.311 19.0687 47.2666H15.0627V36.959H18.3914H18.3817Z" fill="white"/>
<path d="M11.7342 42.7433V36.4747H6.47024V42.7433H11.7342ZM14.4435 23.9924L22.2523 28.4152C20.0364 31.4398 19.0107 34.5101 18.5366 36.9956L18.3818 36.9682H15.0531V47.2757H2.92871V33.9527H0.799927V31.7231L14.4435 24.0016V23.9924ZM64.4023 47.2666C65.5731 43.6114 65.7763 40.1482 65.2151 36.9591H69.9371V47.2666H64.4023Z" fill="white"/>
<path d="M73.2657 42.7433H78.5296V36.4747H73.2657V42.7433ZM84.2 31.7139V33.9435H82.0712V47.2665H69.9371V36.959H65.215C64.7022 33.9892 63.5314 31.2753 61.867 28.8994L70.5467 23.9833L84.1903 31.7048L84.2 31.7139ZM41.8758 22.311C52.8487 22.311 61.7316 30.7087 61.7316 41.0619C61.7316 51.4151 52.8391 59.8128 41.8758 59.8128C30.9125 59.8128 22.02 51.4151 22.02 41.0619C22.02 30.7087 30.9125 22.311 41.8758 22.311ZM31.9382 33.0937L31.9963 33.1942L28.2225 35.3325V37.5621H30.3513V50.8943H53.3906V37.5621H55.5194V35.3325L41.8758 27.6019L34.8314 31.586L34.8121 31.5494V29.0182H31.9382V33.0846V33.0937Z" fill="white"/>
<path d="M44.5852 46.3528H49.8491V40.0842H44.5852V46.3528ZM55.5194 35.3234V37.553H53.3906V50.8851H41.2565V40.5776H34.1735V50.8851H30.3513V37.553H28.2225V35.3234L31.9963 33.1851L34.8314 31.586L41.8758 27.6019L55.5194 35.3325V35.3234Z" fill="white"/>
<path d="M49.8491 40.0842V46.3528H48.775V40.7422H44.5852V40.0842H49.8491Z" fill="white"/>
<path d="M48.775 40.7421H44.5852V46.3619H48.775V40.7421Z" fill="#941303"/>
<path d="M59.1771 55.9567C60.9963 53.2701 62.2832 50.6384 63.096 48.089C64.2669 44.4338 64.4701 40.9706 63.9185 37.7815C63.4057 34.8208 62.2252 32.0977 60.5705 29.7219C56.2839 23.5812 48.7461 19.6794 40.8696 19.5057C38.6634 19.4509 36.4378 19.6976 34.2413 20.2733C32.1706 20.8125 30.1192 21.6349 28.1646 22.7771C27.4098 23.2888 26.6744 23.8462 25.9584 24.4493C24.4585 25.7195 23.249 27.0536 22.262 28.3969C20.0461 31.4307 19.0205 34.4918 18.5463 36.9773C18.227 38.6313 18.1689 40.0202 18.1689 40.9706C18.1689 43.2002 18.4883 45.3019 19.0688 47.2574C22.0685 57.2817 32.0931 63.4406 42.0307 63.4406C47.7784 63.4406 51.6877 61.7044 56.7677 58.6341C61.2382 62.8649 68.4664 69.7366 72.9272 73.9765C73.7013 74.6984 74.7269 74.8355 75.6075 74.5705C75.9752 74.1593 76.1977 73.6293 76.1977 73.0262C76.1977 71.5093 73.7787 69.7274 59.1675 55.9384L59.1771 55.9567ZM52.2102 57.0806C49.2009 58.8168 45.6593 59.8129 41.8759 59.8129C30.9126 59.8129 22.0201 51.4152 22.0201 41.062C22.0201 34.8025 25.2617 29.265 30.2547 25.8566C30.2547 25.8566 30.2547 25.8566 30.2643 25.8566C33.5252 23.6269 37.5409 22.3111 41.8759 22.3111C52.8391 22.3111 61.7317 30.7088 61.7317 41.062C61.7317 47.8423 57.9192 53.7819 52.2102 57.0806Z" fill="#C1C1C1"/>
<path d="M77.5234 72.222C77.5234 73.3917 76.6719 74.278 75.6171 74.5887C75.9848 74.1775 76.2074 73.6475 76.2074 73.0444C76.2074 71.5276 73.7883 69.7457 59.1771 55.9566C60.9963 53.2701 62.2832 50.6384 63.096 48.0889C64.2668 44.4338 64.47 40.9705 63.9185 37.7814C63.4057 34.8208 62.2251 32.0977 60.5705 29.7218C56.2839 23.5812 48.7461 19.6793 40.8695 19.5057C38.6633 19.4509 36.4378 19.6976 34.2413 20.2733C32.1705 20.8124 30.1192 21.6348 28.1646 22.7771C30.5062 21.1962 33.0027 20.0997 35.5476 19.4417C37.7441 18.8752 39.9696 18.6285 42.1855 18.6742C50.062 18.8478 57.5999 22.7405 61.8768 28.8903C63.5411 31.2661 64.712 33.9801 65.2248 36.9499C65.7763 40.1299 65.5732 43.6023 64.412 47.2574C63.5992 49.8069 62.3219 52.4386 60.4931 55.1251C75.1043 68.9233 77.5234 70.696 77.5234 72.2129V72.222Z" fill="white"/>
<path d="M59.1771 55.9567C60.9963 53.2701 62.2832 50.6384 63.096 48.089C64.2669 44.4338 64.4701 40.9706 63.9185 37.7815C63.4057 34.8208 62.2252 32.0977 60.5705 29.7219C56.2839 23.5812 48.7461 19.6794 40.8696 19.5057C38.6634 19.4509 36.4378 19.6976 34.2413 20.2733C32.1706 20.8125 30.1192 21.6349 28.1646 22.7771C27.4098 23.2888 26.6744 23.8462 25.9584 24.4493C24.4585 25.7195 23.249 27.0536 22.262 28.3969C20.0461 31.4307 19.0205 34.4918 18.5463 36.9773C18.227 38.6313 18.1689 40.0202 18.1689 40.9706C18.1689 43.2002 18.4883 45.3019 19.0688 47.2574C22.0685 57.2817 32.0931 63.4406 42.0307 63.4406C47.7784 63.4406 51.6877 61.7044 56.7677 58.6341C61.2382 62.8649 68.4664 69.7366 72.9272 73.9765C73.7013 74.6984 74.7269 74.8355 75.6075 74.5705C75.9752 74.1593 76.1977 73.6293 76.1977 73.0262C76.1977 71.5093 73.7787 69.7274 59.1675 55.9384L59.1771 55.9567ZM52.2102 57.0806C48.9396 59.3194 44.9143 60.6444 40.5599 60.6444C29.5967 60.6444 20.7041 52.2467 20.7041 41.8935C20.7041 35.1041 24.5263 29.1553 30.245 25.8657C30.245 25.8657 30.245 25.8657 30.2547 25.8657C33.5156 23.6361 37.5312 22.3202 41.8662 22.3202C52.8295 22.3202 61.722 30.7179 61.722 41.0711C61.722 47.8514 57.9095 53.791 52.2005 57.0898L52.2102 57.0806Z" fill="#C1C1C1"/>
<path d="M40.0083 41.7564H34.1735V50.8851H40.0083V41.7564Z" fill="#941303"/>
<path d="M41.2565 40.5776H34.3186V50.7207H41.2565V40.5776Z" fill="white"/>
<path d="M40.0083 41.7564H34.1735V50.8851H40.0083V41.7564Z" fill="#941303"/>
<path d="M42.1758 18.6925C41.9726 18.6925 41.7694 18.6925 41.5662 18.6925C41.8178 17.3035 41.2275 15.8506 39.9309 14.9825C38.4795 14.023 36.5732 14.1144 35.2379 15.083C35.2766 15.0282 35.3056 14.9734 35.3444 14.9277C36.6023 13.228 39.0697 12.8168 40.8695 14.0047C42.4855 15.0739 42.9983 17.0751 42.1758 18.6925Z" fill="white"/>
<path d="M41.5662 18.6833C39.5632 18.6833 37.5312 18.9392 35.5378 19.4509C34.4734 18.2356 34.3089 16.472 35.2379 15.083C36.5732 14.1053 38.4698 14.0139 39.9309 14.9825C41.2372 15.8414 41.8178 17.3035 41.5662 18.6925V18.6833Z" fill="#CB9390"/>
<path d="M33.9412 32.0886V29.6396H31.9382V29.0274H34.8121V31.5586L34.8314 31.586L33.9412 32.0886Z" fill="white"/>
<path d="M33.9412 29.6396V32.0886L31.9963 33.1943L31.9382 33.0938V29.6396H33.9412Z" fill="#941303"/>
<path d="M11.7341 36.4747V42.7433H10.6117V37.3794H6.47021V36.4747H11.7341Z" fill="white"/>
<path d="M10.6117 37.3794H6.47021V42.7433H10.6117V37.3794Z" fill="#CB9390"/>
<path d="M10.6117 37.3794H6.47021V42.7433H10.6117V37.3794Z" fill="#CB9390"/>
<path d="M77.6492 37.3154H73.0336V42.7433H77.6492V37.3154Z" fill="#CB9390"/>
<path d="M41.8758 22.3111C30.9125 22.3111 22.02 30.7088 22.02 41.062C22.02 51.4152 30.9125 59.8129 41.8758 59.8129C52.839 59.8129 61.7316 51.4152 61.7316 41.062C61.7316 30.7088 52.839 22.3111 41.8758 22.3111Z" stroke="black" stroke-width="0.62" stroke-linecap="round" stroke-linejoin="round"/>
<path d="M42.1758 18.6925C50.0523 18.8661 57.5901 22.7589 61.8767 28.9086C63.541 31.2845 64.7119 34.0076 65.2247 36.9682C65.7763 40.1482 65.5731 43.6206 64.4119 47.2757C63.5991 49.8252 62.3218 52.4569 60.493 55.1434C75.0946 68.9325 77.5233 70.7144 77.5233 72.2312C77.5233 74.3786 74.6301 75.5757 72.9367 74.004C68.476 69.764 61.2478 62.8832 56.7676 58.6615C51.6876 61.7318 47.7783 63.468 42.0306 63.468C32.0931 63.468 22.0684 57.3091 19.0688 47.2849C18.4785 45.3294 18.1592 43.2277 18.1592 40.998C18.1592 40.0477 18.2269 38.6587 18.5366 37.0048C19.001 34.5193 20.0364 31.4581 22.2523 28.4243C23.2296 27.0811 24.4488 25.7469 25.9486 24.4768C28.9096 21.9639 32.1801 20.3373 35.5378 19.4692C37.7343 18.9027 39.9599 18.656 42.1661 18.7016L42.1758 18.6925Z" stroke="black" stroke-width="0.62" stroke-linecap="round" stroke-linejoin="round"/>
<path d="M30.3513 50.8851V37.553H28.2225V35.3234L31.9963 33.1942L34.8315 31.586L41.8758 27.6019L55.5194 35.3234V37.553H53.3906V50.8851" stroke="black" stroke-width="0.62" stroke-linecap="round" stroke-linejoin="round"/>
<path d="M34.1735 50.8851V40.5776H41.2565V50.8851" stroke="black" stroke-width="0.62" stroke-linecap="round" stroke-linejoin="round"/>
<path d="M44.5852 46.3528V40.0842H49.8491V46.3528" stroke="black" stroke-width="0.62" stroke-linecap="round" stroke-linejoin="round"/>
<path d="M43.4143 46.3528H44.5851H49.8491H50.9522" stroke="black" stroke-width="0.62" stroke-linecap="round" stroke-linejoin="round"/>
<path d="M31.9382 33.0938V29.0274H34.8121V31.5586" stroke="black" stroke-width="0.62" stroke-linecap="round" stroke-linejoin="round"/>
<path d="M28.9386 50.8852H30.3513H34.1735H41.2565H53.3906H55.5194" stroke="black" stroke-width="0.62" stroke-linecap="round" stroke-linejoin="round"/>
<path d="M61.8767 28.8995L70.5564 23.9924L84.1999 31.7139V33.9436H82.0712V47.2666" stroke="black" stroke-width="0.62" stroke-linecap="round" stroke-linejoin="round"/>
<path d="M65.2247 36.9682H69.9468V47.2666" stroke="black" stroke-width="0.62" stroke-linecap="round" stroke-linejoin="round"/>
<path d="M73.2657 42.7433V36.4747H78.5297V42.7433" stroke="black" stroke-width="0.62" stroke-linecap="round" stroke-linejoin="round"/>
<path d="M72.1046 42.7433H73.2658H78.5297H79.6328" stroke="black" stroke-width="0.62" stroke-linecap="round" stroke-linejoin="round"/>
<path d="M64.412 47.2666H69.9468H82.0712H84.2" stroke="black" stroke-width="0.62" stroke-linecap="round" stroke-linejoin="round"/>
<path d="M22.262 28.4152L14.4435 23.9924L0.799927 31.7139V33.9436H2.92871V47.2666" stroke="black" stroke-width="0.62" stroke-linecap="round" stroke-linejoin="round"/>
<path d="M18.3817 36.9682H15.0627V47.2666" stroke="black" stroke-width="0.62" stroke-linecap="round" stroke-linejoin="round"/>
<path d="M11.7341 42.7433V36.4747H6.47021V42.7433" stroke="black" stroke-width="0.62" stroke-linecap="round" stroke-linejoin="round"/>
<path d="M12.905 42.7433H11.7342H6.47029H5.36719" stroke="black" stroke-width="0.62" stroke-linecap="round" stroke-linejoin="round"/>
<path d="M19.0688 47.2666H15.0628H2.92871H0.799927" stroke="black" stroke-width="0.62" stroke-linecap="round" stroke-linejoin="round"/>
<path d="M42.621 11.6472L44.2272 9.47235" stroke="black" stroke-width="0.62" stroke-linecap="round" stroke-linejoin="round"/>
<path d="M30.5546 11.7568L32.8575 13.2737" stroke="black" stroke-width="0.62" stroke-linecap="round" stroke-linejoin="round"/>
<path d="M28.9386 18.6925L31.706 18.2264" stroke="black" stroke-width="0.62" stroke-linecap="round" stroke-linejoin="round"/>
<path d="M45.5044 15.9146L48.2621 15.4485" stroke="black" stroke-width="0.62" stroke-linecap="round" stroke-linejoin="round"/>
<path d="M36.8926 7.94635L37.3764 10.5506" stroke="black" stroke-width="0.62" stroke-linecap="round" stroke-linejoin="round"/>
<path d="M35.5476 19.4509C34.4348 18.1899 34.309 16.3349 35.354 14.9185C36.612 13.2189 39.0794 12.8077 40.8792 13.9956C42.4952 15.0647 43.008 17.0659 42.1855 18.6833" stroke="black" stroke-width="0.62" stroke-linecap="round" stroke-linejoin="round"/>
<path d="M14.7919 54.7596V57.3456" stroke="black" stroke-width="0.62" stroke-linecap="round" stroke-linejoin="round"/>
<path d="M16.1562 56.048H13.4178" stroke="black" stroke-width="0.62" stroke-linecap="round" stroke-linejoin="round"/>
<path d="M76.0623 54.0377V56.6146" stroke="black" stroke-width="0.62" stroke-linecap="round" stroke-linejoin="round"/>
<path d="M77.4363 55.3262H74.6979" stroke="black" stroke-width="0.62" stroke-linecap="round" stroke-linejoin="round"/>
<path d="M18.4302 15.4576V18.0437" stroke="black" stroke-width="0.62" stroke-linecap="round" stroke-linejoin="round"/>
<path d="M19.8042 16.7461H17.0658" stroke="black" stroke-width="0.62" stroke-linecap="round" stroke-linejoin="round"/>
<path d="M63.5121 17.3674V20.6114" stroke="black" stroke-width="0.62" stroke-linecap="round" stroke-linejoin="round"/>
<path d="M65.2248 18.994H61.7897" stroke="black" stroke-width="0.62" stroke-linecap="round" stroke-linejoin="round"/>
<path d="M63.3091 68.3385L64.3057 69.2249" stroke="black" stroke-width="0.62" stroke-linecap="round" stroke-linejoin="round"/>
<path d="M57.9095 63.4863L62.3123 67.443" stroke="black" stroke-width="0.62" stroke-linecap="round" stroke-linejoin="round"/>
<path d="M18.9335 63.2396H25.4843" stroke="black" stroke-width="0.62" stroke-linecap="round" stroke-linejoin="round"/>
<path d="M26.781 65.524H30.1871" stroke="black" stroke-width="0.62" stroke-linecap="round" stroke-linejoin="round"/>
<path d="M18.9335 65.524H24.1587" stroke="black" stroke-width="0.62" stroke-linecap="round" stroke-linejoin="round"/>
<path d="M18.9335 67.8086H30.187" stroke="black" stroke-width="0.62" stroke-linecap="round" stroke-linejoin="round"/>
</g>
<defs>
<clipPath id="clip0_281_15297">
<rect width="84" height="80" fill="white" transform="translate(0.5)"/>
</clipPath>
</defs>
</svg>
