<svg width="86" height="81" viewBox="0 0 86 81" fill="none" xmlns="http://www.w3.org/2000/svg">
<path opacity="0.5" d="M70.1975 1.26859H12.2179C9.07184 1.26859 6.52148 4.02006 6.52148 7.41417V74.8544C6.52148 78.2485 9.07184 81 12.2179 81H70.1975C73.3435 81 75.8939 78.2485 75.8939 74.8544V7.41417C75.8939 4.02006 73.3435 1.26859 70.1975 1.26859Z" fill="#EDEDED"/>
<path d="M24.8457 72.2758H37.4236L37.4136 72.727H28.63H24.8457V72.2758Z" fill="white"/>
<path d="M56.6938 72.5659C55.1701 72.5659 53.7161 72.4907 52.3916 72.2651H67.6882C66.3637 72.4907 64.9097 72.5659 63.3761 72.5659H56.6938Z" fill="white"/>
<path d="M8.0752 72.7271H19.3086H24.8457H28.63H37.4136H57.2214H62.2506H63.366H74.46" stroke="black" stroke-width="0.62" stroke-linecap="round" stroke-linejoin="round"/>
<path d="M69.2417 1.16117L80.0867 13.3771L72.299 21.4244L70.6757 20.3178L75.5953 15.2251C74.3604 13.2804 75.904 11.6903 75.904 11.6903L70.606 5.72738C70.606 5.72738 69.0624 7.31749 67.3196 5.91003L60.239 13.2267L58.6157 12.1201L67.1902 3.25625L69.2417 1.13968V1.16117Z" fill="#940000"/>
<path d="M70.6061 5.73811L75.9041 11.701C75.9041 11.701 74.3605 13.3019 75.5954 15.2358L70.6758 20.3285L67.8475 18.4053C68.4749 17.2557 68.3455 15.7515 67.4492 14.7309C66.3637 13.506 64.5611 13.4631 63.4358 14.6342C63.2864 14.7846 63.157 14.9565 63.0474 15.1391L60.249 13.2374L67.3297 5.92076C69.0724 7.32823 70.616 5.73811 70.616 5.73811H70.6061Z" fill="white"/>
<path d="M73.016 65.8509C73.016 69.6113 70.1977 72.6519 66.7122 72.6519H30.9504C32.4642 72.6519 33.8484 72.0825 34.9339 71.1262H64.5113C67.5089 71.1262 70.0185 68.87 70.6558 65.8509H73.026H73.016Z" fill="white"/>
<path d="M70.6457 65.8509C70.0084 68.87 67.4988 71.1262 64.5012 71.1262H34.9238C36.3479 69.8799 37.2542 67.9782 37.2542 65.8509H70.6457Z" fill="#C1C1C1"/>
<path d="M70.6457 65.8509C70.0084 68.87 67.4988 71.1262 64.5012 71.1262H34.9238C36.3479 69.8799 37.2542 67.9782 37.2542 65.8509H70.6457Z" fill="#C1C1C1"/>
<path d="M72.2988 21.4352L71.6814 22.069L70.0581 20.9624L70.6755 20.3285L72.2988 21.4352Z" fill="#940000"/>
<path d="M71.6816 22.069L66.7122 27.2047V24.422L70.0583 20.9624L71.6816 22.069Z" fill="#940000"/>
<path d="M70.6755 20.3285L70.0581 20.9624L67.3394 19.1144L67.3692 19.0715C67.5684 18.8673 67.7277 18.6524 67.8572 18.4053L70.6855 20.3285H70.6755Z" fill="white"/>
<path d="M70.0584 20.9624L66.7123 24.422V19.1574C66.7123 18.9962 66.7023 18.8351 66.6824 18.6739L67.3397 19.1144L70.0584 20.9624Z" fill="white"/>
<path d="M67.4491 14.7416C68.3454 15.7515 68.4749 17.2664 67.8475 18.4161L66.2441 17.3202C65.7163 16.3747 64.7901 15.7193 63.7246 15.6119L63.0474 15.1499C63.1569 14.9672 63.2864 14.8061 63.4358 14.6449C64.571 13.4738 66.3636 13.5168 67.4491 14.7416ZM66.2342 17.3202L67.8375 18.4161C67.708 18.6524 67.5487 18.878 67.3495 19.0822L67.3197 19.1252L66.6624 18.6847C66.6026 18.1904 66.4433 17.7284 66.2242 17.3309L66.2342 17.3202Z" fill="#CB9390"/>
<path d="M63.824 2.89095L65.4074 1.25786L67.1901 3.27773L58.6156 12.1416L56.355 10.6159L63.824 2.89095Z" fill="#CB9390"/>
<path d="M66.7123 31.6742V65.8509H37.2545C37.2545 69.6113 34.4361 72.6519 30.9506 72.6519C27.465 72.6519 24.6467 69.6006 24.6467 65.8509V22.3914C24.6467 18.7169 21.938 15.7086 18.552 15.5904C18.6118 15.5904 18.6715 15.5904 18.7213 15.5904H62.1413L62.689 15.9664L66.2343 18.3731C66.543 19.0392 66.7223 19.8021 66.7223 20.5971V31.685L66.7123 31.6742Z" fill="white"/>
<path d="M66.7121 19.1574V20.5971C66.7121 19.802 66.5428 19.0392 66.2241 18.3731L66.6723 18.6847C66.6922 18.8458 66.7021 19.007 66.7021 19.1681L66.7121 19.1574Z" fill="white"/>
<path d="M66.6822 18.6739L66.234 18.3624C65.5768 16.9334 64.3021 15.8912 62.7883 15.6441C62.7883 15.6226 62.8082 15.6011 62.8082 15.5904H63.4058C63.5153 15.5904 63.6149 15.5904 63.7145 15.6011L66.234 17.3094C66.4631 17.7177 66.6125 18.1797 66.6722 18.6632L66.6822 18.6739Z" fill="#CB9390"/>
<path d="M66.2341 17.3202L63.7146 15.6119C64.7901 15.7193 65.7063 16.3747 66.2341 17.3202Z" fill="#CB9390"/>
<path d="M66.2243 18.3624L62.679 15.9557C62.7088 15.8483 62.7487 15.7408 62.7885 15.6441C64.3022 15.8912 65.5769 16.9334 66.2342 18.3624H66.2243Z" fill="white"/>
<path d="M62.1511 1L63.8242 2.89094L56.3551 10.6159L54.2439 9.1762L60.1992 3.00913L62.1511 1Z" fill="#CB9390"/>
<path d="M63.0374 15.1498L63.7146 15.6118C63.615 15.6118 63.5055 15.6011 63.4059 15.6011H62.8083C62.8781 15.4507 62.9478 15.3003 63.0374 15.1606V15.1498Z" fill="#CB9390"/>
<path d="M60.239 13.2482L63.0374 15.1498C62.9478 15.2895 62.8681 15.4399 62.8084 15.5904H62.1312L59.6216 13.8821L59.9104 13.5812L60.0896 13.3986L60.239 13.2482ZM62.1312 15.5904H62.8084C62.8084 15.5904 62.7885 15.6333 62.7885 15.6441C62.5793 15.6118 62.3602 15.5904 62.1411 15.5904H62.1312Z" fill="white"/>
<path d="M62.7885 15.6441C62.7487 15.7408 62.7089 15.8482 62.679 15.9557L62.1312 15.5796C62.3503 15.5796 62.5694 15.6011 62.7786 15.6333L62.7885 15.6441ZM62.1312 15.5904H57.9685L59.6217 13.8821L62.1312 15.5904Z" fill="white"/>
<path d="M60.239 13.2482L60.0896 13.3986L59.9104 13.5813L59.6216 13.8821L57.9983 12.7862L58.6157 12.1416L60.239 13.2482Z" fill="#940000"/>
<path d="M59.6215 13.8821L57.9784 15.5904H55.2795L57.9983 12.7862L59.6215 13.8821Z" fill="#940000"/>
<path d="M58.6159 12.1415L57.9984 12.7862L55.7378 11.2498L56.3552 10.6159L58.6159 12.1415Z" fill="#CB9390"/>
<path d="M57.9984 12.7862L55.2797 15.5904H51.5452L55.7378 11.2498L57.9984 12.7862Z" fill="#CB9390"/>
<path d="M56.3552 10.6159L55.7377 11.2498L53.6265 9.82085L53.6464 9.78862L54.2439 9.17621L56.3552 10.6159Z" fill="#CB9390"/>
<path d="M58.536 32.7916V35.1875H56.5343V49.3589H54.3334V36.09H56.3351V33.6833L43.8867 25.6253L45.6793 24.4757L58.536 32.7916Z" fill="white"/>
<path d="M56.335 33.1139V36.09H56.4346V49.0473H45.2808V38.4H38.4193V49.3589H34.8142V35.1875H32.8125V32.7916L44.6235 25.2278L56.335 33.1139Z" fill="#940000"/>
<path d="M55.7376 11.2498L51.545 15.5904H48.0295L53.6463 9.7886L53.6263 9.82084L55.7376 11.2498Z" fill="#CB9390"/>
<path d="M24.6366 22.3913V27.2906H23.1129V23.4765C23.1129 19.7913 20.4042 16.7937 17.0182 16.6755C16.3211 16.697 15.6539 16.8689 15.0464 17.159C15.9725 16.235 17.1975 15.6548 18.5519 15.6011C21.9378 15.7193 24.6466 18.7276 24.6466 22.4021L24.6366 22.3913Z" fill="white"/>
<path d="M23.113 23.4657V27.2799H18.7213C15.7237 27.2799 13.3037 24.6691 13.3037 21.4351C13.3037 19.7376 13.9709 18.2119 15.0465 17.1375C15.654 16.8474 16.3212 16.6863 17.0183 16.654C20.4043 16.7722 23.113 19.7805 23.113 23.455V23.4657Z" fill="#C1C1C1"/>
<path d="M23.113 23.4657V27.2799H18.7213C15.7237 27.2799 13.3037 24.6691 13.3037 21.4351C13.3037 19.7376 13.9709 18.2119 15.0465 17.1375C15.654 16.8474 16.3212 16.6863 17.0183 16.654C20.4043 16.7722 23.113 19.7805 23.113 23.455V23.4657Z" fill="#C1C1C1"/>
<path d="M55.2795 15.5904L57.9983 12.7862L58.6157 12.1416L67.1902 3.27773L69.2417 1.16116L80.0867 13.3771L72.299 21.4351L71.6815 22.069L66.7121 27.2047" stroke="black" stroke-width="0.62" stroke-linecap="round" stroke-linejoin="round"/>
<path d="M66.7121 24.422L70.0583 20.9624L70.6757 20.3285L75.5953 15.2358C74.3604 13.2912 75.904 11.7011 75.904 11.7011L70.606 5.73811C70.606 5.73811 69.0624 7.32823 67.3196 5.92076L60.239 13.2374L60.0896 13.3879" stroke="black" stroke-width="0.62" stroke-linecap="round" stroke-linejoin="round"/>
<path d="M57.9783 15.5904L59.6215 13.8821L59.9103 13.5813L60.0895 13.3986" stroke="black" stroke-width="0.62" stroke-linecap="round" stroke-linejoin="round"/>
<path d="M62.8083 15.5904C62.8781 15.44 62.9478 15.2895 63.0374 15.1499C63.1469 14.9672 63.2764 14.8061 63.4258 14.6449C64.5611 13.4738 66.3536 13.5168 67.4391 14.7416C68.3354 15.7515 68.4649 17.2664 67.8375 18.4161C67.5686 18.9103 67.1703 19.3293 66.6126 19.6409" stroke="black" stroke-width="0.62" stroke-linecap="round" stroke-linejoin="round"/>
<path d="M51.5452 15.5904L55.7378 11.2498L56.3552 10.6159L63.8243 2.89095L65.4077 1.25786L67.1903 3.27773" stroke="black" stroke-width="0.62" stroke-linecap="round" stroke-linejoin="round"/>
<path d="M48.0298 15.5904L53.6465 9.78861L54.244 9.1762L60.1993 3.00913L62.1512 1L63.8243 2.89094L63.9338 3.00913" stroke="black" stroke-width="0.62" stroke-linecap="round" stroke-linejoin="round"/>
<path d="M24.6367 27.2906H18.7112C15.7137 27.2906 13.2937 24.6691 13.2937 21.4459C13.2937 18.2764 15.624 15.6978 18.532 15.6011M30.9505 72.6519C27.4649 72.6519 24.6466 69.6006 24.6466 65.8509V53.635" stroke="black" stroke-width="0.62" stroke-linecap="round" stroke-linejoin="round"/>
<path d="M66.7122 31.6742V65.8509" stroke="black" stroke-width="0.62" stroke-linecap="round" stroke-linejoin="round"/>
<path d="M18.7114 15.5904H62.1314C62.3505 15.5904 62.5696 15.6119 62.7787 15.6441C64.2924 15.8912 65.5672 16.9334 66.2244 18.3624C66.5332 19.0285 66.7124 19.7913 66.7124 20.5864V31.6742" stroke="black" stroke-width="0.62" stroke-linecap="round" stroke-linejoin="round"/>
<path d="M24.6365 53.635V22.3914C24.6365 18.7169 21.9277 15.7086 18.5417 15.5904" stroke="black" stroke-width="0.62" stroke-linecap="round" stroke-linejoin="round"/>
<path d="M18.7112 15.5904C18.6514 15.5904 18.5917 15.5904 18.5419 15.5904C18.4722 15.5904 18.4025 15.5904 18.3328 15.5904H18.7112ZM30.9504 72.6519H66.7122C70.1977 72.6519 73.016 69.6006 73.016 65.8509H37.2543C37.2543 69.6113 34.436 72.6519 30.9504 72.6519Z" stroke="black" stroke-width="0.62" stroke-linecap="round" stroke-linejoin="round"/>
<path d="M54.3235 54.9028H61.2149" stroke="black" stroke-width="0.62" stroke-linecap="round" stroke-linejoin="round"/>
<path d="M33.1414 54.9028H51.4554" stroke="black" stroke-width="0.62" stroke-linecap="round" stroke-linejoin="round"/>
<path d="M43.6978 58.9747H61.2151" stroke="black" stroke-width="0.62" stroke-linecap="round" stroke-linejoin="round"/>
<path d="M38.1506 58.9747H40.8992" stroke="black" stroke-width="0.62" stroke-linecap="round" stroke-linejoin="round"/>
<path d="M32.9919 58.9747H38.1506" stroke="black" stroke-width="0.62" stroke-linecap="round" stroke-linejoin="round"/>
<path d="M31.1993 44.4918V71.7064C31.1993 72.2651 30.7811 72.7163 30.2632 72.7163H10.1566C9.63872 72.7163 9.22046 72.2651 9.22046 71.7064V44.4918C9.22046 43.9331 9.63872 43.4819 10.1566 43.4819H30.2533C30.7711 43.4819 31.1894 43.9331 31.1894 44.4918H31.1993ZM26.927 68.5691V65.722H24.3975V68.5691H26.927ZM26.927 63.1004V60.2533H24.3975V63.1004H26.927ZM26.927 57.6317V54.7846H24.3975V57.6317H26.927ZM26.927 52.0986V47.6076H13.5724V52.0986H26.927ZM21.5195 68.5691V65.722H18.99V68.5691H21.5195ZM21.5195 63.1004V60.2533H18.99V63.1004H21.5195ZM21.5195 57.6317V54.7846H18.99V57.6317H21.5195ZM16.1019 68.5691V65.722H13.5724V68.5691H16.1019ZM16.1019 63.1004V60.2533H13.5724V63.1004H16.1019ZM16.1019 57.6317V54.7846H13.5724V57.6317H16.1019Z" fill="white"/>
<path d="M26.927 65.722H24.3975V68.5692H26.927V65.722Z" fill="#CB9390"/>
<path d="M21.5195 65.722H18.99V68.5692H21.5195V65.722Z" fill="#CB9390"/>
<path d="M16.1018 65.722H13.5723V68.5692H16.1018V65.722Z" fill="#CB9390"/>
<path d="M16.1018 54.7846H13.5723V57.6317H16.1018V54.7846Z" fill="#CB9390"/>
<path d="M16.1018 60.2533H13.5723V63.1005H16.1018V60.2533Z" fill="#CB9390"/>
<path d="M21.5195 60.2533H18.99V63.1005H21.5195V60.2533Z" fill="#CB9390"/>
<path d="M26.927 60.2533H24.3975V63.1005H26.927V60.2533Z" fill="#CB9390"/>
<path d="M21.5195 54.7846H18.99V57.6317H21.5195V54.7846Z" fill="#CB9390"/>
<path d="M26.927 54.7846H24.3975V57.6317H26.927V54.7846Z" fill="#CB9390"/>
<path d="M26.9269 47.6076H13.5723V52.0986H26.9269V47.6076Z" fill="#CB9390"/>
<path d="M31.1993 71.7064C31.1993 72.2651 30.7811 72.7163 30.2632 72.7163H10.1566C9.63872 72.7163 9.22046 72.2651 9.22046 71.7064V44.4918C9.22046 43.9331 9.63872 43.4819 10.1566 43.4819H30.2533C30.7711 43.4819 31.1894 43.9331 31.1894 44.4918V71.7064H31.1993Z" stroke="black" stroke-width="0.62" stroke-linecap="round" stroke-linejoin="round"/>
<path d="M26.9269 47.6076H13.5723V52.0986H26.9269V47.6076Z" stroke="black" stroke-width="0.62" stroke-linecap="round" stroke-linejoin="round"/>
<path d="M16.1018 54.7846H13.5723V57.6317H16.1018V54.7846Z" stroke="black" stroke-width="0.62" stroke-linecap="round" stroke-linejoin="round"/>
<path d="M21.5195 54.7846H18.99V57.6317H21.5195V54.7846Z" stroke="black" stroke-width="0.62" stroke-linecap="round" stroke-linejoin="round"/>
<path d="M26.927 54.7846H24.3975V57.6317H26.927V54.7846Z" stroke="black" stroke-width="0.62" stroke-linecap="round" stroke-linejoin="round"/>
<path d="M16.1018 60.2533H13.5723V63.1005H16.1018V60.2533Z" stroke="black" stroke-width="0.62" stroke-linecap="round" stroke-linejoin="round"/>
<path d="M21.5195 60.2533H18.99V63.1005H21.5195V60.2533Z" stroke="black" stroke-width="0.62" stroke-linecap="round" stroke-linejoin="round"/>
<path d="M26.927 60.2533H24.3975V63.1005H26.927V60.2533Z" stroke="black" stroke-width="0.62" stroke-linecap="round" stroke-linejoin="round"/>
<path d="M16.1018 65.722H13.5723V68.5692H16.1018V65.722Z" stroke="black" stroke-width="0.62" stroke-linecap="round" stroke-linejoin="round"/>
<path d="M21.5195 65.722H18.99V68.5692H21.5195V65.722Z" stroke="black" stroke-width="0.62" stroke-linecap="round" stroke-linejoin="round"/>
<path d="M26.927 65.722H24.3975V68.5692H26.927V65.722Z" stroke="black" stroke-width="0.62" stroke-linecap="round" stroke-linejoin="round"/>
<path d="M34.0274 6.62986C35.0432 6.62986 35.8797 7.52162 35.8797 8.62825C35.8797 9.73489 35.0532 10.6266 34.0274 10.6266H27.0065C25.7916 10.6266 24.8057 9.56298 24.8057 8.25221C24.8057 7.07037 25.6024 6.09266 26.648 5.91002C26.8372 4.56701 27.9128 3.54633 29.2074 3.54633C30.1037 3.54633 30.9104 4.04055 31.3784 4.82487C31.5577 4.77115 31.7469 4.73891 31.9361 4.73891C32.9718 4.73891 33.8382 5.5662 33.9876 6.65135H34.0274V6.62986Z" fill="#CB9390"/>
<path d="M29.2074 3.52486C27.9128 3.52486 26.8372 4.55629 26.648 5.88855C25.6024 6.0712 24.8057 7.05965 24.8057 8.23074C24.8057 9.54151 25.7916 10.6052 27.0065 10.6052H34.0274C35.0432 10.6052 35.8797 9.71342 35.8797 8.60678C35.8797 7.50015 35.0532 6.6084 34.0274 6.6084H33.9876C33.8382 5.534 32.9718 4.69596 31.9361 4.69596C31.7469 4.69596 31.5577 4.72819 31.3784 4.78191C30.9104 3.9976 30.1037 3.50337 29.2074 3.50337V3.52486Z" stroke="black" stroke-width="0.62" stroke-linecap="round" stroke-linejoin="round"/>
<path d="M56.5342 34.9834V49.1547" stroke="black" stroke-width="0.62" stroke-linecap="round" stroke-linejoin="round"/>
<path d="M34.8145 49.144V34.9834V33.909" stroke="black" stroke-width="0.62" stroke-linecap="round" stroke-linejoin="round"/>
<path d="M56.5341 34.9833H58.5458V32.5874L45.6792 24.2608L32.8125 32.5874V34.9833H34.8142" stroke="black" stroke-width="0.62" stroke-linecap="round" stroke-linejoin="round"/>
<path d="M38.4194 49.144V38.2388H45.1017V49.144" stroke="black" stroke-width="0.62" stroke-linecap="round" stroke-linejoin="round"/>
<path d="M46.8745 32.5874C46.8745 33.2965 46.3367 33.8767 45.6794 33.8767C45.0221 33.8767 44.4844 33.2965 44.4844 32.5874C44.4844 31.8783 45.0221 31.2982 45.6794 31.2982C46.3367 31.2982 46.8745 31.8783 46.8745 32.5874Z" stroke="black" stroke-width="0.62" stroke-linecap="round" stroke-linejoin="round"/>
<path d="M48.2288 44.4596V37.7123H53.1982V44.4596" stroke="black" stroke-width="0.62" stroke-linecap="round" stroke-linejoin="round"/>
<path d="M47.1333 44.4596H48.2288H53.1982H54.2339" stroke="black" stroke-width="0.62" stroke-linecap="round" stroke-linejoin="round"/>
<path d="M32.8125 49.1547H34.8142H38.4193H45.1015H56.5341H57.4902" stroke="black" stroke-width="0.62" stroke-linecap="round" stroke-linejoin="round"/>
<path d="M73.2549 49.7886V52.8291" stroke="black" stroke-width="0.62" stroke-linecap="round" stroke-linejoin="round"/>
<path d="M74.6691 51.3142H71.8508" stroke="black" stroke-width="0.62" stroke-linecap="round" stroke-linejoin="round"/>
<path d="M13.3235 31.2766V36.2726" stroke="black" stroke-width="0.62" stroke-linecap="round" stroke-linejoin="round"/>
<path d="M15.6439 33.78H11.0032" stroke="black" stroke-width="0.62" stroke-linecap="round" stroke-linejoin="round"/>
<path d="M68.7039 45.9208V47.9299" stroke="black" stroke-width="0.62" stroke-linecap="round" stroke-linejoin="round"/>
<path d="M68.7039 34.4676V44.3844" stroke="black" stroke-width="0.62" stroke-linecap="round" stroke-linejoin="round"/>
</svg>
