<svg width="48" height="49" viewBox="0 0 48 49" fill="none" xmlns="http://www.w3.org/2000/svg">
<path d="M4 9.5H17.514C18.3022 9.49991 19.0827 9.65511 19.8109 9.95676C20.5391 10.2584 21.2007 10.7006 21.758 11.258L28 17.5M10 27.5H4M17 15.5L21 19.5C21.2626 19.7626 21.471 20.0744 21.6131 20.4176C21.7553 20.7608 21.8284 21.1286 21.8284 21.5C21.8284 21.8714 21.7553 22.2392 21.6131 22.5824C21.471 22.9256 21.2626 23.2374 21 23.5C20.7374 23.7626 20.4256 23.971 20.0824 24.1131C19.7392 24.2553 19.3714 24.3284 19 24.3284C18.6286 24.3284 18.2608 24.2553 17.9176 24.1131C17.5744 23.971 17.2626 23.7626 17 23.5L14 20.5C12.28 22.22 9.554 22.414 7.606 20.954L7 20.5" stroke="black" stroke-width="1.5" stroke-linecap="round" stroke-linejoin="round"/>
<path d="M10 22.5V31.5C10 35.272 10 37.156 11.172 38.328C12.344 39.5 14.228 39.5 18 39.5H36C39.772 39.5 41.656 39.5 42.828 38.328C44 37.156 44 35.272 44 31.5V25.5C44 21.728 44 19.844 42.828 18.672C41.656 17.5 39.772 17.5 36 17.5H19" stroke="black" stroke-width="1.5" stroke-linecap="round" stroke-linejoin="round"/>
<path d="M30.5 28.5C30.5 29.4283 30.1313 30.3185 29.4749 30.9749C28.8185 31.6312 27.9283 32 27 32C26.0717 32 25.1815 31.6312 24.5251 30.9749C23.8687 30.3185 23.5 29.4283 23.5 28.5C23.5 27.5717 23.8687 26.6815 24.5251 26.0251C25.1815 25.3687 26.0717 25 27 25C27.9283 25 28.8185 25.3687 29.4749 26.0251C30.1313 26.6815 30.5 27.5717 30.5 28.5Z" stroke="black" stroke-width="1.5" stroke-linecap="round" stroke-linejoin="round"/>
</svg>
