<svg width="48" height="49" viewBox="0 0 48 49" fill="none" xmlns="http://www.w3.org/2000/svg">
<path d="M44 42.5V19.72C44 17.076 44 15.752 43.312 14.728C42.624 13.704 41.406 13.212 38.972 12.228L26.972 7.388C25.504 6.796 24.772 6.5 24 6.5C23.228 6.5 22.496 6.796 21.028 7.388L9.028 12.228C6.594 13.212 5.376 13.704 4.688 14.728C4 15.752 4 17.076 4 19.72V42.5M32 38.5V42.5M16 38.5V42.5" stroke="black" stroke-width="1.5" stroke-linecap="round" stroke-linejoin="round"/>
<path d="M15 28.5L15.486 26.56C16.212 23.65 16.576 22.194 17.662 21.348C18.746 20.5 20.246 20.5 23.246 20.5H24.754C27.754 20.5 29.254 20.5 30.338 21.348C31.424 22.194 31.788 23.648 32.514 26.56L33 28.5M17 33.48V33.5M31 33.48V33.5M34 28.5H14C13.4696 28.5 12.9609 28.7107 12.5858 29.0858C12.2107 29.4609 12 29.9696 12 30.5V36.5C12 37.0304 12.2107 37.5391 12.5858 37.9142C12.9609 38.2893 13.4696 38.5 14 38.5H34C34.5304 38.5 35.0391 38.2893 35.4142 37.9142C35.7893 37.5391 36 37.0304 36 36.5V30.5C36 29.9696 35.7893 29.4609 35.4142 29.0858C35.0391 28.7107 34.5304 28.5 34 28.5Z" stroke="black" stroke-width="1.5" stroke-linecap="round" stroke-linejoin="round"/>
</svg>
