<svg width="48" height="49" viewBox="0 0 48 49" fill="none" xmlns="http://www.w3.org/2000/svg">
<path d="M42 26.5V32.5C42 34.6217 41.1571 36.6566 39.6569 38.1569C38.1566 39.6571 36.1217 40.5 34 40.5H14C11.8783 40.5 9.84344 39.6571 8.34315 38.1569C6.84285 36.6566 6 34.6217 6 32.5V27.7C6 27.3817 6.12643 27.0765 6.35147 26.8515C6.57652 26.6264 6.88174 26.5 7.2 26.5H42ZM42 26.5V14.5C42 12.3783 41.1571 10.3434 39.6569 8.84315C38.1566 7.34285 36.1217 6.5 34 6.5H24M32 40.5L34 44.5M16 40.5L14 44.5" stroke="black" stroke-width="1.5" stroke-linecap="round" stroke-linejoin="round"/>
<path d="M30.8 16.5H17.2001C16.538 16.5 16.008 15.964 16.08 15.304C16.372 12.65 17.726 6.5 24.0001 6.5C30.2741 6.5 31.6281 12.65 31.9201 15.304C31.9921 15.964 31.462 16.5 30.8 16.5Z" stroke="black" stroke-width="1.5" stroke-linecap="round" stroke-linejoin="round"/>
</svg>
