<?xml version="1.0" encoding="UTF-8"?>
<svg id="Layer_1" data-name="Layer 1" xmlns="http://www.w3.org/2000/svg" viewBox="0 0 384.63 384.63">
  <defs>
    <style>
      .cls-1 {
        fill: #fff;
      }
    </style>
  </defs>
  <path class="cls-1" d="M192.08,384.58c-38.59,0-77.18.02-115.77,0C30.68,384.54.09,353.87.07,308.12.04,258,.21,207.88,0,157.77c-.12-28.6,11.37-50.51,35.29-66.41,38.16-25.37,75.97-51.28,114-76.85,28.82-19.37,57.12-19.36,86.12.11,38.47,25.82,76.78,51.88,115.24,77.71,22.62,15.19,33.69,36.54,33.8,63.46.22,51.87.26,103.74,0,155.62-.21,41.66-31.81,72.95-73.59,73.14-39.59.18-79.19.04-118.78.04ZM191.89,368.93c40.08,0,80.17.03,120.25,0,30.86-.03,54.91-22.53,56.6-53.49.74-13.49.42-27.04.39-40.57-.09-41.83,0-83.67-.57-125.49-.23-17.02-7.94-31.36-21.84-40.94-42.05-28.98-84.22-57.81-127.07-85.58-17.4-11.28-37.47-11.23-54.89.07-42.63,27.66-84.6,56.34-126.47,85.14-14.13,9.71-21.82,24.03-22.46,41.4-.52,14.01-.41,28.05-.39,42.07.04,41.33-.58,82.68.51,123.99.82,31.15,25.4,53.38,56.44,53.4,39.83.03,79.66,0,119.5,0Z"/>
  <path class="cls-1" d="M192.36,160.9c13.03,0,26.05-.1,39.08.03,13.9.13,23.81,8.47,24.14,22.39.66,27.53.62,55.1,0,82.63-.29,13.22-10.37,22.17-23.63,22.29-26.55.23-53.11.24-79.66,0-12.95-.12-22.98-8.93-23.26-21.78-.62-28.03-.61-56.1-.03-84.13.26-12.5,10.27-21.14,22.77-21.34,13.52-.22,27.05-.05,40.58-.05v-.02ZM191.54,272.67c13.03,0,26.07-.11,39.1.05,7,.09,10.07-3.23,10.06-10.03-.03-25.57-.03-51.13,0-76.7,0-6.83-3.43-10.24-10.12-10.26-25.57-.05-51.13-.07-76.7.02-6.63.02-10.05,3.37-10.03,10.3.1,25.57.07,51.13.02,76.7-.01,6.84,3.07,10.08,10.07,9.98,12.53-.18,25.06-.05,37.6-.05Z"/>
</svg>