<?xml version="1.0" encoding="UTF-8"?>
<svg id="Layer_1" data-name="Layer 1" xmlns="http://www.w3.org/2000/svg" viewBox="0 0 363.98 364">
  <defs>
    <style>
      .cls-1 {
        fill: #fff;
      }
    </style>
  </defs>
  <path class="cls-1" d="M204.75,197.17c4.19,0,7.58-3.4,7.58-7.58s-3.4-7.58-7.58-7.58H26.25c-6.11,0-11.09-4.97-11.09-11.09,0-4.26,2.38-8.08,6.22-9.96l122.33-59.89c2.44-1.3,5.19-1.99,7.95-1.99s5.51.68,8.19,2.12l109.81,53.75c1.06.52,2.21.77,3.34.77,2.81,0,5.49-1.56,6.81-4.25,1.84-3.76.29-8.31-3.47-10.15l-109.56-53.61c-2.37-1.27-4.91-2.21-7.52-2.85v-5.82l52.1-26.09c5.37-3.69,8.57-9.95,8.57-16.74s-3.2-13.04-8.57-16.74c-.38-.27-35.31-15.94-35.31-15.94-2.38-1.06-4.81-1.97-7.25-2.7-5.76-1.76-11.86-.67-16.76,2.97-4.97,3.69-7.93,9.57-7.93,15.73v65.29c-2.56.62-5.04,1.53-7.26,2.73L14.71,147.32c-9.07,4.46-14.71,13.5-14.71,23.6,0,14.48,11.78,26.25,26.25,26.25h4.08v122.11c-17.29,3.52-30.33,18.84-30.33,37.14,0,4.19,3.4,7.58,7.58,7.58s7.58-3.4,7.58-7.58c0-12.54,10.21-22.75,22.75-22.75h121.33c4.19,0,7.58-3.4,7.58-7.58s-3.4-7.58-7.58-7.58h-22.75v-121.33h30.33v68.25c0,4.19,3.4,7.58,7.58,7.58s7.58-3.4,7.58-7.58v-68.25s22.75,0,22.75,0ZM159.25,19.52c0-2,1.26-3.14,1.8-3.55.44-.32,1.26-.79,2.29-.79.33,0,.7.05,1.08.17,1.82.53,38.72,16.91,38.72,16.91,1,.91,1.59,2.34,1.59,3.93,0,1.79-.74,3.38-1.09,3.7l-44.41,22.17V19.52h.02ZM75.83,197.17v121.33h-30.33v-121.33h30.33ZM121.33,318.5h-30.33v-121.33h30.33v121.33ZM298.57,230.09c6.05-5.46,12.79-12.51,17.47-20.51,3.29-5.63,3.31-12.39,0-18.12-3.35-5.84-9.59-9.46-16.26-9.46h-38.42c-6.67,0-12.92,3.62-16.26,9.46-3.29,5.73-3.28,12.5,0,18.12,4.69,7.98,11.42,15.05,17.47,20.51-35.13,10.34-65.43,49.02-65.43,88.41,0,24.98,20.41,45.32,45.5,45.32h75.83c25.09,0,45.5-20.34,45.5-45.32,0-39.39-30.3-78.06-65.43-88.41h.02ZM258.21,201.93c-.68-1.15-.33-2.21.06-2.91.24-.42,1.2-1.84,3.09-1.84h38.42c1.9,0,2.85,1.41,3.09,1.84.39.7.74,1.76.06,2.91-5.91,10.09-16.5,18.99-22.37,23.43-5.87-4.44-16.46-13.35-22.37-23.43h.02ZM318.5,348.67h-75.83c-16.73,0-30.33-13.53-30.33-30.15,0-37.64,34.44-76.01,68.25-76.01s68.25,38.36,68.25,76.01c0,16.64-13.6,30.15-30.33,30.15Z"/>
</svg>