<svg width="17" height="17" viewBox="0 0 17 17" fill="none" xmlns="http://www.w3.org/2000/svg">
<path d="M14.0171 10.5754C12.558 12.0275 10.4684 12.4737 8.63381 11.9L5.29756 15.2292C5.05673 15.4771 4.58215 15.6258 4.24215 15.5762L2.69798 15.3637C2.18798 15.2929 1.7134 14.8112 1.63548 14.3012L1.42298 12.7571C1.3734 12.4171 1.53631 11.9425 1.77006 11.7017L5.09923 8.37249C4.53256 6.53082 4.97173 4.44124 6.4309 2.98915C8.52048 0.899571 11.9134 0.899571 14.0101 2.98915C16.1067 5.07874 16.1067 8.48582 14.0171 10.5754Z" stroke="#424242" stroke-miterlimit="10" stroke-linecap="round" stroke-linejoin="round"/>
<path d="M4.88086 12.3888L6.51003 14.0179" stroke="#424242" stroke-miterlimit="10" stroke-linecap="round" stroke-linejoin="round"/>
<path d="M10.2715 7.79166C10.8583 7.79166 11.334 7.31596 11.334 6.72916C11.334 6.14235 10.8583 5.66666 10.2715 5.66666C9.68468 5.66666 9.20898 6.14235 9.20898 6.72916C9.20898 7.31596 9.68468 7.79166 10.2715 7.79166Z" stroke="#424242" stroke-linecap="round" stroke-linejoin="round"/>
</svg>
