<svg width="20" height="21" viewBox="0 0 20 21" fill="none" xmlns="http://www.w3.org/2000/svg">
<path d="M6.2334 15.792L8.81673 17.792C9.15006 18.1254 9.90006 18.292 10.4001 18.292H13.5667C14.5667 18.292 15.6501 17.542 15.9001 16.542L17.9001 10.4587C18.3167 9.29205 17.5667 8.29205 16.3167 8.29205H12.9834C12.4834 8.29205 12.0667 7.87538 12.1501 7.29205L12.5667 4.62538C12.7334 3.87538 12.2334 3.04205 11.4834 2.79205C10.8167 2.54205 9.9834 2.87538 9.65006 3.37538L6.2334 8.45871" stroke="#940000" stroke-miterlimit="10"/>
<path d="M1.9834 15.791V7.62435C1.9834 6.45768 2.4834 6.04102 3.65007 6.04102H4.4834C5.65006 6.04102 6.15007 6.45768 6.15007 7.62435V15.791C6.15007 16.9577 5.65006 17.3743 4.4834 17.3743H3.65007C2.4834 17.3743 1.9834 16.9577 1.9834 15.791Z" stroke="#940000" stroke-linecap="round" stroke-linejoin="round"/>
</svg>
