<?xml version="1.0" encoding="UTF-8"?>
<svg id="Layer_1" data-name="Layer 1" xmlns="http://www.w3.org/2000/svg" viewBox="0 0 24 24">
  <defs>
    <style>
      .cls-1 {
        fill: #6d6d6d;
      }
    </style>
  </defs>
  <path class="cls-1" d="M21,14c0-1.1-.9-2-2-2h-2c-1.1,0-2,.9-2,2-1.65,0-3,1.35-3,3v4c0,1.65,1.35,3,3,3h6c1.65,0,3-1.35,3-3v-4c0-1.65-1.35-3-3-3ZM17,13h2c.55,0,1,.45,1,1h-4c0-.55.45-1,1-1ZM23,21c0,1.1-.9,2-2,2h-6c-1.1,0-2-.9-2-2v-2h4.5v1.5c0,.28.22.5.5.5s.5-.22.5-.5v-1.5h4.5v2ZM23,18h-10v-1c0-1.1.9-2,2-2h6c1.1,0,2,.9,2,2v1ZM9,12c3.31,0,6-2.69,6-6S12.31,0,9,0,3,2.69,3,6s2.69,6,6,6ZM9,1c2.76,0,5,2.24,5,5s-2.24,5-5,5-5-2.24-5-5S6.24,1,9,1ZM10.99,14.66c-.04.27-.29.47-.57.42-.39-.06-.78-.08-1.18-.08-4.55,0-8.25,3.7-8.25,8.25v.25c0,.28-.22.5-.5.5s-.5-.22-.5-.5v-.25c0-5.1,4.15-9.25,9.25-9.25.44,0,.89.03,1.32.09.27.04.46.29.42.57Z"/>
</svg>