<?xml version="1.0" encoding="UTF-8"?>
<svg id="Layer_1" data-name="Layer 1" xmlns="http://www.w3.org/2000/svg" viewBox="0 0 24 24">
  <defs>
    <style>
      .cls-1 {
        fill: #424242;
      }
    </style>
  </defs>
  <path class="cls-1" d="M21.5,0h-.76c-.92,0-1.82.37-2.48,1.02l-9.27,9.27c-1.28-.39-2.59-.4-3.89-.03C2.36,11.03.33,13.44.04,16.26c-.22,2.12.52,4.19,2.01,5.69,1.32,1.32,3.1,2.05,4.95,2.05.24,0,.49-.01.73-.04,2.82-.29,5.23-2.33,6-5.07.36-1.3.35-2.61-.03-3.89l2-2c.19-.19.29-.44.29-.71v-2.09c0-.11.09-.2.2-.2h1.6c.66,0,1.2-.54,1.2-1.2v-1.6c0-.11.09-.2.2-.2h2.09c.27,0,.52-.1.71-.29l.98-.97c.66-.66,1.02-1.54,1.02-2.47v-.76c0-1.38-1.12-2.5-2.5-2.5h0ZM23,3.26c0,.67-.26,1.3-.73,1.77l-.98.97h-2.09c-.66,0-1.2.54-1.2,1.2v1.6c0,.11-.09.2-.2.2h-1.6c-.66,0-1.2.54-1.2,1.2v2.09l-2.22,2.22c-.14.14-.18.34-.12.52.41,1.18.45,2.39.11,3.6-.66,2.35-2.72,4.09-5.14,4.34-1.82.19-3.6-.44-4.88-1.72-1.28-1.28-1.91-3.06-1.73-4.88.25-2.41,1.99-4.48,4.34-5.14.54-.15,1.09-.23,1.63-.23.66,0,1.32.11,1.97.34.18.06.38.02.52-.12L18.97,1.73c.47-.47,1.11-.73,1.77-.73h.76c.83,0,1.5.67,1.5,1.5v.76h0ZM7,18c0,.55-.45,1-1,1s-1-.45-1-1,.45-1,1-1,1,.45,1,1Z"/>
</svg>