<svg width="48" height="49" viewBox="0 0 48 49" fill="none" xmlns="http://www.w3.org/2000/svg">
<path d="M6 6.5V38.5C6 39.5609 6.42143 40.5783 7.17157 41.3284C7.92172 42.0786 8.93913 42.5 10 42.5H42" stroke="black" stroke-width="1.5" stroke-linecap="round" stroke-linejoin="round"/>
<path d="M14 22.914C14.0001 22.6493 14.1051 22.3954 14.292 22.208L18.292 18.208C18.3849 18.1149 18.4952 18.041 18.6167 17.9906C18.7382 17.9402 18.8685 17.9142 19 17.9142C19.1315 17.9142 19.2618 17.9402 19.3833 17.9906C19.5048 18.041 19.6151 18.1149 19.708 18.208L26.292 24.792C26.3849 24.8851 26.4952 24.959 26.6167 25.0094C26.7382 25.0598 26.8685 25.0858 27 25.0858C27.1315 25.0858 27.2618 25.0598 27.3833 25.0094C27.5048 24.959 27.6151 24.8851 27.708 24.792L36.292 16.208C36.4317 16.0679 36.6099 15.9724 36.8039 15.9336C36.998 15.8948 37.1991 15.9145 37.382 15.9901C37.5649 16.0656 37.7212 16.1938 37.8312 16.3582C37.9412 16.5227 38 16.7161 38 16.914V32.5C38 33.0304 37.7893 33.5391 37.4142 33.9142C37.0391 34.2893 36.5304 34.5 36 34.5H16C15.4696 34.5 14.9609 34.2893 14.5858 33.9142C14.2107 33.5391 14 33.0304 14 32.5V22.914Z" stroke="black" stroke-width="1.5" stroke-linecap="round" stroke-linejoin="round"/>
</svg>
