<svg width="20" height="21" viewBox="0 0 20 21" fill="none" xmlns="http://www.w3.org/2000/svg">
<path d="M1.9082 6.98332V15.0917C1.9082 16.675 3.0332 17.325 4.39987 16.5417L6.3582 15.425C6.7832 15.1833 7.49154 15.1583 7.9332 15.3833L12.3082 17.575C12.7499 17.7917 13.4582 17.775 13.8832 17.5333L17.4915 15.4667C17.9499 15.2 18.3332 14.55 18.3332 14.0167V5.90832C18.3332 4.32499 17.2082 3.67499 15.8415 4.45832L13.8832 5.57499C13.4582 5.81666 12.7499 5.84166 12.3082 5.61666L7.9332 3.43332C7.49154 3.21666 6.7832 3.23332 6.3582 3.47499L2.74987 5.54166C2.2832 5.80832 1.9082 6.45832 1.9082 6.98332Z" stroke="#424242" stroke-linecap="round" stroke-linejoin="round"/>
<path d="M7.13379 3.83334V14.6667" stroke="#424242" stroke-linecap="round" stroke-linejoin="round"/>
<path d="M13.1084 6.01666V17.1667" stroke="#424242" stroke-linecap="round" stroke-linejoin="round"/>
</svg>
