<?xml version="1.0" encoding="UTF-8"?>
<svg id="Layer_1" data-name="Layer 1" xmlns="http://www.w3.org/2000/svg" viewBox="0 0 24.02 24">
  <defs>
    <style>
      .cls-1 {
        fill: #6d6d6d;
      }
    </style>
  </defs>
  <path class="cls-1" d="M12.01,14c.28,0,.5.22.5.5v3c0,.28-.22.5-.5.5s-.5-.22-.5-.5v-3c0-.28.22-.5.5-.5ZM8.49,8.55c-.95-.95-1.48-2.21-1.48-3.55C6.96,2.31,9.32-.05,12.01,0c2.69-.05,5.06,2.31,5,5,0,1.34-.52,2.59-1.47,3.54l-1.8,1.76c-.96.94-2.52.94-3.48,0l-1.78-1.74h0ZM8.01,5c0,1.07.42,2.08,1.18,2.84l1.78,1.74c.57.56,1.51.56,2.08,0l1.79-1.75c.75-.75,1.17-1.76,1.17-2.82.04-2.15-1.85-4.04-4-4-2.15-.04-4.04,1.85-4,4ZM10.01,5c0-1.1.9-2,2-2s2,.9,2,2-.9,2-2,2-2-.9-2-2ZM11.01,5c0,.55.45,1,1,1s1-.45,1-1-.45-1-1-1-1,.45-1,1ZM23.94,18.51l-1.55-8.79c-.3-1.71-1.58-3.11-3.25-3.56-.27-.07-.54.09-.61.35-.07.27.08.54.35.61,1.3.35,2.29,1.44,2.53,2.77l1.55,8.79c.44,2.18-1.4,4.37-3.63,4.32h-6.82v-2.5c0-.28-.22-.5-.5-.5s-.5.22-.5.5v2.5h-6.82c-2.22.05-4.06-2.14-3.63-4.32l1.54-8.79c.23-1.33,1.23-2.42,2.54-2.78.27-.07.43-.35.35-.61-.07-.27-.35-.42-.61-.35-1.68.45-2.96,1.85-3.26,3.57L.08,18.51c-.55,2.77,1.79,5.56,4.61,5.49h14.64c2.82.07,5.17-2.72,4.61-5.49h0Z"/>
</svg>