<?xml version="1.0" encoding="UTF-8"?>
<svg id="Layer_1" data-name="Layer 1" xmlns="http://www.w3.org/2000/svg" viewBox="0 0 24.06 22.01">
  <defs>
    <style>
      .cls-1 {
        fill: #fff;
      }
    </style>
  </defs>
  <path class="cls-1" d="M5.06,18.03c0,.55-.45,1-1,1s-1-.45-1-1,.45-1,1-1,1,.45,1,1ZM12.06,17.03c-.55,0-1,.45-1,1s.45,1,1,1,1-.45,1-1-.45-1-1-1ZM8.06,17.03c-.55,0-1,.45-1,1s.45,1,1,1,1-.45,1-1-.45-1-1-1ZM24.06,2.86v10.65c0,1.38-1.12,2.5-2.5,2.5h-3.24c-.51,0-.97-.31-1.17-.78-.19-.47-.09-1.01.28-1.38l5.63-5.62V2.86c0-.18-.13-.25-.18-.28-.06-.02-.2-.07-.33.06l-6.49,6.09v2.8c0,1.35-.78,2.51-1.9,3.1,1.14.71,1.9,1.96,1.9,3.39,0,2.21-1.79,4-4,4H4c-2.21,0-4-1.79-4-4,0-1.45.78-2.71,1.93-3.41-1.11-.59-1.87-1.74-1.87-3.08,0-1.94,1.57-3.52,3.49-3.52h1.46l.03-4.52C5.06,1.57,6.62,0,8.53,0h1.59c.99,0,1.88.58,2.28,1.47l2.97,6.52,6.49-6.09c.38-.36.92-.45,1.41-.24.48.21.78.67.78,1.19ZM6.01,8h8.27s-2.78-6.11-2.78-6.11c-.24-.54-.78-.89-1.37-.89h-1.59c-1.37,0-2.48,1.12-2.49,2.49,0,0-.03,4.52-.03,4.52ZM12.19,15.03H3.87c-1.6.07-2.87,1.38-2.87,2.99s1.35,3,3,3h8.06c1.65,0,3-1.35,3-3s-1.28-2.92-2.87-2.99ZM15.06,11.53v-2.51s-.03-.01-.04-.01H3.56c-1.37,0-2.49,1.13-2.49,2.51s1.12,2.52,2.5,2.52h9c1.38,0,2.5-1.12,2.5-2.5h0ZM23.06,9.66l-4.92,4.91c-.11.11-.08.24-.06.29.02.05.08.16.24.16h3.24c.83,0,1.5-.68,1.5-1.5,0,0,0-3.86,0-3.86Z"/>
</svg>