<?xml version="1.0" encoding="UTF-8"?>
<svg id="Layer_1" data-name="Layer 1" xmlns="http://www.w3.org/2000/svg" viewBox="0 0 24 19">
  <defs>
    <style>
      .cls-1 {
        fill: #424242;
      }
    </style>
  </defs>
  <path class="cls-1" d="M17,3.42c0-1.89-1.53-3.42-3.42-3.42H3.42C1.53,0,0,1.53,0,3.42c0,.82.29,1.61.82,2.23l5.18,6.04v4.02c0,.47.22.92.6,1.2l2.47,1.85c.21.16.47.24.72.24.18,0,.37-.04.54-.13.41-.21.67-.62.67-1.08v-6.11l5.18-6.04c.53-.62.82-1.41.82-2.23h0ZM15.42,4.99l-5.3,6.18c-.08.09-.12.21-.12.32v6.29c0,.11-.07.16-.11.19-.04.02-.13.05-.22-.02l-2.47-1.85c-.12-.09-.2-.24-.2-.4v-4.21c0-.12-.04-.23-.12-.32L1.58,4.99c-.38-.44-.58-1-.58-1.57,0-1.33,1.09-2.42,2.42-2.42h10.16c1.33,0,2.42,1.09,2.42,2.42,0,.58-.21,1.14-.58,1.57ZM24,17.5c0,.28-.22.5-.5.5h-10c-.28,0-.5-.22-.5-.5s.22-.5.5-.5h10c.28,0,.5.22.5.5ZM24,14.5c0,.28-.22.5-.5.5h-10c-.28,0-.5-.22-.5-.5s.22-.5.5-.5h10c.28,0,.5.22.5.5ZM24,11.5c0,.28-.22.5-.5.5h-9c-.28,0-.5-.22-.5-.5s.22-.5.5-.5h9c.28,0,.5.22.5.5ZM17,8h6.5c.28,0,.5.22.5.5s-.22.5-.5.5h-6.5c-.28,0-.5-.22-.5-.5s.22-.5.5-.5Z"/>
</svg>