<svg width="34" height="34" viewBox="0 0 34 34" fill="none" xmlns="http://www.w3.org/2000/svg">
<path d="M14.1663 21.2499L21.5188 16.9999L14.1663 12.7499V21.2499ZM30.543 10.1574C30.7272 10.8233 30.8547 11.7158 30.9397 12.8491C31.0388 13.9824 31.0813 14.9599 31.0813 15.8099L31.1663 16.9999C31.1663 20.1024 30.9397 22.3833 30.543 23.8424C30.1888 25.1174 29.3672 25.9391 28.0922 26.2933C27.4263 26.4774 26.208 26.6049 24.338 26.6899C22.4963 26.7891 20.8105 26.8316 19.2522 26.8316L16.9997 26.9166C11.0638 26.9166 7.36634 26.6899 5.90717 26.2933C4.63217 25.9391 3.81051 25.1174 3.45634 23.8424C3.27217 23.1766 3.14467 22.2841 3.05967 21.1508C2.96051 20.0174 2.91801 19.0399 2.91801 18.1899L2.83301 16.9999C2.83301 13.8974 3.05967 11.6166 3.45634 10.1574C3.81051 8.88242 4.63217 8.06075 5.90717 7.70659C6.57301 7.52242 7.79134 7.39492 9.66134 7.30992C11.503 7.21075 13.1888 7.16825 14.7472 7.16825L16.9997 7.08325C22.9355 7.08325 26.633 7.30992 28.0922 7.70659C29.3672 8.06075 30.1888 8.88242 30.543 10.1574Z" fill="black"/>
</svg>
