<svg width="35" height="34" viewBox="0 0 35 34" fill="none" xmlns="http://www.w3.org/2000/svg">
<path d="M11.5497 2.83325H23.4497C27.983 2.83325 31.6663 6.51659 31.6663 11.0499V22.9499C31.6663 25.1291 30.8007 27.2191 29.2597 28.76C27.7188 30.3009 25.6289 31.1666 23.4497 31.1666H11.5497C7.01634 31.1666 3.33301 27.4833 3.33301 22.9499V11.0499C3.33301 8.87072 4.19869 6.78078 5.73961 5.23986C7.28054 3.69893 9.37048 2.83325 11.5497 2.83325ZM11.2663 5.66659C9.91374 5.66659 8.61653 6.20391 7.6601 7.16034C6.70366 8.11678 6.16634 9.41398 6.16634 10.7666V23.2333C6.16634 26.0524 8.44717 28.3333 11.2663 28.3333H23.733C25.0856 28.3333 26.3828 27.7959 27.3393 26.8395C28.2957 25.8831 28.833 24.5859 28.833 23.2333V10.7666C28.833 7.94742 26.5522 5.66659 23.733 5.66659H11.2663ZM24.9372 7.79159C25.4068 7.79159 25.8573 7.97816 26.1893 8.31025C26.5214 8.64235 26.708 9.09276 26.708 9.56242C26.708 10.0321 26.5214 10.4825 26.1893 10.8146C25.8573 11.1467 25.4068 11.3333 24.9372 11.3333C24.4675 11.3333 24.0171 11.1467 23.685 10.8146C23.3529 10.4825 23.1663 10.0321 23.1663 9.56242C23.1663 9.09276 23.3529 8.64235 23.685 8.31025C24.0171 7.97816 24.4675 7.79159 24.9372 7.79159ZM17.4997 9.91659C19.3783 9.91659 21.18 10.6629 22.5083 11.9912C23.8367 13.3196 24.583 15.1213 24.583 16.9999C24.583 18.8785 23.8367 20.6802 22.5083 22.0086C21.18 23.337 19.3783 24.0833 17.4997 24.0833C15.6211 24.0833 13.8194 23.337 12.491 22.0086C11.1626 20.6802 10.4163 18.8785 10.4163 16.9999C10.4163 15.1213 11.1626 13.3196 12.491 11.9912C13.8194 10.6629 15.6211 9.91659 17.4997 9.91659ZM17.4997 12.7499C16.3725 12.7499 15.2915 13.1977 14.4945 13.9947C13.6974 14.7917 13.2497 15.8727 13.2497 16.9999C13.2497 18.1271 13.6974 19.2081 14.4945 20.0051C15.2915 20.8022 16.3725 21.2499 17.4997 21.2499C18.6268 21.2499 19.7078 20.8022 20.5049 20.0051C21.3019 19.2081 21.7497 18.1271 21.7497 16.9999C21.7497 15.8727 21.3019 14.7917 20.5049 13.9947C19.7078 13.1977 18.6268 12.7499 17.4997 12.7499Z" fill="black"/>
</svg>
