<svg width="34" height="34" viewBox="0 0 34 34" fill="none" xmlns="http://www.w3.org/2000/svg">
<path d="M11.0497 2.83325H22.9497C27.483 2.83325 31.1663 6.51659 31.1663 11.0499V22.9499C31.1663 25.1291 30.3007 27.2191 28.7597 28.76C27.2188 30.3009 25.1289 31.1666 22.9497 31.1666H11.0497C6.51634 31.1666 2.83301 27.4833 2.83301 22.9499V11.0499C2.83301 8.87072 3.69869 6.78078 5.23961 5.23986C6.78054 3.69893 8.87048 2.83325 11.0497 2.83325ZM10.7663 5.66659C9.41374 5.66659 8.11653 6.20391 7.1601 7.16034C6.20366 8.11678 5.66634 9.41398 5.66634 10.7666V23.2333C5.66634 26.0524 7.94717 28.3333 10.7663 28.3333H23.233C24.5856 28.3333 25.8828 27.7959 26.8393 26.8395C27.7957 25.8831 28.333 24.5859 28.333 23.2333V10.7666C28.333 7.94742 26.0522 5.66659 23.233 5.66659H10.7663ZM24.4372 7.79159C24.9068 7.79159 25.3573 7.97816 25.6893 8.31025C26.0214 8.64235 26.208 9.09276 26.208 9.56242C26.208 10.0321 26.0214 10.4825 25.6893 10.8146C25.3573 11.1467 24.9068 11.3333 24.4372 11.3333C23.9675 11.3333 23.5171 11.1467 23.185 10.8146C22.8529 10.4825 22.6663 10.0321 22.6663 9.56242C22.6663 9.09276 22.8529 8.64235 23.185 8.31025C23.5171 7.97816 23.9675 7.79159 24.4372 7.79159ZM16.9997 9.91659C18.8783 9.91659 20.68 10.6629 22.0083 11.9912C23.3367 13.3196 24.083 15.1213 24.083 16.9999C24.083 18.8785 23.3367 20.6802 22.0083 22.0086C20.68 23.337 18.8783 24.0833 16.9997 24.0833C15.1211 24.0833 13.3194 23.337 11.991 22.0086C10.6626 20.6802 9.91634 18.8785 9.91634 16.9999C9.91634 15.1213 10.6626 13.3196 11.991 11.9912C13.3194 10.6629 15.1211 9.91659 16.9997 9.91659ZM16.9997 12.7499C15.8725 12.7499 14.7915 13.1977 13.9945 13.9947C13.1974 14.7917 12.7497 15.8727 12.7497 16.9999C12.7497 18.1271 13.1974 19.2081 13.9945 20.0051C14.7915 20.8022 15.8725 21.2499 16.9997 21.2499C18.1268 21.2499 19.2078 20.8022 20.0049 20.0051C20.8019 19.2081 21.2497 18.1271 21.2497 16.9999C21.2497 15.8727 20.8019 14.7917 20.0049 13.9947C19.2078 13.1977 18.1268 12.7499 16.9997 12.7499Z" fill="black"/>
</svg>
