<?xml version="1.0" encoding="UTF-8"?>
<svg id="Layer_1" data-name="Layer 1" xmlns="http://www.w3.org/2000/svg" viewBox="0 0 24 24">
  <defs>
    <style>
      .cls-1 {
        fill: #6d6d6d;
      }
    </style>
  </defs>
  <path class="cls-1" d="M9.5,24s-.02,0,0,0h0ZM19,11c1.65,0,3,1.35,3,3s-1.35,3-3,3-3-1.35-3-3,1.35-3,3-3ZM17,14c0,1.1.9,2,2,2s2-.9,2-2-.9-2-2-2-2,.9-2,2ZM2,14c0-1.65,1.35-3,3-3s3,1.35,3,3-1.35,3-3,3-3-1.35-3-3ZM3,14c0,1.1.9,2,2,2s2-.9,2-2-.9-2-2-2-2,.9-2,2ZM5,19C2.44,19,.29,20.91,0,23.44c-.03.27.17.52.44.55.27.03.52-.17.55-.44.23-2.03,1.95-3.56,4-3.56s3.77,1.53,4,3.56c.03.25.24.44.5.44.27-.03.53-.28.5-.56-.29-2.53-2.44-4.44-5-4.44h0ZM23.5,24s.02,0,0,0h0ZM24,23.44c-.29-2.53-2.44-4.44-5-4.44s-4.71,1.91-5,4.44c-.03.27.17.52.44.55.27.03.52-.17.55-.44.23-2.03,1.95-3.56,4-3.56s3.77,1.53,4,3.56c.03.25.25.44.5.44.27-.03.53-.28.5-.56h0ZM14.69,9l-2.02,1.75c-.19.17-.43.25-.67.25s-.49-.09-.68-.26l-1.98-1.74h-.34c-1.65,0-3-1.35-3-3v-3c0-1.65,1.35-3,3-3h6c1.65,0,3,1.35,3,3v3c0,1.65-1.35,3-3,3h-.31,0ZM14.51,8h.49c1.1,0,2-.9,2-2v-3c0-1.1-.9-2-2-2h-6c-1.1,0-2,.9-2,2v3c0,1.1.9,2,2,2h.53c.12,0,.24.04.33.12l2.12,1.87,2.2-1.87c.09-.08.21-.12.33-.12h0Z"/>
</svg>