<?xml version="1.0" encoding="UTF-8"?>
<svg id="Layer_1" data-name="Layer 1" xmlns="http://www.w3.org/2000/svg" viewBox="0 0 24 24">
  <defs>
    <style>
      .cls-1 {
        fill: #fff;
      }
    </style>
  </defs>
  <path class="cls-1" d="M21.08,1.14c-1.4-.75-2.88-1.14-4.39-1.14H7.31c-1.51,0-2.99.38-4.39,1.14C1.12,2.1,0,4.02,0,6.14v1.39c0,1.93,1.57,3.5,3.5,3.5h.5v8.48c0,2.48,2.02,4.5,4.5,4.5h7c2.48,0,4.5-2.02,4.5-4.5v-8.5h.5c1.93,0,3.5-1.57,3.5-3.5v-1.36c0-2.12-1.12-4.03-2.92-5ZM15.46,1c-.24,1.69-1.7,3-3.46,3s-3.22-1.31-3.46-3h6.93ZM23,7.5c0,1.38-1.12,2.5-2.5,2.5h-.5v-3c0-.28-.22-.5-.5-.5s-.5.22-.5.5v12.5c0,1.93-1.57,3.5-3.5,3.5h-7c-1.93,0-3.5-1.57-3.5-3.5V7c0-.28-.22-.5-.5-.5s-.5.22-.5.5v3.02h-.5c-1.38,0-2.5-1.12-2.5-2.5v-1.39c0-1.75.92-3.33,2.39-4.12,1.26-.67,2.57-1.02,3.91-1.02h.22c.25,2.25,2.16,4,4.47,4s4.22-1.75,4.47-4h.22c1.34,0,2.66.34,3.91,1.02,1.48.79,2.4,2.37,2.4,4.12v1.36Z"/>
</svg>