<svg width="20" height="20" viewBox="0 0 20 20" fill="none" xmlns="http://www.w3.org/2000/svg">
<path d="M1.66602 9.16668V7.50001C1.66602 4.58334 3.33268 3.33334 5.83268 3.33334H14.166C16.666 3.33334 18.3327 4.58334 18.3327 7.50001V12.5C18.3327 15.4167 16.666 16.6667 14.166 16.6667H9.99935" stroke="#424242" stroke-miterlimit="10" stroke-linecap="round" stroke-linejoin="round"/>
<path d="M9.99935 12.0833C11.1499 12.0833 12.0827 11.1506 12.0827 9.99999C12.0827 8.8494 11.1499 7.91666 9.99935 7.91666C8.84876 7.91666 7.91602 8.8494 7.91602 9.99999C7.91602 11.1506 8.84876 12.0833 9.99935 12.0833Z" stroke="#424242" stroke-miterlimit="10" stroke-linecap="round" stroke-linejoin="round"/>
<path d="M15.416 7.91666V12.0833" stroke="#424242" stroke-miterlimit="10" stroke-linecap="round" stroke-linejoin="round"/>
<path d="M1.66602 12.9167H6.11604C6.64937 12.9167 7.08268 13.35 7.08268 13.8833V14.95" stroke="#424242" stroke-miterlimit="10" stroke-linecap="round" stroke-linejoin="round"/>
<path d="M2.68266 11.9L1.66602 12.9167L2.68266 13.9333" stroke="#424242" stroke-miterlimit="10" stroke-linecap="round" stroke-linejoin="round"/>
<path d="M7.08268 17.3167H2.63266C2.09933 17.3167 1.66602 16.8833 1.66602 16.35V15.2834" stroke="#424242" stroke-miterlimit="10" stroke-linecap="round" stroke-linejoin="round"/>
<path d="M6.06641 18.3336L7.08305 17.317L6.06641 16.3003" stroke="#424242" stroke-miterlimit="10" stroke-linecap="round" stroke-linejoin="round"/>
</svg>
