<svg width="17" height="17" viewBox="0 0 17 17" fill="none" xmlns="http://www.w3.org/2000/svg">
<path d="M1.41663 7.79168V6.37501C1.41663 3.89584 2.83329 2.83334 4.95829 2.83334H12.0416C14.1666 2.83334 15.5833 3.89584 15.5833 6.37501V10.625C15.5833 13.1042 14.1666 14.1667 12.0416 14.1667H8.49996" stroke="white" stroke-miterlimit="10" stroke-linecap="round" stroke-linejoin="round"/>
<path d="M8.49996 10.2708C9.47796 10.2708 10.2708 9.47799 10.2708 8.49999C10.2708 7.52199 9.47796 6.72916 8.49996 6.72916C7.52196 6.72916 6.72913 7.52199 6.72913 8.49999C6.72913 9.47799 7.52196 10.2708 8.49996 10.2708Z" stroke="white" stroke-miterlimit="10" stroke-linecap="round" stroke-linejoin="round"/>
<path d="M13.1041 6.72916V10.2708" stroke="white" stroke-miterlimit="10" stroke-linecap="round" stroke-linejoin="round"/>
<path d="M1.41663 10.9792H5.19915C5.65248 10.9792 6.02079 11.3475 6.02079 11.8008V12.7075" stroke="white" stroke-miterlimit="10" stroke-linecap="round" stroke-linejoin="round"/>
<path d="M2.28077 10.115L1.41663 10.9792L2.28077 11.8433" stroke="white" stroke-miterlimit="10" stroke-linecap="round" stroke-linejoin="round"/>
<path d="M6.02079 14.7192H2.23827C1.78494 14.7192 1.41663 14.3508 1.41663 13.8975V12.9908" stroke="white" stroke-miterlimit="10" stroke-linecap="round" stroke-linejoin="round"/>
<path d="M5.15747 15.5836L6.02162 14.7194L5.15747 13.8552" stroke="white" stroke-miterlimit="10" stroke-linecap="round" stroke-linejoin="round"/>
</svg>
