<svg width="20" height="21" viewBox="0 0 20 21" fill="none" xmlns="http://www.w3.org/2000/svg">
<path d="M4.16667 8.83333C3.25 8.83333 2.5 9.58333 2.5 10.5C2.5 11.4167 3.25 12.1667 4.16667 12.1667C5.08333 12.1667 5.83333 11.4167 5.83333 10.5C5.83333 9.58333 5.08333 8.83333 4.16667 8.83333Z" stroke="#424242"/>
<path d="M15.8332 8.83333C14.9165 8.83333 14.1665 9.58333 14.1665 10.5C14.1665 11.4167 14.9165 12.1667 15.8332 12.1667C16.7498 12.1667 17.4998 11.4167 17.4998 10.5C17.4998 9.58333 16.7498 8.83333 15.8332 8.83333Z" stroke="#424242"/>
<path d="M10.0002 8.83333C9.0835 8.83333 8.3335 9.58333 8.3335 10.5C8.3335 11.4167 9.0835 12.1667 10.0002 12.1667C10.9168 12.1667 11.6668 11.4167 11.6668 10.5C11.6668 9.58333 10.9168 8.83333 10.0002 8.83333Z" stroke="#424242"/>
</svg>
