<?xml version="1.0" encoding="UTF-8"?>
<svg id="Layer_1" data-name="Layer 1" xmlns="http://www.w3.org/2000/svg" viewBox="0 0 405.4 405.4">
  <defs>
    <style>
      .cls-1 {
        fill: #fff;
      }
    </style>
  </defs>
  <path class="cls-1" d="M371.66,67.13c.78,34.87-28.53,65.73-62.26,67.47-38.73,2-71.04-27.83-71.52-66.94C237.43,31.57,266.58,1.08,303.29.04c37.07-1.05,67.51,28.82,68.36,67.1ZM254,67.47c.22,28.6,23.19,51.63,51.14,51.27,27.91-.36,50.74-23.47,50.56-51.19-.19-28.66-22.91-51.22-51.32-50.96-28.35.26-50.6,22.73-50.38,50.88Z"/>
  <path class="cls-1" d="M102.18,134.41c-37.49-.02-66.28-29.34-66.51-67.73C35.45,30.23,66.01-.14,102.77,0c36.95.14,66.6,30.46,66.61,68.12.01,36.88-29.81,66.31-67.2,66.29ZM51.71,66.81c.09,28.86,22.31,51.72,50.49,51.93,27.68.2,51.15-22.95,51.21-50.54.07-28.8-22.23-51.52-50.66-51.62-28.31-.1-51.12,22.35-51.04,50.23Z"/>
  <path class="cls-1" d="M202.87,286.72c-37.24-.04-66.12-29.85-66.06-68.18.06-36.17,30.27-66.13,66.76-66.23,37.23-.1,67.36,30.77,66.94,68.58-.41,37.05-30.03,65.88-67.65,65.84ZM152.85,219.5c.16,28.73,22.8,51.66,50.87,51.54,27.8-.12,50.91-23.27,50.83-50.92-.08-28.72-22.62-51.35-51.05-51.23-28.34.11-50.82,22.57-50.66,50.61Z"/>
  <path class="cls-1" d="M204.01,321.91c44.48.08,83.22,27.17,98.44,68.71,2.04,5.56,3.88,11.19-3.28,13.98-7.23,2.82-9.72-2.65-11.64-8.19-21.96-63.37-107.17-80.56-152.75-26.54-6.46,7.65-10.46,17.5-14.94,26.67-2.44,5-4.23,10.54-11.01,8.39-7.03-2.23-6.26-7.82-4.39-13.7,12.83-40.42,54.38-69.41,99.57-69.32Z"/>
  <path class="cls-1" d="M0,244.59c5.79-11.05,9.9-21.52,16.2-30.41,20.21-28.55,48.41-42.93,83.18-44.54,5.49-.25,10.45.68,10.81,7.37.36,6.65-4.16,7.92-9.87,8.35-39.89,3.01-68.51,21.64-82.27,60.54-1.65,4.65-4.65,8.54-9.82,6.73-3.03-1.06-5.1-4.85-8.23-8.04Z"/>
  <path class="cls-1" d="M310.26,169.68c40.96.92,79.14,29.12,93.52,68.95,2.06,5.7,3.34,11.38-3.73,13.85-7.21,2.52-9.53-3.2-11.48-8.68-7.41-20.78-20.84-36.4-40.02-47.13-12.16-6.8-25.2-10.5-39.06-11.26-5.86-.32-12.64.27-12.24-8.33.4-8.53,7.25-7.41,13.01-7.4Z"/>
</svg>