<svg width="20" height="20" viewBox="0 0 20 20" fill="none" xmlns="http://www.w3.org/2000/svg">
<path d="M15.688 12.3324L15.6893 12.3345C15.9346 12.7371 15.9772 13.2094 15.8151 13.6397C15.6501 14.0776 15.3119 14.4064 14.8769 14.5493L14.8769 14.5493L14.8741 14.5503C13.3105 15.0741 11.6643 15.3327 10.0163 15.3327C8.3683 15.3327 6.72292 15.0741 5.16067 14.5427L5.15966 14.5423C4.66594 14.3755 4.31987 14.0416 4.17867 13.6474L4.17869 13.6474L4.17725 13.6435C4.02688 13.2345 4.07226 12.7752 4.33659 12.3318C4.33682 12.3314 4.33704 12.331 4.33727 12.3307L5.17747 10.9414L5.17752 10.9415L5.18152 10.9346C5.29969 10.732 5.39699 10.4649 5.4644 10.217C5.53171 9.96942 5.58296 9.69045 5.58296 9.45768V7.34935C5.58296 5.61505 6.59207 4.10839 8.05565 3.38035L8.19397 3.31155L8.26937 3.1767C8.61558 2.55752 9.26661 2.16602 9.99129 2.16602C10.7286 2.16602 11.3618 2.54475 11.706 3.15371L11.7836 3.29098L11.9259 3.3589C13.4178 4.07113 14.4496 5.59184 14.4496 7.34935V9.45768C14.4496 9.69045 14.5009 9.96935 14.568 10.2175C14.6355 10.4668 14.7322 10.7336 14.8481 10.9378L14.848 10.9379L14.8547 10.949L15.688 12.3324Z" fill="#940000" stroke="#940000"/>
<path d="M10.0004 17.8327C9.49077 17.8327 8.98918 17.632 8.63028 17.2808C9.08572 17.3185 9.55041 17.341 10.0171 17.341C10.4757 17.341 10.9324 17.3185 11.3798 17.2809C11.0193 17.6231 10.5332 17.8327 10.0004 17.8327Z" fill="#940000" stroke="#940000"/>
</svg>
