<svg width="20" height="21" viewBox="0 0 20 21" fill="none" xmlns="http://www.w3.org/2000/svg">
<rect x="0.5" y="1" width="19" height="19" rx="3.5" fill="white"/>
<rect x="0.5" y="1" width="19" height="19" rx="3.5" stroke="#F9F7F6"/>
<path fill-rule="evenodd" clip-rule="evenodd" d="M10.1052 14.5245C9.40867 15.3562 8.50519 15.8583 7.51794 15.8583C5.31507 15.8583 3.5293 13.3586 3.5293 10.275C3.5293 7.19138 5.31507 4.69164 7.51794 4.69164C8.50519 4.69164 9.40867 5.19372 10.1052 6.02542C10.8017 5.19372 11.7051 4.69164 12.6924 4.69164C14.8953 4.69164 16.681 7.19138 16.681 10.275C16.681 13.3586 14.8953 15.8583 12.6924 15.8583C11.7051 15.8583 10.8017 15.3562 10.1052 14.5245Z" fill="#ED0006"/>
<path fill-rule="evenodd" clip-rule="evenodd" d="M10.105 14.5245C10.9626 13.5004 11.5064 11.9766 11.5064 10.275C11.5064 8.57334 10.9626 7.0495 10.105 6.02542C10.8015 5.19372 11.705 4.69164 12.6922 4.69164C14.8951 4.69164 16.6808 7.19138 16.6808 10.275C16.6808 13.3586 14.8951 15.8583 12.6922 15.8583C11.705 15.8583 10.8015 15.3562 10.105 14.5245Z" fill="#F9A000"/>
<path fill-rule="evenodd" clip-rule="evenodd" d="M10.105 14.5245C10.9626 13.5004 11.5064 11.9766 11.5064 10.275C11.5064 8.57336 10.9626 7.04954 10.105 6.02545C9.24741 7.04954 8.70361 8.57336 8.70361 10.275C8.70361 11.9766 9.24742 13.5004 10.105 14.5245Z" fill="#FF5E00"/>
</svg>
