<svg width="20" height="21" viewBox="0 0 20 21" fill="none" xmlns="http://www.w3.org/2000/svg">
<rect x="0.5" y="1" width="19" height="19" rx="3.5" fill="white"/>
<rect x="0.5" y="1" width="19" height="19" rx="3.5" stroke="#F9F7F6"/>
<path fill-rule="evenodd" clip-rule="evenodd" d="M6.32388 13.7152H5.11227L4.2037 8.66031C4.16058 8.42779 4.06901 8.22222 3.93433 8.12534C3.59819 7.88186 3.2278 7.68809 2.82373 7.59036V7.39575H4.77554C5.04492 7.39575 5.24695 7.68809 5.28063 8.02761L5.75204 11.6739L6.96306 7.39575H8.141L6.32388 13.7152ZM8.81445 13.7152H7.67018L8.61242 7.39575H9.75669L8.81445 13.7152ZM11.2371 9.14643C11.2708 8.80607 11.4728 8.61145 11.7085 8.61145C12.0789 8.56259 12.4824 8.66032 12.8191 8.90295L13.0211 7.54234C12.6844 7.34773 12.314 7.25 11.9779 7.25C10.8673 7.25 10.0591 8.12534 10.0591 9.3402C10.0591 10.2644 10.6316 10.7497 11.0356 11.042C11.4728 11.3335 11.6412 11.5281 11.6075 11.8196C11.6075 12.2569 11.2708 12.4515 10.9346 12.4515C10.5306 12.4515 10.1265 12.3057 9.75668 12.0623L9.55465 13.4237C9.95872 13.6663 10.3959 13.7641 10.7999 13.7641C12.0452 13.8121 12.8191 12.9376 12.8191 11.625C12.8191 9.97206 11.2371 9.87518 11.2371 9.14643V9.14643ZM16.8237 13.7152L15.9152 7.39575H14.9393C14.7372 7.39575 14.5352 7.59036 14.4679 7.88186L12.7854 13.7152H13.9634L14.1985 12.7918H15.6458L15.7805 13.7152H16.8237ZM15.1076 9.09757L15.4438 11.4793H14.5015L15.1076 9.09757Z" fill="#172B85"/>
</svg>
