<svg width="17" height="17" viewBox="0 0 17 17" fill="none" xmlns="http://www.w3.org/2000/svg">
<path d="M12.7496 5.07166C12.7071 5.06458 12.6576 5.06458 12.6151 5.07166C11.6376 5.03624 10.8584 4.23582 10.8584 3.24416C10.8584 2.23124 11.673 1.41666 12.6859 1.41666C13.6988 1.41666 14.5134 2.23832 14.5134 3.24416C14.5063 4.23582 13.7271 5.03624 12.7496 5.07166Z" stroke="#424242" stroke-linecap="round" stroke-linejoin="round"/>
<path d="M12.0203 10.2283C12.9907 10.3912 14.0603 10.2212 14.8111 9.71831C15.8099 9.05248 15.8099 7.96165 14.8111 7.29582C14.0532 6.7929 12.9694 6.62289 11.999 6.79289" stroke="#424242" stroke-linecap="round" stroke-linejoin="round"/>
<path d="M4.22859 5.07166C4.27109 5.06458 4.32068 5.06458 4.36318 5.07166C5.34068 5.03624 6.11984 4.23582 6.11984 3.24416C6.11984 2.23124 5.30526 1.41666 4.29234 1.41666C3.27943 1.41666 2.46484 2.23832 2.46484 3.24416C2.47193 4.23582 3.25109 5.03624 4.22859 5.07166Z" stroke="#424242" stroke-linecap="round" stroke-linejoin="round"/>
<path d="M4.95786 10.2283C3.98745 10.3912 2.91786 10.2212 2.16703 9.71831C1.16828 9.05248 1.16828 7.96165 2.16703 7.29582C2.92495 6.7929 4.0087 6.62289 4.97911 6.79289" stroke="#424242" stroke-linecap="round" stroke-linejoin="round"/>
<path d="M8.49965 10.3629C8.45715 10.3558 8.40756 10.3558 8.36506 10.3629C7.38756 10.3275 6.6084 9.52708 6.6084 8.53542C6.6084 7.5225 7.42298 6.70792 8.4359 6.70792C9.44881 6.70792 10.2634 7.52958 10.2634 8.53542C10.2563 9.52708 9.47715 10.3346 8.49965 10.3629Z" stroke="#424242" stroke-linecap="round" stroke-linejoin="round"/>
<path d="M6.43852 12.5942C5.43977 13.26 5.43977 14.3508 6.43852 15.0167C7.57185 15.7746 9.42768 15.7746 10.561 15.0167C11.5598 14.3508 11.5598 13.26 10.561 12.5942C9.43477 11.8433 7.57185 11.8433 6.43852 12.5942Z" stroke="#424242" stroke-linecap="round" stroke-linejoin="round"/>
</svg>
