<svg width="17" height="18" viewBox="0 0 17 18" fill="none" xmlns="http://www.w3.org/2000/svg">
<path d="M14.9985 7.32789C14.7482 7.06625 14.4892 6.79664 14.3916 6.55957C14.3013 6.34242 14.2959 5.9825 14.2906 5.63387C14.2807 4.98574 14.27 4.25129 13.7594 3.74062C13.2487 3.22996 12.5143 3.21934 11.8661 3.20937C11.5175 3.20406 11.1576 3.19875 10.9404 3.10844C10.704 3.01082 10.4337 2.75184 10.1721 2.50148C9.71391 2.06121 9.19328 1.5625 8.5 1.5625C7.80672 1.5625 7.28676 2.06121 6.82789 2.50148C6.56625 2.75184 6.29664 3.01082 6.05957 3.10844C5.84375 3.19875 5.4825 3.20406 5.13387 3.20937C4.48574 3.21934 3.75129 3.22996 3.24062 3.74062C2.72996 4.25129 2.72266 4.98574 2.70937 5.63387C2.70406 5.9825 2.69875 6.34242 2.60844 6.55957C2.51082 6.79598 2.25184 7.06625 2.00148 7.32789C1.56121 7.78609 1.0625 8.30672 1.0625 9C1.0625 9.69328 1.56121 10.2132 2.00148 10.6721C2.25184 10.9337 2.51082 11.2034 2.60844 11.4404C2.69875 11.6576 2.70406 12.0175 2.70937 12.3661C2.71934 13.0143 2.72996 13.7487 3.24062 14.2594C3.75129 14.77 4.48574 14.7807 5.13387 14.7906C5.4825 14.7959 5.84242 14.8013 6.05957 14.8916C6.29598 14.9892 6.56625 15.2482 6.82789 15.4985C7.28609 15.9388 7.80672 16.4375 8.5 16.4375C9.19328 16.4375 9.71324 15.9388 10.1721 15.4985C10.4337 15.2482 10.7034 14.9892 10.9404 14.8916C11.1576 14.8013 11.5175 14.7959 11.8661 14.7906C12.5143 14.7807 13.2487 14.77 13.7594 14.2594C14.27 13.7487 14.2807 13.0143 14.2906 12.3661C14.2959 12.0175 14.3013 11.6576 14.3916 11.4404C14.4892 11.204 14.7482 10.9337 14.9985 10.6721C15.4388 10.2139 15.9375 9.69328 15.9375 9C15.9375 8.30672 15.4388 7.78676 14.9985 7.32789ZM11.5321 7.78211L7.81336 11.5009C7.76402 11.5503 7.70543 11.5894 7.64094 11.6162C7.57644 11.6429 7.50731 11.6567 7.4375 11.6567C7.36769 11.6567 7.29856 11.6429 7.23406 11.6162C7.16957 11.5894 7.11098 11.5503 7.06164 11.5009L5.46789 9.90711C5.41853 9.85775 5.37938 9.79915 5.35267 9.73466C5.32595 9.67017 5.3122 9.60105 5.3122 9.53125C5.3122 9.46145 5.32595 9.39233 5.35267 9.32784C5.37938 9.26335 5.41853 9.20475 5.46789 9.15539C5.56757 9.05571 5.70278 8.9997 5.84375 8.9997C5.91355 8.9997 5.98267 9.01345 6.04716 9.04017C6.11165 9.06688 6.17025 9.10603 6.21961 9.15539L7.4375 10.3739L10.7804 7.03039C10.8297 6.98103 10.8883 6.94188 10.9528 6.91517C11.0173 6.88845 11.0864 6.8747 11.1562 6.8747C11.2261 6.8747 11.2952 6.88845 11.3597 6.91517C11.4242 6.94188 11.4828 6.98103 11.5321 7.03039C11.5815 7.07975 11.6206 7.13835 11.6473 7.20284C11.674 7.26733 11.6878 7.33645 11.6878 7.40625C11.6878 7.47605 11.674 7.54517 11.6473 7.60966C11.6206 7.67415 11.5815 7.73275 11.5321 7.78211Z" fill="#19AAEE"/>
</svg>
