<?xml version="1.0" encoding="UTF-8"?>
<svg id="Layer_1" data-name="Layer 1" xmlns="http://www.w3.org/2000/svg" viewBox="0 0 24 24">
  <defs>
    <style>
      .cls-1 {
        fill: #fff;
      }
    </style>
  </defs>
  <path class="cls-1" d="M6.5,11c2.48,0,4.5-2.02,4.5-4.5s-2.02-4.5-4.5-4.5S2,4.02,2,6.5s2.02,4.5,4.5,4.5ZM6.5,3c1.93,0,3.5,1.57,3.5,3.5s-1.57,3.5-3.5,3.5-3.5-1.57-3.5-3.5,1.57-3.5,3.5-3.5ZM10.54,16.3c.3.69.46,1.44.46,2.2v5c0,.28-.22.5-.5.5s-.5-.22-.5-.5v-5c0-.63-.13-1.23-.37-1.8-.11-.25,0-.55.26-.66.25-.11.55,0,.66.26ZM23,4h0V.5c0-.13-.05-.26-.15-.35s-.22-.15-.35-.15c-.22,0-.55.15-.61.36-.3,1.04-1.17,1.64-2.39,1.64h-2.5c-1.65,0-3,1.35-3,3,0,.64.21,1.23.55,1.72l1.95,4.92s.02.02.03.03l-1.56.96c-.39.24-.84.37-1.31.37H5.5c-3.03,0-5.5,2.47-5.5,5.5v5c0,.28.22.5.5.5s.5-.22.5-.5v-5c0-2.48,2.02-4.5,4.5-4.5h8.15c.64,0,1.28-.18,1.83-.51l3.05-1.87c.75-.45.68-1.42.47-1.9l-.68-1.72h1.18c1.22,0,2.09.6,2.39,1.64.06.21.39.36.61.36.28,0,.5-.22.5-.5v-3.5h0c.55,0,1-.45,1-1s-.45-1-1-1h0ZM18.03,10.69c-.06.09-.13.15-.22.2h0c-.09.05-.19.07-.29.07h-.22l-1.24-3.12c.3.1.61.16.93.16h.25l.83,2.11c.08.19.07.4-.05.58ZM22,7.92c-.61-.59-1.48-.92-2.5-.92h-2.5c-1.1,0-2-.9-2-2s.9-2,2-2h2.5c1.02,0,1.89-.33,2.5-.92v5.85h0Z"/>
</svg>