<?xml version="1.0" encoding="UTF-8"?>
<svg id="Layer_1" data-name="Layer 1" xmlns="http://www.w3.org/2000/svg" viewBox="0 0 24 24">
  <defs>
    <style>
      .cls-1 {
        fill: #fff;
      }
    </style>
  </defs>
  <path class="cls-1" d="M17.06,3.26l1.67-3c.13-.24.44-.33.68-.19.24.13.33.44.19.68l-1.67,3c-.09.16-.26.26-.44.26-.08,0-.17-.02-.24-.06-.24-.13-.33-.44-.19-.68h0ZM23.96,5.28c-.11-.25-.41-.37-.66-.26l-3,1.32c-.25.11-.37.41-.26.66.08.19.27.3.46.3.07,0,.14-.01.2-.04l3-1.32c.25-.11.37-.41.26-.66ZM6.06,3.74c.09.16.26.26.44.26.08,0,.17-.02.24-.06.24-.13.33-.44.19-.68L5.27.26c-.13-.24-.44-.33-.68-.19-.24.13-.33.44-.19.68l1.67,3h0ZM3.7,6.35l-3-1.32c-.25-.11-.55,0-.66.26-.11.25,0,.55.26.66l3,1.32c.07.03.13.04.2.04.19,0,.38-.11.46-.3.11-.25,0-.55-.26-.66ZM20,12c0,2.58-1.26,5.02-3.37,6.52-.4.28-.63.74-.63,1.22v1.27c0,1.65-1.35,3-3,3h-2c-1.68,0-3-1.38-3-3.14v-1.13c0-.48-.24-.93-.64-1.22-2.46-1.75-3.71-4.71-3.27-7.71.51-3.52,3.46-6.36,7-6.75,2.31-.26,4.53.45,6.24,1.99,1.69,1.52,2.67,3.69,2.67,5.96ZM15,21v-1h-6v.86c0,1.22.86,2.14,2,2.14h2c1.1,0,2-.9,2-2ZM19,12c0-1.99-.85-3.89-2.33-5.22-1.3-1.16-2.93-1.78-4.66-1.78-.27,0-.54.01-.81.05-3.1.34-5.68,2.82-6.12,5.9-.38,2.63.71,5.22,2.86,6.75.45.32.77.79.93,1.3h2.63v-5.05c-1.14-.23-2-1.24-2-2.45,0-.28.22-.5.5-.5s.5.22.5.5c0,.83.67,1.5,1.5,1.5s1.5-.67,1.5-1.5c0-.28.22-.5.5-.5s.5.22.5.5c0,1.21-.86,2.22-2,2.45v5.05h2.63c.16-.51.48-.98.93-1.3,1.85-1.31,2.95-3.44,2.95-5.7Z"/>
</svg>