<?xml version="1.0" encoding="UTF-8"?>
<svg id="Layer_1" data-name="Layer 1" xmlns="http://www.w3.org/2000/svg" viewBox="0 0 23.98 24">
  <defs>
    <style>
      .cls-1 {
        fill: #fff;
      }
    </style>
  </defs>
  <path class="cls-1" d="M23.98,11.48c.01.28-.2.51-.48.52h-.02c-.27,0-.49-.21-.5-.48-.25-5.9-5.08-10.52-10.99-10.52-3.71,0-7.17,1.91-9.19,5h3.69c.28,0,.5.22.5.5s-.22.5-.5.5H2.49c-.83,0-1.5-.67-1.5-1.5V1.5c0-.28.22-.5.5-.5s.5.22.5.5v3.91C4.2,2.07,7.96,0,11.99,0c6.45,0,11.71,5.04,11.99,11.48ZM21.49,17h-4c-.28,0-.5.22-.5.5s.22.5.5.5h3.69c-2.02,3.09-5.48,5-9.19,5-5.91,0-10.74-4.62-10.99-10.52-.01-.28-.22-.51-.52-.48-.28.01-.49.24-.48.52.28,6.44,5.54,11.48,11.99,11.48,4.03,0,7.79-2.07,10-5.41v3.91c0,.28.22.5.5.5s.5-.22.5-.5v-4c0-.83-.67-1.5-1.5-1.5h0Z"/>
</svg>