<?xml version="1.0" encoding="UTF-8"?>
<svg id="Layer_1" data-name="Layer 1" xmlns="http://www.w3.org/2000/svg" viewBox="0 0 20 24">
  <defs>
    <style>
      .cls-1 {
        fill: #940000;
      }
    </style>
  </defs>
  <path class="cls-1" d="M5.57,12.66c-.14-.24-.07-.54.17-.69l3.76-2.25v-5.22c0-.28.22-.5.5-.5s.5.22.5.5v5.5c0,.18-.09.34-.24.43l-4,2.4c-.08.05-.17.07-.26.07-.17,0-.34-.09-.43-.24ZM20,10.5v9c0,2.48-2.02,4.5-4.5,4.5H4.5c-2.48,0-4.5-2.02-4.5-4.5v-9c0-.05,0-1.13.02-1.18C.37,4.12,4.72,0,10,0s9.63,4.12,9.98,9.32c.01.05.02,1.13.02,1.18ZM1,10c0,4.96,4.04,9,9,9s9-4.04,9-9S14.96,1,10,1,1,5.04,1,10ZM19,14.36c-1.62,3.34-5.05,5.64-9,5.64s-7.38-2.31-9-5.64v5.14c0,1.93,1.57,3.5,3.5,3.5h11c1.93,0,3.5-1.57,3.5-3.5v-5.14Z"/>
</svg>