<svg width="35" height="34" viewBox="0 0 35 34" fill="none" xmlns="http://www.w3.org/2000/svg">
<path d="M17.5 3C25.2322 3 31.5 9.2678 31.5 17C31.5 24.7322 25.2322 31 17.5 31C15.0259 31.0042 12.5952 30.3495 10.458 29.103L3.50562 31L5.39842 24.0448C4.15096 21.9069 3.49569 19.4752 3.50002 17C3.50002 9.2678 9.76782 3 17.5 3ZM12.7288 10.42L12.4488 10.4312C12.2678 10.4437 12.0909 10.4912 11.928 10.5712C11.7762 10.6573 11.6376 10.7648 11.5164 10.8904C11.3484 11.0486 11.2532 11.1858 11.151 11.3188C10.6332 11.9921 10.3544 12.8186 10.3586 13.668C10.3614 14.354 10.5406 15.0218 10.8206 15.6462C11.3932 16.909 12.3354 18.246 13.5786 19.485C13.8782 19.7832 14.1722 20.0828 14.4886 20.3614C16.0334 21.7213 17.8742 22.7021 19.8646 23.2258L20.6598 23.3476C20.9188 23.3616 21.1778 23.342 21.4382 23.3294C21.8459 23.3079 22.2439 23.1975 22.6044 23.006C22.7876 22.9113 22.9665 22.8085 23.1406 22.698C23.1406 22.698 23.1999 22.6579 23.3156 22.572C23.5046 22.432 23.6208 22.3326 23.7776 22.1688C23.8952 22.0475 23.9932 21.9065 24.0716 21.746C24.1808 21.5178 24.29 21.0824 24.3348 20.7198C24.3684 20.4426 24.3586 20.2914 24.3544 20.1976C24.3488 20.0478 24.2242 19.8924 24.0884 19.8266L23.2736 19.4612C23.2736 19.4612 22.0556 18.9306 21.3108 18.5918C21.2328 18.5578 21.1493 18.5384 21.0644 18.5344C20.9686 18.5244 20.8718 18.5351 20.7805 18.5657C20.6892 18.5964 20.6055 18.6464 20.5352 18.7122C20.5282 18.7094 20.4344 18.7892 19.4222 20.0156C19.3641 20.0937 19.2841 20.1527 19.1923 20.1851C19.1006 20.2175 19.0013 20.2218 18.907 20.1976C18.8158 20.1733 18.7264 20.1424 18.6396 20.1052C18.466 20.0324 18.4058 20.0044 18.2868 19.954C17.483 19.6039 16.739 19.1301 16.0818 18.5498C15.9054 18.3958 15.7416 18.2278 15.5736 18.0654C15.0229 17.5379 14.5429 16.9412 14.1456 16.2902L14.063 16.1572C14.0046 16.0673 13.9567 15.971 13.9202 15.8702C13.867 15.6644 14.0056 15.4992 14.0056 15.4992C14.0056 15.4992 14.3458 15.1268 14.504 14.9252C14.658 14.7292 14.7882 14.5388 14.8722 14.403C15.0374 14.137 15.0892 13.864 15.0024 13.6526C14.6104 12.695 14.2053 11.7425 13.7872 10.7952C13.7046 10.6076 13.4596 10.4732 13.237 10.4466C13.1614 10.4373 13.0858 10.4298 13.0102 10.4242C12.8222 10.4134 12.6337 10.4153 12.446 10.4298L12.7288 10.42Z" fill="black"/>
</svg>
