<?xml version="1.0" encoding="UTF-8"?>
<svg id="Layer_1" data-name="Layer 1" xmlns="http://www.w3.org/2000/svg" viewBox="0 0 18 24">
  <defs>
    <style>
      .cls-1 {
        fill: #424242;
      }
    </style>
  </defs>
  <path class="cls-1" d="M14.98,2.28C13.07.57,10.51-.24,7.93.06,3.94.52.64,3.73.09,7.71c-.42,3.01.68,6.01,2.94,8.01,1.25,1.11,1.97,2.72,1.97,4.43v.35c0,1.93,1.57,3.5,3.5,3.5h1c1.93,0,3.5-1.57,3.5-3.5v-.35c0-1.69.75-3.31,2.12-4.57,1.83-1.69,2.88-4.09,2.88-6.58s-1.1-5.01-3.01-6.72h0ZM12,20.5c0,1.38-1.12,2.5-2.5,2.5h-1c-1.38,0-2.5-1.12-2.5-2.5v-.35c0-.39-.03-.77-.1-1.15h6.2c-.07.38-.1.76-.1,1.15v.35ZM14.44,14.84c-.99.91-1.69,1.99-2.09,3.16h-2.85v-7.54c1.42-.24,2.5-1.47,2.5-2.96,0-.28-.22-.5-.5-.5s-.5.22-.5.5c0,1.1-.9,2-2,2s-2-.9-2-2c0-.28-.22-.5-.5-.5s-.5.22-.5.5c0,1.48,1.08,2.72,2.5,2.96v7.54h-2.84c-.37-1.16-1.05-2.21-1.97-3.03-2.01-1.78-2.99-4.44-2.61-7.13.49-3.53,3.42-6.38,6.97-6.79.32-.04.64-.06.96-.06,1.97,0,3.82.7,5.31,2.03,1.7,1.52,2.68,3.69,2.68,5.97s-.91,4.32-2.56,5.84h0Z"/>
</svg>