<svg width="17" height="17" viewBox="0 0 17 17" fill="none" xmlns="http://www.w3.org/2000/svg">
<path d="M8.5 10.625C9.6736 10.625 10.625 9.6736 10.625 8.5C10.625 7.32639 9.6736 6.375 8.5 6.375C7.32639 6.375 6.375 7.32639 6.375 8.5C6.375 9.6736 7.32639 10.625 8.5 10.625Z" stroke="#424242" stroke-miterlimit="10" stroke-linecap="round" stroke-linejoin="round"/>
<path d="M1.41699 9.12334V7.87667C1.41699 7.14001 2.01908 6.53084 2.76283 6.53084C4.04491 6.53084 4.56908 5.62417 3.92449 4.51209C3.55616 3.87459 3.77574 3.04584 4.42033 2.67751L5.64574 1.97626C6.20533 1.64334 6.92783 1.84167 7.26074 2.40126L7.33866 2.53584C7.97616 3.64792 9.02449 3.64792 9.66908 2.53584L9.74699 2.40126C10.0799 1.84167 10.8024 1.64334 11.362 1.97626L12.5874 2.67751C13.232 3.04584 13.4516 3.87459 13.0832 4.51209C12.4387 5.62417 12.9628 6.53084 14.2449 6.53084C14.9816 6.53084 15.5907 7.13292 15.5907 7.87667V9.12334C15.5907 9.86001 14.9887 10.4692 14.2449 10.4692C12.9628 10.4692 12.4387 11.3758 13.0832 12.4879C13.4516 13.1325 13.232 13.9542 12.5874 14.3225L11.362 15.0238C10.8024 15.3567 10.0799 15.1583 9.74699 14.5988L9.66908 14.4642C9.03158 13.3521 7.98324 13.3521 7.33866 14.4642L7.26074 14.5988C6.92783 15.1583 6.20533 15.3567 5.64574 15.0238L4.42033 14.3225C3.77574 13.9542 3.55616 13.1254 3.92449 12.4879C4.56908 11.3758 4.04491 10.4692 2.76283 10.4692C2.01908 10.4692 1.41699 9.86001 1.41699 9.12334Z" stroke="#424242" stroke-miterlimit="10" stroke-linecap="round" stroke-linejoin="round"/>
</svg>
