<svg width="21" height="21" viewBox="0 0 21 21" fill="none" xmlns="http://www.w3.org/2000/svg">
<path d="M14.6333 5.64166C16.3 6.8 17.45 8.64166 17.6833 10.7667" stroke="#940000" stroke-linecap="round" stroke-linejoin="round"/>
<path d="M3.40845 10.8083C3.62511 8.69165 4.75845 6.84999 6.40845 5.68332" stroke="#940000" stroke-linecap="round" stroke-linejoin="round"/>
<path d="M7.32495 17.95C8.29162 18.4417 9.39162 18.7167 10.55 18.7167C11.6666 18.7167 12.7166 18.4667 13.6583 18.0083" stroke="#940000" stroke-linecap="round" stroke-linejoin="round"/>
<path d="M10.5501 6.91666C11.8295 6.91666 12.8667 5.87945 12.8667 4.59999C12.8667 3.32053 11.8295 2.28333 10.5501 2.28333C9.27061 2.28333 8.2334 3.32053 8.2334 4.59999C8.2334 5.87945 9.27061 6.91666 10.5501 6.91666Z" stroke="#940000" stroke-linecap="round" stroke-linejoin="round"/>
<path d="M4.52492 17.1C5.80438 17.1 6.84159 16.0628 6.84159 14.7833C6.84159 13.5039 5.80438 12.4667 4.52492 12.4667C3.24546 12.4667 2.20825 13.5039 2.20825 14.7833C2.20825 16.0628 3.24546 17.1 4.52492 17.1Z" stroke="#940000" stroke-linecap="round" stroke-linejoin="round"/>
<path d="M16.4751 17.1C17.7546 17.1 18.7918 16.0628 18.7918 14.7833C18.7918 13.5039 17.7546 12.4667 16.4751 12.4667C15.1957 12.4667 14.1584 13.5039 14.1584 14.7833C14.1584 16.0628 15.1957 17.1 16.4751 17.1Z" stroke="#940000" stroke-linecap="round" stroke-linejoin="round"/>
</svg>
