<?xml version="1.0" encoding="UTF-8"?>
<svg id="Layer_1" data-name="Layer 1" xmlns="http://www.w3.org/2000/svg" viewBox="0 0 241.26 322">
  <defs>
    <style>
      .cls-1 {
        fill: #fff;
      }
    </style>
  </defs>
  <path class="cls-1" d="M240.07,103.48C232.66,50.13,188.38,6.97,134.76.83c-33.61-3.86-66.26,5.92-91.91,27.5C17.53,49.63,1.92,80.73.01,113.65c-.21,3.7,2.6,6.88,6.31,7.08,3.7.3,6.87-2.6,7.08-6.31,1.69-29.27,15.58-56.91,38.09-75.85,22.79-19.17,51.82-27.88,81.74-24.42,47.62,5.45,86.97,43.79,93.56,91.16,2.58,18.61.42,37.46-6.27,54.51-6.55,16.74-23.83,28-43,28h-33.77c2.29-3.94,3.61-8.53,3.61-13.42,0-14.8-12.03-26.83-26.83-26.83s-26.83,12.03-26.83,26.83,12.03,26.83,26.83,26.83h56.99c24.63,0,46.94-14.68,55.5-36.52,7.51-19.21,9.94-40.38,7.04-61.24ZM107.12,174.41c0-7.41,6.02-13.42,13.42-13.42s13.42,6.01,13.42,13.42-6.02,13.42-13.42,13.42-13.42-6.01-13.42-13.42ZM180.3,151.23c4.84-9.48,7.31-19.73,7.31-30.48,0-36.99-30.09-67.08-67.08-67.08s-67.08,30.09-67.08,67.08c0,15.55,5.45,30.71,15.33,42.69,2.36,2.86,1.96,7.08-.9,9.44-1.25,1.03-2.76,1.53-4.27,1.53-1.93,0-3.85-.83-5.18-2.44-11.86-14.37-18.41-32.56-18.41-51.22,0-44.39,36.1-80.49,80.49-80.49s80.49,36.1,80.49,80.49c0,12.89-2.95,25.21-8.77,36.6-1.7,3.3-5.78,4.59-9.03,2.92-3.3-1.69-4.61-5.74-2.92-9.03h0ZM120.54,228.07c-51.76,0-96.85,36.09-107.19,85.83-.75,3.64,1.8,8.08,6.57,8.08,3.11,0,5.9-2.17,6.56-5.34,4.7-22.62,17.63-42,35.34-55.42l17.49,26.23c6.43,9.65,22.35,9.65,28.79,0l11.99-19.33,12.88,19.33c3.21,4.82,8.6,7.7,14.39,7.7s11.19-2.88,14.39-7.7l17.48-26.23c17.71,13.42,30.64,32.8,35.35,55.42.75,3.64,4.37,6.01,7.93,5.21,3.64-.75,5.96-4.29,5.21-7.93-10.34-49.74-55.42-85.83-107.18-85.83h-.01ZM150.6,280c-1.03,1.56-2.6,1.73-3.23,1.73s-2.2-.17-3.23-1.73l-12.89-19.35c-4.78-7.15-16.62-7.16-21.41,0l-12.89,19.33c-1.05,1.56-2.6,1.73-3.23,1.73s-2.19-.17-3.23-1.73l-17.43-26.13c14.13-7.9,30.39-12.38,47.49-12.38s33.36,4.48,47.48,12.38l-17.41,26.13h0Z"/>
</svg>