<svg width="85" height="80" viewBox="0 0 85 80" fill="none" xmlns="http://www.w3.org/2000/svg">
<g clip-path="url(#clip0_2403_14682)">
<path opacity="0.5" d="M78.0185 0H6.98153C3.12574 0 0 2.7615 0 6.16798V73.832C0 77.2385 3.12574 80 6.98153 80H78.0185C81.8743 80 85 77.2385 85 73.832V6.16798C85 2.7615 81.8743 0 78.0185 0Z" fill="#EDEDED"/>
<path d="M36.1466 12.582V24.1751H23.0244L24.0908 23.233H34.7228V13.84L36.1466 12.582Z" fill="white"/>
<path d="M34.7228 13.8398V23.2329H24.0908L34.7228 13.8398Z" fill="#941303"/>
<path d="M34.7228 13.8398V23.2329H24.0908L34.7228 13.8398Z" fill="#941303"/>
<path d="M71.9185 70.0377L23.0244 69.8643V24.1751H36.1466V12.582H72.0064V41.9699L71.983 42.0035L71.9185 70.0377Z" fill="white"/>
<path fill-rule="evenodd" clip-rule="evenodd" d="M35.7658 12.5821C35.7658 12.3963 35.9363 12.2456 36.1466 12.2456H72.0064C72.2168 12.2456 72.3873 12.3963 72.3873 12.5821V70.0378C72.3873 70.1272 72.347 70.213 72.2752 70.2762C72.2034 70.3393 72.1062 70.3746 72.0049 70.3742L23.0229 70.2008C22.8131 70.2001 22.6436 70.0497 22.6436 69.8643V24.1752C22.6436 23.9894 22.8141 23.8387 23.0244 23.8387C23.2348 23.8387 23.4053 23.9894 23.4053 24.1752V69.5292L71.6256 69.6999V12.9186H36.1466C35.9363 12.9186 35.7658 12.7679 35.7658 12.5821Z" fill="black"/>
<path fill-rule="evenodd" clip-rule="evenodd" d="M36.416 12.3442C36.5647 12.4756 36.5647 12.6886 36.416 12.82L23.2937 24.4131C23.145 24.5445 22.9038 24.5445 22.7551 24.4131C22.6064 24.2817 22.6064 24.0687 22.7551 23.9373L35.8773 12.3442C36.0261 12.2128 36.2672 12.2128 36.416 12.3442Z" fill="black"/>
<path fill-rule="evenodd" clip-rule="evenodd" d="M36.1466 12.2456C36.357 12.2456 36.5275 12.3963 36.5275 12.5821V24.1752C36.5275 24.361 36.357 24.5117 36.1466 24.5117H23.0244C22.8141 24.5117 22.6436 24.361 22.6436 24.1752C22.6436 23.9894 22.8141 23.8387 23.0244 23.8387H35.7658V12.5821C35.7658 12.3963 35.9363 12.2456 36.1466 12.2456Z" fill="black"/>
<path fill-rule="evenodd" clip-rule="evenodd" d="M49.4473 40.5049C49.4473 40.3191 49.6178 40.1685 49.8281 40.1685H62.6076C62.8179 40.1685 62.9884 40.3191 62.9884 40.5049C62.9884 40.6908 62.8179 40.8414 62.6076 40.8414H49.8281C49.6178 40.8414 49.4473 40.6908 49.4473 40.5049Z" fill="black"/>
<path fill-rule="evenodd" clip-rule="evenodd" d="M31.292 40.5049C31.292 40.3191 31.4625 40.1685 31.6729 40.1685H46.424C46.6343 40.1685 46.8049 40.3191 46.8049 40.5049C46.8049 40.6908 46.6343 40.8414 46.424 40.8414H31.6729C31.4625 40.8414 31.292 40.6908 31.292 40.5049Z" fill="black"/>
<path fill-rule="evenodd" clip-rule="evenodd" d="M54.1611 45.0552C54.1611 44.8694 54.3317 44.7188 54.542 44.7188H62.6075C62.8179 44.7188 62.9884 44.8694 62.9884 45.0552C62.9884 45.2411 62.8179 45.3917 62.6075 45.3917H54.542C54.3317 45.3917 54.1611 45.2411 54.1611 45.0552Z" fill="black"/>
<path fill-rule="evenodd" clip-rule="evenodd" d="M31.292 45.0552C31.292 44.8694 31.4625 44.7188 31.6729 44.7188H52.342C52.5524 44.7188 52.7229 44.8694 52.7229 45.0552C52.7229 45.2411 52.5524 45.3917 52.342 45.3917H31.6729C31.4625 45.3917 31.292 45.2411 31.292 45.0552Z" fill="black"/>
<path fill-rule="evenodd" clip-rule="evenodd" d="M38.2207 49.608C38.2207 49.4221 38.3912 49.2715 38.6016 49.2715H62.6077C62.818 49.2715 62.9886 49.4221 62.9886 49.608C62.9886 49.7938 62.818 49.9445 62.6077 49.9445H38.6016C38.3912 49.9445 38.2207 49.7938 38.2207 49.608Z" fill="black"/>
<path fill-rule="evenodd" clip-rule="evenodd" d="M31.292 49.608C31.292 49.4221 31.4625 49.2715 31.6729 49.2715H35.9297C36.1401 49.2715 36.3106 49.4221 36.3106 49.608C36.3106 49.7938 36.1401 49.9445 35.9297 49.9445H31.6729C31.4625 49.9445 31.292 49.7938 31.292 49.608Z" fill="black"/>
<path fill-rule="evenodd" clip-rule="evenodd" d="M59.2939 54.1583C59.2939 53.9724 59.4645 53.8218 59.6748 53.8218H62.6075C62.8178 53.8218 62.9883 53.9724 62.9883 54.1583C62.9883 54.3441 62.8178 54.4947 62.6075 54.4947H59.6748C59.4645 54.4947 59.2939 54.3441 59.2939 54.1583Z" fill="black"/>
<path fill-rule="evenodd" clip-rule="evenodd" d="M31.292 54.1583C31.292 53.9724 31.4625 53.8218 31.6729 53.8218H56.804C57.0143 53.8218 57.1849 53.9724 57.1849 54.1583C57.1849 54.3441 57.0143 54.4947 56.804 54.4947H31.6729C31.4625 54.4947 31.292 54.3441 31.292 54.1583Z" fill="black"/>
<path fill-rule="evenodd" clip-rule="evenodd" d="M41.3877 58.8096C41.3877 58.6238 41.5582 58.4731 41.7686 58.4731H62.6077C62.818 58.4731 62.9885 58.6238 62.9885 58.8096C62.9885 58.9955 62.818 59.1461 62.6077 59.1461H41.7686C41.5582 59.1461 41.3877 58.9955 41.3877 58.8096Z" fill="black"/>
<path fill-rule="evenodd" clip-rule="evenodd" d="M31.292 58.8096C31.292 58.6238 31.4625 58.4731 31.6729 58.4731H38.0977C38.3081 58.4731 38.4786 58.6238 38.4786 58.8096C38.4786 58.9955 38.3081 59.1461 38.0977 59.1461H31.6729C31.4625 59.1461 31.292 58.9955 31.292 58.8096Z" fill="black"/>
<path fill-rule="evenodd" clip-rule="evenodd" d="M50.9121 63.3624C50.9121 63.1765 51.0826 63.0259 51.293 63.0259H62.6076C62.8179 63.0259 62.9884 63.1765 62.9884 63.3624C62.9884 63.5482 62.8179 63.6988 62.6076 63.6988H51.293C51.0826 63.6988 50.9121 63.5482 50.9121 63.3624Z" fill="black"/>
<path fill-rule="evenodd" clip-rule="evenodd" d="M31.292 63.3624C31.292 63.1765 31.4625 63.0259 31.6729 63.0259H48.6242C48.8346 63.0259 49.0051 63.1765 49.0051 63.3624C49.0051 63.5482 48.8346 63.6988 48.6242 63.6988H31.6729C31.4625 63.6988 31.292 63.5482 31.292 63.3624Z" fill="black"/>
<path d="M15.2871 21.2399C14.417 21.2399 13.7109 21.8637 13.7109 22.6324V33.8657H19.9923V22.6324C19.9923 21.8637 19.2862 21.2399 18.4161 21.2373H15.2901L15.2871 21.2399Z" fill="white"/>
<path d="M19.9923 33.8682H13.7109V61.2112H19.9923V33.8682Z" fill="white"/>
<path d="M13.7109 61.2114L15.9405 65.1534H16.8252H17.7598L19.9893 61.2114H13.7109Z" fill="white"/>
<path fill-rule="evenodd" clip-rule="evenodd" d="M13.3301 22.6349C13.3301 21.6782 14.2062 20.9033 15.2871 20.9033H18.4144C19.4936 20.9065 20.3702 21.6801 20.3702 22.6349V61.2113C20.3702 61.3972 20.1997 61.5478 19.9893 61.5478C19.779 61.5478 19.6085 61.3972 19.6085 61.2113V22.6349C19.6085 22.0524 19.0732 21.5785 18.4125 21.5763H15.2871C14.6278 21.5763 14.0918 22.049 14.0918 22.6349V61.2113C14.0918 61.3972 13.9213 61.5478 13.7109 61.5478C13.5006 61.5478 13.3301 61.3972 13.3301 61.2113V22.6349Z" fill="black"/>
<path fill-rule="evenodd" clip-rule="evenodd" d="M13.387 61.0345C13.4564 60.9354 13.579 60.875 13.7109 60.875H19.9893C20.1213 60.875 20.2439 60.9354 20.3133 61.0345C20.3827 61.1337 20.389 61.2576 20.33 61.3619L18.1005 65.3039C18.036 65.4179 17.9041 65.49 17.7598 65.49H15.9405C15.7962 65.49 15.6643 65.4179 15.5998 65.3039L13.3702 61.3619C13.3112 61.2576 13.3176 61.1337 13.387 61.0345ZM14.327 61.548L16.1759 64.817H17.5244L19.3733 61.548H14.327Z" fill="black"/>
<path fill-rule="evenodd" clip-rule="evenodd" d="M13.3301 33.8682C13.3301 33.6824 13.5006 33.5317 13.7109 33.5317H19.9893C20.1997 33.5317 20.3702 33.6824 20.3702 33.8682C20.3702 34.0541 20.1997 34.2047 19.9893 34.2047H13.7109C13.5006 34.2047 13.3301 34.0541 13.3301 33.8682Z" fill="black"/>
<path fill-rule="evenodd" clip-rule="evenodd" d="M14.0889 23.2092C14.0891 23.3951 13.9187 23.5458 13.7084 23.546L10.7783 23.5483V37.0053C10.7783 37.1911 10.6078 37.3418 10.3975 37.3418C10.1871 37.3418 10.0166 37.1911 10.0166 37.0053V23.2121C10.0166 23.0264 10.1869 22.8758 10.3971 22.8756L13.7077 22.873C13.9181 22.8729 14.0887 23.0234 14.0889 23.2092Z" fill="black"/>
<path fill-rule="evenodd" clip-rule="evenodd" d="M16.8249 64.8169C17.0352 64.8167 17.2059 64.9672 17.2061 65.1531L17.209 68.109C17.2092 68.2948 17.0388 68.4456 16.8285 68.4457C16.6181 68.4459 16.4474 68.2954 16.4473 68.1095L16.4443 65.1537C16.4442 64.9678 16.6145 64.8171 16.8249 64.8169Z" fill="black"/>
<path opacity="0.5" d="M61.6446 31.4665C60.5606 32.0385 59.21 32.0385 58.1319 31.4665C57.5986 31.187 57.1709 30.7884 56.8838 30.3251C56.585 29.8488 56.4326 29.3001 56.459 28.7358H63.3145C63.3673 29.8488 62.7257 30.8971 61.6446 31.4665Z" fill="white"/>
<path opacity="0.5" d="M48.2676 31.4669C47.1866 32.0389 45.836 32.0389 44.7549 31.4669C44.2246 31.1873 43.7998 30.7913 43.5098 30.3306C43.6299 30.4134 43.7559 30.4911 43.8906 30.5635C44.9746 31.133 46.3252 31.133 47.4034 30.5635C48.1827 30.1546 48.7364 29.492 48.962 28.7388H49.9376C49.9903 29.8518 49.3487 30.9 48.2647 31.4695L48.2676 31.4669Z" fill="white"/>
<path d="M48.9616 28.736C48.7331 29.4918 48.1823 30.1518 47.403 30.5608C46.3219 31.1302 44.9713 31.1302 43.8902 30.5608C43.7555 30.4909 43.6295 30.4106 43.5094 30.3278C43.2105 29.849 43.0553 29.3002 43.0846 28.7334H48.9645L48.9616 28.736Z" fill="white"/>
<path d="M62.3389 28.7358C62.1133 29.4916 61.5626 30.1517 60.7803 30.5606C59.6963 31.13 58.3457 31.13 57.2676 30.5606C57.1299 30.4907 57.001 30.4079 56.8809 30.3251C56.582 29.8488 56.4297 29.3001 56.4561 28.7358H62.336H62.3389Z" fill="#941303"/>
<path d="M48.9616 28.736C48.7331 29.4918 48.1823 30.1518 47.403 30.5608C46.3219 31.1302 44.9713 31.1302 43.8902 30.5608C43.7555 30.4909 43.6295 30.4106 43.5094 30.3278C43.2105 29.849 43.0553 29.3002 43.0846 28.7334H48.9645L48.9616 28.736Z" fill="#941303"/>
<path fill-rule="evenodd" clip-rule="evenodd" d="M53.1416 17.8623C53.352 17.8623 53.5225 18.013 53.5225 18.1988V34.5881C53.5225 34.7739 53.352 34.9246 53.1416 34.9246C52.9313 34.9246 52.7607 34.7739 52.7607 34.5881V18.1988C52.7607 18.013 52.9313 17.8623 53.1416 17.8623Z" fill="black"/>
<path fill-rule="evenodd" clip-rule="evenodd" d="M48.2637 34.6168C48.2637 34.4309 48.4342 34.2803 48.6445 34.2803H57.6095C57.8198 34.2803 57.9903 34.4309 57.9903 34.6168C57.9903 34.8026 57.8198 34.9532 57.6095 34.9532H48.6445C48.4342 34.9532 48.2637 34.8026 48.2637 34.6168Z" fill="black"/>
<path fill-rule="evenodd" clip-rule="evenodd" d="M46.6799 21.9625C46.8275 21.9649 46.9602 22.0424 47.0205 22.1613L50.2842 28.5985C50.337 28.7026 50.3265 28.8233 50.2563 28.919C50.1861 29.0147 50.0657 29.0725 49.9366 29.0725H43.0811C42.9494 29.0725 42.8272 29.0125 42.7576 28.9138C42.6881 28.815 42.6813 28.6916 42.7394 28.5873L46.3313 22.1501C46.3965 22.0332 46.5324 21.9601 46.6799 21.9625ZM43.6934 28.3996H49.3487L46.6564 23.0895L43.6934 28.3996Z" fill="black"/>
<path fill-rule="evenodd" clip-rule="evenodd" d="M43.0971 28.3997C43.3072 28.4075 43.4705 28.5643 43.4617 28.75C43.4148 29.7396 43.9852 30.6714 44.946 31.1775C45.9103 31.684 47.111 31.6834 48.0684 31.1778L48.0692 31.1774C49.0327 30.6712 49.6031 29.7395 49.5562 28.75C49.5474 28.5643 49.7106 28.4075 49.9208 28.3997C50.1309 28.3919 50.3084 28.5362 50.3172 28.7218C50.3758 29.9581 49.6632 31.1228 48.4589 31.7556C47.2602 32.3886 45.76 32.388 44.5564 31.7558L44.556 31.7556C43.3547 31.1228 42.642 29.9582 42.7006 28.7218C42.7094 28.5362 42.8869 28.3919 43.0971 28.3997Z" fill="black"/>
<path fill-rule="evenodd" clip-rule="evenodd" d="M60.0539 21.9625C60.2015 21.9649 60.3342 22.0424 60.3945 22.1613L63.6582 28.5985C63.711 28.7026 63.7005 28.8233 63.6303 28.919C63.5601 29.0147 63.4398 29.0725 63.3106 29.0725H56.4551C56.3235 29.0725 56.2012 29.0125 56.1317 28.9138C56.0622 28.815 56.0553 28.6916 56.1135 28.5873L59.7053 22.1501C59.7706 22.0332 59.9064 21.9601 60.0539 21.9625ZM57.0675 28.3996H62.7227L60.0304 23.0895L57.0675 28.3996Z" fill="black"/>
<path fill-rule="evenodd" clip-rule="evenodd" d="M56.4711 28.3997C56.6813 28.4075 56.8445 28.5643 56.8357 28.75C56.7888 29.7395 57.3592 30.6712 58.3227 31.1774L58.3231 31.1776C59.284 31.6837 60.4848 31.6837 61.4457 31.1776C62.4066 30.6715 62.9771 29.7396 62.9302 28.75C62.9214 28.5643 63.0846 28.4075 63.2948 28.3997C63.505 28.3919 63.6825 28.5362 63.6913 28.7218C63.7498 29.9582 63.0371 31.1228 61.8358 31.7556C60.6347 32.3883 59.1344 32.3883 57.9332 31.7557C56.7288 31.1229 56.0161 29.9582 56.0746 28.7218C56.0834 28.5362 56.2609 28.3919 56.4711 28.3997Z" fill="black"/>
<path fill-rule="evenodd" clip-rule="evenodd" d="M52.6787 20.6965C52.6787 20.5107 52.8492 20.3601 53.0596 20.3601H53.1445C53.1527 20.3601 53.0851 20.2759 53.0932 20.2764C55.1488 20.2764 56.1773 20.8538 56.9792 21.2146C57.0818 21.2608 57.1788 21.3056 57.272 21.3487C57.8935 21.6357 58.2238 21.8594 59.0331 21.8716M52.6787 20.6965C52.6787 20.8824 52.8492 21.033 53.0596 21.033ZM53.0596 21.033H53.0599ZM53.0599 21.033H53.0603ZM53.0603 21.033H53.0606ZM53.0606 21.033H53.0609ZM53.0609 21.033H53.0613ZM53.0613 21.033H53.0616ZM53.0616 21.033H53.062ZM53.062 21.033H53.0623ZM53.0623 21.033H53.0627ZM53.0627 21.033H53.063ZM53.063 21.033H53.0634ZM53.0634 21.033H53.0637ZM53.0637 21.033H53.064ZM53.064 21.033H53.0644ZM53.0644 21.033H53.0647ZM53.0647 21.033H53.0651ZM53.0651 21.033H53.0654ZM53.0654 21.033H53.0658ZM53.0658 21.033H53.0661ZM53.0661 21.033H53.0664ZM53.0664 21.033H53.0668ZM53.0668 21.033H53.0671ZM53.0671 21.033H53.0675ZM53.0675 21.033H53.0678ZM53.0678 21.033H53.0682ZM53.0682 21.033H53.0685ZM53.0685 21.033H53.0688ZM53.0688 21.033H53.0692ZM53.0692 21.033H53.0695ZM53.0695 21.033H53.0699ZM53.0699 21.033H53.0702ZM53.0702 21.033H53.0706ZM53.0706 21.033H53.0709ZM53.0709 21.033H53.0712ZM53.0712 21.033H53.0716ZM53.0716 21.033H53.0719ZM53.0719 21.033H53.0723ZM53.0723 21.033H53.0726ZM53.0726 21.033H53.073ZM53.073 21.033H53.0733ZM53.0733 21.033H53.0737ZM53.0737 21.033H53.074ZM53.074 21.033H53.0743ZM53.0743 21.033H53.0747ZM53.0747 21.033H53.075ZM53.075 21.033H53.0754ZM53.0754 21.033H53.0757ZM53.0757 21.033H53.0761ZM53.0761 21.033H53.0764ZM53.0764 21.033H53.0767ZM53.0767 21.033H53.0771ZM53.0771 21.033H53.0774ZM53.0774 21.033H53.0778ZM53.0778 21.033H53.0781ZM53.0781 21.033H53.0785ZM53.0785 21.033H53.0788ZM53.0788 21.033H53.0791ZM53.0791 21.033H53.0795ZM53.0795 21.033H53.0798ZM53.0798 21.033H53.0802ZM53.0802 21.033H53.0805ZM53.0805 21.033H53.0809ZM53.0809 21.033H53.0812ZM53.0812 21.033H53.0815ZM53.0815 21.033H53.0819ZM53.0819 21.033H53.0822ZM53.0822 21.033H53.0826ZM53.0826 21.033H53.0829ZM53.0829 21.033H53.0833ZM53.0833 21.033H53.0836ZM53.0836 21.033H53.0839ZM53.0839 21.033H53.0843ZM53.0843 21.033H53.0846ZM53.0846 21.033H53.085ZM53.085 21.033H53.0853ZM53.0853 21.033H53.0857ZM53.0857 21.033H53.086ZM53.086 21.033H53.0864ZM53.0864 21.033H53.0867ZM53.0867 21.033H53.087ZM53.087 21.033H53.0874ZM53.0874 21.033H53.0877ZM53.0877 21.033H53.0881ZM53.0881 21.033H53.0884ZM53.0884 21.033H53.0888ZM53.0888 21.033H53.0891ZM53.0891 21.033H53.0894ZM53.0894 21.033H53.0898ZM53.0898 21.033H53.0901ZM53.0901 21.033H53.0905ZM53.0905 21.033H53.0908ZM53.0908 21.033H53.0912ZM53.0912 21.033H53.0915ZM53.0915 21.033H53.0918ZM53.0918 21.033H53.0922ZM53.0922 21.033H53.0925ZM53.0925 21.033H53.0929ZM53.0929 21.033H53.0932ZM53.0932 21.033H53.0936ZM53.0936 21.033H53.0939ZM53.0939 21.033H53.0942ZM53.0942 21.033H53.0946ZM53.0946 21.033H53.0949ZM53.0949 21.033H53.0953ZM53.0953 21.033H53.0956ZM53.0956 21.033H53.096ZM53.096 21.033H53.0963ZM53.0963 21.033H53.0967ZM53.0967 21.033H53.097ZM53.097 21.033H53.0973ZM53.0973 21.033H53.0977ZM53.0977 21.033H53.098ZM53.098 21.033H53.0984ZM53.0984 21.033H53.0987ZM53.0987 21.033H53.0991ZM53.0991 21.033H53.0994ZM53.0994 21.033H53.0997ZM53.0997 21.033H53.1001ZM53.1001 21.033H53.1004ZM53.1004 21.033H53.1008ZM53.1008 21.033H53.1011ZM53.1011 21.033H53.1015ZM53.1015 21.033H53.1018ZM53.1018 21.033H53.1021ZM53.1021 21.033H53.1025ZM53.1025 21.033H53.1028ZM53.1028 21.033H53.1032ZM53.1032 21.033H53.1035ZM53.1035 21.033H53.1039ZM53.1039 21.033H53.1042ZM53.1042 21.033H53.1045ZM53.1045 21.033H53.1049ZM53.1049 21.033H53.1052ZM53.1052 21.033H53.1056ZM53.1056 21.033H53.1059ZM53.1059 21.033H53.1062ZM53.1062 21.033H53.1066ZM53.1066 21.033H53.1069ZM53.1069 21.033H53.1072ZM53.1072 21.033H53.1076ZM53.1076 21.033H53.1079ZM53.1079 21.033H53.1082ZM53.1082 21.033H53.1086ZM53.1086 21.033H53.1089ZM53.1089 21.033H53.1092ZM53.1092 21.033H53.1095ZM53.1095 21.033H53.1099ZM53.1099 21.033H53.1102ZM53.1102 21.033H53.1105ZM53.1105 21.033H53.1108ZM53.1108 21.033H53.1112ZM53.1112 21.033H53.1115ZM53.1115 21.033H53.1118ZM53.1118 21.033H53.1121ZM53.1121 21.033H53.1125ZM53.1125 21.033H53.1128ZM53.1128 21.033H53.1131ZM53.1131 21.033H53.1134ZM53.1134 21.033H53.1137ZM53.1137 21.033H53.114ZM53.114 21.033H53.1144ZM53.1144 21.033H53.1147ZM53.1147 21.033H53.115ZM53.115 21.033H53.1153ZM53.1153 21.033H53.1156ZM53.1156 21.033H53.1159ZM53.1159 21.033H53.1163ZM53.1163 21.033H53.1166ZM53.1166 21.033H53.1169ZM53.1169 21.033H53.1172ZM53.1172 21.033H53.1175ZM53.1175 21.033H53.1178ZM53.1178 21.033H53.1181ZM53.1181 21.033H53.1184ZM53.1184 21.033H53.1188ZM53.1188 21.033H53.1191ZM53.1191 21.033H53.1194ZM53.1194 21.033H53.1197ZM53.1197 21.033H53.12ZM53.12 21.033H53.1203ZM53.1203 21.033H53.1206ZM53.1206 21.033H53.1209ZM53.1209 21.033H53.1212ZM53.1212 21.033H53.1216ZM53.1216 21.033H53.1219ZM53.1219 21.033H53.1222ZM53.1222 21.033H53.1225ZM53.1225 21.033H53.1228ZM53.1228 21.033H53.1231ZM53.1231 21.033H53.1234ZM53.1234 21.033H53.1237ZM53.1237 21.033H53.124ZM53.124 21.033H53.1243ZM53.1243 21.033H53.1246ZM53.1246 21.033H53.125ZM53.125 21.033H53.1253ZM53.1253 21.033H53.1256ZM53.1256 21.033H53.1259ZM53.1259 21.033H53.1262ZM53.1262 21.033H53.1265ZM53.1265 21.033H53.1268ZM53.1268 21.033H53.1271ZM53.1271 21.033H53.1274ZM53.1274 21.033H53.1277ZM53.1277 21.033H53.128ZM53.128 21.033H53.1284ZM53.1284 21.033H53.1287ZM53.1287 21.033H53.129ZM53.129 21.033H53.1293ZM53.1293 21.033H53.1296ZM53.1296 21.033H53.1299ZM53.1299 21.033H53.1302ZM53.1302 21.033H53.1305ZM53.1305 21.033H53.1309ZM53.1309 21.033H53.1312ZM53.1312 21.033H53.1315ZM53.1315 21.033H53.1318ZM53.1318 21.033L53.0596 20.7647ZM53.0596 20.7647C54.9106 20.871 55.9127 21.49 56.6335 21.8143C56.7267 21.8563 56.8183 21.8988 56.9093 21.9411C57.5375 22.233 58.1424 22.5141 59.1411 22.529C60.2049 22.5443 61.0709 22.2936 61.6704 22.0394C61.9703 21.9122 62.205 21.7836 62.3665 21.6854C62.4473 21.6362 62.5101 21.5946 62.5537 21.5643C62.5756 21.5492 62.5927 21.5369 62.6049 21.5279C62.611 21.5234 62.6159 21.5197 62.6196 21.517L62.6242 21.5135L62.6258 21.5123L62.6264 21.5118L62.6267 21.5116C62.6267 21.5116 62.6269 21.5114 62.3761 21.2582L62.6269 21.5114C62.7852 21.389 62.8012 21.1764 62.6627 21.0366C62.5242 20.8968 62.2837 20.8826 62.1255 21.0049L62.1259 21.0045C62.1259 21.0045 62.1259 21.0045 62.1255 21.0049L62.1183 21.0101C62.1113 21.0153 62.0998 21.0236 62.0837 21.0347C62.0515 21.057 62.0015 21.0904 61.9346 21.131C61.8007 21.2125 61.6001 21.3228 61.3408 21.4327C60.8218 21.6528 59.9527 21.8848 59.0331 21.8716" fill="black"/>
<path fill-rule="evenodd" clip-rule="evenodd" d="M53.1445 20.7848C53.1445 20.5989 52.974 20.4483 52.7637 20.4483H52.6787C52.6706 20.4483 53.0353 20.3185 53.0272 20.319C51.3237 20.0595 49.646 20.942 48.8441 21.3029C48.7414 21.349 48.6444 21.3939 48.5512 21.4369C47.9298 21.7239 47.5994 21.9477 46.7901 21.9598M53.1445 20.7848C53.1445 20.9706 52.974 21.1213 52.7637 21.1213ZM52.7637 21.1213H52.7633ZM52.7633 21.1213H52.763ZM52.763 21.1213H52.7626ZM52.7626 21.1213H52.7623ZM52.7623 21.1213H52.762ZM52.762 21.1213H52.7616ZM52.7616 21.1213H52.7613ZM52.7613 21.1213H52.7609ZM52.7609 21.1213H52.7606ZM52.7606 21.1213H52.7602ZM52.7602 21.1213H52.7599ZM52.7599 21.1213H52.7595ZM52.7595 21.1213H52.7592ZM52.7592 21.1213H52.7589ZM52.7589 21.1213H52.7585ZM52.7585 21.1213H52.7582ZM52.7582 21.1213H52.7578ZM52.7578 21.1213H52.7575ZM52.7575 21.1213H52.7571ZM52.7571 21.1213H52.7568ZM52.7568 21.1213H52.7565ZM52.7565 21.1213H52.7561ZM52.7561 21.1213H52.7558ZM52.7558 21.1213H52.7554ZM52.7554 21.1213H52.7551ZM52.7551 21.1213H52.7547ZM52.7547 21.1213H52.7544ZM52.7544 21.1213H52.7541ZM52.7541 21.1213H52.7537ZM52.7537 21.1213H52.7534ZM52.7534 21.1213H52.753ZM52.753 21.1213H52.7527ZM52.7527 21.1213H52.7523ZM52.7523 21.1213H52.752ZM52.752 21.1213H52.7517ZM52.7517 21.1213H52.7513ZM52.7513 21.1213H52.751ZM52.751 21.1213H52.7506ZM52.7506 21.1213H52.7503ZM52.7503 21.1213H52.7499ZM52.7499 21.1213H52.7496ZM52.7496 21.1213H52.7492ZM52.7492 21.1213H52.7489ZM52.7489 21.1213H52.7486ZM52.7486 21.1213H52.7482ZM52.7482 21.1213H52.7479ZM52.7479 21.1213H52.7475ZM52.7475 21.1213H52.7472ZM52.7472 21.1213H52.7468ZM52.7468 21.1213H52.7465ZM52.7465 21.1213H52.7462ZM52.7462 21.1213H52.7458ZM52.7458 21.1213H52.7455ZM52.7455 21.1213H52.7451ZM52.7451 21.1213H52.7448ZM52.7448 21.1213H52.7444ZM52.7444 21.1213H52.7441ZM52.7441 21.1213H52.7438ZM52.7438 21.1213H52.7434ZM52.7434 21.1213H52.7431ZM52.7431 21.1213H52.7427ZM52.7427 21.1213H52.7424ZM52.7424 21.1213H52.742ZM52.742 21.1213H52.7417ZM52.7417 21.1213H52.7414ZM52.7414 21.1213H52.741ZM52.741 21.1213H52.7407ZM52.7407 21.1213H52.7403ZM52.7403 21.1213H52.74ZM52.74 21.1213H52.7396ZM52.7396 21.1213H52.7393ZM52.7393 21.1213H52.7389ZM52.7389 21.1213H52.7386ZM52.7386 21.1213H52.7383ZM52.7383 21.1213H52.7379ZM52.7379 21.1213H52.7376ZM52.7376 21.1213H52.7372ZM52.7372 21.1213H52.7369ZM52.7369 21.1213H52.7365ZM52.7365 21.1213H52.7362ZM52.7362 21.1213H52.7359ZM52.7359 21.1213H52.7355ZM52.7355 21.1213H52.7352ZM52.7352 21.1213H52.7348ZM52.7348 21.1213H52.7345ZM52.7345 21.1213H52.7341ZM52.7341 21.1213H52.7338ZM52.7338 21.1213H52.7335ZM52.7335 21.1213H52.7331ZM52.7331 21.1213H52.7328ZM52.7328 21.1213H52.7324ZM52.7324 21.1213H52.7321ZM52.7321 21.1213H52.7317ZM52.7317 21.1213H52.7314ZM52.7314 21.1213H52.7311ZM52.7311 21.1213H52.7307ZM52.7307 21.1213H52.7304ZM52.7304 21.1213H52.73ZM52.73 21.1213H52.7297ZM52.7297 21.1213H52.7293ZM52.7293 21.1213H52.729ZM52.729 21.1213H52.7286ZM52.7286 21.1213H52.7283ZM52.7283 21.1213H52.728ZM52.728 21.1213H52.7276ZM52.7276 21.1213H52.7273ZM52.7273 21.1213H52.7269ZM52.7269 21.1213H52.7266ZM52.7266 21.1213H52.7262ZM52.7262 21.1213H52.7259ZM52.7259 21.1213H52.7256ZM52.7256 21.1213H52.7252ZM52.7252 21.1213H52.7249ZM52.7249 21.1213H52.7245ZM52.7245 21.1213H52.7242ZM52.7242 21.1213H52.7238ZM52.7238 21.1213H52.7235ZM52.7235 21.1213H52.7232ZM52.7232 21.1213H52.7228ZM52.7228 21.1213H52.7225ZM52.7225 21.1213H52.7221ZM52.7221 21.1213H52.7218ZM52.7218 21.1213H52.7214ZM52.7214 21.1213H52.7211ZM52.7211 21.1213H52.7208ZM52.7208 21.1213H52.7204ZM52.7204 21.1213H52.7201ZM52.7201 21.1213H52.7197ZM52.7197 21.1213H52.7194ZM52.7194 21.1213H52.719ZM52.719 21.1213H52.7187ZM52.7187 21.1213H52.7184ZM52.7184 21.1213H52.718ZM52.718 21.1213H52.7177ZM52.7177 21.1213H52.7173ZM52.7173 21.1213H52.717ZM52.717 21.1213H52.7167ZM52.7167 21.1213H52.7163ZM52.7163 21.1213H52.716ZM52.716 21.1213H52.7157ZM52.7157 21.1213H52.7153ZM52.7153 21.1213H52.715ZM52.715 21.1213H52.7147ZM52.7147 21.1213H52.7144ZM52.7144 21.1213H52.714ZM52.714 21.1213H52.7137ZM52.7137 21.1213H52.7134ZM52.7134 21.1213H52.713ZM52.713 21.1213H52.7127ZM52.7127 21.1213H52.7124ZM52.7124 21.1213H52.7121ZM52.7121 21.1213H52.7118ZM52.7118 21.1213H52.7114ZM52.7114 21.1213H52.7111ZM52.7111 21.1213H52.7108ZM52.7108 21.1213H52.7105ZM52.7105 21.1213H52.7102ZM52.7102 21.1213H52.7098ZM52.7098 21.1213H52.7095ZM52.7095 21.1213H52.7092ZM52.7092 21.1213H52.7089ZM52.7089 21.1213H52.7086ZM52.7086 21.1213H52.7082ZM52.7082 21.1213H52.7079ZM52.7079 21.1213H52.7076ZM52.7076 21.1213H52.7073ZM52.7073 21.1213H52.707ZM52.707 21.1213H52.7067ZM52.7067 21.1213H52.7064ZM52.7064 21.1213H52.706ZM52.706 21.1213H52.7057ZM52.7057 21.1213H52.7054ZM52.7054 21.1213H52.7051ZM52.7051 21.1213H52.7048ZM52.7048 21.1213H52.7045ZM52.7045 21.1213H52.7042ZM52.7042 21.1213H52.7039ZM52.7039 21.1213H52.7035ZM52.7035 21.1213H52.7032ZM52.7032 21.1213H52.7029ZM52.7029 21.1213H52.7026ZM52.7026 21.1213H52.7023ZM52.7023 21.1213H52.702ZM52.702 21.1213H52.7017ZM52.7017 21.1213H52.7014ZM52.7014 21.1213H52.7011ZM52.7011 21.1213H52.7008ZM52.7008 21.1213H52.7005ZM52.7005 21.1213H52.7001ZM52.7001 21.1213H52.6998ZM52.6998 21.1213H52.6995ZM52.6995 21.1213H52.6992ZM52.6992 21.1213H52.6989ZM52.6989 21.1213H52.6986ZM52.6986 21.1213H52.6983ZM52.6983 21.1213H52.698ZM52.698 21.1213H52.6977ZM52.6977 21.1213H52.6974ZM52.6974 21.1213H52.6971ZM52.6971 21.1213H52.6967ZM52.6967 21.1213H52.6964ZM52.6964 21.1213H52.6961ZM52.6961 21.1213H52.6958ZM52.6958 21.1213H52.6955ZM52.6955 21.1213H52.6952ZM52.6952 21.1213H52.6949ZM52.6949 21.1213H52.6946ZM52.6946 21.1213H52.6943ZM52.6943 21.1213H52.6939ZM52.6939 21.1213H52.6936ZM52.6936 21.1213H52.6933ZM52.6933 21.1213H52.693ZM52.693 21.1213H52.6927ZM52.6927 21.1213H52.6924ZM52.6924 21.1213H52.6921ZM52.6921 21.1213H52.6918ZM52.6918 21.1213H52.6914ZM52.6914 21.1213L52.7637 20.853ZM52.7637 20.853C50.9127 20.9592 49.9105 21.5782 49.1898 21.9025C49.0965 21.9445 49.005 21.987 48.9139 22.0293C48.2857 22.3212 47.6808 22.6023 46.6822 22.6173C45.6184 22.6325 44.7523 22.3819 44.1528 22.1277C43.8529 22.0005 43.6183 21.8718 43.4568 21.7736C43.3759 21.7245 43.3132 21.6828 43.2695 21.6525C43.2477 21.6374 43.2306 21.6251 43.2183 21.6161C43.2122 21.6116 43.2073 21.608 43.2036 21.6052L43.199 21.6017L43.1974 21.6005L43.1968 21.6L43.1965 21.5998C43.1965 21.5998 43.1963 21.5996 43.4472 21.3464L43.1963 21.5996C43.038 21.4772 43.022 21.2647 43.1606 21.1248C43.299 20.9851 43.5395 20.9709 43.6978 21.0931L43.6973 21.0927C43.6973 21.0927 43.6973 21.0927 43.6978 21.0931L43.7049 21.0984C43.7119 21.1035 43.7235 21.1119 43.7396 21.123C43.7717 21.1453 43.8217 21.1786 43.8886 21.2193C44.0226 21.3007 44.2231 21.411 44.4825 21.521C45.0014 21.741 45.8705 21.973 46.7901 21.9598" fill="black"/>
<path d="M53.1416 19.2756C53.8147 19.2756 54.3604 18.7935 54.3604 18.1988C54.3604 17.6041 53.8147 17.1221 53.1416 17.1221C52.4685 17.1221 51.9229 17.6041 51.9229 18.1988C51.9229 18.7935 52.4685 19.2756 53.1416 19.2756Z" fill="white"/>
<path fill-rule="evenodd" clip-rule="evenodd" d="M53.1416 17.4586C52.6789 17.4586 52.3037 17.79 52.3037 18.1989C52.3037 18.6077 52.6789 18.9391 53.1416 18.9391C53.6044 18.9391 53.9795 18.6077 53.9795 18.1989C53.9795 17.79 53.6044 17.4586 53.1416 17.4586ZM51.542 18.1989C51.542 17.4184 52.2582 16.7856 53.1416 16.7856C54.0251 16.7856 54.7413 17.4184 54.7413 18.1989C54.7413 18.9794 54.0251 19.6121 53.1416 19.6121C52.2582 19.6121 51.542 18.9794 51.542 18.1989Z" fill="black"/>
<path fill-rule="evenodd" clip-rule="evenodd" d="M80.1455 35.0688C80.3559 35.0688 80.5264 35.2195 80.5264 35.4053V38.2033C80.5264 38.3892 80.3559 38.5398 80.1455 38.5398C79.9352 38.5398 79.7646 38.3892 79.7646 38.2033V35.4053C79.7646 35.2195 79.9352 35.0688 80.1455 35.0688Z" fill="black"/>
<path fill-rule="evenodd" clip-rule="evenodd" d="M78.1826 36.8057C78.1826 36.6199 78.3531 36.4692 78.5635 36.4692H81.7305C81.9409 36.4692 82.1114 36.6199 82.1114 36.8057C82.1114 36.9916 81.9409 37.1422 81.7305 37.1422H78.5635C78.3531 37.1422 78.1826 36.9916 78.1826 36.8057Z" fill="black"/>
<path fill-rule="evenodd" clip-rule="evenodd" d="M7.65235 55.6177C7.86269 55.6177 8.03321 55.7683 8.03321 55.9542V58.7521C8.03321 58.938 7.86269 59.0886 7.65235 59.0886C7.442 59.0886 7.27148 58.938 7.27148 58.7521V55.9542C7.27148 55.7683 7.442 55.6177 7.65235 55.6177Z" fill="black"/>
<path fill-rule="evenodd" clip-rule="evenodd" d="M5.68652 57.3545C5.68652 57.1687 5.85704 57.0181 6.06739 57.0181H9.23735C9.44769 57.0181 9.61821 57.1687 9.61821 57.3545C9.61821 57.5404 9.44769 57.691 9.23735 57.691H6.06739C5.85704 57.691 5.68652 57.5404 5.68652 57.3545Z" fill="black"/>
<path fill-rule="evenodd" clip-rule="evenodd" d="M21.7647 9.96484C21.975 9.96484 22.1455 10.1155 22.1455 10.3013V13.8137C22.1455 13.9995 21.975 14.1502 21.7647 14.1502C21.5543 14.1502 21.3838 13.9995 21.3838 13.8137V10.3013C21.3838 10.1155 21.5543 9.96484 21.7647 9.96484Z" fill="black"/>
<path fill-rule="evenodd" clip-rule="evenodd" d="M19.3975 12.0562C19.3975 11.8704 19.568 11.7197 19.7783 11.7197H23.754C23.9643 11.7197 24.1348 11.8704 24.1348 12.0562C24.1348 12.242 23.9643 12.3927 23.754 12.3927H19.7783C19.568 12.3927 19.3975 12.242 19.3975 12.0562Z" fill="black"/>
<path fill-rule="evenodd" clip-rule="evenodd" d="M74.9805 31.9683C75.1908 31.9683 75.3613 32.1189 75.3613 32.3047V34.7352C75.3613 34.921 75.1908 35.0717 74.9805 35.0717C74.7701 35.0717 74.5996 34.921 74.5996 34.7352V32.3047C74.5996 32.1189 74.7701 31.9683 74.9805 31.9683Z" fill="black"/>
<path fill-rule="evenodd" clip-rule="evenodd" d="M74.9805 18.0664C75.1908 18.0664 75.3613 18.2171 75.3613 18.4029V30.185C75.3613 30.3708 75.1908 30.5214 74.9805 30.5214C74.7701 30.5214 74.5996 30.3708 74.5996 30.185V18.4029C74.5996 18.2171 74.7701 18.0664 74.9805 18.0664Z" fill="black"/>
</g>
<defs>
<clipPath id="clip0_2403_14682">
<rect width="85" height="80" fill="white"/>
</clipPath>
</defs>
</svg>
