<svg width="85" height="80" viewBox="0 0 85 80" fill="none" xmlns="http://www.w3.org/2000/svg">
<g clip-path="url(#clip0_416_9473)">
<path opacity="0.5" d="M75.3644 0H11.7381C8.28493 0 5.4856 2.76141 5.4856 6.16778V73.8322C5.4856 77.2386 8.28493 80 11.7381 80H75.3644C78.8176 80 81.6169 77.2386 81.6169 73.8322V6.16778C81.6169 2.76141 78.8176 0 75.3644 0Z" fill="#EDEDED"/>
<path d="M50.8027 19.0768C50.8801 19.0959 50.9574 19.1149 51.0348 19.1245" stroke="black" stroke-width="0.63" stroke-linecap="round" stroke-linejoin="round"/>
<path d="M52.8914 19.6014C66.5255 23.5123 76.5819 35.7122 77.0944 50.2967" stroke="black" stroke-width="0.63" stroke-linecap="round" stroke-linejoin="round" stroke-dasharray="0.49 1.98"/>
<path d="M77.1138 51.241C77.1138 51.3173 77.1138 51.3936 77.1138 51.47" stroke="black" stroke-width="0.63" stroke-linecap="round" stroke-linejoin="round"/>
<path d="M9.84204 51.4699C9.84204 51.3936 9.84204 51.3173 9.84204 51.241" stroke="black" stroke-width="0.63" stroke-linecap="round" stroke-linejoin="round"/>
<path d="M9.8999 49.4287C10.8572 33.9475 22.5671 21.3375 37.7581 18.762" stroke="black" stroke-width="0.63" stroke-linecap="round" stroke-linejoin="round" stroke-dasharray="0.48 1.9"/>
<path d="M38.667 18.6189C38.7443 18.6094 38.8217 18.5999 38.8991 18.5903" stroke="black" stroke-width="0.63" stroke-linecap="round" stroke-linejoin="round"/>
<path d="M55.038 16.3964H53.2201C53.0074 15.4521 52.6302 14.5841 52.1274 13.8019L53.4135 12.5332C53.8776 12.0849 53.8776 11.3409 53.4135 10.8926L52.4465 9.93875C51.9921 9.49043 51.2475 9.48089 50.7834 9.93875L49.4973 11.2074C48.7044 10.7114 47.8244 10.3489 46.8768 10.1295V8.33626C46.8768 7.69717 46.345 7.17255 45.6971 7.17255H44.3337C43.6858 7.17255 43.154 7.69717 43.154 8.33626V10.1295C42.2257 10.3394 41.3555 10.7018 40.5722 11.1788L39.2958 9.90059C38.8414 9.44274 38.0871 9.4332 37.6327 9.90059L36.6657 10.8449C36.2112 11.2932 36.2016 12.0277 36.6657 12.4856L37.9421 13.7637C37.4393 14.5459 37.0622 15.4139 36.8398 16.3487H35.0219C34.374 16.3392 33.8422 16.8542 33.8422 17.5029V18.8478C33.8325 19.4869 34.3547 20.0115 35.0025 20.0115H36.8204C37.0331 20.9558 37.4006 21.8239 37.9034 22.606L36.6077 23.8747C36.1532 24.323 36.1435 25.0575 36.6077 25.5153L37.565 26.4692C38.0291 26.927 38.7737 26.927 39.2282 26.4692L40.5239 25.2101C41.3168 25.7061 42.1967 26.0781 43.1443 26.2975V28.0907C43.1347 28.7298 43.6568 29.2544 44.3144 29.2544H45.6778C46.3257 29.2544 46.8575 28.7489 46.8575 28.1098V26.3166C47.8051 26.1067 48.6947 25.7347 49.4876 25.2482L50.7737 26.5264C51.2282 26.9747 51.9824 26.9747 52.4465 26.5264L53.4038 25.5821C53.868 25.1338 53.868 24.3897 53.4038 23.9414L52.1274 22.6633C52.6302 21.8811 53.0074 21.0131 53.2201 20.0783H55.038C55.6858 20.0783 56.2177 19.5632 56.2177 18.9241V17.5792C56.2177 16.9401 55.6955 16.425 55.0477 16.425L55.038 16.3964ZM45.0299 21.8906C42.9703 21.8906 41.2975 20.2405 41.2975 18.2087C41.2975 16.177 42.9703 14.5268 45.0299 14.5268C47.0896 14.5268 48.7624 16.1675 48.7624 18.2087C48.7624 20.25 47.0896 21.8906 45.0299 21.8906Z" fill="white"/>
<g opacity="0.4">
<path d="M44.4401 7.17255C44.4207 7.24886 44.4111 7.3347 44.4111 7.42055V9.21381C43.9856 9.3092 43.5698 9.4332 43.1733 9.59536V8.33626C43.1733 7.69717 43.6955 7.17255 44.353 7.17255H44.4401Z" fill="white"/>
</g>
<g opacity="0.4">
<path d="M39.1894 12.848C38.6866 13.6302 38.3095 14.4982 38.0968 15.433H37.1298C37.3425 14.8416 37.6133 14.2884 37.9517 13.7637L36.6753 12.4856C36.2209 12.0277 36.2209 11.2932 36.6753 10.8449L37.6423 9.90059C37.8163 9.71936 38.0387 9.62397 38.2708 9.58582L37.913 9.92921C37.4489 10.3775 37.4489 11.112 37.913 11.5698L39.1894 12.848Z" fill="white"/>
</g>
<g opacity="0.4">
<path d="M53.0458 25.9064L52.4463 26.4978C51.9822 26.9461 51.2376 26.9461 50.7735 26.4978L49.4874 25.2196C49.0523 25.4962 48.5785 25.7251 48.095 25.9159V25.3722C49.0426 25.1624 49.9322 24.7904 50.7251 24.3039L52.0112 25.5821C52.2916 25.8587 52.6784 25.9636 53.0458 25.9064Z" fill="white"/>
</g>
<g opacity="0.4">
<path d="M46.8285 28.3292C46.7125 28.8538 46.2386 29.2449 45.6778 29.2449H44.3144C43.6665 29.2449 43.1444 28.7203 43.1444 28.0716V26.2784C42.2741 26.0781 41.4618 25.7538 40.7173 25.3054L41.7713 24.2753C42.5642 24.7713 43.4441 25.1433 44.3917 25.3531V27.1464C44.3917 27.7855 44.9042 28.3101 45.5521 28.3101H46.8285V28.3292Z" fill="white"/>
</g>
<g opacity="0.4">
<path d="M39.8471 25.8682L39.2379 26.4596C38.7835 26.9079 38.0389 26.9079 37.5748 26.4596L36.6175 25.5057C36.163 25.0479 36.163 24.3134 36.6175 23.8651L37.9132 22.5965C37.4104 21.8143 37.0429 20.9463 36.8302 20.0115H35.0123C34.3644 20.002 33.8423 19.4773 33.8423 18.8382V17.4933C33.8423 16.8447 34.3741 16.3296 35.0316 16.3296H35.1187C35.0993 16.4059 35.0897 16.4917 35.0897 16.5776V17.9225C35.08 18.5616 35.6022 19.0863 36.25 19.0863H38.0679C38.2806 20.0306 38.6481 20.8986 39.1509 21.6808L37.8552 22.9494C37.4007 23.3977 37.391 24.1322 37.8552 24.59L38.8125 25.5439C39.0929 25.8205 39.4893 25.935 39.8471 25.8682Z" fill="white"/>
</g>
<path d="M55.038 16.3964H53.2201C53.0074 15.4521 52.6302 14.5841 52.1274 13.8019L53.4135 12.5332C53.8776 12.0849 53.8776 11.3409 53.4135 10.8926L52.4465 9.93875C51.9921 9.49043 51.2475 9.48089 50.7834 9.93875L49.4973 11.2074C48.7044 10.7114 47.8244 10.3489 46.8768 10.1295V8.33626C46.8768 7.69717 46.345 7.17255 45.6971 7.17255H44.3337C43.6858 7.17255 43.154 7.69717 43.154 8.33626V10.1295C42.2257 10.3394 41.3555 10.7018 40.5722 11.1788L39.2958 9.90059C38.8414 9.44274 38.0871 9.4332 37.6327 9.90059L36.6657 10.8449C36.2112 11.2932 36.2016 12.0277 36.6657 12.4856L37.9421 13.7637C37.4393 14.5459 37.0622 15.4139 36.8398 16.3487H35.0219C34.374 16.3392 33.8422 16.8542 33.8422 17.5029V18.8478C33.8325 19.4869 34.3547 20.0115 35.0025 20.0115H36.8204C37.0331 20.9558 37.4006 21.8239 37.9034 22.606L36.6077 23.8747C36.1532 24.323 36.1435 25.0575 36.6077 25.5153L37.565 26.4692C38.0291 26.927 38.7737 26.927 39.2282 26.4692L40.5239 25.2101C41.3168 25.7061 42.1967 26.0781 43.1443 26.2975V28.0907C43.1347 28.7298 43.6568 29.2544 44.3144 29.2544H45.6778C46.3257 29.2544 46.8575 28.7489 46.8575 28.1098V26.3166C47.8051 26.1067 48.6947 25.7347 49.4876 25.2482L50.7737 26.5264C51.2282 26.9747 51.9824 26.9747 52.4465 26.5264L53.4038 25.5821C53.868 25.1338 53.868 24.3897 53.4038 23.9414L52.1274 22.6633C52.6302 21.8811 53.0074 21.0131 53.2201 20.0783H55.038C55.6858 20.0783 56.2177 19.5632 56.2177 18.9241V17.5792C56.2177 16.9401 55.6955 16.425 55.0477 16.425L55.038 16.3964ZM45.0299 21.8906C42.9703 21.8906 41.2975 20.2405 41.2975 18.2087C41.2975 16.177 42.9703 14.5268 45.0299 14.5268C47.0896 14.5268 48.7624 16.1675 48.7624 18.2087C48.7624 20.25 47.0896 21.8906 45.0299 21.8906Z" stroke="black" stroke-width="0.63" stroke-linecap="round" stroke-linejoin="round"/>
<path d="M65.6651 66.4169C75.9293 66.4169 84.2501 58.2088 84.2501 48.0837C84.2501 37.9585 75.9293 29.7504 65.6651 29.7504C55.4009 29.7504 47.0801 37.9585 47.0801 48.0837C47.0801 58.2088 55.4009 66.4169 65.6651 66.4169Z" fill="white"/>
<path opacity="0.31" d="M65.6651 64.595C74.9093 64.595 82.4032 57.2026 82.4032 48.0836C82.4032 38.9646 74.9093 31.5723 65.6651 31.5723C56.4209 31.5723 48.927 38.9646 48.927 48.0836C48.927 57.2026 56.4209 64.595 65.6651 64.595Z" fill="white"/>
<path d="M65.6651 66.4169C75.9293 66.4169 84.2501 58.2088 84.2501 48.0837C84.2501 37.9585 75.9293 29.7504 65.6651 29.7504C55.4009 29.7504 47.0801 37.9585 47.0801 48.0837C47.0801 58.2088 55.4009 66.4169 65.6651 66.4169Z" stroke="black" stroke-width="0.63" stroke-linecap="round" stroke-linejoin="round"/>
<path d="M65.5204 32.7836C68.8081 32.5833 71.5639 35.0252 71.3609 38.7739H70.6357C70.6357 38.7739 68.5277 37.8677 67.5317 35.5307C66.8355 36.5418 64.6792 38.9646 59.9314 39.0696C59.4769 32.9744 65.5204 32.7836 65.5204 32.7836Z" fill="#C1C1C1"/>
<path d="M68.2086 47.6161C67.5027 47.9691 66.6131 48.1789 65.5205 48.1598C64.5342 48.1408 63.7122 47.95 63.0547 47.6447C60.3182 46.4047 60.0378 43.3714 60.0378 43.3714H59.3222C58.7807 43.3714 58.3359 42.9327 58.3359 42.3985V40.052C58.3359 39.5178 58.7807 39.0791 59.3222 39.0791C59.535 39.0791 59.738 39.0791 59.9314 39.0695C64.6792 38.9646 66.8355 36.5418 67.5317 35.5307C68.5277 37.8677 70.6357 38.7738 70.6357 38.7738H71.3609C72.0475 38.7738 72.6083 39.3175 72.6083 40.0043V42.5416C72.6083 43.6099 71.1579 43.3047 71.1579 43.3047C71.1579 43.3047 70.8001 46.3475 68.2086 47.6257V47.6161Z" fill="white"/>
<path d="M69.949 49.9913L65.6364 56.2772L61.7395 49.9722C62.5227 49.9436 63.0546 50.0103 63.0546 50.0103V47.6448C63.7121 47.95 64.534 48.1408 65.5203 48.1599C66.613 48.1789 67.5026 47.9691 68.2085 47.6161V47.6448L68.2181 50.0103C68.2181 50.0103 68.9337 49.9245 69.949 49.9913Z" fill="white"/>
<path d="M76.0989 55.5904V59.425H76.0505V55.9243C76.0602 55.5809 76.0409 55.2661 76.0022 54.9609C76.0409 55.1612 76.0796 55.3806 76.0989 55.6V55.5904Z" fill="#CB9390"/>
<path d="M70.0359 49.9913C70.384 49.9913 71.7668 50.039 73.1205 50.7544C72.0859 50.2584 70.9448 50.058 70.0359 49.9913Z" fill="#CB9390"/>
<path d="M70.0359 49.9913C70.9449 50.058 72.0859 50.2583 73.1205 50.7543C73.1205 50.7543 73.127 50.7575 73.1399 50.7639C74.3776 51.4316 75.596 52.6716 76.0021 54.9418C76.0408 55.247 76.0601 55.5618 76.0504 55.9052V59.4059H55.2124V55.7717C55.2124 50.8974 59.322 50.058 61.5847 49.9626H61.7394L65.6363 56.2677L69.9489 49.9817H70.0359V49.9913Z" fill="#941303"/>
<path d="M55.2222 54.8941C55.2222 54.8941 55.4349 49.9722 61.5944 49.9722C59.3318 50.0676 55.2222 50.907 55.2222 55.7812V54.8941Z" fill="#CB9390"/>
<path d="M59.9314 39.0791C59.4769 32.9744 65.5204 32.7836 65.5204 32.7836C68.8081 32.5833 71.5639 35.0252 71.3609 38.7739" stroke="black" stroke-width="0.63" stroke-linecap="round" stroke-linejoin="round"/>
<path d="M67.5317 35.5212C66.8355 36.5323 64.6792 38.9551 59.9314 39.06C59.738 39.0696 59.535 39.0696 59.3222 39.0696C58.7807 39.0696 58.3359 39.5083 58.3359 40.0425V42.389C58.3359 42.9232 58.7807 43.3619 59.3222 43.3619H60.0378C60.0378 43.3619 60.3182 46.3952 63.0547 47.6352C63.7122 47.9405 64.5342 48.1313 65.5205 48.1503C66.6131 48.1694 67.5027 47.9596 68.2086 47.6066C70.8001 46.3285 71.1579 43.2856 71.1579 43.2856C71.1579 43.2856 72.6083 43.5909 72.6083 42.5225V39.9853C72.6083 39.308 72.0571 38.7548 71.3609 38.7548H70.6357C70.6357 38.7548 68.5277 37.8486 67.5317 35.5117" stroke="black" stroke-width="0.63" stroke-linecap="round" stroke-linejoin="round"/>
<path d="M67.5317 35.5209V35.5117" stroke="black" stroke-width="0.63" stroke-linecap="round" stroke-linejoin="round"/>
<path d="M67.8025 35.0728C67.8025 35.0728 67.7251 35.2445 67.5317 35.5116" stroke="black" stroke-width="0.63" stroke-linecap="round" stroke-linejoin="round"/>
<path d="M68.218 47.6447V50.0103C68.218 50.0103 68.9336 49.9245 69.9489 49.9912H70.0359C70.9449 50.058 72.0859 50.2583 73.1205 50.7543C73.1205 50.7543 73.127 50.7575 73.1399 50.7639C74.5516 51.4411 75.77 52.7002 76.0021 54.9418C76.0408 55.247 76.0601 55.5618 76.0504 55.9052V59.4058H55.2124V55.7716C55.2124 50.8974 59.322 50.058 61.5847 49.9626H61.7394C62.5226 49.934 63.0545 50.0008 63.0545 50.0008V47.6352" stroke="black" stroke-width="0.63" stroke-linecap="round" stroke-linejoin="round"/>
<path d="M64.1279 44.5733H66.8354" stroke="black" stroke-width="0.63" stroke-linecap="round" stroke-linejoin="round"/>
<path d="M64.9595 46.0709H66.0135" stroke="black" stroke-width="0.63" stroke-linecap="round" stroke-linejoin="round"/>
<path d="M18.835 66.4169C29.0992 66.4169 37.42 58.2088 37.42 48.0837C37.42 37.9585 29.0992 29.7504 18.835 29.7504C8.5708 29.7504 0.25 37.9585 0.25 48.0837C0.25 58.2088 8.5708 66.4169 18.835 66.4169Z" fill="white"/>
<path opacity="0.31" d="M18.835 64.595C28.0792 64.595 35.5732 57.2026 35.5732 48.0836C35.5732 38.9646 28.0792 31.5723 18.835 31.5723C9.59084 31.5723 2.09692 38.9646 2.09692 48.0836C2.09692 57.2026 9.59084 64.595 18.835 64.595Z" fill="white"/>
<path d="M18.835 66.4169C29.0992 66.4169 37.42 58.2088 37.42 48.0837C37.42 37.9585 29.0992 29.7504 18.835 29.7504C8.5708 29.7504 0.25 37.9585 0.25 48.0837C0.25 58.2088 8.5708 66.4169 18.835 66.4169Z" stroke="black" stroke-width="0.63" stroke-linecap="round" stroke-linejoin="round"/>
<path d="M18.6901 32.7836C21.9778 32.5833 24.7336 35.0252 24.5306 38.7739H23.8053C23.8053 38.7739 21.6974 37.8677 20.7014 35.5307C20.0052 36.5418 17.8488 38.9646 13.1011 39.0696C12.6466 32.9744 18.6901 32.7836 18.6901 32.7836Z" fill="#C1C1C1"/>
<path d="M21.3781 47.6161C20.6722 47.9691 19.7826 48.1789 18.6899 48.1598C17.7036 48.1408 16.8817 47.95 16.2241 47.6447C13.4876 46.4047 13.2072 43.3714 13.2072 43.3714H12.4917C11.9502 43.3714 11.5054 42.9327 11.5054 42.3985V40.052C11.5054 39.5178 11.9502 39.0791 12.4917 39.0791C12.7044 39.0791 12.9075 39.0791 13.1009 39.0695C17.8486 38.9646 20.005 36.5418 20.7012 35.5307C21.6972 37.8677 23.8051 38.7738 23.8051 38.7738H24.5304C25.2169 38.7738 25.7777 39.3175 25.7777 40.0043V42.5416C25.7777 43.6099 24.3273 43.3047 24.3273 43.3047C24.3273 43.3047 23.9695 46.3475 21.3781 47.6257V47.6161Z" fill="white"/>
<path d="M23.1189 49.9913L18.8063 56.2772L14.9094 49.9722C15.6927 49.9436 16.2245 50.0103 16.2245 50.0103V47.6448C16.882 47.95 17.7039 48.1408 18.6902 48.1599C19.7829 48.1789 20.6725 47.9691 21.3784 47.6161V47.6448L21.3881 50.0103C21.3881 50.0103 22.1036 49.9245 23.1189 49.9913Z" fill="white"/>
<path d="M29.2686 55.5904V59.425H29.2202V55.9243C29.2299 55.5809 29.2106 55.2661 29.1719 54.9609C29.2106 55.1612 29.2492 55.3806 29.2686 55.6V55.5904Z" fill="#CB9390"/>
<path d="M23.2058 49.9913C23.5539 49.9913 24.9367 50.039 26.2904 50.7544C25.2558 50.2584 24.1148 50.058 23.2058 49.9913Z" fill="#CB9390"/>
<path d="M23.2057 49.9913C24.1146 50.058 25.2557 50.2583 26.2903 50.7543C26.2903 50.7543 26.2968 50.7575 26.3097 50.7639C27.5474 51.4316 28.7657 52.6716 29.1719 54.9418C29.2105 55.247 29.2299 55.5618 29.2202 55.9052V59.4059H8.39185V55.7717C8.39185 50.8974 12.5014 50.058 14.7641 49.9626H14.9188L18.8157 56.2677L23.1283 49.9817H23.2154L23.2057 49.9913Z" fill="#941303"/>
<path d="M8.39185 54.8941C8.39185 54.8941 8.60458 49.9722 14.7641 49.9722C12.5014 50.0676 8.39185 50.907 8.39185 55.7812V54.8941Z" fill="#CB9390"/>
<path d="M13.0913 39.0791C12.6368 32.9744 18.6803 32.7836 18.6803 32.7836C21.968 32.5833 24.7239 35.0252 24.5208 38.7739" stroke="black" stroke-width="0.63" stroke-linecap="round" stroke-linejoin="round"/>
<path d="M20.7012 35.5212C20.005 36.5323 17.8486 38.9551 13.1009 39.06C12.9075 39.0696 12.7044 39.0696 12.4917 39.0696C11.9502 39.0696 11.5054 39.5083 11.5054 40.0425V42.389C11.5054 42.9232 11.9502 43.3619 12.4917 43.3619H13.2072C13.2072 43.3619 13.4876 46.3952 16.2241 47.6352C16.8817 47.9405 17.7036 48.1313 18.6899 48.1503C19.7826 48.1694 20.6722 47.9596 21.3781 47.6066C23.9695 46.3285 24.3273 43.2856 24.3273 43.2856C24.3273 43.2856 25.7777 43.5909 25.7777 42.5225V39.9853C25.7777 39.308 25.2266 38.7548 24.5304 38.7548H23.8051C23.8051 38.7548 21.6972 37.8486 20.7012 35.5117" stroke="black" stroke-width="0.63" stroke-linecap="round" stroke-linejoin="round"/>
<path d="M20.7014 35.5209V35.5117" stroke="black" stroke-width="0.63" stroke-linecap="round" stroke-linejoin="round"/>
<path d="M20.9722 35.0728C20.9722 35.0728 20.8948 35.2445 20.7014 35.5116" stroke="black" stroke-width="0.63" stroke-linecap="round" stroke-linejoin="round"/>
<path d="M21.3878 47.6447V50.0103C21.3878 50.0103 22.1034 49.9245 23.1187 49.9912H23.2057C24.1147 50.058 25.2557 50.2583 26.2903 50.7543C26.2903 50.7543 26.2968 50.7575 26.3097 50.7639C27.7214 51.4411 28.9398 52.7002 29.1719 54.9418C29.2105 55.247 29.2299 55.5618 29.2202 55.9052V59.4058H8.39185V55.7716C8.39185 50.8974 12.5014 50.058 14.7641 49.9626H14.9188C15.7021 49.934 16.2339 50.0008 16.2339 50.0008V47.6352" stroke="black" stroke-width="0.63" stroke-linecap="round" stroke-linejoin="round"/>
<path d="M17.2976 44.5733H20.0051" stroke="black" stroke-width="0.63" stroke-linecap="round" stroke-linejoin="round"/>
<path d="M18.1292 46.0709H19.1831" stroke="black" stroke-width="0.63" stroke-linecap="round" stroke-linejoin="round"/>
<path d="M48.8787 56.6016V69.6314H37.3525L37.4492 56.7638H37.4976C37.4976 56.7638 39.4122 58.4998 43.2897 58.4998C47.1672 58.4998 48.8884 56.6112 48.8884 56.6112L48.8787 56.6016Z" fill="white"/>
<path d="M61.1204 58.1469L62.4548 67.5901C62.6095 68.668 61.7586 69.6218 60.6563 69.6218H48.8787V50.6304C49.0237 50.7449 49.1881 50.8307 49.3718 50.9071L52.06 51.9181L57.8327 54.0739C59.6023 54.7416 60.869 56.3059 61.1204 58.1564V58.1469Z" fill="#CB9390"/>
<path d="M37.4976 50.1631L37.4493 56.7543L37.3526 69.6219H24.8884C23.9988 69.6219 23.3123 68.8492 23.438 67.9812L24.8207 58.1564C25.0818 56.306 26.3485 54.7416 28.1181 54.0739L34.4227 51.7083L36.5693 50.9071C36.9561 50.764 37.2752 50.4969 37.4879 50.1726L37.4976 50.1631Z" fill="#CB9390"/>
<path opacity="0.56" d="M26.9674 58.0134L25.3525 69.4883H37.3622V69.6219H25.2655C24.1825 69.6219 23.3509 68.6775 23.496 67.6188L24.8304 58.1469C25.0914 56.2964 26.3582 54.7321 28.1277 54.0644L34.4323 51.6988L36.579 50.8976C36.9657 50.7545 37.2848 50.4874 37.4976 50.1631V51.2314L36.579 51.5748L30.2744 53.9404C28.4952 54.6081 27.2284 56.1724 26.977 58.0229L26.9674 58.0134Z" fill="white"/>
<path d="M45.1751 29.264C44.1985 36.7327 35.9116 36.0173 35.9116 36.0173C35.8633 35.4832 35.4185 34.8059 34.7609 34.8059C34.3161 34.8059 34.055 35.7598 34.1614 36.8377C34.2678 37.9155 34.6352 38.9552 34.6836 39.8042C34.7319 40.6531 35.9986 40.8343 35.9986 40.8343C35.96 42.0744 36.7722 43.3621 37.7972 44.4495V49.1711C37.7972 49.5336 37.6908 49.8674 37.5071 50.1631C37.2944 50.4874 36.9849 50.7545 36.5885 50.8976L34.4418 51.6988C34.4418 51.6988 30.7964 47.1966 30.7964 38.7358C30.7964 30.2751 35.3121 22.2913 43.2895 22.2913C51.267 22.2913 55.7924 30.2846 55.7924 38.7358C55.7924 47.1871 52.1469 51.6988 52.1469 51.6988L52.0696 51.8991L49.3814 50.888C49.1977 50.8213 49.0333 50.7259 48.8882 50.6114C48.4434 50.268 48.163 49.7339 48.163 49.1615V44.9741C49.3137 43.7245 50.4064 42.0934 50.5901 40.5577C51.9342 40.6913 51.7988 38.9171 51.8665 37.8964C51.9245 36.8663 52.7078 35.1875 52.1759 34.7678C51.6441 34.3385 51.0929 35.3592 49.7972 35.3115C45.5426 35.1398 45.1848 29.2545 45.1848 29.2545L45.1751 29.264Z" fill="#C1C1C1"/>
<path d="M37.7876 44.4495C36.7627 43.3621 35.9504 42.0744 35.9891 40.8344C35.9891 40.8344 34.732 40.6531 34.674 39.8042C34.6257 38.9553 34.2582 37.9251 34.1519 36.8377C34.0455 35.7598 34.3066 34.806 34.7514 34.806C35.3992 34.806 35.844 35.4832 35.9021 36.0174C35.9021 36.0174 44.1986 36.7328 45.1656 29.264C45.1656 29.264 45.533 35.1494 49.778 35.3211C51.0737 35.3688 51.6249 34.3481 52.1567 34.7774C52.6789 35.1971 51.8956 36.8759 51.8473 37.906C51.7892 38.9362 51.9246 40.7104 50.5709 40.5673C50.3871 42.103 49.2945 43.7341 48.1438 44.9837C47.2252 45.9757 46.2679 46.7197 45.6877 46.9963C44.3823 47.6163 43.4444 47.5496 43.4444 47.5496H43.3477C43.0769 47.5496 42.2163 47.5019 41.0946 46.9963C40.3598 46.672 38.9286 45.6895 37.7683 44.4495H37.7876Z" fill="white"/>
<path d="M48.8789 50.6305V56.6017C48.8789 56.6017 47.1577 58.4904 43.2801 58.4904C39.4026 58.4904 37.488 56.7543 37.488 56.7543H37.4397L37.488 50.1632C37.6718 49.877 37.7781 49.5336 37.7781 49.1711V44.4495C38.9385 45.6895 40.3696 46.672 41.1045 46.9963C42.2358 47.5019 43.0964 47.5496 43.3575 47.5496H43.4542C43.4542 47.5496 44.3922 47.6163 45.6976 46.9963C46.2777 46.7197 47.235 45.9757 48.1536 44.9837V49.1711C48.1536 49.7435 48.4341 50.2776 48.8789 50.621V50.6305Z" fill="white"/>
<path d="M48.1631 44.9836V49.171C48.1631 49.7433 48.4435 50.2775 48.8883 50.6209C49.0334 50.7354 49.1978 50.8212 49.3815 50.8975L52.0696 51.9086L57.8424 54.0643C59.6119 54.732 60.8787 56.2964 61.1301 58.1469L62.5032 67.9144C62.6289 68.8206 61.923 69.6218 60.9947 69.6218H23.2058L24.8206 58.1469C25.0817 56.2964 26.3484 54.732 28.118 54.0643L34.4226 51.6988L36.5692 50.8975C36.956 50.7544 37.2751 50.4873 37.4878 50.163C37.6716 49.8769 37.7779 49.5335 37.7779 49.171V44.4494" stroke="black" stroke-width="0.63" stroke-linecap="round" stroke-linejoin="round"/>
<path d="M35.9891 40.8343C35.9891 40.8343 34.732 40.653 34.674 39.8041C34.6257 38.9551 34.2582 37.925 34.1519 36.8376C34.0455 35.7597 34.3066 34.8058 34.7514 34.8058C35.3992 34.8058 35.844 35.4831 35.9021 36.0172C35.9021 36.0172 44.1986 36.7326 45.1656 29.2639C45.1946 29.1018 45.2139 28.9396 45.2236 28.7584" stroke="black" stroke-width="0.63" stroke-linecap="round" stroke-linejoin="round"/>
<path d="M50.5903 40.5671C50.4065 42.1029 49.3139 43.734 48.1632 44.9835C47.2446 45.9755 46.2873 46.7195 45.7071 46.9962C44.4017 47.6162 43.4637 47.5494 43.4637 47.5494H43.367C43.0963 47.5494 42.2357 47.5017 41.114 46.9962C40.3791 46.6719 38.948 45.6894 37.7877 44.4494C36.7627 43.362 35.9504 42.0742 35.9891 40.8342" stroke="black" stroke-width="0.63" stroke-linecap="round" stroke-linejoin="round"/>
<path d="M45.1848 29.2639C45.1848 29.2639 45.5523 35.1492 49.7972 35.3209C51.093 35.3686 51.6441 34.348 52.176 34.7772C52.6981 35.1969 51.9149 36.8757 51.8665 37.9059C51.8085 38.9361 51.9439 40.7103 50.5901 40.5672" stroke="black" stroke-width="0.63" stroke-linecap="round" stroke-linejoin="round"/>
<path d="M34.4321 51.7083C34.4321 51.7083 30.7866 47.2061 30.7866 38.7454C30.7866 30.2846 35.3023 22.3008 43.2798 22.3008" stroke="black" stroke-width="0.63" stroke-linecap="round" stroke-linejoin="round"/>
<path d="M52.1372 51.7083C52.1372 51.7083 55.7826 47.2061 55.7826 38.7454C55.7826 30.2846 51.2669 22.3008 43.2798 22.3008" stroke="black" stroke-width="0.63" stroke-linecap="round" stroke-linejoin="round"/>
<path d="M37.4976 50.1631L37.4492 56.7543L37.3525 69.6219" stroke="black" stroke-width="0.63" stroke-linecap="round" stroke-linejoin="round"/>
<path d="M48.8787 69.6218V56.6016V50.6304" stroke="black" stroke-width="0.63" stroke-linecap="round" stroke-linejoin="round"/>
<path d="M37.4976 56.7542C37.4976 56.7542 39.4121 58.4903 43.2897 58.4903C47.1672 58.4903 48.8884 56.6016 48.8884 56.6016" stroke="black" stroke-width="0.63" stroke-linecap="round" stroke-linejoin="round"/>
<path d="M72.7627 69.8889V72.6265" stroke="black" stroke-width="0.63" stroke-linecap="round" stroke-linejoin="round"/>
<path d="M74.1551 71.2625H71.3799" stroke="black" stroke-width="0.63" stroke-linecap="round" stroke-linejoin="round"/>
<path d="M16.437 70.1752V72.9128" stroke="black" stroke-width="0.63" stroke-linecap="round" stroke-linejoin="round"/>
<path d="M17.8294 71.5487H15.0542" stroke="black" stroke-width="0.63" stroke-linecap="round" stroke-linejoin="round"/>
<path d="M26.0681 12.1803V15.6142" stroke="black" stroke-width="0.63" stroke-linecap="round" stroke-linejoin="round"/>
<path d="M27.8085 13.8973H24.3274" stroke="black" stroke-width="0.63" stroke-linecap="round" stroke-linejoin="round"/>
</g>
<defs>
<clipPath id="clip0_416_9473">
<rect width="84" height="80" fill="white" transform="translate(0.25)"/>
</clipPath>
</defs>
</svg>
