<svg width="84" height="80" viewBox="0 0 84 80" fill="none" xmlns="http://www.w3.org/2000/svg">
<g clip-path="url(#clip0_281_14798)">
<path opacity="0.5" d="M75.1144 0H11.4881C8.03493 0 5.2356 2.76141 5.2356 6.16778V73.8322C5.2356 77.2386 8.03493 80 11.4881 80H75.1144C78.5676 80 81.3669 77.2386 81.3669 73.8322V6.16778C81.3669 2.76141 78.5676 0 75.1144 0Z" fill="#EDEDED"/>
<path d="M50.5527 19.0768C50.6301 19.0959 50.7074 19.1149 50.7848 19.1245" stroke="black" stroke-width="0.63" stroke-linecap="round" stroke-linejoin="round"/>
<path d="M52.6414 19.6014C66.2755 23.5123 76.3319 35.7122 76.8444 50.2967" stroke="black" stroke-width="0.63" stroke-linecap="round" stroke-linejoin="round" stroke-dasharray="0.49 1.98"/>
<path d="M76.8636 51.2411C76.8636 51.3174 76.8636 51.3937 76.8636 51.47" stroke="black" stroke-width="0.63" stroke-linecap="round" stroke-linejoin="round"/>
<path d="M9.59204 51.47C9.59204 51.3937 9.59204 51.3174 9.59204 51.2411" stroke="black" stroke-width="0.63" stroke-linecap="round" stroke-linejoin="round"/>
<path d="M9.65015 49.4287C10.6074 33.9476 22.3174 21.3375 37.5083 18.7621" stroke="black" stroke-width="0.63" stroke-linecap="round" stroke-linejoin="round" stroke-dasharray="0.48 1.9"/>
<path d="M38.4172 18.6189C38.4946 18.6094 38.572 18.5999 38.6493 18.5903" stroke="black" stroke-width="0.63" stroke-linecap="round" stroke-linejoin="round"/>
<path d="M54.788 16.3965H52.9701C52.7574 15.4521 52.3802 14.5841 51.8774 13.8019L53.1635 12.5333C53.6276 12.085 53.6276 11.341 53.1635 10.8927L52.1965 9.93881C51.7421 9.49049 50.9975 9.48095 50.5334 9.93881L49.2473 11.2074C48.4544 10.7114 47.5744 10.349 46.6268 10.1296V8.33632C46.6268 7.69723 46.095 7.17261 45.4471 7.17261H44.0837C43.4358 7.17261 42.904 7.69723 42.904 8.33632V10.1296C41.9757 10.3394 41.1055 10.7019 40.3222 11.1788L39.0458 9.90065C38.5914 9.4428 37.8371 9.43326 37.3827 9.90065L36.4157 10.845C35.9612 11.2933 35.9516 12.0278 36.4157 12.4856L37.6921 13.7638C37.1893 14.546 36.8122 15.414 36.5898 16.3488H34.7719C34.124 16.3392 33.5922 16.8543 33.5922 17.5029V18.8479C33.5825 19.487 34.1047 20.0116 34.7525 20.0116H36.5704C36.7831 20.9559 37.1506 21.8239 37.6534 22.6061L36.3577 23.8747C35.9032 24.323 35.8935 25.0575 36.3577 25.5154L37.315 26.4692C37.7791 26.9271 38.5237 26.9271 38.9782 26.4692L40.2739 25.2101C41.0668 25.7061 41.9467 26.0781 42.8943 26.2975V28.0908C42.8847 28.7299 43.4068 29.2545 44.0644 29.2545H45.4278C46.0757 29.2545 46.6075 28.749 46.6075 28.1099V26.3166C47.5551 26.1068 48.4447 25.7348 49.2376 25.2483L50.5237 26.5265C50.9782 26.9748 51.7324 26.9748 52.1965 26.5265L53.1538 25.5821C53.618 25.1338 53.618 24.3898 53.1538 23.9415L51.8774 22.6633C52.3802 21.8812 52.7574 21.0131 52.9701 20.0784H54.788C55.4358 20.0784 55.9677 19.5633 55.9677 18.9242V17.5792C55.9677 16.9402 55.4455 16.4251 54.7977 16.4251L54.788 16.3965ZM44.7799 21.8907C42.7203 21.8907 41.0475 20.2405 41.0475 18.2088C41.0475 16.1771 42.7203 14.5269 44.7799 14.5269C46.8396 14.5269 48.5124 16.1675 48.5124 18.2088C48.5124 20.2501 46.8396 21.8907 44.7799 21.8907Z" fill="white"/>
<g opacity="0.4">
<path d="M44.1902 7.17261C44.1708 7.24892 44.1612 7.33476 44.1612 7.42061V9.21387C43.7357 9.30926 43.3199 9.43326 42.9235 9.59542V8.33632C42.9235 7.69723 43.4456 7.17261 44.1032 7.17261H44.1902Z" fill="white"/>
</g>
<g opacity="0.4">
<path d="M38.9394 12.848C38.4366 13.6302 38.0595 14.4982 37.8468 15.433H36.8798C37.0925 14.8416 37.3633 14.2884 37.7017 13.7637L36.4253 12.4856C35.9709 12.0277 35.9709 11.2932 36.4253 10.8449L37.3923 9.90059C37.5663 9.71936 37.7887 9.62397 38.0208 9.58582L37.663 9.92921C37.1989 10.3775 37.1989 11.112 37.663 11.5698L38.9394 12.848Z" fill="white"/>
</g>
<g opacity="0.4">
<path d="M52.7959 25.9064L52.1964 26.4978C51.7323 26.9462 50.9877 26.9462 50.5236 26.4978L49.2375 25.2197C48.8024 25.4963 48.3286 25.7252 47.8451 25.916V25.3723C48.7927 25.1624 49.6823 24.7904 50.4752 24.304L51.7613 25.5821C52.0417 25.8587 52.4285 25.9637 52.7959 25.9064Z" fill="white"/>
</g>
<g opacity="0.4">
<path d="M46.5785 28.3293C46.4625 28.8539 45.9886 29.245 45.4278 29.245H44.0644C43.4165 29.245 42.8944 28.7204 42.8944 28.0718V26.2785C42.0241 26.0782 41.2118 25.7539 40.4673 25.3056L41.5213 24.2754C42.3142 24.7714 43.1941 25.1434 44.1417 25.3533V27.1465C44.1417 27.7856 44.6542 28.3102 45.3021 28.3102H46.5785V28.3293Z" fill="white"/>
</g>
<g opacity="0.4">
<path d="M39.5971 25.8682L38.9879 26.4596C38.5335 26.9079 37.7889 26.9079 37.3248 26.4596L36.3675 25.5057C35.913 25.0479 35.913 24.3134 36.3675 23.8651L37.6632 22.5965C37.1604 21.8143 36.7929 20.9463 36.5802 20.0115H34.7623C34.1144 20.002 33.5923 19.4773 33.5923 18.8382V17.4933C33.5923 16.8447 34.1241 16.3296 34.7816 16.3296H34.8687C34.8493 16.4059 34.8397 16.4917 34.8397 16.5776V17.9225C34.83 18.5616 35.3522 19.0863 36 19.0863H37.8179C38.0306 20.0306 38.3981 20.8986 38.9009 21.6808L37.6052 22.9494C37.1507 23.3977 37.141 24.1322 37.6052 24.59L38.5625 25.5439C38.8429 25.8205 39.2393 25.935 39.5971 25.8682Z" fill="white"/>
</g>
<path d="M54.788 16.3965H52.9701C52.7574 15.4521 52.3802 14.5841 51.8774 13.8019L53.1635 12.5333C53.6276 12.085 53.6276 11.341 53.1635 10.8927L52.1965 9.93881C51.7421 9.49049 50.9975 9.48095 50.5334 9.93881L49.2473 11.2074C48.4544 10.7114 47.5744 10.349 46.6268 10.1296V8.33632C46.6268 7.69723 46.095 7.17261 45.4471 7.17261H44.0837C43.4358 7.17261 42.904 7.69723 42.904 8.33632V10.1296C41.9757 10.3394 41.1055 10.7019 40.3222 11.1788L39.0458 9.90065C38.5914 9.4428 37.8371 9.43326 37.3827 9.90065L36.4157 10.845C35.9612 11.2933 35.9516 12.0278 36.4157 12.4856L37.6921 13.7638C37.1893 14.546 36.8122 15.414 36.5898 16.3488H34.7719C34.124 16.3392 33.5922 16.8543 33.5922 17.5029V18.8479C33.5825 19.487 34.1047 20.0116 34.7525 20.0116H36.5704C36.7831 20.9559 37.1506 21.8239 37.6534 22.6061L36.3577 23.8747C35.9032 24.323 35.8935 25.0575 36.3577 25.5154L37.315 26.4692C37.7791 26.9271 38.5237 26.9271 38.9782 26.4692L40.2739 25.2101C41.0668 25.7061 41.9467 26.0781 42.8943 26.2975V28.0908C42.8847 28.7299 43.4068 29.2545 44.0644 29.2545H45.4278C46.0757 29.2545 46.6075 28.749 46.6075 28.1099V26.3166C47.5551 26.1068 48.4447 25.7348 49.2376 25.2483L50.5237 26.5265C50.9782 26.9748 51.7324 26.9748 52.1965 26.5265L53.1538 25.5821C53.618 25.1338 53.618 24.3898 53.1538 23.9415L51.8774 22.6633C52.3802 21.8812 52.7574 21.0131 52.9701 20.0784H54.788C55.4358 20.0784 55.9677 19.5633 55.9677 18.9242V17.5792C55.9677 16.9402 55.4455 16.4251 54.7977 16.4251L54.788 16.3965ZM44.7799 21.8907C42.7203 21.8907 41.0475 20.2405 41.0475 18.2088C41.0475 16.1771 42.7203 14.5269 44.7799 14.5269C46.8396 14.5269 48.5124 16.1675 48.5124 18.2088C48.5124 20.2501 46.8396 21.8907 44.7799 21.8907Z" stroke="black" stroke-width="0.63" stroke-linecap="round" stroke-linejoin="round"/>
<path d="M65.4151 66.4169C75.6793 66.4169 84.0001 58.2089 84.0001 48.0837C84.0001 37.9586 75.6793 29.7505 65.4151 29.7505C55.1509 29.7505 46.8301 37.9586 46.8301 48.0837C46.8301 58.2089 55.1509 66.4169 65.4151 66.4169Z" fill="white"/>
<path opacity="0.31" d="M65.415 64.5951C74.6592 64.5951 82.1531 57.2027 82.1531 48.0837C82.1531 38.9648 74.6592 31.5724 65.415 31.5724C56.1708 31.5724 48.6769 38.9648 48.6769 48.0837C48.6769 57.2027 56.1708 64.5951 65.415 64.5951Z" fill="white"/>
<path d="M65.4151 66.4169C75.6793 66.4169 84.0001 58.2089 84.0001 48.0837C84.0001 37.9586 75.6793 29.7505 65.4151 29.7505C55.1509 29.7505 46.8301 37.9586 46.8301 48.0837C46.8301 58.2089 55.1509 66.4169 65.4151 66.4169Z" stroke="black" stroke-width="0.63" stroke-linecap="round" stroke-linejoin="round"/>
<path d="M65.2702 32.7837C68.5579 32.5834 71.3137 35.0253 71.1106 38.7739H70.3854C70.3854 38.7739 68.2774 37.8678 67.2815 35.5308C66.5853 36.5419 64.4289 38.9647 59.6811 39.0696C59.2267 32.9745 65.2702 32.7837 65.2702 32.7837Z" fill="#C1C1C1"/>
<path d="M67.9585 47.6162C67.2526 47.9691 66.363 48.179 65.2703 48.1599C64.284 48.1408 63.4621 47.95 62.8046 47.6448C60.0681 46.4048 59.7877 43.3715 59.7877 43.3715H59.0721C58.5306 43.3715 58.0858 42.9327 58.0858 42.3986V40.0521C58.0858 39.5179 58.5306 39.0791 59.0721 39.0791C59.2848 39.0791 59.4879 39.0791 59.6813 39.0696C64.4291 38.9647 66.5854 36.5419 67.2816 35.5308C68.2776 37.8677 70.3856 38.7739 70.3856 38.7739H71.1108C71.7973 38.7739 72.3582 39.3176 72.3582 40.0044V42.5416C72.3582 43.61 70.9077 43.3047 70.9077 43.3047C70.9077 43.3047 70.55 46.3476 67.9585 47.6257V47.6162Z" fill="white"/>
<path d="M69.6989 49.9913L65.3862 56.2773L61.4894 49.9723C62.2726 49.9436 62.8044 50.0104 62.8044 50.0104V47.6448C63.462 47.9501 64.2839 48.1408 65.2702 48.1599C66.3629 48.179 67.2525 47.9691 67.9584 47.6162V47.6448L67.968 50.0104C67.968 50.0104 68.6836 49.9246 69.6989 49.9913Z" fill="white"/>
<path d="M75.8488 55.5905V59.425H75.8004V55.9243C75.8101 55.5809 75.7908 55.2662 75.7521 54.9609C75.7908 55.1612 75.8294 55.3806 75.8488 55.6V55.5905Z" fill="#CB9390"/>
<path d="M69.7858 49.9913C70.1339 49.9913 71.5166 50.039 72.8704 50.7544C71.8357 50.2584 70.6947 50.0581 69.7858 49.9913Z" fill="#CB9390"/>
<path d="M69.7859 49.9913C70.6949 50.058 71.8359 50.2583 72.8705 50.7543C72.8705 50.7543 72.877 50.7575 72.8899 50.7639C74.1276 51.4316 75.346 52.6716 75.7521 54.9418C75.7908 55.247 75.8101 55.5618 75.8004 55.9052V59.4059H54.9624V55.7717C54.9624 50.8974 59.072 50.058 61.3347 49.9626H61.4894L65.3863 56.2677L69.6989 49.9817H69.7859V49.9913Z" fill="#941303"/>
<path d="M54.972 54.8941C54.972 54.8941 55.1848 49.9722 61.3443 49.9722C59.0816 50.0676 54.972 50.907 54.972 55.7812V54.8941Z" fill="#CB9390"/>
<path d="M59.6811 39.0792C59.2267 32.9745 65.2702 32.7837 65.2702 32.7837C68.5579 32.5834 71.3137 35.0253 71.1106 38.7739" stroke="black" stroke-width="0.63" stroke-linecap="round" stroke-linejoin="round"/>
<path d="M67.2816 35.5213C66.5854 36.5323 64.4291 38.9552 59.6813 39.0601C59.4879 39.0696 59.2848 39.0696 59.0721 39.0696C58.5306 39.0696 58.0858 39.5084 58.0858 40.0426V42.3891C58.0858 42.9232 58.5306 43.362 59.0721 43.362H59.7877C59.7877 43.362 60.0681 46.3953 62.8046 47.6353C63.4621 47.9405 64.284 48.1313 65.2703 48.1504C66.363 48.1695 67.2526 47.9596 67.9585 47.6067C70.55 46.3285 70.9077 43.2857 70.9077 43.2857C70.9077 43.2857 72.3582 43.5909 72.3582 42.5226V39.9853C72.3582 39.3081 71.807 38.7549 71.1108 38.7549H70.3856C70.3856 38.7549 68.2776 37.8487 67.2816 35.5117" stroke="black" stroke-width="0.63" stroke-linecap="round" stroke-linejoin="round"/>
<path d="M67.2815 35.5209V35.5117" stroke="black" stroke-width="0.63" stroke-linecap="round" stroke-linejoin="round"/>
<path d="M67.5522 35.0729C67.5522 35.0729 67.4749 35.2446 67.2815 35.5117" stroke="black" stroke-width="0.63" stroke-linecap="round" stroke-linejoin="round"/>
<path d="M67.968 47.6448V50.0104C67.968 50.0104 68.6836 49.9245 69.6989 49.9913H69.7859C70.6949 50.0581 71.8359 50.2584 72.8705 50.7544C72.8705 50.7544 72.877 50.7576 72.8899 50.7639C74.3016 51.4412 75.52 52.7003 75.7521 54.9418C75.7908 55.2471 75.8101 55.5618 75.8004 55.9052V59.4059H54.9624V55.7717C54.9624 50.8975 59.072 50.0581 61.3347 49.9627H61.4894C62.2726 49.9341 62.8045 50.0008 62.8045 50.0008V47.6353" stroke="black" stroke-width="0.63" stroke-linecap="round" stroke-linejoin="round"/>
<path d="M63.8778 44.5734H66.5853" stroke="black" stroke-width="0.63" stroke-linecap="round" stroke-linejoin="round"/>
<path d="M64.7092 46.0709H65.7632" stroke="black" stroke-width="0.63" stroke-linecap="round" stroke-linejoin="round"/>
<path d="M18.585 66.4169C28.8492 66.4169 37.17 58.2089 37.17 48.0837C37.17 37.9586 28.8492 29.7505 18.585 29.7505C8.3208 29.7505 0 37.9586 0 48.0837C0 58.2089 8.3208 66.4169 18.585 66.4169Z" fill="white"/>
<path opacity="0.31" d="M18.585 64.5951C27.8292 64.5951 35.3232 57.2027 35.3232 48.0837C35.3232 38.9648 27.8292 31.5724 18.585 31.5724C9.34084 31.5724 1.84692 38.9648 1.84692 48.0837C1.84692 57.2027 9.34084 64.5951 18.585 64.5951Z" fill="white"/>
<path d="M18.585 66.4169C28.8492 66.4169 37.17 58.2089 37.17 48.0837C37.17 37.9586 28.8492 29.7505 18.585 29.7505C8.3208 29.7505 0 37.9586 0 48.0837C0 58.2089 8.3208 66.4169 18.585 66.4169Z" stroke="black" stroke-width="0.63" stroke-linecap="round" stroke-linejoin="round"/>
<path d="M18.4401 32.7837C21.7278 32.5834 24.4836 35.0253 24.2806 38.7739H23.5553C23.5553 38.7739 21.4474 37.8678 20.4514 35.5308C19.7552 36.5419 17.5988 38.9647 12.8511 39.0696C12.3966 32.9745 18.4401 32.7837 18.4401 32.7837Z" fill="#C1C1C1"/>
<path d="M21.1281 47.6162C20.4222 47.9691 19.5326 48.179 18.4399 48.1599C17.4536 48.1408 16.6317 47.95 15.9741 47.6448C13.2376 46.4048 12.9572 43.3715 12.9572 43.3715H12.2417C11.7002 43.3715 11.2554 42.9327 11.2554 42.3986V40.0521C11.2554 39.5179 11.7002 39.0791 12.2417 39.0791C12.4544 39.0791 12.6575 39.0791 12.8509 39.0696C17.5986 38.9647 19.755 36.5419 20.4512 35.5308C21.4472 37.8677 23.5551 38.7739 23.5551 38.7739H24.2804C24.9669 38.7739 25.5277 39.3176 25.5277 40.0044V42.5416C25.5277 43.61 24.0773 43.3047 24.0773 43.3047C24.0773 43.3047 23.7195 46.3476 21.1281 47.6257V47.6162Z" fill="white"/>
<path d="M22.8688 49.9913L18.5562 56.2773L14.6593 49.9723C15.4425 49.9436 15.9744 50.0104 15.9744 50.0104V47.6448C16.6319 47.9501 17.4538 48.1408 18.4401 48.1599C19.5328 48.179 20.4224 47.9691 21.1283 47.6162V47.6448L21.1379 50.0104C21.1379 50.0104 21.8535 49.9246 22.8688 49.9913Z" fill="white"/>
<path d="M29.0187 55.5905V59.425H28.9703V55.9243C28.98 55.5809 28.9607 55.2662 28.922 54.9609C28.9607 55.1612 28.9994 55.3806 29.0187 55.6V55.5905Z" fill="#CB9390"/>
<path d="M22.9557 49.9913C23.3038 49.9913 24.6866 50.039 26.0403 50.7544C25.0056 50.2584 23.8646 50.0581 22.9557 49.9913Z" fill="#CB9390"/>
<path d="M22.9557 49.9913C23.8646 50.058 25.0057 50.2583 26.0403 50.7543C26.0403 50.7543 26.0468 50.7575 26.0597 50.7639C27.2974 51.4316 28.5157 52.6716 28.9219 54.9418C28.9605 55.247 28.9799 55.5618 28.9702 55.9052V59.4059H8.14185V55.7717C8.14185 50.8974 12.2514 50.058 14.5141 49.9626H14.6688L18.5657 56.2677L22.8783 49.9817H22.9654L22.9557 49.9913Z" fill="#941303"/>
<path d="M8.14185 54.8941C8.14185 54.8941 8.35458 49.9722 14.5141 49.9722C12.2514 50.0676 8.14185 50.907 8.14185 55.7812V54.8941Z" fill="#CB9390"/>
<path d="M12.8414 39.0792C12.3869 32.9745 18.4305 32.7837 18.4305 32.7837C21.7181 32.5834 24.474 35.0253 24.2709 38.7739" stroke="black" stroke-width="0.63" stroke-linecap="round" stroke-linejoin="round"/>
<path d="M20.4512 35.5213C19.755 36.5323 17.5986 38.9552 12.8509 39.0601C12.6575 39.0696 12.4544 39.0696 12.2417 39.0696C11.7002 39.0696 11.2554 39.5084 11.2554 40.0426V42.3891C11.2554 42.9232 11.7002 43.362 12.2417 43.362H12.9572C12.9572 43.362 13.2376 46.3953 15.9741 47.6353C16.6317 47.9405 17.4536 48.1313 18.4399 48.1504C19.5326 48.1695 20.4222 47.9596 21.1281 47.6067C23.7195 46.3285 24.0773 43.2857 24.0773 43.2857C24.0773 43.2857 25.5277 43.5909 25.5277 42.5226V39.9853C25.5277 39.3081 24.9766 38.7549 24.2804 38.7549H23.5551C23.5551 38.7549 21.4472 37.8487 20.4512 35.5117" stroke="black" stroke-width="0.63" stroke-linecap="round" stroke-linejoin="round"/>
<path d="M20.4514 35.5209V35.5117" stroke="black" stroke-width="0.63" stroke-linecap="round" stroke-linejoin="round"/>
<path d="M20.7222 35.0729C20.7222 35.0729 20.6448 35.2446 20.4514 35.5117" stroke="black" stroke-width="0.63" stroke-linecap="round" stroke-linejoin="round"/>
<path d="M21.1378 47.6448V50.0104C21.1378 50.0104 21.8534 49.9245 22.8687 49.9913H22.9557C23.8647 50.0581 25.0057 50.2584 26.0403 50.7544C26.0403 50.7544 26.0468 50.7576 26.0597 50.7639C27.4714 51.4412 28.6898 52.7003 28.9219 54.9418C28.9605 55.2471 28.9799 55.5618 28.9702 55.9052V59.4059H8.14185V55.7717C8.14185 50.8975 12.2514 50.0581 14.5141 49.9627H14.6688C15.4521 49.9341 15.9839 50.0008 15.9839 50.0008V47.6353" stroke="black" stroke-width="0.63" stroke-linecap="round" stroke-linejoin="round"/>
<path d="M17.0477 44.5734H19.7552" stroke="black" stroke-width="0.63" stroke-linecap="round" stroke-linejoin="round"/>
<path d="M17.8792 46.0709H18.9331" stroke="black" stroke-width="0.63" stroke-linecap="round" stroke-linejoin="round"/>
<path d="M48.6286 56.6017V69.6314H37.1024L37.1991 56.7638H37.2475C37.2475 56.7638 39.162 58.4999 43.0396 58.4999C46.9171 58.4999 48.6383 56.6112 48.6383 56.6112L48.6286 56.6017Z" fill="white"/>
<path d="M60.8703 58.1469L62.2047 67.5902C62.3594 68.668 61.5085 69.6219 60.4061 69.6219H48.6285V50.6305C48.7736 50.745 48.938 50.8308 49.1217 50.9071L51.8098 51.9182L57.5826 54.0739C59.3521 54.7416 60.6189 56.306 60.8703 58.1565V58.1469Z" fill="#CB9390"/>
<path d="M37.2474 50.1631L37.199 56.7543L37.1023 69.6219H24.6382C23.7486 69.6219 23.062 68.8492 23.1877 67.9812L24.5705 58.1564C24.8316 56.306 26.0983 54.7416 27.8678 54.0739L34.1724 51.7083L36.3191 50.9071C36.7059 50.764 37.025 50.4969 37.2377 50.1726L37.2474 50.1631Z" fill="#CB9390"/>
<path opacity="0.56" d="M26.7172 58.0134L25.1024 69.4883H37.1121V69.6219H25.0154C23.9324 69.6219 23.1008 68.6775 23.2458 67.6188L24.5802 58.1469C24.8413 56.2964 26.108 54.7321 27.8776 54.0644L34.1822 51.6988L36.3288 50.8976C36.7156 50.7545 37.0347 50.4874 37.2474 50.1631V51.2314L36.3288 51.5748L30.0242 53.9404C28.245 54.6081 26.9783 56.1724 26.7269 58.0229L26.7172 58.0134Z" fill="white"/>
<path d="M44.925 29.264C43.9484 36.7327 35.6615 36.0173 35.6615 36.0173C35.6131 35.4832 35.1683 34.8059 34.5108 34.8059C34.066 34.8059 33.8049 35.7598 33.9113 36.8377C34.0177 37.9155 34.3851 38.9552 34.4335 39.8042C34.4818 40.6531 35.7485 40.8343 35.7485 40.8343C35.7098 42.0744 36.5221 43.3621 37.5471 44.4495V49.1711C37.5471 49.5336 37.4407 49.8674 37.257 50.1631C37.0442 50.4874 36.7348 50.7545 36.3384 50.8976L34.1917 51.6988C34.1917 51.6988 30.5463 47.1966 30.5463 38.7358C30.5463 30.2751 35.062 22.2913 43.0394 22.2913C51.0169 22.2913 55.5422 30.2846 55.5422 38.7358C55.5422 47.1871 51.8968 51.6988 51.8968 51.6988L51.8194 51.8991L49.1313 50.888C48.9476 50.8213 48.7832 50.7259 48.6381 50.6114C48.1933 50.268 47.9129 49.7339 47.9129 49.1615V44.9741C49.0636 43.7245 50.1563 42.0934 50.34 40.5577C51.6841 40.6913 51.5487 38.9171 51.6164 37.8964C51.6744 36.8663 52.4576 35.1875 51.9258 34.7678C51.394 34.3385 50.8428 35.3592 49.5471 35.3115C45.2924 35.1398 44.9347 29.2545 44.9347 29.2545L44.925 29.264Z" fill="#C1C1C1"/>
<path d="M37.5375 44.4495C36.5125 43.3621 35.7003 42.0744 35.739 40.8344C35.739 40.8344 34.4819 40.6531 34.4239 39.8042C34.3755 38.9553 34.0081 37.9251 33.9017 36.8377C33.7954 35.7598 34.0564 34.806 34.5012 34.806C35.1491 34.806 35.5939 35.4832 35.6519 36.0174C35.6519 36.0174 43.9485 36.7328 44.9154 29.264C44.9154 29.264 45.2829 35.1494 49.5278 35.3211C50.8236 35.3688 51.3747 34.3481 51.9066 34.7774C52.4287 35.1971 51.6455 36.8759 51.5971 37.906C51.5391 38.9362 51.6745 40.7104 50.3208 40.5673C50.137 42.103 49.0444 43.7341 47.8937 44.9837C46.9751 45.9757 46.0178 46.7197 45.4376 46.9963C44.1322 47.6163 43.1942 47.5496 43.1942 47.5496H43.0975C42.8268 47.5496 41.9662 47.5019 40.8445 46.9963C40.1096 46.672 38.6785 45.6895 37.5182 44.4495H37.5375Z" fill="white"/>
<path d="M48.6286 50.6305V56.6017C48.6286 56.6017 46.9074 58.4903 43.0299 58.4903C39.1524 58.4903 37.2378 56.7543 37.2378 56.7543H37.1895L37.2378 50.1631C37.4215 49.8769 37.5279 49.5335 37.5279 49.1711V44.4495C38.6882 45.6895 40.1193 46.672 40.8542 46.9963C41.9856 47.5018 42.8462 47.5495 43.1073 47.5495H43.204C43.204 47.5495 44.1419 47.6163 45.4473 46.9963C46.0275 46.7197 46.9848 45.9756 47.9034 44.9836V49.1711C47.9034 49.7434 48.1838 50.2776 48.6286 50.6209V50.6305Z" fill="white"/>
<path d="M47.913 44.9835V49.171C47.913 49.7433 48.1934 50.2774 48.6382 50.6208C48.7832 50.7353 48.9476 50.8211 49.1314 50.8974L51.8195 51.9085L57.5923 54.0643C59.3618 54.732 60.6285 56.2963 60.8799 58.1468L62.253 67.9143C62.3787 68.8205 61.6729 69.6218 60.7446 69.6218H22.9557L24.5705 58.1468C24.8316 56.2963 26.0983 54.732 27.8679 54.0643L34.1724 51.6987L36.3191 50.8974C36.7059 50.7544 37.025 50.4873 37.2377 50.163C37.4214 49.8768 37.5278 49.5334 37.5278 49.171V44.4493" stroke="black" stroke-width="0.63" stroke-linecap="round" stroke-linejoin="round"/>
<path d="M35.739 40.8342C35.739 40.8342 34.4819 40.653 34.4239 39.804C34.3755 38.9551 34.0081 37.9249 33.9017 36.8375C33.7954 35.7596 34.0564 34.8058 34.5012 34.8058C35.1491 34.8058 35.5939 35.483 35.6519 36.0172C35.6519 36.0172 43.9485 36.7326 44.9154 29.2638C44.9444 29.1017 44.9638 28.9395 44.9735 28.7583" stroke="black" stroke-width="0.63" stroke-linecap="round" stroke-linejoin="round"/>
<path d="M50.3401 40.5671C50.1564 42.1029 49.0637 43.734 47.9131 44.9835C46.9944 45.9755 46.0371 46.7195 45.457 46.9962C44.1516 47.6162 43.2136 47.5494 43.2136 47.5494H43.1169C42.8462 47.5494 41.9856 47.5017 40.8639 46.9962C40.129 46.6719 38.6979 45.6894 37.5375 44.4494C36.5126 43.362 35.7003 42.0742 35.739 40.8342" stroke="black" stroke-width="0.63" stroke-linecap="round" stroke-linejoin="round"/>
<path d="M44.9347 29.2639C44.9347 29.2639 45.3021 35.1492 49.5471 35.3209C50.8428 35.3686 51.394 34.348 51.9258 34.7772C52.448 35.1969 51.6647 36.8757 51.6164 37.9059C51.5584 38.9361 51.6938 40.7103 50.34 40.5672" stroke="black" stroke-width="0.63" stroke-linecap="round" stroke-linejoin="round"/>
<path d="M34.1821 51.7083C34.1821 51.7083 30.5366 47.2061 30.5366 38.7454C30.5366 30.2846 35.0523 22.3008 43.0298 22.3008" stroke="black" stroke-width="0.63" stroke-linecap="round" stroke-linejoin="round"/>
<path d="M51.8872 51.7083C51.8872 51.7083 55.5326 47.2061 55.5326 38.7454C55.5326 30.2846 51.0169 22.3008 43.0298 22.3008" stroke="black" stroke-width="0.63" stroke-linecap="round" stroke-linejoin="round"/>
<path d="M37.2475 50.1631L37.1991 56.7543L37.1024 69.6219" stroke="black" stroke-width="0.63" stroke-linecap="round" stroke-linejoin="round"/>
<path d="M48.6285 69.6219V56.6017V50.6305" stroke="black" stroke-width="0.63" stroke-linecap="round" stroke-linejoin="round"/>
<path d="M37.2473 56.7543C37.2473 56.7543 39.1619 58.4903 43.0394 58.4903C46.9169 58.4903 48.6381 56.6017 48.6381 56.6017" stroke="black" stroke-width="0.63" stroke-linecap="round" stroke-linejoin="round"/>
<path d="M72.5126 69.889V72.6266" stroke="black" stroke-width="0.63" stroke-linecap="round" stroke-linejoin="round"/>
<path d="M73.9049 71.2626H71.1298" stroke="black" stroke-width="0.63" stroke-linecap="round" stroke-linejoin="round"/>
<path d="M16.1871 70.1752V72.9128" stroke="black" stroke-width="0.63" stroke-linecap="round" stroke-linejoin="round"/>
<path d="M17.5796 71.5487H14.8044" stroke="black" stroke-width="0.63" stroke-linecap="round" stroke-linejoin="round"/>
<path d="M25.8181 12.1804V15.6143" stroke="black" stroke-width="0.63" stroke-linecap="round" stroke-linejoin="round"/>
<path d="M27.5585 13.8975H24.0774" stroke="black" stroke-width="0.63" stroke-linecap="round" stroke-linejoin="round"/>
</g>
<defs>
<clipPath id="clip0_281_14798">
<rect width="84" height="80" fill="white"/>
</clipPath>
</defs>
</svg>
