<svg width="85" height="80" viewBox="0 0 85 80" fill="none" xmlns="http://www.w3.org/2000/svg">
<g clip-path="url(#clip0_281_14798)">
<path opacity="0.5" d="M75.6151 0H11.9888C8.53566 0 5.73633 2.76141 5.73633 6.16778V73.8322C5.73633 77.2386 8.53566 80 11.9888 80H75.6151C79.0683 80 81.8676 77.2386 81.8676 73.8322V6.16778C81.8676 2.76141 79.0683 0 75.6151 0Z" fill="#EDEDED"/>
<path d="M51.0527 19.0768C51.1301 19.0959 51.2074 19.1149 51.2848 19.1245" stroke="black" stroke-width="0.63" stroke-linecap="round" stroke-linejoin="round"/>
<path d="M53.1406 19.6014C66.7748 23.5123 76.8312 35.7122 77.3437 50.2967" stroke="black" stroke-width="0.63" stroke-linecap="round" stroke-linejoin="round" stroke-dasharray="0.49 1.98"/>
<path d="M77.3633 51.2411C77.3633 51.3174 77.3633 51.3937 77.3633 51.47" stroke="black" stroke-width="0.63" stroke-linecap="round" stroke-linejoin="round"/>
<path d="M10.0918 51.47C10.0918 51.3937 10.0918 51.3174 10.0918 51.2411" stroke="black" stroke-width="0.63" stroke-linecap="round" stroke-linejoin="round"/>
<path d="M10.1504 49.4287C11.1077 33.9476 22.8176 21.3375 38.0086 18.7621" stroke="black" stroke-width="0.63" stroke-linecap="round" stroke-linejoin="round" stroke-dasharray="0.48 1.9"/>
<path d="M38.916 18.6189C38.9934 18.6094 39.0707 18.5999 39.1481 18.5903" stroke="black" stroke-width="0.63" stroke-linecap="round" stroke-linejoin="round"/>
<path d="M55.2877 16.3965H53.4698C53.2571 15.4521 52.88 14.5841 52.3772 13.8019L53.6632 12.5333C54.1274 12.085 54.1274 11.341 53.6632 10.8927L52.6963 9.93881C52.2418 9.49049 51.4972 9.48095 51.0331 9.93881L49.747 11.2074C48.9541 10.7114 48.0742 10.349 47.1266 10.1296V8.33632C47.1266 7.69723 46.5947 7.17261 45.9469 7.17261H44.5835C43.9356 7.17261 43.4038 7.69723 43.4038 8.33632V10.1296C42.4755 10.3394 41.6052 10.7019 40.822 11.1788L39.5456 9.90065C39.0911 9.4428 38.3369 9.43326 37.8824 9.90065L36.9155 10.845C36.461 11.2933 36.4513 12.0278 36.9155 12.4856L38.1918 13.7638C37.689 14.546 37.3119 15.414 37.0895 16.3488H35.2716C34.6238 16.3392 34.0919 16.8543 34.0919 17.5029V18.8479C34.0823 19.487 34.6044 20.0116 35.2523 20.0116H37.0702C37.2829 20.9559 37.6503 21.8239 38.1532 22.6061L36.8574 23.8747C36.403 24.323 36.3933 25.0575 36.8574 25.5154L37.8147 26.4692C38.2789 26.9271 39.0234 26.9271 39.4779 26.4692L40.7736 25.2101C41.5665 25.7061 42.4465 26.0781 43.3941 26.2975V28.0908C43.3844 28.7299 43.9066 29.2545 44.5641 29.2545H45.9275C46.5754 29.2545 47.1072 28.749 47.1072 28.1099V26.3166C48.0549 26.1068 48.9445 25.7348 49.7374 25.2483L51.0234 26.5265C51.4779 26.9748 52.2321 26.9748 52.6963 26.5265L53.6536 25.5821C54.1177 25.1338 54.1177 24.3898 53.6536 23.9415L52.3772 22.6633C52.88 21.8812 53.2571 21.0131 53.4698 20.0784H55.2877C55.9356 20.0784 56.4674 19.5633 56.4674 18.9242V17.5792C56.4674 16.9402 55.9453 16.4251 55.2974 16.4251L55.2877 16.3965ZM45.2797 21.8907C43.2201 21.8907 41.5472 20.2405 41.5472 18.2088C41.5472 16.1771 43.2201 14.5269 45.2797 14.5269C47.3393 14.5269 49.0122 16.1675 49.0122 18.2088C49.0122 20.2501 47.3393 21.8907 45.2797 21.8907Z" fill="white"/>
<g opacity="0.4">
<path d="M44.6905 7.17261C44.6712 7.24892 44.6615 7.33476 44.6615 7.42061V9.21387C44.2361 9.30926 43.8203 9.43326 43.4238 9.59542V8.33632C43.4238 7.69723 43.946 7.17261 44.6035 7.17261H44.6905Z" fill="white"/>
</g>
<g opacity="0.4">
<path d="M39.4389 12.848C38.9361 13.6302 38.559 14.4982 38.3463 15.433H37.3793C37.592 14.8416 37.8628 14.2884 38.2012 13.7637L36.9248 12.4856C36.4704 12.0277 36.4704 11.2932 36.9248 10.8449L37.8918 9.90059C38.0659 9.71936 38.2883 9.62397 38.5203 9.58582L38.1625 9.92921C37.6984 10.3775 37.6984 11.112 38.1625 11.5698L39.4389 12.848Z" fill="white"/>
</g>
<g opacity="0.4">
<path d="M53.2965 25.9064L52.697 26.4978C52.2329 26.9462 51.4883 26.9462 51.0242 26.4978L49.7381 25.2197C49.303 25.4963 48.8292 25.7252 48.3457 25.916V25.3723C49.2933 25.1624 50.1829 24.7904 50.9758 24.304L52.2619 25.5821C52.5423 25.8587 52.9291 25.9637 53.2965 25.9064Z" fill="white"/>
</g>
<g opacity="0.4">
<path d="M47.078 28.3293C46.962 28.8539 46.4882 29.245 45.9273 29.245H44.5639C43.916 29.245 43.3939 28.7204 43.3939 28.0718V26.2785C42.5236 26.0782 41.7114 25.7539 40.9668 25.3056L42.0208 24.2754C42.8137 24.7714 43.6936 25.1434 44.6413 25.3533V27.1465C44.6413 27.7856 45.1537 28.3102 45.8016 28.3102H47.078V28.3293Z" fill="white"/>
</g>
<g opacity="0.4">
<path d="M40.0966 25.8682L39.4874 26.4596C39.033 26.9079 38.2884 26.9079 37.8243 26.4596L36.867 25.5057C36.4125 25.0479 36.4125 24.3134 36.867 23.8651L38.1627 22.5965C37.6599 21.8143 37.2924 20.9463 37.0797 20.0115H35.2618C34.614 20.002 34.0918 19.4773 34.0918 18.8382V17.4933C34.0918 16.8447 34.6236 16.3296 35.2812 16.3296H35.3682C35.3488 16.4059 35.3392 16.4917 35.3392 16.5776V17.9225C35.3295 18.5616 35.8517 19.0863 36.4995 19.0863H38.3174C38.5302 20.0306 38.8976 20.8986 39.4004 21.6808L38.1047 22.9494C37.6502 23.3977 37.6405 24.1322 38.1047 24.59L39.062 25.5439C39.3424 25.8205 39.7389 25.935 40.0966 25.8682Z" fill="white"/>
</g>
<path d="M55.2877 16.3965H53.4698C53.2571 15.4521 52.88 14.5841 52.3772 13.8019L53.6632 12.5333C54.1274 12.085 54.1274 11.341 53.6632 10.8927L52.6963 9.93881C52.2418 9.49049 51.4972 9.48095 51.0331 9.93881L49.747 11.2074C48.9541 10.7114 48.0742 10.349 47.1266 10.1296V8.33632C47.1266 7.69723 46.5947 7.17261 45.9469 7.17261H44.5835C43.9356 7.17261 43.4038 7.69723 43.4038 8.33632V10.1296C42.4755 10.3394 41.6052 10.7019 40.822 11.1788L39.5456 9.90065C39.0911 9.4428 38.3369 9.43326 37.8824 9.90065L36.9155 10.845C36.461 11.2933 36.4513 12.0278 36.9155 12.4856L38.1918 13.7638C37.689 14.546 37.3119 15.414 37.0895 16.3488H35.2716C34.6238 16.3392 34.0919 16.8543 34.0919 17.5029V18.8479C34.0823 19.487 34.6044 20.0116 35.2523 20.0116H37.0702C37.2829 20.9559 37.6503 21.8239 38.1532 22.6061L36.8574 23.8747C36.403 24.323 36.3933 25.0575 36.8574 25.5154L37.8147 26.4692C38.2789 26.9271 39.0234 26.9271 39.4779 26.4692L40.7736 25.2101C41.5665 25.7061 42.4465 26.0781 43.3941 26.2975V28.0908C43.3844 28.7299 43.9066 29.2545 44.5641 29.2545H45.9275C46.5754 29.2545 47.1072 28.749 47.1072 28.1099V26.3166C48.0549 26.1068 48.9445 25.7348 49.7374 25.2483L51.0234 26.5265C51.4779 26.9748 52.2321 26.9748 52.6963 26.5265L53.6536 25.5821C54.1177 25.1338 54.1177 24.3898 53.6536 23.9415L52.3772 22.6633C52.88 21.8812 53.2571 21.0131 53.4698 20.0784H55.2877C55.9356 20.0784 56.4674 19.5633 56.4674 18.9242V17.5792C56.4674 16.9402 55.9453 16.4251 55.2974 16.4251L55.2877 16.3965ZM45.2797 21.8907C43.2201 21.8907 41.5472 20.2405 41.5472 18.2088C41.5472 16.1771 43.2201 14.5269 45.2797 14.5269C47.3393 14.5269 49.0122 16.1675 49.0122 18.2088C49.0122 20.2501 47.3393 21.8907 45.2797 21.8907Z" stroke="black" stroke-width="0.63" stroke-linecap="round" stroke-linejoin="round"/>
<path d="M65.9151 66.4169C76.1793 66.4169 84.5001 58.2089 84.5001 48.0837C84.5001 37.9586 76.1793 29.7505 65.9151 29.7505C55.6509 29.7505 47.3301 37.9586 47.3301 48.0837C47.3301 58.2089 55.6509 66.4169 65.9151 66.4169Z" fill="white"/>
<path opacity="0.31" d="M65.9159 64.5951C75.1601 64.5951 82.654 57.2027 82.654 48.0837C82.654 38.9648 75.1601 31.5724 65.9159 31.5724C56.6716 31.5724 49.1777 38.9648 49.1777 48.0837C49.1777 57.2027 56.6716 64.5951 65.9159 64.5951Z" fill="white"/>
<path d="M65.9151 66.4169C76.1793 66.4169 84.5001 58.2089 84.5001 48.0837C84.5001 37.9586 76.1793 29.7505 65.9151 29.7505C55.6509 29.7505 47.3301 37.9586 47.3301 48.0837C47.3301 58.2089 55.6509 66.4169 65.9151 66.4169Z" stroke="black" stroke-width="0.63" stroke-linecap="round" stroke-linejoin="round"/>
<path d="M65.7716 32.7837C69.0593 32.5834 71.8152 35.0253 71.6121 38.7739H70.8869C70.8869 38.7739 68.7789 37.8678 67.7829 35.5308C67.0867 36.5419 64.9304 38.9647 60.1826 39.0696C59.7281 32.9745 65.7716 32.7837 65.7716 32.7837Z" fill="#C1C1C1"/>
<path d="M68.4586 47.6162C67.7527 47.9691 66.8631 48.179 65.7705 48.1599C64.7842 48.1408 63.9622 47.95 63.3047 47.6448C60.5682 46.4048 60.2878 43.3715 60.2878 43.3715H59.5722C59.0307 43.3715 58.5859 42.9327 58.5859 42.3986V40.0521C58.5859 39.5179 59.0307 39.0791 59.5722 39.0791C59.785 39.0791 59.988 39.0791 60.1814 39.0696C64.9292 38.9647 67.0855 36.5419 67.7817 35.5308C68.7777 37.8677 70.8857 38.7739 70.8857 38.7739H71.6109C72.2975 38.7739 72.8583 39.3176 72.8583 40.0044V42.5416C72.8583 43.61 71.4079 43.3047 71.4079 43.3047C71.4079 43.3047 71.0501 46.3476 68.4586 47.6257V47.6162Z" fill="white"/>
<path d="M70.1997 49.9913L65.8871 56.2773L61.9902 49.9723C62.7735 49.9436 63.3053 50.0104 63.3053 50.0104V47.6448C63.9628 47.9501 64.7848 48.1408 65.7711 48.1599C66.8637 48.179 67.7533 47.9691 68.4592 47.6162V47.6448L68.4689 50.0104C68.4689 50.0104 69.1844 49.9246 70.1997 49.9913Z" fill="white"/>
<path d="M76.3486 55.5905V59.425H76.3003V55.9243C76.31 55.5809 76.2906 55.2662 76.252 54.9609C76.2906 55.1612 76.3293 55.3806 76.3486 55.6V55.5905Z" fill="#CB9390"/>
<path d="M70.2871 49.9913C70.6352 49.9913 72.018 50.039 73.3717 50.7544C72.3371 50.2584 71.1961 50.0581 70.2871 49.9913Z" fill="#CB9390"/>
<path d="M70.2864 49.9913C71.1954 50.058 72.3364 50.2583 73.371 50.7543C73.371 50.7543 73.3775 50.7575 73.3904 50.7639C74.6281 51.4316 75.8465 52.6716 76.2526 54.9418C76.2913 55.247 76.3106 55.5618 76.3009 55.9052V59.4059H55.4629V55.7717C55.4629 50.8974 59.5725 50.058 61.8352 49.9626H61.9899L65.8867 56.2677L70.1994 49.9817H70.2864V49.9913Z" fill="#941303"/>
<path d="M55.4727 54.8941C55.4727 54.8941 55.6854 49.9722 61.8449 49.9722C59.5822 50.0676 55.4727 50.907 55.4727 55.7812V54.8941Z" fill="#CB9390"/>
<path d="M60.1826 39.0792C59.7281 32.9745 65.7716 32.7837 65.7716 32.7837C69.0593 32.5834 71.8152 35.0253 71.6121 38.7739" stroke="black" stroke-width="0.63" stroke-linecap="round" stroke-linejoin="round"/>
<path d="M67.7817 35.5213C67.0855 36.5323 64.9292 38.9552 60.1814 39.0601C59.988 39.0696 59.785 39.0696 59.5722 39.0696C59.0307 39.0696 58.5859 39.5084 58.5859 40.0426V42.3891C58.5859 42.9232 59.0307 43.362 59.5722 43.362H60.2878C60.2878 43.362 60.5682 46.3953 63.3047 47.6353C63.9622 47.9405 64.7842 48.1313 65.7705 48.1504C66.8631 48.1695 67.7527 47.9596 68.4586 47.6067C71.0501 46.3285 71.4079 43.2857 71.4079 43.2857C71.4079 43.2857 72.8583 43.5909 72.8583 42.5226V39.9853C72.8583 39.3081 72.3071 38.7549 71.6109 38.7549H70.8857C70.8857 38.7549 68.7777 37.8487 67.7817 35.5117" stroke="black" stroke-width="0.63" stroke-linecap="round" stroke-linejoin="round"/>
<path d="M67.7812 35.5209V35.5117" stroke="black" stroke-width="0.63" stroke-linecap="round" stroke-linejoin="round"/>
<path d="M68.052 35.0729C68.052 35.0729 67.9746 35.2446 67.7812 35.5117" stroke="black" stroke-width="0.63" stroke-linecap="round" stroke-linejoin="round"/>
<path d="M68.4685 47.6448V50.0104C68.4685 50.0104 69.1841 49.9245 70.1994 49.9913H70.2864C71.1954 50.0581 72.3364 50.2584 73.371 50.7544C73.371 50.7544 73.3775 50.7576 73.3904 50.7639C74.8021 51.4412 76.0205 52.7003 76.2526 54.9418C76.2913 55.2471 76.3106 55.5618 76.3009 55.9052V59.4059H55.4629V55.7717C55.4629 50.8975 59.5725 50.0581 61.8352 49.9627H61.9899C62.7731 49.9341 63.305 50.0008 63.305 50.0008V47.6353" stroke="black" stroke-width="0.63" stroke-linecap="round" stroke-linejoin="round"/>
<path d="M64.3789 44.5734H67.0864" stroke="black" stroke-width="0.63" stroke-linecap="round" stroke-linejoin="round"/>
<path d="M65.209 46.0709H66.263" stroke="black" stroke-width="0.63" stroke-linecap="round" stroke-linejoin="round"/>
<path d="M19.085 66.4169C29.3492 66.4169 37.67 58.2089 37.67 48.0837C37.67 37.9586 29.3492 29.7505 19.085 29.7505C8.8208 29.7505 0.5 37.9586 0.5 48.0837C0.5 58.2089 8.8208 66.4169 19.085 66.4169Z" fill="white"/>
<path opacity="0.31" d="M19.0858 64.5951C28.33 64.5951 35.8239 57.2027 35.8239 48.0837C35.8239 38.9648 28.33 31.5724 19.0858 31.5724C9.84157 31.5724 2.34766 38.9648 2.34766 48.0837C2.34766 57.2027 9.84157 64.5951 19.0858 64.5951Z" fill="white"/>
<path d="M19.085 66.4169C29.3492 66.4169 37.67 58.2089 37.67 48.0837C37.67 37.9586 29.3492 29.7505 19.085 29.7505C8.8208 29.7505 0.5 37.9586 0.5 48.0837C0.5 58.2089 8.8208 66.4169 19.085 66.4169Z" stroke="black" stroke-width="0.63" stroke-linecap="round" stroke-linejoin="round"/>
<path d="M18.9416 32.7837C22.2292 32.5834 24.9851 35.0253 24.782 38.7739H24.0568C24.0568 38.7739 21.9488 37.8678 20.9529 35.5308C20.2566 36.5419 18.1003 38.9647 13.3525 39.0696C12.8981 32.9745 18.9416 32.7837 18.9416 32.7837Z" fill="#C1C1C1"/>
<path d="M21.6285 47.6162C20.9227 47.9691 20.0331 48.179 18.9404 48.1599C17.9541 48.1408 17.1322 47.95 16.4746 47.6448C13.7381 46.4048 13.4577 43.3715 13.4577 43.3715H12.7422C12.2007 43.3715 11.7559 42.9327 11.7559 42.3986V40.0521C11.7559 39.5179 12.2007 39.0791 12.7422 39.0791C12.9549 39.0791 13.158 39.0791 13.3513 39.0696C18.0991 38.9647 20.2555 36.5419 20.9517 35.5308C21.9476 37.8677 24.0556 38.7739 24.0556 38.7739H24.7808C25.4674 38.7739 26.0282 39.3176 26.0282 40.0044V42.5416C26.0282 43.61 24.5778 43.3047 24.5778 43.3047C24.5778 43.3047 24.22 46.3476 21.6285 47.6257V47.6162Z" fill="white"/>
<path d="M23.3697 49.9913L19.057 56.2773L15.1602 49.9723C15.9434 49.9436 16.4752 50.0104 16.4752 50.0104V47.6448C17.1328 47.9501 17.9547 48.1408 18.941 48.1599C20.0336 48.179 20.9233 47.9691 21.6291 47.6162V47.6448L21.6388 50.0104C21.6388 50.0104 22.3544 49.9246 23.3697 49.9913Z" fill="white"/>
<path d="M29.5186 55.5905V59.425H29.4702V55.9243C29.4799 55.5809 29.4606 55.2662 29.4219 54.9609C29.4606 55.1612 29.4992 55.3806 29.5186 55.6V55.5905Z" fill="#CB9390"/>
<path d="M23.457 49.9913C23.8051 49.9913 25.1879 50.039 26.5416 50.7544C25.507 50.2584 24.366 50.0581 23.457 49.9913Z" fill="#CB9390"/>
<path d="M23.4564 49.9913C24.3654 50.058 25.5064 50.2583 26.541 50.7543C26.541 50.7543 26.5475 50.7575 26.5604 50.7639C27.7981 51.4316 29.0165 52.6716 29.4226 54.9418C29.4613 55.247 29.4806 55.5618 29.4709 55.9052V59.4059H8.64258V55.7717C8.64258 50.8974 12.7522 50.058 15.0149 49.9626H15.1696L19.0664 56.2677L23.3791 49.9817H23.4661L23.4564 49.9913Z" fill="#941303"/>
<path d="M8.64258 54.8941C8.64258 54.8941 8.85531 49.9722 15.0149 49.9722C12.7522 50.0676 8.64258 50.907 8.64258 55.7812V54.8941Z" fill="#CB9390"/>
<path d="M13.3428 39.0792C12.8883 32.9745 18.9318 32.7837 18.9318 32.7837C22.2195 32.5834 24.9753 35.0253 24.7723 38.7739" stroke="black" stroke-width="0.63" stroke-linecap="round" stroke-linejoin="round"/>
<path d="M20.9517 35.5213C20.2555 36.5323 18.0991 38.9552 13.3513 39.0601C13.158 39.0696 12.9549 39.0696 12.7422 39.0696C12.2007 39.0696 11.7559 39.5084 11.7559 40.0426V42.3891C11.7559 42.9232 12.2007 43.362 12.7422 43.362H13.4577C13.4577 43.362 13.7381 46.3953 16.4746 47.6353C17.1322 47.9405 17.9541 48.1313 18.9404 48.1504C20.0331 48.1695 20.9227 47.9596 21.6285 47.6067C24.22 46.3285 24.5778 43.2857 24.5778 43.2857C24.5778 43.2857 26.0282 43.5909 26.0282 42.5226V39.9853C26.0282 39.3081 25.4771 38.7549 24.7808 38.7549H24.0556C24.0556 38.7549 21.9476 37.8487 20.9517 35.5117" stroke="black" stroke-width="0.63" stroke-linecap="round" stroke-linejoin="round"/>
<path d="M20.9512 35.5209V35.5117" stroke="black" stroke-width="0.63" stroke-linecap="round" stroke-linejoin="round"/>
<path d="M21.2219 35.0729C21.2219 35.0729 21.1446 35.2446 20.9512 35.5117" stroke="black" stroke-width="0.63" stroke-linecap="round" stroke-linejoin="round"/>
<path d="M21.6386 47.6448V50.0104C21.6386 50.0104 22.3541 49.9245 23.3694 49.9913H23.4564C24.3654 50.0581 25.5064 50.2584 26.541 50.7544C26.541 50.7544 26.5475 50.7576 26.5604 50.7639C27.9722 51.4412 29.1905 52.7003 29.4226 54.9418C29.4613 55.2471 29.4806 55.5618 29.4709 55.9052V59.4059H8.64258V55.7717C8.64258 50.8975 12.7522 50.0581 15.0149 49.9627H15.1696C15.9528 49.9341 16.4846 50.0008 16.4846 50.0008V47.6353" stroke="black" stroke-width="0.63" stroke-linecap="round" stroke-linejoin="round"/>
<path d="M17.5488 44.5734H20.2563" stroke="black" stroke-width="0.63" stroke-linecap="round" stroke-linejoin="round"/>
<path d="M18.3789 46.0709H19.4329" stroke="black" stroke-width="0.63" stroke-linecap="round" stroke-linejoin="round"/>
<path d="M49.1278 56.6017V69.6314H37.6016L37.6983 56.7638H37.7466C37.7466 56.7638 39.6612 58.4999 43.5387 58.4999C47.4162 58.4999 49.1374 56.6112 49.1374 56.6112L49.1278 56.6017Z" fill="white"/>
<path d="M61.3687 58.1469L62.7031 67.5902C62.8578 68.668 62.0069 69.6219 60.9046 69.6219H49.127V50.6305C49.272 50.745 49.4364 50.8308 49.6201 50.9071L52.3083 51.9182L58.081 54.0739C59.8506 54.7416 61.1173 56.306 61.3687 58.1565V58.1469Z" fill="#CB9390"/>
<path d="M37.7464 50.1631L37.698 56.7543L37.6013 69.6219H25.1372C24.2476 69.6219 23.5611 68.8492 23.6868 67.9812L25.0695 58.1564C25.3306 56.306 26.5973 54.7416 28.3669 54.0739L34.6715 51.7083L36.8181 50.9071C37.2049 50.764 37.524 50.4969 37.7367 50.1726L37.7464 50.1631Z" fill="#CB9390"/>
<path opacity="0.56" d="M27.2164 58.0134L25.6015 69.4883H37.6112V69.6219H25.5145C24.4315 69.6219 23.5999 68.6775 23.745 67.6188L25.0794 58.1469C25.3405 56.2964 26.6072 54.7321 28.3767 54.0644L34.6813 51.6988L36.828 50.8976C37.2148 50.7545 37.5339 50.4874 37.7466 50.1631V51.2314L36.828 51.5748L30.5234 53.9404C28.7442 54.6081 27.4775 56.1724 27.226 58.0229L27.2164 58.0134Z" fill="white"/>
<path d="M45.4236 29.264C44.447 36.7327 36.1602 36.0173 36.1602 36.0173C36.1118 35.4832 35.667 34.8059 35.0095 34.8059C34.5647 34.8059 34.3036 35.7598 34.41 36.8377C34.5163 37.9155 34.8838 38.9552 34.9321 39.8042C34.9805 40.6531 36.2472 40.8343 36.2472 40.8343C36.2085 42.0744 37.0208 43.3621 38.0457 44.4495V49.1711C38.0457 49.5336 37.9394 49.8674 37.7556 50.1631C37.5429 50.4874 37.2335 50.7545 36.837 50.8976L34.6904 51.6988C34.6904 51.6988 31.0449 47.1966 31.0449 38.7358C31.0449 30.2751 35.5606 22.2913 43.5381 22.2913C51.5155 22.2913 56.0409 30.2846 56.0409 38.7358C56.0409 47.1871 52.3954 51.6988 52.3954 51.6988L52.3181 51.8991L49.6299 50.888C49.4462 50.8213 49.2818 50.7259 49.1368 50.6114C48.692 50.268 48.4116 49.7339 48.4116 49.1615V44.9741C49.5622 43.7245 50.6549 42.0934 50.8386 40.5577C52.1827 40.6913 52.0473 38.9171 52.115 37.8964C52.173 36.8663 52.9563 35.1875 52.4245 34.7678C51.8926 34.3385 51.3415 35.3592 50.0457 35.3115C45.7911 35.1398 45.4333 29.2545 45.4333 29.2545L45.4236 29.264Z" fill="#C1C1C1"/>
<path d="M38.0364 44.4495C37.0114 43.3621 36.1992 42.0744 36.2379 40.8344C36.2379 40.8344 34.9808 40.6531 34.9228 39.8042C34.8744 38.9553 34.507 37.9251 34.4006 36.8377C34.2943 35.7598 34.5553 34.806 35.0002 34.806C35.648 34.806 36.0928 35.4832 36.1508 36.0174C36.1508 36.0174 44.4474 36.7328 45.4143 29.264C45.4143 29.264 45.7818 35.1494 50.0267 35.3211C51.3225 35.3688 51.8736 34.3481 52.4055 34.7774C52.9276 35.1971 52.1444 36.8759 52.096 37.906C52.038 38.9362 52.1734 40.7104 50.8197 40.5673C50.6359 42.103 49.5433 43.7341 48.3926 44.9837C47.474 45.9757 46.5167 46.7197 45.9365 46.9963C44.6311 47.6163 43.6931 47.5496 43.6931 47.5496H43.5964C43.3257 47.5496 42.4651 47.5019 41.3434 46.9963C40.6085 46.672 39.1774 45.6895 38.0171 44.4495H38.0364Z" fill="white"/>
<path d="M49.1286 50.6305V56.6017C49.1286 56.6017 47.4074 58.4903 43.5299 58.4903C39.6524 58.4903 37.7378 56.7543 37.7378 56.7543H37.6895L37.7378 50.1631C37.9215 49.8769 38.0279 49.5335 38.0279 49.1711V44.4495C39.1882 45.6895 40.6193 46.672 41.3542 46.9963C42.4856 47.5018 43.3462 47.5495 43.6073 47.5495H43.704C43.704 47.5495 44.6419 47.6163 45.9473 46.9963C46.5275 46.7197 47.4848 45.9756 48.4034 44.9836V49.1711C48.4034 49.7434 48.6838 50.2776 49.1286 50.6209V50.6305Z" fill="white"/>
<path d="M48.4124 44.9835V49.171C48.4124 49.7433 48.6928 50.2774 49.1376 50.6208C49.2826 50.7353 49.447 50.8211 49.6307 50.8974L52.3189 51.9085L58.0917 54.0643C59.8612 54.732 61.1279 56.2963 61.3793 58.1468L62.7524 67.9143C62.8781 68.8205 62.1722 69.6218 61.244 69.6218H23.4551L25.0699 58.1468C25.331 56.2963 26.5977 54.732 28.3672 54.0643L34.6718 51.6987L36.8185 50.8974C37.2053 50.7544 37.5244 50.4873 37.7371 50.163C37.9208 49.8768 38.0272 49.5334 38.0272 49.171V44.4493" stroke="black" stroke-width="0.63" stroke-linecap="round" stroke-linejoin="round"/>
<path d="M36.2379 40.8342C36.2379 40.8342 34.9808 40.653 34.9228 39.804C34.8744 38.9551 34.507 37.9249 34.4006 36.8375C34.2943 35.7596 34.5553 34.8058 35.0002 34.8058C35.648 34.8058 36.0928 35.483 36.1508 36.0172C36.1508 36.0172 44.4474 36.7326 45.4143 29.2638C45.4433 29.1017 45.4627 28.9395 45.4724 28.7583" stroke="black" stroke-width="0.63" stroke-linecap="round" stroke-linejoin="round"/>
<path d="M50.8388 40.5671C50.6551 42.1029 49.5624 43.734 48.4117 44.9835C47.4931 45.9755 46.5358 46.7195 45.9556 46.9962C44.6502 47.6162 43.7123 47.5494 43.7123 47.5494H43.6156C43.3448 47.5494 42.4842 47.5017 41.3626 46.9962C40.6277 46.6719 39.1966 45.6894 38.0362 44.4494C37.0112 43.362 36.199 42.0742 36.2377 40.8342" stroke="black" stroke-width="0.63" stroke-linecap="round" stroke-linejoin="round"/>
<path d="M45.4336 29.2639C45.4336 29.2639 45.801 35.1492 50.046 35.3209C51.3417 35.3686 51.8929 34.348 52.4247 34.7772C52.9469 35.1969 52.1637 36.8757 52.1153 37.9059C52.0573 38.9361 52.1927 40.7103 50.8389 40.5672" stroke="black" stroke-width="0.63" stroke-linecap="round" stroke-linejoin="round"/>
<path d="M34.6806 51.7083C34.6806 51.7083 31.0352 47.2061 31.0352 38.7454C31.0352 30.2846 35.5509 22.3008 43.5283 22.3008" stroke="black" stroke-width="0.63" stroke-linecap="round" stroke-linejoin="round"/>
<path d="M52.3867 51.7083C52.3867 51.7083 56.0321 47.2061 56.0321 38.7454C56.0321 30.2846 51.5164 22.3008 43.5293 22.3008" stroke="black" stroke-width="0.63" stroke-linecap="round" stroke-linejoin="round"/>
<path d="M37.7466 50.1631L37.6983 56.7543L37.6016 69.6219" stroke="black" stroke-width="0.63" stroke-linecap="round" stroke-linejoin="round"/>
<path d="M49.127 69.6219V56.6017V50.6305" stroke="black" stroke-width="0.63" stroke-linecap="round" stroke-linejoin="round"/>
<path d="M37.7461 56.7543C37.7461 56.7543 39.6607 58.4903 43.5382 58.4903C47.4157 58.4903 49.1369 56.6017 49.1369 56.6017" stroke="black" stroke-width="0.63" stroke-linecap="round" stroke-linejoin="round"/>
<path d="M73.0137 69.889V72.6266" stroke="black" stroke-width="0.63" stroke-linecap="round" stroke-linejoin="round"/>
<path d="M74.406 71.2626H71.6309" stroke="black" stroke-width="0.63" stroke-linecap="round" stroke-linejoin="round"/>
<path d="M16.6875 70.1752V72.9128" stroke="black" stroke-width="0.63" stroke-linecap="round" stroke-linejoin="round"/>
<path d="M18.0799 71.5487H15.3047" stroke="black" stroke-width="0.63" stroke-linecap="round" stroke-linejoin="round"/>
<path d="M26.3184 12.1804V15.6143" stroke="black" stroke-width="0.63" stroke-linecap="round" stroke-linejoin="round"/>
<path d="M28.0592 13.8975H24.5781" stroke="black" stroke-width="0.63" stroke-linecap="round" stroke-linejoin="round"/>
</g>
<defs>
<clipPath id="clip0_281_14798">
<rect width="84" height="80" fill="white" transform="translate(0.5)"/>
</clipPath>
</defs>
</svg>
