<svg width="48" height="49" viewBox="0 0 48 49" fill="none" xmlns="http://www.w3.org/2000/svg">
<path d="M3.42871 24.4992L24.0001 3.92773L44.5716 24.4992" stroke="black" stroke-width="1.5" stroke-linecap="round" stroke-linejoin="round"/>
<path d="M8 19.9277V38.2134C8 38.8197 8.24082 39.401 8.66947 39.8297C9.09812 40.2583 9.67951 40.4992 10.2857 40.4992H17.1429C17.7491 40.4992 18.3304 40.2583 18.7591 39.8297C19.1878 39.401 19.4286 38.8197 19.4286 38.2134V29.0706C19.4286 28.4644 19.6694 27.883 20.098 27.4543C20.5267 27.0257 21.1081 26.7849 21.7143 26.7849H26.2857C26.8919 26.7849 27.4733 27.0257 27.902 27.4543C28.3306 27.883 28.5714 28.4644 28.5714 29.0706V38.2134C28.5714 38.8197 28.8122 39.401 29.2409 39.8297C29.6696 40.2583 30.2509 40.4992 30.8571 40.4992H37.7143C38.3205 40.4992 38.9019 40.2583 39.3305 39.8297C39.7592 39.401 40 38.8197 40 38.2134V19.9277" stroke="black" stroke-width="1.5" stroke-linecap="round" stroke-linejoin="round"/>
</svg>
