<svg width="17" height="17" viewBox="0 0 17 17" fill="none" xmlns="http://www.w3.org/2000/svg">
<path d="M2.95402 10.8375L6.16277 14.0463C7.48027 15.3638 9.61944 15.3638 10.944 14.0463L14.0536 10.9367C15.3711 9.6192 15.3711 7.48003 14.0536 6.15545L10.8378 2.95378C10.1649 2.28087 9.23694 1.91962 8.28777 1.9692L4.7461 2.1392C3.32944 2.20295 2.20319 3.3292 2.13235 4.73878L1.96235 8.28045C1.91985 9.2367 2.2811 10.1646 2.95402 10.8375Z" stroke="#424242" stroke-linecap="round" stroke-linejoin="round"/>
<path d="M6.72884 8.50003C7.70685 8.50003 8.49967 7.70721 8.49967 6.7292C8.49967 5.7512 7.70685 4.95837 6.72884 4.95837C5.75084 4.95837 4.95801 5.7512 4.95801 6.7292C4.95801 7.70721 5.75084 8.50003 6.72884 8.50003Z" stroke="#424242" stroke-linecap="round"/>
</svg>
