<?xml version="1.0" encoding="UTF-8"?>
<svg id="Layer_1" data-name="Layer 1" xmlns="http://www.w3.org/2000/svg" viewBox="0 0 512 512">
  <defs>
    <style>
      .cls-1 {
        fill: #fff;
      }
    </style>
  </defs>
  <path class="cls-1" d="M21.33,330.67c0,17.71,14.29,32,32,32h192c5.97,0,10.67,4.69,10.67,10.67s-4.69,10.67-10.67,10.67H53.33c-29.44,0-53.33-23.89-53.33-53.33,0-25.81,18.35-47.36,42.67-52.27V96C42.67,43.09,85.76,0,138.67,0h234.67c52.91,0,96,43.09,96,96v42.67c0,5.97-4.69,10.67-10.67,10.67s-10.67-4.69-10.67-10.67v-42.67c0-41.17-33.49-74.67-74.67-74.67h-234.67c-41.17,0-74.67,33.49-74.67,74.67v181.33h117.33c2.77,0,5.55,1.07,7.47,3.2l18.13,18.13h38.19c5.97,0,10.67,4.69,10.67,10.67s-4.69,10.67-10.67,10.67h-42.67c-2.77,0-5.55-1.07-7.47-3.2l-18.13-18.13H53.33c-17.71,0-32,14.29-32,32ZM512,266.67v170.67c0,41.17-33.49,74.67-74.67,74.67h-64c-41.17,0-74.67-33.49-74.67-74.67v-170.67c0-41.17,33.49-74.67,74.67-74.67h64c41.17,0,74.67,33.49,74.67,74.67ZM490.67,266.67c0-29.44-23.89-53.33-53.33-53.33h-64c-29.44,0-53.33,23.89-53.33,53.33v170.67c0,29.44,23.89,53.33,53.33,53.33h64c29.44,0,53.33-23.89,53.33-53.33v-170.67Z"/>
</svg>