<?xml version="1.0" encoding="UTF-8"?>
<svg id="Layer_1" data-name="Layer 1" xmlns="http://www.w3.org/2000/svg" viewBox="0 0 512 512">
  <defs>
    <style>
      .cls-1 {
        fill: #fff;
      }
    </style>
  </defs>
  <path class="cls-1" d="M501.33,234.67c-5.89,0-10.67-4.78-10.67-10.67,0-111.74-90.92-202.67-202.67-202.67-5.89,0-10.67-4.78-10.67-10.67s4.78-10.67,10.67-10.67c123.52,0,224,100.48,224,224,0,5.89-4.78,10.67-10.67,10.67ZM426.67,224c0-76.46-62.21-138.67-138.67-138.67-5.89,0-10.67,4.78-10.67,10.67s4.78,10.67,10.67,10.67c64.7,0,117.33,52.63,117.33,117.33,0,5.89,4.78,10.67,10.67,10.67s10.67-4.78,10.67-10.67ZM474.33,475.11l20.86-24c10.84-10.84,16.81-25.26,16.81-40.58s-5.97-29.76-17.86-41.49l-52.18-39.96c-22.36-22.36-58.73-22.38-81.13-.06l-32.68,31.87c-78.51-31.98-142.46-96-176.94-177.13l31.74-32.53c22.38-22.38,22.38-58.79.92-80.13l-41.79-54.25c-21.7-21.7-60.01-21.18-80.64-.49l-25.05,21.85C12.91,61.57,0,93.29,0,127.49c0,165.31,219.2,384.51,384.51,384.51,34.2,0,65.9-12.91,89.81-36.89h0ZM126.06,30.85l41.79,54.25c14.06,14.06,14.06,36.95-.09,51.11l-36.74,37.67c-2.94,3.03-3.84,7.51-2.26,11.43,36.89,91.84,109.08,164.01,198.1,197.97,3.88,1.49,8.28.58,11.24-2.3l37.67-36.74s.06-.06.09-.11c13.63-13.65,36.35-14.53,52.05.92l52.18,39.96c14.06,14.06,14.06,36.93-.49,51.54l-20.89,24c-19.37,19.41-45.74,30.1-74.22,30.1-152.75,0-363.18-210.43-363.18-363.18,0-28.48,10.69-54.85,29.59-73.73l25.07-21.87c7.17-7.17,16.62-10.67,25.92-10.67s17.73,3.24,24.17,9.64l-.02-.02Z"/>
</svg>