<?xml version="1.0" encoding="UTF-8"?>
<svg id="Layer_1" data-name="Layer 1" xmlns="http://www.w3.org/2000/svg" viewBox="0 0 512.01 255.98">
  <defs>
    <style>
      .cls-1 {
        fill: #fff;
      }
    </style>
  </defs>
  <path class="cls-1" d="M458.67,0h-128c-5.89,0-10.67,4.78-10.67,10.67s4.78,10.67,10.67,10.67h128c4.93,0,9.62,1.13,13.78,3.14l-185.71,185.71c-5.21,5.21-13.63,5.21-18.84,0l-92.99-92.99c-14.12-14.12-37.03-14.12-51.16,0L3.12,237.78c-4.16,4.16-4.16,10.92,0,15.08,2.09,2.09,4.82,3.11,7.55,3.11s5.46-1.05,7.55-3.11l120.62-120.62c5.63-5.59,15.38-5.59,20.99,0l92.99,92.99c13.08,13.08,35.93,13.08,49,0L487.54,39.55c2.01,4.18,3.14,8.85,3.14,13.78v128c0,5.89,4.78,10.67,10.67,10.67s10.67-4.78,10.67-10.67V53.33c0-29.42-23.91-53.33-53.33-53.33Z"/>
</svg>