<?xml version="1.0" encoding="UTF-8"?>
<svg id="Layer_1" data-name="Layer 1" xmlns="http://www.w3.org/2000/svg" viewBox="0 0 16 24">
  <defs>
    <style>
      .cls-1 {
        fill: #940000;
      }
    </style>
  </defs>
  <path class="cls-1" d="M8,12c3.31,0,6-2.69,6-6S11.31,0,8,0,2,2.69,2,6s2.69,6,6,6ZM8,1c2.76,0,5,2.24,5,5s-2.24,5-5,5-5-2.24-5-5S5.24,1,8,1ZM16,22v1.5c0,.28-.22.5-.5.5s-.5-.22-.5-.5v-1.5c0-3.86-3.14-7-7-7s-7,3.14-7,7v1.5c0,.28-.22.5-.5.5s-.5-.22-.5-.5v-1.5c0-4.41,3.59-8,8-8s8,3.59,8,8Z"/>
</svg>