<?xml version="1.0" encoding="UTF-8"?>
<svg id="Layer_1" data-name="Layer 1" xmlns="http://www.w3.org/2000/svg" viewBox="0 0 512 469.33">
  <defs>
    <style>
      .cls-1 {
        fill: #fff;
      }
    </style>
  </defs>
  <path class="cls-1" d="M504.87,200.92l-21.5-64.53c-10.18-30.53-38.63-51.05-70.83-51.05h-50.47C356.74,37.4,315.99,0,266.67,0H96C43.07,0,0,43.07,0,96v309.33c0,35.29,28.71,64,64,64,22.25,0,41.86-11.41,53.33-28.67,11.48,17.26,31.08,28.67,53.33,28.67,35.29,0,64-28.71,64-64v-21.33h106.67v21.33c0,35.29,28.71,64,64,64s64-28.71,64-64v-28.54c25.19-12.01,42.67-37.74,42.67-67.46v-64.55c0-14.93-2.39-29.7-7.13-43.86h0ZM463.13,143.15l21.5,64.53c.62,1.88,1.19,3.78,1.73,5.67h-123.71v-106.69h49.88c23,0,43.33,14.66,50.6,36.46v.02ZM21.33,96c0-41.17,33.49-74.67,74.67-74.67h170.67c41.17,0,74.67,33.49,74.67,74.67v266.67H21.33V96ZM64,448c-23.53,0-42.67-19.14-42.67-42.67v-21.33h85.33v21.33c0,23.53-19.14,42.67-42.67,42.67ZM213.33,405.33c0,23.53-19.14,42.67-42.67,42.67s-42.67-19.14-42.67-42.67v-21.33h85.33v21.33ZM448,405.33c0,23.53-19.14,42.67-42.67,42.67s-42.67-19.14-42.67-42.67v-21.33h74.67c3.63,0,7.19-.26,10.67-.77v22.1ZM490.67,309.33c0,29.4-23.94,53.33-53.33,53.33h-74.67v-128h127.55c.3,3.35.45,6.72.45,10.11v64.55Z"/>
</svg>