<svg width="20" height="21" viewBox="0 0 20 21" fill="none" xmlns="http://www.w3.org/2000/svg">
<path d="M5.75033 17.6665C7.00033 18.4165 8.50033 18.8332 10.0003 18.8332C14.5837 18.8332 18.3337 15.0832 18.3337 10.4998C18.3337 5.9165 14.5837 2.1665 10.0003 2.1665C5.41699 2.1665 1.66699 5.9165 1.66699 10.4998C1.66699 11.9998 2.08366 13.4165 2.75033 14.6665L2.10744 17.1392C1.91271 17.8881 2.60592 18.5649 3.34998 18.3523L5.75033 17.6665Z" stroke="white" stroke-miterlimit="10" stroke-linecap="round" stroke-linejoin="round"/>
<path d="M13.75 12.8737C13.75 13.0087 13.72 13.1475 13.6561 13.2825C13.5923 13.4175 13.5096 13.545 13.4007 13.665C13.2167 13.8675 13.0139 14.0138 12.7848 14.1075C12.5595 14.2013 12.3153 14.25 12.0525 14.25C11.6694 14.25 11.26 14.16 10.8281 13.9763C10.3962 13.7925 9.96432 13.545 9.53618 13.2338C9.10428 12.9188 8.69492 12.57 8.30433 12.1837C7.9175 11.7937 7.56823 11.385 7.25651 10.9575C6.94855 10.53 6.70068 10.1025 6.52041 9.67875C6.34014 9.25125 6.25 8.8425 6.25 8.4525C6.25 8.1975 6.29507 7.95375 6.3852 7.72875C6.47534 7.5 6.61805 7.29 6.8171 7.1025C7.05746 6.86625 7.32036 6.75 7.59827 6.75C7.70343 6.75 7.80859 6.7725 7.90248 6.8175C8.00013 6.8625 8.0865 6.93 8.15411 7.0275L9.02541 8.25375C9.09301 8.3475 9.14184 8.43375 9.17564 8.51625C9.20944 8.595 9.22822 8.67375 9.22822 8.745C9.22822 8.835 9.20193 8.925 9.14935 9.01125C9.10053 9.0975 9.02917 9.1875 8.93903 9.2775L8.65361 9.57375C8.61229 9.615 8.59352 9.66375 8.59352 9.72375C8.59352 9.75375 8.59727 9.78 8.60478 9.81C8.61605 9.84 8.62732 9.8625 8.63483 9.885C8.70243 10.0087 8.81885 10.17 8.9841 10.365C9.1531 10.56 9.33337 10.7588 9.52867 10.9575C9.73147 11.1563 9.92677 11.34 10.1258 11.5087C10.3211 11.6737 10.4826 11.7862 10.6103 11.8537C10.6291 11.8612 10.6516 11.8725 10.6779 11.8837C10.7079 11.895 10.738 11.8987 10.7718 11.8987C10.8356 11.8987 10.8845 11.8763 10.9258 11.835L11.2112 11.5538C11.3051 11.46 11.3952 11.3887 11.4816 11.3438C11.568 11.2912 11.6544 11.265 11.7482 11.265C11.8196 11.265 11.8947 11.28 11.9773 11.3138C12.06 11.3475 12.1463 11.3963 12.2402 11.46L13.4834 12.3412C13.581 12.4087 13.6486 12.4875 13.6899 12.5812C13.7275 12.675 13.75 12.7687 13.75 12.8737Z" stroke="white" stroke-miterlimit="10"/>
</svg>
