<?xml version="1.0" encoding="UTF-8"?>
<svg id="Layer_1" data-name="Layer 1" xmlns="http://www.w3.org/2000/svg" viewBox="0 0 426.69 512.03">
  <defs>
    <style>
      .cls-1 {
        fill: #940000;
      }
    </style>
  </defs>
  <path class="cls-1" d="M227.19,256.02L424.25,17.47c3.75-4.54,3.11-11.26-1.43-15.02-4.5-3.75-11.22-3.14-15.02,1.43l-194.45,235.39L18.91,3.9C15.12-.68,8.4-1.28,3.9,2.47-.65,6.23-1.29,12.95,2.47,17.49l197.03,238.53L2.45,494.57c-3.75,4.54-3.11,11.26,1.43,15.02,4.52,3.73,11.24,3.14,15.02-1.43l194.45-235.39,194.43,235.37c3.78,4.57,10.52,5.16,15.02,1.43,4.54-3.75,5.18-10.47,1.43-15.02l-197.03-238.53Z"/>
</svg>