<?xml version="1.0" encoding="UTF-8"?>
<svg id="Layer_1" data-name="Layer 1" xmlns="http://www.w3.org/2000/svg" viewBox="0 0 24 24">
  <defs>
    <style>
      .cls-1 {
        fill: #424242;
      }
    </style>
  </defs>
  <path class="cls-1" d="M12.04,0h0s-.03,0-.04,0h-.02C5.37.01,0,5.39,0,12s5.38,12,12,12,12-5.38,12-12S18.64.02,12.04,0ZM21.79,7h-4.81c-1.07-2.67-2.71-4.78-3.73-5.93,3.73.42,6.9,2.72,8.55,5.93h0ZM17,12c0,1.41-.29,2.75-.73,4H7.73c-.44-1.25-.73-2.59-.73-4s.29-2.75.73-4h8.54c.44,1.25.73,2.59.73,4ZM15.88,17c-1.23,2.84-3.12,4.99-3.88,5.79-.76-.8-2.65-2.95-3.88-5.79h7.76ZM8.12,7c1.23-2.84,3.12-4.99,3.88-5.79.76.8,2.65,2.95,3.88,5.79h-7.76ZM10.76,1.08c-1.02,1.15-2.67,3.26-3.73,5.92H2.21C3.86,3.8,7.02,1.5,10.76,1.08ZM1.76,8h4.9c-.4,1.25-.67,2.59-.67,4s.26,2.75.67,4H1.76c-.49-1.24-.76-2.59-.76-4s.28-2.76.76-4ZM2.21,17h4.81c1.07,2.67,2.71,4.78,3.73,5.92-3.73-.42-6.9-2.72-8.55-5.92ZM13.24,22.92c1.02-1.14,2.66-3.26,3.73-5.92h4.81c-1.65,3.21-4.81,5.5-8.55,5.92h0ZM22.24,16h-4.91c.4-1.25.67-2.59.67-4s-.26-2.75-.67-4h4.91c.49,1.24.76,2.59.76,4s-.28,2.76-.76,4Z"/>
</svg>