<?xml version="1.0" encoding="UTF-8"?>
<svg id="Layer_1" xmlns="http://www.w3.org/2000/svg" version="1.1" viewBox="0 0 304.4 309.1">
  <!-- Generator: Adobe Illustrator 29.0.0, SVG Export Plug-In . SVG Version: 2.1.0 Build 186)  -->
  <defs>
    <style>
      .st0 {
        fill: #fff;
      }

      .st1 {
        fill: #941303;
      }

      .st2 {
        fill: #ededed;
        opacity: .5;
      }

      .st3 {
        fill: none;
        stroke: #000;
        stroke-linecap: round;
        stroke-linejoin: round;
        stroke-width: 2.6px;
      }

      .st4 {
        fill: #c1c1c1;
      }

      .st5 {
        fill: #cb9390;
      }
    </style>
  </defs>
  <rect class="st2" width="290.1" height="309.1" rx="23.8" ry="23.8"/>
  <g>
    <g>
      <polygon class="st4" points="170.6 249.7 199.1 286.6 102.2 286.6 90.6 286.6 119.2 249.7 170.6 249.7"/>
      <g>
        <path class="st3" d="M75.9,286.4"/>
        <g>
          <g>
            <path class="st4" d="M282.5,229.1v12.3c0,4.6-3.7,8.3-8.3,8.3h-5.6c4.6,0,8.3-3.7,8.3-8.3v-12.3h5.6Z"/>
            <path class="st0" d="M274.1,54c4.6,0,8.3,3.7,8.3,8.3v166.8h-45c-8-8-19.6-19.4-36.4-36.2,5.7-8.9,9.7-17.6,12.2-26h55.2v-44.1s6.6,0,6.6,0v-7.4l-42.6-25.5-27.1,16.3c-13.4-20.3-36.9-33.2-61.5-33.8-6.9-.2-13.9.6-20.7,2.5-10.5,2.9-20.7,8.3-30,16.6-4.7,4.2-8.5,8.6-11.5,13.1l-24.4-14.6-42.6,25.5v7.4h6.6v44.1h50.4c9.4,33.1,40.7,53.5,71.7,53.5s30.2-5.7,46-15.9c6.8,6.8,15.6,15.6,24.4,24.5H1.7V62.3c0-4.6,3.7-8.3,8.3-8.3h264.1Z"/>
            <path class="st1" d="M237.5,229.1c13.7,13.7,16.8,17.2,16.8,20.4s0,.2,0,.2h-19.9c-6.2-6.2-13.3-13.4-20.5-20.6h23.6Z"/>
            <rect class="st5" x="240.3" y="131.3" width=".7" height="20.7"/>
            <path class="st4" d="M237.5,229.1h39.4v12.3c0,4.6-3.7,8.3-8.3,8.3h-14.3c0,0,0-.2,0-.2,0-3.2-3-6.7-16.8-20.4h0Z"/>
            <path class="st1" d="M234.3,249.7h19.9c-.2,7-9.1,10.8-14.3,5.6-1.7-1.8-3.6-3.6-5.6-5.6ZM80.9,146.5c0,34.3,27.8,62,62,62s62-27.8,62-62-27.8-62-62-62-62,27.8-62,62h0ZM201.1,193c16.8,16.8,28.4,28.2,36.4,36.2h-23.6c-8.9-8.9-17.7-17.7-24.4-24.5-15.9,10.2-28.1,15.9-46,15.9-31,0-62.3-20.4-71.7-53.5-1.8-6.5-2.8-13.4-2.8-20.8s.2-7.7,1.2-13.2c1.5-8.2,4.7-18.4,11.6-28.4,3.1-4.4,6.8-8.9,11.5-13.1,9.2-8.3,19.5-13.7,30-16.6,6.9-1.9,13.8-2.7,20.7-2.5,24.6.6,48.1,13.5,61.5,33.8,5.2,7.9,8.9,16.8,10.5,26.7,1.7,10.5,1.1,22-2.6,34.1-2.5,8.4-6.5,17.1-12.2,26h0Z"/>
            <path class="st1" d="M184,207.4c-8.8,5.6-16.4,9.9-24.6,12.6,8.8-2.1,16.7-6.1,25.6-11.5-.4-.3-.7-.7-1.1-1ZM233.9,251.1c.5.5,1,1,1.4,1.4,1.5,1.5,2.9,2.9,4.2,4.2,1.6,1.6,3.6,2.3,5.6,2.4,4.4.1,8.6-3.2,8.8-8h-19.9Z"/>
            <path class="st0" d="M253.8,247.3c.9,2.9,0,5.3-2.4,7.1-8-7.9-39.9-42.8-55.7-58.6,5.7-8.9,9.7-17.6,12.2-26,3.6-12.1,4.3-23.6,2.6-34.1-1.6-9.8-5.3-18.8-10.5-26.6-13.4-20.3-36.9-33.2-61.5-33.8-6.3-.2-12.7.5-19,2.1,1.1-.4,2.2-.7,3.3-1,6.9-1.9,13.8-2.7,20.7-2.5,24.6.6,48.1,13.5,61.5,33.8,5.2,7.9,8.8,16.8,10.5,26.7,1.7,10.5,1.1,22-2.6,34.1-2.5,8.4-6.5,17.1-12.2,26,16.8,16.8,45.1,44.9,53.1,52.9Z"/>
            <path class="st1" d="M157.1,208.1c-4.7,1.1-9.6,1.7-14.6,1.7-34.2,0-62-27.8-62-62s17.8-50.7,42.4-58.9c6.2-2,12.8-3.2,19.6-3.2,34.2,0,62,27.8,62,62s-20.2,53.7-47.4,60.3Z"/>
            <path class="st1" d="M204.5,147.8c0,29.2-20.2,53.7-47.4,60.3-4.7,1.1-9.6,1.7-14.6,1.7-34.2,0-62-27.8-62-62s17.8-50.7,42.4-58.9c6.2-2,12.8-3.2,19.6-3.2,34.2,0,62,27.8,62,62Z"/>
            <path class="st0" d="M215.9,132.9h14.7v34.1h-17.3c3.6-12.1,4.3-23.6,2.6-34.1Z"/>
            <path class="st0" d="M205.4,106.2l27.1-16.3,42.6,25.5v7.4h-6.6v44.1s-37.9,0-37.9,0v-34.1h-14.7c-1.6-9.8-5.3-18.8-10.5-26.7ZM106.9,178.9h72v-44.1s6.6,0,6.6,0v-7.4l-42.6-25.6-22,13.2h0v-8.5h-9v13.4l.2.3-11.8,7.1v7.4h6.6v44.1ZM142.9,84.4c34.3,0,62,27.8,62,62s-27.8,62-62,62-62-27.8-62-62,27.8-62,62-62Z"/>
            <path class="st0" d="M151.4,164h16.4v-20.7h-16.4v20.7h0ZM185.5,127.5v7.4h-6.6v44.1s-37.9,0-37.9,0v-34.1h-22.1v34.1h-11.9v-44.1h-6.6v-7.4l11.8-7.1,8.8-5.3,22-13.2,42.6,25.6h0Z"/>
            <path class="st4" d="M144,243.1c2,0,3.7-1.7,3.7-3.7s-1.7-3.7-3.7-3.7-3.7,1.7-3.7,3.7,1.7,3.7,3.7,3.7ZM213.9,229.1c7.1,7.2,14.3,14.4,20.5,20.6H21.2c-4.6,0-8.3-3.7-8.3-8.3v-12.3h201Z"/>
            <rect class="st5" x="151.4" y="143.2" width="16.4" height="20.7"/>
            <circle class="st0" cx="144" cy="239.4" r="3.7"/>
            <rect class="st5" x="118.9" y="144.8" width="22.1" height="34.1"/>
            <polygon class="st5" points="120.9 115 120.9 115.1 112.1 120.4 111.9 120.1 111.9 106.7 120.9 106.7 120.9 115"/>
            <path class="st0" d="M81.7,104.6c-6.9,10-10.1,20.2-11.6,28.4h-.5c0,0-10.4,0-10.4,0v34.1H21.3v-44.1h-6.6v-7.4l42.6-25.5,24.4,14.6h0Z"/>
            <path class="st0" d="M68.9,146.2c0,7.4,1,14.3,2.8,20.8h-12.5v-34.1h10.9c-1,5.6-1.2,10.2-1.2,13.3h0Z"/>
            <path class="st4" d="M12.9,241.4c0,4.6,3.7,8.3,8.3,8.3h-11.1c-4.6,0-8.3-3.7-8.3-8.3v-12.3h11.1v12.3Z"/>
          </g>
          <g>
            <path class="st3" d="M282.5,97.1v144.3c0,4.6-3.7,8.3-8.3,8.3h-19.9"/>
            <path class="st3" d="M234.3,249.7H10.1c-4.6,0-8.3-3.7-8.3-8.3V62.3c0-4.6,3.7-8.3,8.3-8.3h194.3"/>
            <polyline class="st3" points="237.5 229.1 276.9 229.1 282.5 229.1"/>
            <polyline class="st3" points="1.7 229.1 12.9 229.1 213.9 229.1"/>
            <polyline class="st3" points="119.2 249.7 119.2 249.7 90.6 286.6 90.5 286.8"/>
            <polyline class="st3" points="170.6 249.7 170.6 249.7 199.1 286.6 199.3 286.8"/>
            <path class="st3" d="M80.9,146.5c0,34.3,27.8,62,62,62s62-27.8,62-62-27.8-62-62-62-62,27.8-62,62h0Z"/>
            <path class="st3" d="M81.7,104.6c3.1-4.4,6.8-8.9,11.5-13.1,9.2-8.3,19.5-13.7,30-16.6,6.9-1.9,13.8-2.7,20.7-2.5,24.6.6,48.1,13.5,61.5,33.8,5.2,7.9,8.9,16.8,10.5,26.7,1.7,10.5,1.1,22-2.6,34.1-2.5,8.4-6.5,17.1-12.2,26,16.8,16.8,28.4,28.2,36.4,36.2,13.7,13.7,16.8,17.2,16.8,20.4s0,.2,0,.2c-.2,7-9.1,10.8-14.3,5.6-1.7-1.8-3.6-3.6-5.6-5.6-6.2-6.2-13.3-13.4-20.5-20.6-8.9-8.9-17.7-17.7-24.4-24.5-15.9,10.2-28.1,15.9-46,15.9-31,0-62.3-20.4-71.7-53.5-1.8-6.5-2.8-13.4-2.8-20.8s.2-7.7,1.2-13.2c1.5-8.2,4.7-18.4,11.6-28.4h0Z"/>
            <polyline class="st3" points="106.9 178.9 106.9 134.8 100.3 134.8 100.3 127.5 112.1 120.4 120.9 115.1 142.9 101.9 185.5 127.5 185.5 134.8 178.9 134.8 178.9 178.9"/>
            <polyline class="st3" points="118.9 178.9 118.9 144.8 141 144.8 141 178.9"/>
            <polyline class="st3" points="151.4 164 151.4 143.2 167.8 143.2 167.8 164"/>
            <polyline class="st3" points="147.8 164 151.4 164 167.8 164 171.3 164"/>
            <polyline class="st3" points="111.9 120.1 111.9 106.7 120.9 106.7 120.9 115"/>
            <polyline class="st3" points="102.5 178.9 106.9 178.9 118.9 178.9 141 178.9 178.9 178.9 185.5 178.9"/>
            <circle class="st3" cx="144" cy="239.4" r="3.7"/>
          </g>
        </g>
      </g>
    </g>
    <g>
      <g>
        <g>
          <line class="st3" x1="295.7" y1="260.4" x2="295.7" y2="272.2"/>
          <line class="st3" x1="301.6" y1="266.3" x2="289.7" y2="266.3"/>
        </g>
        <g>
          <line class="st3" x1="39.6" y1="275.3" x2="39.6" y2="287.1"/>
          <line class="st3" x1="45.5" y1="281.2" x2="33.7" y2="281.2"/>
        </g>
        <g>
          <line class="st3" x1="108.2" y1="21.7" x2="108.2" y2="36.5"/>
          <line class="st3" x1="115.6" y1="29.1" x2="100.7" y2="29.1"/>
        </g>
      </g>
      <g>
        <line class="st3" x1="16.8" y1="100" x2="16.8" y2="107.8"/>
        <line class="st3" x1="16.8" y1="73.8" x2="16.8" y2="94.1"/>
      </g>
    </g>
  </g>
  <line class="st3" x1="76.2" y1="287.1" x2="214.1" y2="287.1"/>
  <g>
    <path class="st5" d="M56.2,143.5c-8.6,1.8-13.9,7.1-15.7,15.7-1.8-8.6-7.1-13.9-15.7-15.7,8.6-1.8,13.9-7.1,15.7-15.7,1.8,8.6,7.1,13.9,15.7,15.7h0Z"/>
    <path class="st5" d="M85.1,172.2c-14.6,3.1-23.4,11.9-26.5,26.5-3.1-14.6-11.9-23.4-26.5-26.5,14.6-3.1,23.4-11.9,26.5-26.5,3.1,14.6,11.9,23.4,26.5,26.5h0Z"/>
  </g>
  <g>
    <polyline class="st5" points="271.1 36.7 290.4 16.2 281.3 47.7 303.1 47.7 259.5 103.7 272.9 57.2 253.2 57.2 261.5 47.9"/>
    <polyline class="st3" points="271.1 36.7 290.4 16.2 281.3 47.7 303.1 47.7 259.5 103.7 272.9 57.2 253.2 57.2 261.5 47.9"/>
    <line class="st3" x1="267.8" y1="41.7" x2="213.2" y2="41.7"/>
    <line class="st3" x1="264.8" y1="30.2" x2="237" y2="30.2"/>
    <line class="st3" x1="243.7" y1="55.4" x2="216.9" y2="55.4"/>
    <line class="st3" x1="237.8" y1="72.1" x2="226.1" y2="72.1"/>
    <line class="st3" x1="256.1" y1="84.9" x2="233.7" y2="84.9"/>
  </g>
  <g>
    <path class="st3" d="M56.2,143.5c-8.6,1.8-13.9,7.1-15.7,15.7-1.8-8.6-7.1-13.9-15.7-15.7,8.6-1.8,13.9-7.1,15.7-15.7,1.8,8.6,7.1,13.9,15.7,15.7h0Z"/>
    <path class="st3" d="M85.1,172.2c-14.6,3.1-23.4,11.9-26.5,26.5-3.1-14.6-11.9-23.4-26.5-26.5,14.6-3.1,23.4-11.9,26.5-26.5,3.1,14.6,11.9,23.4,26.5,26.5h0Z"/>
  </g>
  <path class="st3" d="M220,173.7c-1.2,2.4-2.5,4.7-4,6.9"/>
  <path class="st3" d="M220.1,112.8c8.4,17.1,9.3,36.7,2.8,54.2"/>
  <g>
    <line class="st3" x1="237.2" y1="184.3" x2="253.8" y2="184.3"/>
    <line class="st3" x1="257.1" y1="193.6" x2="265.7" y2="193.6"/>
    <line class="st3" x1="237.2" y1="193.6" x2="250.4" y2="193.6"/>
    <line class="st3" x1="237.2" y1="203" x2="265.7" y2="203"/>
  </g>
</svg>