<?xml version="1.0" encoding="UTF-8"?>
<svg id="Layer_1" xmlns="http://www.w3.org/2000/svg" version="1.1" viewBox="0 0 362.7 315.4">
  <!-- Generator: Adobe Illustrator 29.0.0, SVG Export Plug-In . SVG Version: 2.1.0 Build 186)  -->
  <defs>
    <style>
      .st0 {
        fill: #fff;
      }

      .st1 {
        fill: #941303;
      }

      .st2 {
        fill: #ededed;
        opacity: .5;
      }

      .st3 {
        fill: none;
        stroke: #000;
        stroke-linecap: round;
        stroke-linejoin: round;
        stroke-width: 2.6px;
      }

      .st4 {
        fill: #c1c1c1;
      }

      .st5 {
        fill: #cb9390;
      }
    </style>
  </defs>
  <rect class="st2" x="31.3" width="290.1" height="309.1" rx="23.8" ry="23.8"/>
  <g>
    <g>
      <path class="st0" d="M77.2,141.6h.7c-1.4,7.7-1.6,14.1-1.6,18.4,0,10.2,1.4,19.8,3.9,28.7h-17.3v-47.1h14.4Z"/>
      <path class="st0" d="M48.5,168v-28.7h-22.7v28.7h22.7ZM60.2,82.2l33.7,20.2c-9.5,13.8-14,27.9-16,39.2h-.7c0-.1-14.4-.1-14.4-.1v47.1H10.5v-60.9s-9.2,0-9.2,0v-10.2l58.9-35.3h0ZM275.9,188.7c5-16.7,5.9-32.6,3.5-47.1h20.4v47.1h-23.9Z"/>
      <path class="st0" d="M314.2,168h22.7v-28.7h-22.7v28.7ZM361.4,117.6v10.2h-9.2v60.9s-52.4,0-52.4,0v-47.1h-20.4c-2.2-13.6-7.3-26-14.5-36.8l37.5-22.5,58.9,35.3h0ZM178.6,74.6c47.4,0,85.7,38.4,85.7,85.7s-38.4,85.7-85.7,85.7-85.7-38.4-85.7-85.7,38.4-85.7,85.7-85.7h0ZM135.7,123.9l.3.5-16.3,9.8v10.2h9.2v60.9h99.5v-60.9s9.2,0,9.2,0v-10.2l-58.9-35.3-30.4,18.2v-.2c0,0,0-11.6,0-11.6h-12.4v18.6h0Z"/>
      <path class="st0" d="M190.3,184.5h22.7v-28.7h-22.7v28.7ZM237.5,134.1v10.2h-9.2v60.9s-52.4,0-52.4,0v-47.1h-30.6v47.1h-16.5v-60.9h-9.2v-10.2l16.3-9.8,12.2-7.3,30.4-18.2,58.9,35.3h0Z"/>
      <polygon class="st0" points="213 155.8 213 184.5 208.4 184.5 208.4 158.8 190.3 158.8 190.3 155.8 213 155.8"/>
      <rect class="st1" x="190.3" y="158.8" width="18.1" height="25.7"/>
      <path class="st4" d="M253.3,228.4c7.9-12.3,13.4-24.3,16.9-36,5-16.7,5.9-32.6,3.5-47.1-2.2-13.5-7.3-26-14.5-36.8-18.5-28.1-51-45.9-85-46.7-9.5-.2-19.2.9-28.6,3.5-9,2.4-17.8,6.2-26.2,11.5-3.2,2.3-6.4,4.9-9.5,7.6-6.5,5.8-11.7,11.9-15.9,18.1-9.6,13.9-14,27.9-16,39.2-1.4,7.6-1.6,13.9-1.6,18.2,0,10.2,1.4,19.8,3.9,28.7,13,45.8,56.2,74,99.1,74s41.7-7.9,63.6-22c19.3,19.3,50.5,50.8,69.8,70.2,3.4,3.3,7.8,3.9,11.6,2.7,1.6-1.9,2.5-4.3,2.5-7,0-7-10.5-15.1-73.5-78.1ZM223.2,233.5c-13,7.9-28.3,12.5-44.6,12.5-47.3,0-85.7-38.4-85.7-85.7s14-53.9,35.5-69.5c0,0,0,0,0,0,14.1-10.2,31.4-16.2,50.1-16.2,47.3,0,85.7,38.4,85.7,85.7s-16.5,58.2-41.1,73.2Z"/>
      <path class="st0" d="M332.5,302.7c0,5.3-3.7,9.4-8.2,10.8,1.6-1.9,2.5-4.3,2.5-7,0-7-10.5-15.1-73.5-78.1,7.9-12.3,13.4-24.3,16.9-36,5-16.7,5.9-32.6,3.5-47.1-2.2-13.5-7.3-26-14.5-36.8-18.5-28.1-51-45.9-85-46.7-9.5-.2-19.2.9-28.6,3.5-9,2.4-17.8,6.2-26.2,11.5,10.1-7.2,20.9-12.2,31.9-15.2,9.5-2.6,19.1-3.7,28.6-3.5,34,.8,66.5,18.6,85,46.7,7.2,10.9,12.2,23.3,14.5,36.8,2.4,14.5,1.5,30.4-3.5,47.1-3.5,11.6-9,23.7-16.9,36,63.1,63.1,73.5,71.2,73.5,78.1Z"/>
      <path class="st4" d="M253.3,228.4c7.9-12.3,13.4-24.3,16.9-36,5-16.7,5.9-32.6,3.5-47.1-2.2-13.5-7.3-26-14.5-36.8-18.5-28.1-51-45.9-85-46.7-9.5-.2-19.2.9-28.6,3.5-9,2.4-17.8,6.2-26.2,11.5-3.2,2.3-6.4,4.9-9.5,7.6-6.5,5.8-11.7,11.9-15.9,18.1-9.6,13.9-14,27.9-16,39.2-1.4,7.6-1.6,13.9-1.6,18.2,0,10.2,1.4,19.8,3.9,28.7,13,45.8,56.2,74,99.1,74s41.7-7.9,63.6-22c19.3,19.3,50.5,50.8,69.8,70.2,3.4,3.3,7.8,3.9,11.6,2.7,1.6-1.9,2.5-4.3,2.5-7,0-7-10.5-15.1-73.5-78.1ZM223.2,233.5c-14.1,10.2-31.5,16.3-50.3,16.3-47.3,0-85.7-38.4-85.7-85.7s16.5-58.2,41.2-73.3c0,0,0,0,0,0,14.1-10.2,31.4-16.2,50.1-16.2,47.3,0,85.7,38.4,85.7,85.7s-16.5,58.2-41.1,73.2Z"/>
      <rect class="st1" x="145.4" y="163.5" width="25.2" height="41.7"/>
      <rect class="st0" x="146" y="158.1" width="30" height="46.4"/>
      <rect class="st1" x="145.4" y="163.5" width="25.2" height="41.7"/>
      <path class="st0" d="M179.9,58c-.9,0-1.8,0-2.6,0,1.1-6.3-1.5-13-7.1-16.9-6.3-4.4-14.5-4-20.2.5.1-.2.3-.5.5-.7,5.4-7.8,16.1-9.6,23.8-4.2,7,4.9,9.2,14,5.6,21.5Z"/>
      <path class="st5" d="M177.3,58c-8.7,0-17.4,1.2-26,3.5-4.6-5.6-5.3-13.6-1.3-20,5.8-4.5,14-4.9,20.2-.5,5.6,3.9,8.1,10.6,7.1,16.9Z"/>
      <polygon class="st0" points="144.4 119.3 144.4 108.1 135.7 108.1 135.7 105.3 148.1 105.3 148.1 116.8 148.2 117 144.4 119.3"/>
      <polygon class="st1" points="144.4 108.1 144.4 119.3 136 124.3 135.7 123.9 135.7 108.1 144.4 108.1"/>
      <polygon class="st0" points="48.5 139.3 48.5 168 43.6 168 43.6 143.5 25.8 143.5 25.8 139.3 48.5 139.3"/>
      <rect class="st5" x="25.8" y="143.5" width="17.9" height="24.5"/>
      <rect class="st5" x="25.8" y="143.5" width="17.9" height="24.5"/>
      <rect class="st5" x="313.2" y="143.2" width="19.9" height="24.8"/>
    </g>
    <g>
      <path class="st3" d="M178.6,74.6c-47.3,0-85.7,38.4-85.7,85.7s38.4,85.7,85.7,85.7,85.7-38.4,85.7-85.7-38.4-85.7-85.7-85.7h0Z"/>
      <path class="st3" d="M179.9,58c34,.8,66.5,18.6,85,46.7,7.2,10.9,12.2,23.3,14.5,36.8,2.4,14.5,1.5,30.4-3.5,47.1-3.5,11.6-9,23.7-16.9,36,63.1,63.1,73.5,71.2,73.5,78.1,0,9.8-12.5,15.3-19.8,8.1-19.3-19.4-50.5-50.8-69.8-70.2-21.9,14-38.8,22-63.6,22-42.9,0-86.2-28.2-99.1-74-2.5-8.9-3.9-18.5-3.9-28.7s.3-10.7,1.6-18.3c2-11.3,6.5-25.4,16-39.2,4.2-6.1,9.5-12.2,15.9-18.1,12.8-11.5,26.9-18.9,41.4-22.9,9.5-2.6,19.1-3.7,28.6-3.5h0Z"/>
      <polyline class="st3" points="128.9 205.2 128.9 144.3 128.9 144.3 119.7 144.3 119.7 134.1 136 124.3 148.2 117 178.6 98.8 237.5 134.1 237.5 144.3 228.3 144.3 228.4 205.2"/>
      <polyline class="st3" points="145.4 205.2 145.4 158.1 176 158.1 176 205.2"/>
      <polyline class="st3" points="190.3 184.5 190.3 155.8 213 155.8 213 184.5"/>
      <polyline class="st3" points="185.3 184.5 190.3 184.5 213 184.5 217.8 184.5"/>
      <polyline class="st3" points="135.7 123.9 135.7 105.3 148.1 105.3 148.1 116.8"/>
      <polyline class="st3" points="122.8 205.2 128.9 205.2 145.4 205.2 176 205.2 228.4 205.2 237.5 205.2"/>
      <polyline class="st3" points="265 104.7 302.4 82.2 361.4 117.6 361.4 127.7 352.2 127.7 352.2 188.7"/>
      <polyline class="st3" points="279.4 141.6 299.8 141.6 299.8 188.7"/>
      <polyline class="st3" points="314.2 168 314.2 139.3 336.9 139.3 336.9 168"/>
      <polyline class="st3" points="309.1 168 314.2 168 336.9 168 341.6 168"/>
      <polyline class="st3" points="275.9 188.7 299.8 188.7 352.2 188.7 361.4 188.7"/>
      <polyline class="st3" points="93.9 102.5 60.2 82.2 1.3 117.6 1.3 127.7 10.5 127.7 10.5 188.7"/>
      <polyline class="st3" points="77.2 141.6 62.9 141.6 62.9 188.7"/>
      <polyline class="st3" points="48.5 168 48.5 139.3 25.8 139.3 25.8 168"/>
      <polyline class="st3" points="53.5 168 48.5 168 25.8 168 21 168"/>
      <polyline class="st3" points="80.2 188.7 62.9 188.7 10.5 188.7 1.3 188.7"/>
      <line class="st3" x1="181.8" y1="25.8" x2="188.8" y2="15.9"/>
      <line class="st3" x1="129.8" y1="26.3" x2="139.7" y2="33.3"/>
      <line class="st3" x1="122.8" y1="58" x2="134.7" y2="55.9"/>
      <line class="st3" x1="194.3" y1="45.3" x2="206.2" y2="43.2"/>
      <line class="st3" x1="157.1" y1="8.9" x2="159.2" y2="20.8"/>
      <path class="st3" d="M151.3,61.5c-4.8-5.8-5.3-14.3-.8-20.7,5.4-7.8,16.1-9.6,23.8-4.2,7,4.9,9.2,14,5.6,21.4"/>
    </g>
  </g>
  <g>
    <g>
      <line class="st3" x1="61.7" y1="222.9" x2="61.7" y2="234.7"/>
      <line class="st3" x1="67.6" y1="228.8" x2="55.8" y2="228.8"/>
    </g>
    <g>
      <line class="st3" x1="326.2" y1="219.6" x2="326.2" y2="231.4"/>
      <line class="st3" x1="332.1" y1="225.5" x2="320.3" y2="225.5"/>
    </g>
    <g>
      <line class="st3" x1="77.4" y1="43.2" x2="77.4" y2="55"/>
      <line class="st3" x1="83.3" y1="49.1" x2="71.5" y2="49.1"/>
    </g>
    <g>
      <line class="st3" x1="272" y1="52" x2="272" y2="66.8"/>
      <line class="st3" x1="279.4" y1="59.4" x2="264.6" y2="59.4"/>
    </g>
  </g>
  <line class="st3" x1="271.2" y1="285" x2="275.4" y2="289"/>
  <line class="st3" x1="247.8" y1="262.8" x2="266.9" y2="280.9"/>
  <g>
    <line class="st3" x1="79.6" y1="261.7" x2="107.9" y2="261.7"/>
    <line class="st3" x1="113.4" y1="272.1" x2="128.2" y2="272.1"/>
    <line class="st3" x1="79.6" y1="272.1" x2="102.1" y2="272.1"/>
    <line class="st3" x1="79.6" y1="282.6" x2="128.2" y2="282.6"/>
  </g>
</svg>