<?xml version="1.0" encoding="UTF-8"?>
<svg id="Layer_1" xmlns="http://www.w3.org/2000/svg" version="1.1" viewBox="0 0 329.6 309.1">
  <!-- Generator: Adobe Illustrator 29.0.0, SVG Export Plug-In . SVG Version: 2.1.0 Build 186)  -->
  <defs>
    <style>
      .st0 {
        opacity: .2;
      }

      .st1 {
        fill: #fff;
      }

      .st2 {
        fill: #941303;
      }

      .st3 {
        fill: #ededed;
        opacity: .5;
      }

      .st4 {
        fill: none;
        stroke: #000;
        stroke-linecap: round;
        stroke-linejoin: round;
        stroke-width: 2.6px;
      }

      .st5 {
        fill: #005063;
      }

      .st6 {
        fill: #c1c1c1;
      }

      .st7 {
        opacity: .2;
      }

      .st8 {
        fill: #cb9390;
      }
    </style>
  </defs>
  <rect class="st3" x="27.4" width="290.1" height="309.1" rx="23.8" ry="23.8"/>
  <g>
    <g>
      <g class="st0">
        <g>
          <polygon class="st5" points="259.7 90.3 281.2 109 281 109.4 281 142.4 265.9 142.4 265.9 127 253.6 127 253.6 142.4 238.5 142.4 238.5 109.1 238.3 108.9 259.7 90.3"/>
          <polyline class="st5" points="230 116.2 238.3 108.9 259.7 90.3 281.2 109 289.5 116.2"/>
          <polyline class="st5" points="238.5 109.1 238.5 142.4 253.6 142.4 265.9 142.4 281 142.4 281 109.4"/>
          <polyline class="st5" points="265.9 142.4 265.9 127 253.6 127 253.6 142.4"/>
        </g>
        <line class="st5" x1="185.8" y1="155.6" x2="284.9" y2="155.6"/>
        <line class="st5" x1="185.8" y1="169.1" x2="284.9" y2="169.1"/>
        <line class="st5" x1="185.8" y1="182.6" x2="284.9" y2="182.6"/>
        <line class="st5" x1="185.8" y1="196" x2="284.9" y2="196"/>
        <line class="st5" x1="243.4" y1="209.5" x2="284.9" y2="209.5"/>
        <line class="st5" x1="243.4" y1="222.9" x2="284.9" y2="222.9"/>
        <line class="st5" x1="243.4" y1="236.4" x2="284.9" y2="236.4"/>
        <line class="st5" x1="243.4" y1="249.9" x2="284.9" y2="249.9"/>
        <g>
          <path class="st5" d="M217,259c-.8,1-2.4,1.6-3.7,1.2l-4.6-1.3c-.8-.2-1.9-.3-3-.3-.5,0-1.1,0-1.5.2l-4.7,1c-1.3.3-2.9-.3-3.6-1.4l-2.7-3.9c-.7-1.1-2.3-2.4-3.4-3l-1.3-.7-3-1.5c-1.2-.6-2-2.1-1.9-3.4l.4-4.8c.1-1.3-.2-3.3-.7-4.5l-1.8-4.4c-.5-1.2-.1-2.9.8-3.8l3.4-3.3c.9-.9,2-2.6,2.4-3.8l1.4-4.6c.4-1.2,1.8-2.3,3-2.4l4.8-.4c1.3-.1,3.2-.7,4.3-1.4l4-2.6c1.1-.7,2.8-.6,3.9.1l3.9,2.7c1,.8,3,1.5,4.2,1.6l4.7.6c1.3.2,2.6,1.3,2.9,2.6l1.2,4.6c.3,1.2,1.3,3,2.1,4l3.2,3.5c.9.9,1.1,2.7.6,3.8l-2,4.3c-.5,1.2-1,3.1-.9,4.4l.2,4.8c0,1.3-.9,2.8-2,3.3l-1.9.9-2.5,1.1c-1.2.5-2.7,1.8-3.5,2.8l-2.9,3.8ZM207.2,250.6c8.5,0,15.4-6.9,15.4-15.4s-6.9-15.4-15.4-15.4-15.4,6.9-15.4,15.4,6.9,15.4,15.4,15.4Z"/>
          <path class="st5" d="M222.6,235.2c0,8.5-6.9,15.4-15.4,15.4s-15.4-6.9-15.4-15.4,6.9-15.4,15.4-15.4,15.4,6.9,15.4,15.4Z"/>
          <g>
            <path class="st5" d="M188.6,250.9l-3-1.5c-1.2-.6-2-2.1-1.9-3.4l.4-4.8c.1-1.3-.2-3.3-.7-4.5l-1.8-4.4c-.5-1.2-.1-2.9.8-3.8l3.4-3.3c.9-.9,2-2.6,2.4-3.8l1.4-4.6c.4-1.2,1.8-2.3,3-2.4l4.8-.4c1.3-.1,3.2-.7,4.3-1.4l4-2.6c1.1-.7,2.8-.6,3.9.1l3.9,2.7c1,.8,3,1.5,4.2,1.6l4.7.6c1.3.2,2.6,1.3,2.9,2.6l1.2,4.6c.3,1.2,1.3,3,2.1,4l3.2,3.5c.9.9,1.1,2.7.6,3.8l-2,4.3c-.5,1.2-1,3.1-.9,4.4l.2,4.8c0,1.3-.9,2.8-2,3.3l-1.9.9-2.5,1.1c-1.2.5-2.7,1.8-3.5,2.8l-2.9,3.8c-.8,1-2.4,1.6-3.7,1.2l-4.6-1.3c-.8-.2-1.9-.3-3-.3-.5,0-1.1,0-1.5.2l-4.7,1c-1.3.3-2.9-.3-3.6-1.4l-2.7-3.9c-.7-1.1-2.3-2.4-3.4-3l-1.3-.7Z"/>
            <path class="st5" d="M222.6,235.2c0,8.5-6.9,15.4-15.4,15.4s-15.4-6.9-15.4-15.4,6.9-15.4,15.4-15.4,15.4,6.9,15.4,15.4Z"/>
          </g>
        </g>
      </g>
      <g>
        <polygon class="st1" points="323 82 323 261.9 171.6 261.9 171.6 59.7 304.1 59.7 323 82"/>
        <polygon class="st4" points="323 82 323 261.9 171.6 261.9 171.6 59.7 304.1 59.7 323 82"/>
        <g>
          <polygon class="st2" points="269 84.1 290.6 102.8 290.4 103.1 290.4 136.2 275.2 136.2 275.2 120.7 263 120.7 263 136.2 247.9 136.2 247.9 102.9 247.7 102.7 269 84.1"/>
          <polyline class="st4" points="239.4 109.9 247.7 102.7 269 84.1 290.6 102.8 298.8 109.9"/>
          <polyline class="st4" points="247.9 102.9 247.9 136.2 263 136.2 275.2 136.2 290.4 136.2 290.4 103.1"/>
          <polyline class="st4" points="275.2 136.2 275.2 120.7 263 120.7 263 136.2"/>
        </g>
        <line class="st4" x1="265.3" y1="149.4" x2="294.3" y2="149.4"/>
        <line class="st4" x1="203.6" y1="149.4" x2="256.3" y2="149.4"/>
        <line class="st4" x1="245.4" y1="162.9" x2="294.3" y2="162.9"/>
        <line class="st4" x1="203.6" y1="162.9" x2="237.9" y2="162.9"/>
        <line class="st4" x1="269.7" y1="176.3" x2="294.3" y2="176.3"/>
        <line class="st4" x1="203.6" y1="176.3" x2="259.1" y2="176.3"/>
        <line class="st4" x1="203.6" y1="189.8" x2="294.3" y2="189.8"/>
        <line class="st4" x1="278" y1="203.2" x2="294.3" y2="203.2"/>
        <line class="st4" x1="252.8" y1="203.2" x2="271.8" y2="203.2"/>
        <line class="st4" x1="287.9" y1="216.7" x2="294.3" y2="216.7"/>
        <line class="st4" x1="252.8" y1="216.7" x2="281.4" y2="216.7"/>
        <line class="st4" x1="268.8" y1="230.2" x2="294.3" y2="230.2"/>
        <line class="st4" x1="252.8" y1="230.2" x2="262.8" y2="230.2"/>
        <line class="st4" x1="285.6" y1="243.6" x2="294.3" y2="243.6"/>
        <line class="st4" x1="252.8" y1="243.6" x2="279.6" y2="243.6"/>
        <g>
          <path class="st2" d="M229.3,248.9c.8-1,2.4-2.3,3.5-2.8l2.5-1.1,12.5,25.7-12.3-5.5-3.2,13.1-14.2-25.7,4.6,1.3c1.2.3,2.9-.2,3.7-1.2l2.9-3.8Z"/>
          <path class="st2" d="M213.6,252.6c.4-.1,1-.2,1.5-.2l-14.3,25.9-3.2-13.1-12.3,5.5,12.7-26.1,1.3.7c1.2.6,2.7,1.9,3.4,3l2.7,3.9c.7,1,2.3,1.7,3.6,1.4l4.7-1Z"/>
          <path class="st2" d="M226.4,252.7c-.8,1-2.4,1.6-3.7,1.2l-4.6-1.3c-.8-.2-1.9-.3-3-.3-.5,0-1.1,0-1.5.2l-4.7,1c-1.3.3-2.9-.3-3.6-1.4l-2.7-3.9c-.7-1.1-2.3-2.4-3.4-3l-1.3-.7-3-1.5c-1.2-.6-2-2.1-1.9-3.4l.4-4.8c.1-1.3-.2-3.3-.7-4.5l-1.8-4.4c-.5-1.2-.1-2.9.8-3.8l3.4-3.3c.9-.9,2-2.6,2.4-3.8l1.4-4.6c.4-1.2,1.8-2.3,3-2.4l4.8-.4c1.3-.1,3.2-.7,4.3-1.4l4-2.6c1.1-.7,2.8-.6,3.9.1l3.9,2.7c1,.8,3,1.5,4.2,1.6l4.7.6c1.3.2,2.6,1.3,2.9,2.6l1.2,4.6c.3,1.2,1.3,3,2.1,4l3.2,3.5c.9.9,1.1,2.7.6,3.8l-2,4.3c-.5,1.2-1,3.1-.9,4.4l.2,4.8c0,1.3-.9,2.8-2,3.3l-1.9.9-2.5,1.1c-1.2.5-2.7,1.8-3.5,2.8l-2.9,3.8ZM216.6,241c6.7,0,12.1-5.4,12.1-12.1s-5.4-12.1-12.1-12.1-12.1,5.4-12.1,12.1,5.4,12.1,12.1,12.1Z"/>
          <path class="st1" d="M227.4,228.9c0,6-4.8,10.8-10.8,10.8s-10.8-4.8-10.8-10.8,4.8-10.8,10.8-10.8,10.8,4.8,10.8,10.8Z"/>
          <g>
            <path class="st4" d="M198,244.6l-3-1.5c-1.2-.6-2-2.1-1.9-3.4l.4-4.8c.1-1.3-.2-3.3-.7-4.5l-1.8-4.4c-.5-1.2-.1-2.9.8-3.8l3.4-3.3c.9-.9,2-2.6,2.4-3.8l1.4-4.6c.4-1.2,1.8-2.3,3-2.4l4.8-.4c1.3-.1,3.2-.7,4.3-1.4l4-2.6c1.1-.7,2.8-.6,3.9.1l3.9,2.7c1,.8,3,1.5,4.2,1.6l4.7.6c1.3.2,2.6,1.3,2.9,2.6l1.2,4.6c.3,1.2,1.3,3,2.1,4l3.2,3.5c.9.9,1.1,2.7.6,3.8l-2,4.3c-.5,1.2-1,3.1-.9,4.4l.2,4.8c0,1.3-.9,2.8-2,3.3l-1.9.9-2.5,1.1c-1.2.5-2.7,1.8-3.5,2.8l-2.9,3.8c-.8,1-2.4,1.6-3.7,1.2l-4.6-1.3c-.8-.2-1.9-.3-3-.3-.5,0-1.1,0-1.5.2l-4.7,1c-1.3.3-2.9-.3-3.6-1.4l-2.7-3.9c-.7-1.1-2.3-2.4-3.4-3l-1.3-.7Z"/>
            <polyline class="st4" points="215.2 252.4 200.8 278.4 197.6 265.2 185.3 270.7 198 244.6"/>
            <polyline class="st4" points="218.1 252.7 232.3 278.4 235.6 265.2 247.9 270.7 235.3 245"/>
          </g>
        </g>
      </g>
    </g>
    <g class="st7">
      <polygon class="st5" points="130.8 191 130.8 261.5 108.5 261.5 105.8 261.5 83.4 261.5 83.4 191 130.8 191"/>
      <g>
        <polygon class="st5" points="130.8 261.5 108.5 261.5 105.8 261.5 83.4 261.5 83.4 191 130.8 191 130.8 261.5"/>
        <path class="st5" d="M84,85.3c0,2-1.3,3.5-3.1,4l-.9-.2c0-2.6.8-5.1,2.1-7.2,1.2.7,1.9,2,1.9,3.5Z"/>
        <path class="st5" d="M84,85.3c0,2-1.3,3.5-3.1,4l-.9-.2c0-2.6.8-5.1,2.1-7.2,1.2.7,1.9,2,1.9,3.5Z"/>
        <path class="st5" d="M84,85.3c0,2-1.3,3.5-3.1,4l-.9-.2c0-2.6.8-5.1,2.1-7.2,1.2.7,1.9,2,1.9,3.5Z"/>
      </g>
    </g>
    <g>
      <g>
        <polygon class="st1" points="121.9 191 121.9 261.5 112.7 261.5 112.7 197.1 74.6 197.1 74.6 191 121.9 191"/>
        <rect class="st8" x="74.6" y="197.1" width="38.2" height="64.4"/>
        <rect class="st8" x="74.6" y="197.1" width="38.2" height="64.4"/>
        <path class="st1" d="M195.2,169.5l-6.5,4.6-85.8-69.9c.1-.4.2-.8.2-1.3,0-2.7-2.1-4.8-4.8-4.8s-1.6.2-2.2.6l-3.7-3.1-9.7,7.9c0,0-.1,0-.2,0l15.8-12.9,6.8,5.6,90.1,73.4Z"/>
        <path class="st8" d="M93.5,102.9c0,.1,0,.3,0,.4,0,.3,0,.5.1.7-1.4.3-2.9.5-4.4.5s-.2,0-.2,0c-2.2,0-4.3-.4-6.3-1l9.7-7.9,3.7,3.1c-1.5.8-2.6,2.4-2.6,4.3Z"/>
        <path class="st6" d="M71.1,89.4c2.3,0,4.1-1.8,4.1-4.1s-.7-2.7-1.9-3.4c-.6-.4-1.4-.7-2.2-.7-2.2,0-4.1,1.9-4.1,4.1s1.8,4.1,4.1,4.1ZM79.3,79.6c3,1.9,3.8,5.9,1.5,8.7l-7,8.8-6.4,8.1-55.6,7.5c-2.2.3-4.2-1.2-4.5-3.4l-3.9-28.8c-.3-2.1,1.2-4,3.3-4.4l53.9-7.8,16.1,9.8,2.7,1.6Z"/>
        <path class="st8" d="M98.3,114.3c-10.2,8.3-73.4,59.8-73.4,59.8v11.8L1.3,169.5l81.2-66.1c2.1.7,4.3,1.1,6.7,1.1s3-.2,4.4-.5c.5,2.1,2.4,3.7,4.7,3.7v6.6Z"/>
        <path class="st8" d="M89,104.5c-.9.9-1.5,2.1-1.5,3.4s0,.8.2,1.1c-1.4.3-2.9.5-4.4.5-2.4,0-4.6-.4-6.7-1.1l6.1-5c2,.7,4.1,1,6.3,1Z"/>
        <path class="st8" d="M165.7,191v-11.8s-63.2-51.6-73.4-59.8v-6.6c2.6,0,4.8-2.2,4.8-4.8s-1.5-4.1-3.6-4.7c0-.1,0-.2,0-.4,0-1.9,1-3.5,2.6-4.3l3.1,2.5,3.7,3,85.8,69.9.6.5-23.5,16.5Z"/>
        <path class="st8" d="M93.5,102.9c0,.1,0,.3,0,.4-.4-.1-.8-.2-1.2-.2-1.3,0-2.5.5-3.4,1.4-2.2,0-4.3-.4-6.3-1l9.7-7.9,3.7,3.1c-1.5.8-2.6,2.4-2.6,4.3Z"/>
        <path class="st1" d="M24.8,174.1s63.2-51.5,73.4-59.8c10.2,8.3,73.4,59.8,73.4,59.8v87.3h-49.7v-70.4h-47.4v70.4H24.8v-87.3Z"/>
      </g>
      <g>
        <polyline class="st4" points="24.8 185.9 1.3 169.5 82.5 103.4 98.3 90.5 105.1 96.1 195.2 169.5 171.7 186"/>
        <path class="st4" d="M121.9,261.5h49.7v-87.3s-63.2-51.5-73.4-59.8c-10.2,8.3-73.4,59.8-73.4,59.8v87.3h49.7"/>
        <polygon class="st4" points="121.9 261.5 99.6 261.5 96.9 261.5 74.6 261.5 74.6 191 121.9 191 121.9 261.5"/>
        <path class="st4" d="M93.6,104c-.1-.4-.2-.7-.2-1.1,0-2.7,2.1-4.8,4.8-4.8s4.8,2.1,4.8,4.8-2.1,4.8-4.8,4.8-4.2-1.6-4.7-3.7Z"/>
        <path class="st4" d="M71.2,89.1c0-2.6.8-5.1,2.1-7.2.9-1.4,2.1-2.7,3.4-3.8,3.2-2.7,7.6-4.4,12.5-4.4,10,0,18.1,6.9,18.1,15.4s-.6,4.5-1.6,6.4"/>
        <path class="st4" d="M101.5,100.3c-2.2,1.7-4.9,3-7.9,3.7-1.4.3-2.9.5-4.4.5-2.4,0-4.6-.4-6.7-1.1-3.6-1.3-6.6-3.4-8.6-6.2"/>
        <path class="st4" d="M73.9,97.2l-6.4,8.1-55.6,7.5c-2.2.3-4.2-1.2-4.5-3.4l-3.9-28.8c-.3-2.1,1.2-4,3.3-4.4l53.9-7.8,16.1,9.8,2.7,1.6c3,1.9,3.8,5.9,1.5,8.7l-7,8.8"/>
        <path class="st4" d="M75.2,85.3c0,2.3-1.8,4.1-4.1,4.1s-4.1-1.8-4.1-4.1,1.8-4.1,4.1-4.1,1.6.2,2.2.7c1.2.7,1.9,2,1.9,3.4Z"/>
      </g>
    </g>
  </g>
  <g>
    <g>
      <line class="st4" x1="322.4" y1="267.2" x2="322.4" y2="279"/>
      <line class="st4" x1="328.3" y1="273.1" x2="316.5" y2="273.1"/>
    </g>
    <g>
      <line class="st4" x1="66.3" y1="282.1" x2="66.3" y2="293.9"/>
      <line class="st4" x1="72.2" y1="288" x2="60.4" y2="288"/>
    </g>
    <g>
      <line class="st4" x1="134.9" y1="28.5" x2="134.9" y2="43.3"/>
      <line class="st4" x1="142.4" y1="35.9" x2="127.5" y2="35.9"/>
    </g>
  </g>
  <line class="st4" x1="158.1" y1="87.1" x2="158.1" y2="117.6"/>
  <line class="st4" x1="158.1" y1="69.6" x2="158.1" y2="81.3"/>
</svg>