<?xml version="1.0" encoding="UTF-8"?>
<svg id="Layer_1" xmlns="http://www.w3.org/2000/svg" version="1.1" viewBox="0 0 360.1 309.1">
  <!-- Generator: Adobe Illustrator 29.0.0, SVG Export Plug-In . SVG Version: 2.1.0 Build 186)  -->
  <defs>
    <style>
      .st0, .st1, .st2 {
        fill: #fff;
      }

      .st1 {
        opacity: .3;
      }

      .st3 {
        opacity: .4;
      }

      .st4 {
        fill: #941303;
      }

      .st5 {
        stroke-dasharray: 2 8.1;
      }

      .st5, .st6, .st7 {
        fill: none;
        stroke: #000;
        stroke-linecap: round;
        stroke-linejoin: round;
        stroke-width: 2.6px;
      }

      .st8 {
        fill: #ededed;
        opacity: .5;
      }

      .st2 {
        opacity: .6;
      }

      .st7 {
        stroke-dasharray: 2 7.8;
      }

      .st9 {
        fill: #c1c1c1;
      }

      .st10 {
        fill: #cb9390;
      }
    </style>
  </defs>
  <rect class="st8" x="40" width="290.1" height="309.1" rx="23.8" ry="23.8"/>
  <g>
    <g>
      <g>
        <path class="st6" d="M216.5,64.2c.3,0,.7.1,1,.2"/>
        <path class="st5" d="M225.3,66.5c58,16.9,100.8,69.5,103,132.4"/>
        <path class="st6" d="M328.5,203c0,.3,0,.7,0,1"/>
      </g>
      <g>
        <path class="st6" d="M42.1,204c0-.3,0-.7,0-1"/>
        <path class="st7" d="M42.4,195.2c4.1-66.8,53.9-121.2,118.6-132.3"/>
        <path class="st6" d="M164.8,62.3c.3,0,.7,0,1-.1"/>
      </g>
      <g>
        <path class="st0" d="M234.5,52.7h-7.7c-.9-4.1-2.5-7.8-4.6-11.2l5.5-5.5c2-2,2-5.1,0-7.1l-4.1-4.1c-2-2-5.1-2-7.1,0l-5.5,5.5c-3.4-2.1-7.1-3.7-11.1-4.6v-7.7c0-2.8-2.2-5-5-5h-5.8c-2.8,0-5,2.2-5,5v7.7c-4,.9-7.7,2.5-11,4.5l-5.4-5.5c-2-2-5.1-2-7.1,0l-4.1,4.1c-2,1.9-2,5.1,0,7.1l5.4,5.5c-2.1,3.4-3.7,7.1-4.7,11.1h-7.7c-2.8,0-5,2.2-5,5v5.8c0,2.8,2.2,5,4.9,5h7.7c.9,4.1,2.5,7.8,4.6,11.2l-5.5,5.5c-2,1.9-2,5.1,0,7.1l4.1,4.1c2,2,5.1,2,7.1,0l5.5-5.5c3.4,2.1,7.1,3.7,11.2,4.7v7.7c0,2.8,2.2,5,5,5h5.8c2.8,0,5-2.2,5-5v-7.8c4-.9,7.8-2.5,11.2-4.6l5.5,5.5c1.9,2,5.1,2,7.1,0l4.1-4.1c2-1.9,2-5.1,0-7.1l-5.4-5.5c2.1-3.4,3.7-7.1,4.6-11.2h7.7c2.8,0,5-2.2,5-5v-5.8c0-2.7-2.2-5-5-5ZM191.9,76.4c-8.8,0-15.9-7.1-15.9-15.9s7.1-15.9,15.9-15.9,15.9,7.1,15.9,15.9-7.1,15.9-15.9,15.9Z"/>
        <g class="st3">
          <path class="st0" d="M189.4,12.9c0,.3-.1.7-.1,1.1v7.8c-1.8.4-3.6,1-5.3,1.6v-5.4c0-2.8,2.2-5,5-5h.4Z"/>
        </g>
        <g class="st3">
          <path class="st0" d="M167,37.3c-2.1,3.4-3.7,7.1-4.7,11.1h-4.1c.9-2.6,2.1-5,3.5-7.2l-5.4-5.5c-1.9-2-1.9-5.1,0-7.1l4.1-4.1c.8-.8,1.7-1.2,2.7-1.4l-1.5,1.5c-2,1.9-2,5.1,0,7.1l5.4,5.5Z"/>
        </g>
        <g class="st3">
          <path class="st0" d="M226,93.7l-2.6,2.6c-2,2-5.2,2-7.1,0l-5.5-5.5c-1.9,1.2-3.8,2.2-5.9,3v-2.3c4-.9,7.8-2.5,11.2-4.6l5.5,5.5c1.2,1.2,2.8,1.7,4.4,1.4Z"/>
        </g>
        <g class="st3">
          <path class="st0" d="M199.6,104.2c-.5,2.3-2.5,4-4.9,4h-5.8c-2.8,0-5-2.3-5-5v-7.7c-3.7-.9-7.2-2.3-10.3-4.2l4.5-4.4c3.4,2.1,7.1,3.7,11.2,4.7v7.7c0,2.8,2.2,5,5,5h5.4Z"/>
        </g>
        <g class="st3">
          <path class="st0" d="M169.8,93.5l-2.6,2.6c-2,2-5.1,2-7.1,0l-4.1-4.1c-2-2-1.9-5.1,0-7.1l5.5-5.5c-2.1-3.4-3.7-7.1-4.6-11.2h-7.7c-2.8,0-5-2.3-5-5.1v-5.8c0-2.8,2.3-5,5-5h.4c0,.3-.1.7-.1,1.1v5.8c0,2.8,2.2,5,4.9,5h7.7c.9,4.1,2.5,7.8,4.6,11.2l-5.5,5.5c-2,1.9-2,5.1,0,7.1l4.1,4.1c1.2,1.2,2.9,1.7,4.4,1.4Z"/>
        </g>
        <path class="st6" d="M234.5,52.7h-7.7c-.9-4.1-2.5-7.8-4.6-11.2l5.5-5.5c2-2,2-5.1,0-7.1l-4.1-4.1c-2-2-5.1-2-7.1,0l-5.5,5.5c-3.4-2.1-7.1-3.7-11.1-4.6v-7.7c0-2.8-2.2-5-5-5h-5.8c-2.8,0-5,2.2-5,5v7.7c-4,.9-7.7,2.5-11,4.5l-5.4-5.5c-2-2-5.1-2-7.1,0l-4.1,4.1c-2,1.9-2,5.1,0,7.1l5.4,5.5c-2.1,3.4-3.7,7.1-4.7,11.1h-7.7c-2.8,0-5,2.2-5,5v5.8c0,2.8,2.2,5,4.9,5h7.7c.9,4.1,2.5,7.8,4.6,11.2l-5.5,5.5c-2,1.9-2,5.1,0,7.1l4.1,4.1c2,2,5.1,2,7.1,0l5.5-5.5c3.4,2.1,7.1,3.7,11.2,4.7v7.7c0,2.8,2.2,5,5,5h5.8c2.8,0,5-2.2,5-5v-7.8c4-.9,7.8-2.5,11.2-4.6l5.5,5.5c1.9,2,5.1,2,7.1,0l4.1-4.1c2-1.9,2-5.1,0-7.1l-5.4-5.5c2.1-3.4,3.7-7.1,4.6-11.2h7.7c2.8,0,5-2.2,5-5v-5.8c0-2.7-2.2-5-5-5ZM191.9,76.4c-8.8,0-15.9-7.1-15.9-15.9s7.1-15.9,15.9-15.9,15.9,7.1,15.9,15.9-7.1,15.9-15.9,15.9Z"/>
      </g>
      <g>
        <circle class="st0" cx="279.7" cy="189.4" r="79.1"/>
        <circle class="st1" cx="279.7" cy="189.4" r="71.3"/>
        <circle class="st6" cx="279.7" cy="189.4" r="79.1"/>
        <g>
          <g>
            <path class="st9" d="M279.1,123.4c14-.9,25.7,9.7,24.9,25.8h-3.1s-9-3.9-13.2-14c-3,4.4-12.1,14.8-32.4,15.3-1.9-26.3,23.8-27.1,23.8-27.1Z"/>
            <path class="st0" d="M290.5,187.4c-3,1.5-6.8,2.4-11.4,2.4-4.2,0-7.7-.9-10.5-2.2-11.7-5.3-12.9-18.4-12.9-18.4h-3.1c-2.3,0-4.2-1.9-4.2-4.2v-10.1c0-2.3,1.9-4.2,4.2-4.2s1.8,0,2.6,0c20.2-.5,29.4-10.9,32.4-15.3,4.3,10.1,13.2,14,13.2,14h3.1c2.9,0,5.3,2.4,5.3,5.3v10.9c0,4.6-6.2,3.3-6.2,3.3,0,0-1.5,13.1-12.6,18.6Z"/>
            <path class="st0" d="M297.9,197.6l-18.3,27.1-16.6-27.2c3.3-.1,5.6.2,5.6.2v-10.2c2.8,1.3,6.3,2.1,10.5,2.2,4.7,0,8.4-.8,11.4-2.4h0v10.3s3.1-.4,7.4,0Z"/>
            <path class="st10" d="M324.1,221.8v16.5h-.2v-15.1c0-1.5,0-2.9-.2-4.2.2.9.3,1.8.4,2.8Z"/>
            <path class="st10" d="M298.3,197.6c1.5,0,7.4.2,13.1,3.3-4.4-2.1-9.3-3-13.1-3.3Z"/>
            <path class="st4" d="M298.3,197.6c3.9.3,8.7,1.2,13.1,3.3t0,0c5.2,2.9,10.5,8.2,12.2,18,.2,1.3.2,2.7.2,4.2v15.1h-88.7v-15.7c0-21,17.5-24.7,27.1-25.1h.7l16.6,27.2,18.3-27.1h.4Z"/>
            <path class="st10" d="M235.3,218.8s.9-21.2,27.1-21.2c-9.6.4-27.1,4-27.1,25.1v-3.8Z"/>
          </g>
          <g>
            <path class="st6" d="M255.3,150.5h0c-1.9-26.3,23.8-27.1,23.8-27.1,14-.9,25.7,9.7,24.9,25.8"/>
            <path class="st6" d="M287.7,135.2c-3,4.4-12.1,14.8-32.4,15.3-.8,0-1.7,0-2.6,0-2.3,0-4.2,1.9-4.2,4.2v10.1c0,2.3,1.9,4.2,4.2,4.2h3.1s1.2,13.1,12.9,18.4c2.8,1.3,6.3,2.1,10.5,2.2,4.7,0,8.4-.8,11.4-2.4,11-5.5,12.6-18.6,12.6-18.6,0,0,6.2,1.3,6.2-3.3v-10.9c0-2.9-2.4-5.3-5.3-5.3h-3.1s-9-3.9-13.2-14"/>
            <line class="st6" x1="287.7" y1="135.2" x2="287.7" y2="135.2"/>
            <path class="st6" d="M288.8,133.3s-.3.7-1.2,1.9"/>
            <path class="st6" d="M290.6,187.5v10.2s3.1-.4,7.4,0h.4c3.9.3,8.7,1.2,13.1,3.3t0,0c6,2.9,11.2,8.3,12.2,18,.2,1.3.2,2.7.2,4.2v15.1h-88.7v-15.7c0-21,17.5-24.7,27.1-25.1h.7c3.3-.1,5.6.2,5.6.2v-10.2"/>
            <line class="st6" x1="273.2" y1="174.2" x2="284.7" y2="174.2"/>
            <line class="st6" x1="276.7" y1="180.7" x2="281.2" y2="180.7"/>
          </g>
        </g>
      </g>
      <g>
        <circle class="st0" cx="80.4" cy="189.4" r="79.1"/>
        <circle class="st1" cx="80.4" cy="189.4" r="71.3"/>
        <circle class="st6" cx="80.4" cy="189.4" r="79.1"/>
        <g>
          <g>
            <path class="st9" d="M79.8,123.4c14-.9,25.7,9.7,24.9,25.8h-3.1s-9-3.9-13.2-14c-3,4.4-12.1,14.8-32.4,15.3-1.9-26.3,23.8-27.1,23.8-27.1Z"/>
            <path class="st0" d="M91.2,187.4c-3,1.5-6.8,2.4-11.4,2.4-4.2,0-7.7-.9-10.5-2.2-11.7-5.3-12.9-18.4-12.9-18.4h-3.1c-2.3,0-4.2-1.9-4.2-4.2v-10.1c0-2.3,1.9-4.2,4.2-4.2s1.8,0,2.6,0c20.2-.5,29.4-10.9,32.4-15.3,4.3,10.1,13.2,14,13.2,14h3.1c2.9,0,5.3,2.4,5.3,5.3v10.9c0,4.6-6.2,3.3-6.2,3.3,0,0-1.5,13.1-12.6,18.6Z"/>
            <path class="st0" d="M98.6,197.6l-18.3,27.1-16.6-27.2c3.3-.1,5.6.2,5.6.2v-10.2c2.8,1.3,6.3,2.1,10.5,2.2,4.7,0,8.4-.8,11.4-2.4h0v10.3s3.1-.4,7.4,0Z"/>
            <path class="st10" d="M124.8,221.8v16.5h-.2v-15.1c0-1.5,0-2.9-.2-4.2.2.9.3,1.8.4,2.8Z"/>
            <path class="st10" d="M99,197.6c1.5,0,7.4.2,13.1,3.3-4.4-2.1-9.3-3-13.1-3.3Z"/>
            <path class="st4" d="M99,197.6c3.9.3,8.7,1.2,13.1,3.3t0,0c5.2,2.9,10.5,8.2,12.2,18,.2,1.3.2,2.7.2,4.2v15.1H35.9v-15.7c0-21,17.5-24.7,27.1-25.1h.7l16.6,27.2,18.3-27.1h.4Z"/>
            <path class="st10" d="M35.9,218.8s.9-21.2,27.1-21.2c-9.6.4-27.1,4-27.1,25.1v-3.8Z"/>
          </g>
          <g>
            <path class="st6" d="M56,150.5h0c-1.9-26.3,23.8-27.1,23.8-27.1,14-.9,25.7,9.7,24.9,25.8"/>
            <path class="st6" d="M88.3,135.2c-3,4.4-12.1,14.8-32.4,15.3-.8,0-1.7,0-2.6,0-2.3,0-4.2,1.9-4.2,4.2v10.1c0,2.3,1.9,4.2,4.2,4.2h3.1s1.2,13.1,12.9,18.4c2.8,1.3,6.3,2.1,10.5,2.2,4.7,0,8.4-.8,11.4-2.4,11-5.5,12.6-18.6,12.6-18.6,0,0,6.2,1.3,6.2-3.3v-10.9c0-2.9-2.4-5.3-5.3-5.3h-3.1s-9-3.9-13.2-14"/>
            <line class="st6" x1="88.3" y1="135.2" x2="88.3" y2="135.2"/>
            <path class="st6" d="M89.5,133.3s-.3.7-1.2,1.9"/>
            <path class="st6" d="M91.3,187.5v10.2s3.1-.4,7.4,0h.4c3.9.3,8.7,1.2,13.1,3.3t0,0c6,2.9,11.2,8.3,12.2,18,.2,1.3.2,2.7.2,4.2v15.1H35.9v-15.7c0-21,17.5-24.7,27.1-25.1h.7c3.3-.1,5.6.2,5.6.2v-10.2"/>
            <line class="st6" x1="73.9" y1="174.2" x2="85.4" y2="174.2"/>
            <line class="st6" x1="77.4" y1="180.7" x2="81.9" y2="180.7"/>
          </g>
        </g>
      </g>
      <g>
        <path class="st0" d="M208.3,226.1v56.2h-49l.4-55.5h.2s8.2,7.5,24.6,7.5,23.8-8.2,23.8-8.2Z"/>
        <path class="st10" d="M260.4,232.8l5.7,40.7c.6,4.6-3,8.8-7.6,8.8h-50.1v-82c.6.5,1.3.9,2.1,1.2l11.4,4.3,24.6,9.3c7.5,2.9,12.9,9.6,14,17.6Z"/>
        <path class="st10" d="M159.8,198.4l-.2,28.4-.4,55.5h-53c-3.8,0-6.7-3.3-6.2-7.1l5.9-42.4c1.1-8,6.5-14.7,14-17.6l26.8-10.2,9.1-3.5c1.7-.6,3-1.8,3.9-3.2Z"/>
        <path class="st2" d="M115,232.2l-6.9,49.5h51.1v.6h-51.5c-4.6,0-8.2-4.1-7.5-8.6l5.7-40.9c1.1-8,6.5-14.7,14-17.6l26.8-10.2,9.1-3.5c1.7-.6,3-1.8,3.9-3.2v4.6s-3.9,1.5-3.9,1.5l-26.8,10.2c-7.6,2.9-12.9,9.6-14,17.6Z"/>
        <path class="st9" d="M192.5,108.2c-4.1,32.2-39.4,29.1-39.4,29.1-.2-2.3-2.1-5.2-4.9-5.2s-3,4.1-2.6,8.8c.5,4.7,2,9.1,2.2,12.8.2,3.7,5.6,4.5,5.6,4.5-.2,5.3,3.3,10.9,7.7,15.6v20.4c0,1.5-.5,3-1.3,4.3-.9,1.4-2.2,2.6-3.9,3.2l-9.1,3.5s-15.5-19.4-15.5-55.9,19.2-70.9,53.2-70.9,53.2,34.5,53.2,70.9-15.5,55.9-15.5,55.9l-.3.9-11.4-4.3c-.8-.3-1.5-.7-2.1-1.2-1.9-1.5-3.1-3.8-3.1-6.3v-18.1c4.9-5.4,9.5-12.4,10.3-19.1,5.7.6,5.2-7.1,5.4-11.5.2-4.4,3.6-11.7,1.3-13.5-2.3-1.8-4.6,2.6-10.1,2.3-18.1-.7-19.6-26.1-19.6-26.1h0Z"/>
        <path class="st0" d="M161.1,173.7c-4.3-4.7-7.8-10.2-7.7-15.6,0,0-5.4-.8-5.6-4.5-.2-3.7-1.8-8.1-2.2-12.8-.5-4.7.7-8.8,2.6-8.8,2.8,0,4.7,2.9,4.9,5.2,0,0,35.3,3.1,39.4-29.1h0s1.5,25.4,19.6,26.1c5.5.2,7.8-4.2,10.1-2.3,2.2,1.8-1.1,9.1-1.3,13.5-.3,4.4.3,12.1-5.4,11.5-.8,6.6-5.4,13.7-10.3,19.1-3.9,4.3-8,7.5-10.4,8.7-5.6,2.7-9.5,2.4-9.5,2.4h-.4c-1.1,0-4.8-.2-9.6-2.4-3.1-1.4-9.2-5.6-14.2-11Z"/>
        <path class="st0" d="M208.3,200.4v25.8s-7.3,8.2-23.8,8.2-24.6-7.5-24.6-7.5h-.2l.2-28.4c.8-1.3,1.3-2.7,1.3-4.3v-20.4c4.9,5.4,11,9.6,14.2,11,4.8,2.2,8.5,2.4,9.6,2.4h.4s4,.3,9.5-2.4c2.5-1.2,6.5-4.4,10.4-8.7v18.1c0,2.5,1.2,4.8,3.1,6.3Z"/>
        <g>
          <path class="st6" d="M205.2,176v18.1c0,2.5,1.2,4.8,3.1,6.3.6.5,1.3.9,2.1,1.2l11.4,4.3,24.6,9.3c7.5,2.9,12.9,9.6,14,17.6l5.9,42.1c.5,3.9-2.5,7.4-6.4,7.4H99l6.9-49.5c1.1-8,6.5-14.7,14-17.6l26.8-10.2,9.1-3.5c1.7-.6,3-1.8,3.9-3.2.8-1.3,1.3-2.7,1.3-4.3v-20.4"/>
          <path class="st6" d="M153.4,158.1s-5.4-.8-5.6-4.5c-.2-3.7-1.8-8.1-2.2-12.8-.5-4.7.7-8.8,2.6-8.8,2.8,0,4.7,2.9,4.9,5.2,0,0,35.3,3.1,39.4-29.1.1-.7.2-1.4.2-2.2"/>
          <path class="st6" d="M215.5,157c-.8,6.6-5.4,13.7-10.3,19.1-3.9,4.3-8,7.5-10.4,8.7-5.6,2.7-9.5,2.4-9.5,2.4h-.4c-1.1,0-4.8-.2-9.6-2.4-3.1-1.4-9.2-5.6-14.2-11-4.3-4.7-7.8-10.2-7.7-15.6"/>
          <path class="st6" d="M192.5,108.2s1.5,25.4,19.6,26.1c5.5.2,7.8-4.2,10.1-2.3,2.2,1.8-1.1,9.1-1.3,13.5-.3,4.4.3,12.1-5.4,11.5"/>
          <path class="st6" d="M146.8,205s-15.5-19.4-15.5-55.9,19.2-70.9,53.2-70.9"/>
          <path class="st6" d="M222.1,205s15.5-19.4,15.5-55.9-19.2-70.9-53.2-70.9"/>
          <polyline class="st6" points="159.8 198.4 159.6 226.8 159.2 282.3"/>
          <polyline class="st6" points="208.3 282.3 208.3 226.1 208.3 200.4"/>
          <path class="st6" d="M159.8,226.8s8.2,7.5,24.6,7.5,23.8-8.2,23.8-8.2"/>
        </g>
      </g>
    </g>
    <g>
      <g>
        <line class="st6" x1="309.9" y1="283.5" x2="309.9" y2="295.3"/>
        <line class="st6" x1="315.9" y1="289.4" x2="304" y2="289.4"/>
      </g>
      <g>
        <line class="st6" x1="70.2" y1="284.7" x2="70.2" y2="296.5"/>
        <line class="st6" x1="76.1" y1="290.6" x2="64.3" y2="290.6"/>
      </g>
      <g>
        <line class="st6" x1="111.2" y1="34.5" x2="111.2" y2="49.3"/>
        <line class="st6" x1="118.6" y1="41.9" x2="103.8" y2="41.9"/>
      </g>
    </g>
  </g>
</svg>