<?xml version="1.0" encoding="UTF-8"?>
<svg id="Layer_1" xmlns="http://www.w3.org/2000/svg" version="1.1" viewBox="0 0 350.6 309.1">
  <!-- Generator: Adobe Illustrator 29.0.0, SVG Export Plug-In . SVG Version: 2.1.0 Build 186)  -->
  <defs>
    <style>
      .st0 {
        fill: #fff;
      }

      .st1 {
        fill: #941303;
      }

      .st2 {
        fill: #ededed;
        opacity: .5;
      }

      .st3 {
        fill: none;
        stroke: #000;
        stroke-linecap: round;
        stroke-linejoin: round;
        stroke-width: 2.6px;
      }

      .st4 {
        fill: #c1c1c1;
      }

      .st5 {
        fill: #cb9390;
      }
    </style>
  </defs>
  <rect class="st2" x="28" width="290.1" height="309.1" rx="23.8" ry="23.8"/>
  <rect class="st0" x="29.9" y="43.2" width="281" height="189.1" rx="10.8" ry="10.8"/>
  <g>
    <g>
      <polygon class="st0" points="227.6 276.6 214.7 276.6 189.7 244.3 144.2 244.3 147.7 239.8 199.1 239.8 227.6 276.6"/>
      <polygon class="st1" points="214.7 276.6 119.1 276.6 144.2 244.3 189.7 244.3 214.7 276.6"/>
      <polygon class="st1" points="221 276.6 119.1 276.6 144.2 244.3 196 244.3 221 276.6"/>
      <g>
        <line class="st3" x1="101.3" y1="277.4" x2="246.9" y2="277.4"/>
        <g>
          <g>
            <path class="st1" d="M314.5,29.7c9.2,3.6,13.8,14,10.2,23.2-2.4,6.1-7.7,10.2-13.7,11.2v-11.8c0-4.6-3.7-8.3-8.3-8.3h-12.4c.2-1.4.5-2.8,1.1-4.1,3.6-9.2,14-13.8,23.2-10.2h0Z"/>
            <path class="st4" d="M41.3,219.2v12.3c0,4.6,3.7,8.3,8.3,8.3h252.9c4.6,0,8.3-3.7,8.3-8.3v-12.3H41.3ZM172.5,233.2c-2,0-3.7-1.7-3.7-3.7s1.7-3.7,3.7-3.7,3.7,1.7,3.7,3.7-1.7,3.7-3.7,3.7Z"/>
            <circle class="st0" cx="172.5" cy="229.5" r="3.7"/>
            <path class="st4" d="M41.3,231.4c0,4.6,3.7,8.3,8.3,8.3h-11.1c-4.6,0-8.3-3.7-8.3-8.3v-12.3h11.1v12.3Z"/>
          </g>
          <g>
            <path class="st3" d="M262.8,239.8H38.6c-4.6,0-8.3-3.7-8.3-8.3V52.3c0-4.6,3.7-8.3,8.3-8.3h264.1c4.6,0,8.3,3.7,8.3,8.3v179.1c0,4.6-3.7,8.3-8.3,8.3h-50.4"/>
            <polyline class="st3" points="231.6 219.2 305.4 219.2 311 219.2"/>
            <polyline class="st3" points="30.2 219.2 41.3 219.2 242.4 219.2"/>
            <polyline class="st3" points="147.7 239.7 147.7 239.8 119.1 276.6 118.9 276.8"/>
            <polyline class="st3" points="199 239.7 199.1 239.8 227.6 276.6 227.8 276.8"/>
            <circle class="st3" cx="172.5" cy="229.5" r="3.7"/>
            <line class="st3" x1="319.5" y1="16.9" x2="324.1" y2="5"/>
            <line class="st3" x1="266.6" y1="30.3" x2="278.5" y2="34.9"/>
            <line class="st3" x1="337.5" y1="57.9" x2="349.3" y2="62.5"/>
            <line class="st3" x1="337" y1="33.7" x2="348.6" y2="28.6"/>
            <line class="st3" x1="290.1" y1="5.8" x2="295.2" y2="17.4"/>
            <line class="st3" x1="320.7" y1="75.4" x2="325.9" y2="87"/>
            <path class="st3" d="M290.2,44c.2-1.4.5-2.8,1.1-4.1,3.6-9.2,14-13.8,23.2-10.2,9.2,3.6,13.8,14,10.2,23.2-2.4,6.1-7.7,10.2-13.7,11.2,0,0,0,0,0,0"/>
          </g>
        </g>
      </g>
    </g>
    <g>
      <g>
        <g>
          <line class="st3" x1="324.1" y1="250.4" x2="324.1" y2="262.2"/>
          <line class="st3" x1="330.1" y1="256.3" x2="318.2" y2="256.3"/>
        </g>
        <g>
          <line class="st3" x1="7.2" y1="245.7" x2="7.2" y2="257.5"/>
          <line class="st3" x1="13.1" y1="251.6" x2="1.3" y2="251.6"/>
        </g>
        <g>
          <line class="st3" x1="136.6" y1="9.4" x2="136.6" y2="28.8"/>
          <line class="st3" x1="146.3" y1="19.1" x2="127" y2="19.1"/>
        </g>
      </g>
      <line class="st3" x1="19.3" y1="166.6" x2="19.3" y2="174.4"/>
      <line class="st3" x1="19.3" y1="117" x2="19.3" y2="160.7"/>
    </g>
  </g>
  <g>
    <g>
      <g>
        <polygon class="st5" points="121.5 113.5 121.6 113.6 113.6 118.4 113.5 118.1 113.5 106 121.5 106 121.5 113.5"/>
        <rect class="st5" x="148.8" y="138.8" width="14.7" height="18.6"/>
        <rect class="st5" x="119.7" y="140.2" width="19.8" height="30.2"/>
        <path class="st5" d="M86,170.5h18.2M104.2,81v7.3h-18.2v-7.3c0-.5.2-1.1.6-1.4l7.2-6.5c.7-.7,1.9-.7,2.6,0l7.2,6.5c.4.4.6.9.6,1.4Z"/>
        <path class="st0" d="M273.3,88.4v63.7c0,10.1-8.2,18.4-18.4,18.4h-81.4v-39.2h5.9v-6.6l-38.2-22.9-19.7,11.8h0v-7.6h-8v12l.2.3-10.5,6.3v6.6h6v39.2h-30.6v-82.1h194.8Z"/>
        <path class="st0" d="M148.8,157.4h14.7v-18.6h-14.7v18.6ZM179.4,124.7v6.6h-5.9v39.2s-33.9,0-33.9,0v-30.2h-19.8v30.2h-10.7v-39.2h-5.9v-6.6l10.5-6.3,7.9-4.7,19.7-11.8,38.2,22.9h0Z"/>
      </g>
      <g>
        <path class="st3" d="M86,88.4v-7.3c0-.5.2-1.1.6-1.4l7.2-6.5c.7-.7,1.9-.7,2.6,0l7.2,6.5c.4.4.6.9.6,1.4v7.3"/>
        <path class="st3" d="M104.2,219"/>
        <line class="st3" x1="104.2" y1="170.5" x2="104.2" y2="219"/>
        <line class="st3" x1="86" y1="218.8" x2="86" y2="170.5"/>
        <path class="st3" d="M86,218.8"/>
        <path class="st3" d="M104.2,88.4h169.1v63.7c0,10.1-8.2,18.4-18.4,18.4H78.4v-82.1h25.8Z"/>
        <polyline class="st3" points="109 170.5 109 141.2 109 131.3 109 131.3 103.1 131.3 103.1 124.7 113.6 118.4 121.6 113.6 141.2 101.8 179.4 124.7 179.4 131.3 173.5 131.3 173.5 170.5 173.5 170.8"/>
        <polyline class="st3" points="119.7 170.5 119.7 140.2 139.5 140.2 139.5 170.5"/>
        <polyline class="st3" points="148.8 157.4 148.8 138.8 163.6 138.8 163.6 157.4"/>
        <polyline class="st3" points="145.6 157.4 148.8 157.4 163.6 157.4 166.6 157.4"/>
        <polyline class="st3" points="174.4 141.8 182.7 141.8 182.7 149.8 190.3 149.8 190.3 133.7 197.5 133.7"/>
        <polyline class="st3" points="113.5 118.1 113.5 106 121.5 106 121.5 113.5"/>
        <polyline class="st3" points="78.4 150.4 91.4 150.4 91.4 154.9 100 154.9 100 141.2 109 141.2"/>
      </g>
    </g>
    <g>
      <path d="M215.3,120.4c3.4,0,5.1-1.8,5.1-5.4v-3c0-3.6-1.7-5.4-5.1-5.4h-5v22.5h2.9v-8.3c0-.2.2-.4.4-.4h1.7ZM213.2,117.5v-7.9c0-.2.2-.4.4-.4h1.7c1.5,0,2.2.8,2.2,2.6v3.5c0,1.8-.7,2.6-2.2,2.6h-1.7c-.2,0-.4-.2-.4-.4Z"/>
      <path d="M227.7,129.4c3.3,0,5.2-1.9,5.2-5.5v-12.1c0-3.5-1.8-5.5-5.2-5.5s-5.2,1.9-5.2,5.5v12.1c0,3.5,1.8,5.5,5.2,5.5ZM225.4,111.6c0-2.2,1.2-2.7,2.3-2.7s2.3.5,2.3,2.7v12.5c0,2.2-1.2,2.7-2.3,2.7s-2.3-.5-2.3-2.7v-12.5Z"/>
      <path d="M241.6,116.9c-2.4-2.1-3.2-3.5-3.2-5.3s.7-2.7,2.2-2.7,2.2.9,2.2,2.7v.6h2.7v-.3c0-3.6-1.7-5.5-5-5.5s-5,1.9-5,5.5,1,4.5,3.9,7c2.4,2.1,3.2,3.5,3.2,5.3s-1.2,2.6-2.3,2.6-2.3-.5-2.3-2.6v-1.3h-2.7v1c0,3.6,1.7,5.5,5.1,5.5s5.1-1.9,5.1-5.5-1-4.5-3.9-7Z"/>
      <path d="M251.1,109.6v19.5h2.9v-19.5c0-.2.2-.4.4-.4h3.4v-2.5h-10.5v2.5h3.4c.2,0,.4.2.4.4Z"/>
      <path d="M209.4,144.1c-.2,0-.4-.2-.4-.4v-9.6h-2.9v22.5h2.9v-9.6c0-.2.2-.4.4-.4h4.1c.2,0,.4.2.4.4v9.6h2.9v-22.5h-2.9v9.6c0,.2-.2.4-.4.4h-4.1Z"/>
      <path d="M229.5,154.1h-5.9c-.2,0-.4-.2-.4-.4v-6.8c0-.2.2-.4.4-.4h4.6v-2.5h-4.6c-.2,0-.4-.2-.4-.4v-6.5c0-.2.2-.4.4-.4h5.9v-2.5h-9.2v22.5h9.2v-2.5Z"/>
      <path d="M242.7,150.6c0-2.5-.7-3.9-2.2-4.6-.1,0-.2-.2-.2-.4s0-.4.2-.4c1.5-.7,2.2-2.1,2.2-4.3v-1.8c0-3.4-1.5-5-5-5h-5.1v22.5h2.9v-9.1c0-.2.2-.4.4-.4h1.3c1.9,0,2.8,1,2.8,3.3v3.6c0,1.5,0,2,.2,2.5h2.9c-.2-.8-.2-1.5-.2-2.4v-3.6ZM239.8,141.8c0,1.9-.8,2.8-2.6,2.8h-1.4c-.2,0-.4-.2-.4-.4v-7.1c0-.2.2-.4.4-.4h1.8c1.5,0,2.2.9,2.2,2.8v2.3Z"/>
      <path d="M255,154.1h-5.9c-.2,0-.4-.2-.4-.4v-6.8c0-.2.2-.4.4-.4h4.6v-2.5h-4.6c-.2,0-.4-.2-.4-.4v-6.5c0-.2.2-.4.4-.4h5.9v-2.5h-9.2v22.5h9.2v-2.5Z"/>
      <polygon points="260.5 151.5 260.9 143.5 260.9 134.2 258.1 134.2 258.1 143.5 258.5 151.5 260.5 151.5"/>
      <rect x="258.1" y="153.9" width="2.7" height="2.7"/>
    </g>
  </g>
</svg>