<?xml version="1.0" encoding="UTF-8"?>
<svg id="Layer_1" data-name="Layer 1" xmlns="http://www.w3.org/2000/svg" viewBox="0 0 24 24">
  <defs>
    <style>
      .cls-1 {
        fill: #fff;
      }
    </style>
  </defs>
  <path class="cls-1" d="M22,19.05v-8.4c1.18-.56,2-1.76,2-3.15,0-.05-2.02-7.14-2.02-7.14-.06-.22-.26-.36-.48-.36H2.5c-.22,0-.42.15-.48.36,0,0-2.02,7.09-2.02,7.14,0,1.39.82,2.59,2,3.15v8.4c-1.14.23-2,1.24-2,2.45,0,1.38,1.12,2.5,2.5,2.5h19c1.38,0,2.5-1.12,2.5-2.5,0-1.21-.86-2.22-2-2.45ZM1,7.57L2.88,1h4.12v2.5c0,.28.22.5.5.5s.5-.22.5-.5V1h8v2.5c0,.28.22.5.5.5s.5-.22.5-.5V1h4.12l1.88,6.57c-.03,1.35-1.14,2.43-2.5,2.43h-1c-1.38,0-2.5-1.12-2.5-2.5,0-.28-.22-.5-.5-.5s-.5.22-.5.5c0,1.38-1.12,2.5-2.5,2.5h-3c-1.38,0-2.5-1.12-2.5-2.5,0-.28-.22-.5-.5-.5s-.5.22-.5.5c0,1.38-1.12,2.5-2.5,2.5h-1c-1.36,0-2.46-1.09-2.5-2.43ZM3.5,11h1c1.28,0,2.39-.7,3-1.73.61,1.03,1.72,1.73,3,1.73h3c1.28,0,2.39-.7,3-1.73.61,1.03,1.72,1.73,3,1.73h1c.17,0,.33-.03.5-.05v8.05h-5.5c-.13,0-.26.05-.35.15l-.85.85h-4.59l-.85-.85c-.09-.09-.22-.15-.35-.15H3v-8.05c.16.02.33.05.5.05ZM21.5,23H2.5c-.83,0-1.5-.67-1.5-1.5s.67-1.5,1.5-1.5h5.79l.85.85c.09.09.22.15.35.15h5c.13,0,.26-.05.35-.15l.85-.85h5.79c.83,0,1.5.67,1.5,1.5s-.67,1.5-1.5,1.5h0Z"/>
</svg>