<?xml version="1.0" encoding="UTF-8"?>
<svg id="Layer_1" data-name="Layer 1" xmlns="http://www.w3.org/2000/svg" viewBox="0 0 24 22">
  <defs>
    <style>
      .cls-1 {
        fill: #fff;
      }
    </style>
  </defs>
  <path class="cls-1" d="M16.5,0c-.28,0-.5.22-.5.5,0,1.63-.57,3.5-5,3.5H3.5c-1.93,0-3.5,1.57-3.5,3.5v3c0,1.4.83,2.61,2.03,3.16,0,.01,0,.02,0,.04l3,6.76c.41.94,1.34,1.54,2.37,1.54.87,0,1.68-.43,2.16-1.16.48-.73.56-1.64.23-2.44l-1.86-4.4h3.07c4.23,0,5,1.18,5,3.5,0,.28.22.5.5.5s.5-.22.5-.5V.5c0-.28-.22-.5-.5-.5h0ZM1,10.5v-3c0-1.38,1.12-2.5,2.5-2.5h2.5v8h-2.5c-1.38,0-2.5-1.12-2.5-2.5ZM8.87,18.79c.21.5.16,1.05-.14,1.5-.3.45-.78.71-1.33.71-.63,0-1.2-.37-1.45-.95l-2.7-6.08c.08,0,.16.02.25.02h3.35l2.03,4.79ZM11,13h-4v-8h4c2.37,0,4.03-.55,5-1.62v11c-1.03-1.09-2.78-1.39-5-1.39ZM21.51,15.01c-.19.19-.51.19-.71,0s-.19-.51,0-.71c2.92-2.92,2.92-7.68,0-10.61-.19-.2-.19-.51,0-.71s.51-.19.71,0c3.31,3.31,3.31,8.71,0,12.02h0ZM21,9c0,1.47-.57,2.85-1.61,3.89-.19.19-.51.19-.71,0s-.19-.51,0-.71c.85-.85,1.32-1.98,1.32-3.18s-.47-2.33-1.32-3.18c-.19-.2-.19-.51,0-.71s.51-.2.71,0c1.04,1.04,1.61,2.42,1.61,3.89Z"/>
</svg>