<?xml version="1.0" encoding="UTF-8"?>
<svg id="Layer_1" data-name="Layer 1" xmlns="http://www.w3.org/2000/svg" viewBox="0 0 24 24">
  <defs>
    <style>
      .cls-1 {
        fill: #fff;
      }
    </style>
  </defs>
  <path class="cls-1" d="M14,12c0,2.21,1.79,4,4,4s4-1.79,4-4-1.79-4-4-4-4,1.79-4,4ZM18,9c1.65,0,3,1.35,3,3s-1.35,3-3,3-3-1.35-3-3,1.34-3,3-3ZM12,8c2.21,0,4-1.79,4-4S14.21,0,12,0s-4,1.79-4,4,1.79,4,4,4ZM12,1c1.65,0,3,1.35,3,3s-1.35,3-3,3-3-1.35-3-3,1.35-3,3-3ZM6,16c2.21,0,4-1.79,4-4s-1.79-4-4-4-4,1.79-4,4,1.79,4,4,4ZM6,9c1.65,0,3,1.35,3,3s-1.35,3-3,3-3-1.35-3-3,1.35-3,3-3ZM24,23.25v.25c0,.28-.22.5-.5.5s-.5-.22-.5-.5v-.25c0-1.74-.86-3.36-2.3-4.34-.23-.16-.57-.1-.76.14l-1.21,1.51c-.45.56-1.39.57-1.84,0l-1.25-1.56c-.19-.23-.52-.3-.75-.14-1.49.97-2.39,2.62-2.39,4.4v.25c0,.28-.22.5-.5.5s-.5-.22-.5-.5v-.25c0-1.74-.86-3.36-2.3-4.34-.24-.16-.57-.1-.76.14l-1.21,1.51c-.22.28-.56.44-.92.44h0c-.36,0-.7-.16-.92-.44l-1.25-1.56c-.19-.23-.52-.3-.75-.14-1.49.97-2.39,2.62-2.39,4.4v.25c0,.28-.22.5-.5.5s-.5-.23-.5-.5v-.25c0-2.12,1.06-4.08,2.84-5.24.66-.43,1.58-.27,2.08.35l1.25,1.56c.09.12.19.12.28,0l1.21-1.51c.51-.64,1.44-.79,2.1-.34,1.01.69,1.77,1.65,2.24,2.74.48-1.13,1.28-2.11,2.34-2.81.66-.43,1.57-.28,2.08.35l1.25,1.56c.1.12.19.12.28,0l1.21-1.51c.51-.64,1.44-.79,2.1-.34,1.72,1.17,2.74,3.1,2.74,5.17h0Z"/>
</svg>