<?xml version="1.0" encoding="UTF-8"?>
<svg id="Layer_1" data-name="Layer 1" xmlns="http://www.w3.org/2000/svg" viewBox="0 0 17.98 24">
  <defs>
    <style>
      .cls-1 {
        fill: #fff;
      }
    </style>
  </defs>
  <path class="cls-1" d="M17.89,7.71C17.34,3.74,14.04.52,10.04.06c-2.51-.29-4.94.44-6.85,2.05C1.31,3.7.14,6.02,0,8.47c-.02.28.19.51.47.53.28.02.51-.19.53-.47.13-2.18,1.16-4.24,2.84-5.65,1.7-1.43,3.86-2.08,6.09-1.82,3.55.41,6.48,3.26,6.97,6.79.19,1.39.03,2.79-.47,4.06-.49,1.25-1.78,2.09-3.2,2.09h-2.52c.17-.29.27-.64.27-1,0-1.1-.9-2-2-2s-2,.9-2,2,.9,2,2,2h4.25c1.84,0,3.5-1.09,4.14-2.72.56-1.43.74-3.01.52-4.57ZM7.98,13c0-.55.45-1,1-1s1,.45,1,1-.45,1-1,1-1-.45-1-1ZM13.44,11.27c.36-.71.55-1.47.55-2.27,0-2.76-2.24-5-5-5s-5,2.24-5,5c0,1.16.41,2.29,1.14,3.18.18.21.15.53-.07.7-.09.08-.21.11-.32.11-.14,0-.29-.06-.39-.18-.88-1.07-1.37-2.43-1.37-3.82,0-3.31,2.69-6,6-6s6,2.69,6,6c0,.96-.22,1.88-.65,2.73-.13.25-.43.34-.67.22-.25-.13-.34-.43-.22-.67h0ZM16.97,23.4c.06.27-.12.53-.39.59-.26.06-.53-.12-.59-.39-.68-3.25-3.62-5.6-7.01-5.6s-6.34,2.35-7.01,5.6c-.05.24-.26.4-.49.4-.03,0-.07,0-.1-.01-.27-.06-.44-.32-.39-.59.77-3.71,4.13-6.4,7.99-6.4s7.22,2.69,7.99,6.4h0Z"/>
</svg>