<?xml version="1.0" encoding="UTF-8"?>
<svg id="Layer_1" data-name="Layer 1" xmlns="http://www.w3.org/2000/svg" viewBox="0 0 24 24">
  <defs>
    <style>
      .cls-1 {
        fill: #fff;
      }
    </style>
  </defs>
  <path class="cls-1" d="M13.5,13c.28,0,.5-.22.5-.5s-.22-.5-.5-.5H1.73c-.4,0-.73-.33-.73-.73,0-.28.16-.53.41-.66l8.07-3.95c.16-.09.34-.13.52-.13s.36.05.54.14l7.24,3.54c.07.03.15.05.22.05.18,0,.36-.1.45-.28.12-.25.02-.55-.23-.67l-7.22-3.53c-.16-.08-.32-.15-.5-.19v-.38l3.44-1.72c.35-.24.56-.66.56-1.1s-.21-.86-.56-1.1c-.02-.02-2.33-1.05-2.33-1.05-.16-.07-.32-.13-.48-.18-.38-.12-.78-.04-1.1.2-.33.24-.52.63-.52,1.04v4.3c-.17.04-.33.1-.48.18L.97,9.71c-.6.29-.97.89-.97,1.56,0,.95.78,1.73,1.73,1.73h.27v8.05c-1.14.23-2,1.24-2,2.45,0,.28.22.5.5.5s.5-.22.5-.5c0-.83.67-1.5,1.5-1.5h8c.28,0,.5-.22.5-.5s-.22-.5-.5-.5h-1.5v-8h2v4.5c0,.28.22.5.5.5s.5-.22.5-.5v-4.5s1.5,0,1.5,0ZM10.5,1.29c0-.13.08-.21.12-.23.03-.02.08-.05.15-.05.02,0,.05,0,.07.01.12.03,2.55,1.11,2.55,1.11.07.06.1.15.1.26,0,.12-.05.22-.07.24l-2.93,1.46V1.29h0ZM5,13v8h-2v-8h2ZM8,21h-2v-8h2v8ZM19.69,15.17c.4-.36.84-.82,1.15-1.35.22-.37.22-.82,0-1.19-.22-.39-.63-.62-1.07-.62h-2.53c-.44,0-.85.24-1.07.62-.22.38-.22.82,0,1.19.31.53.75.99,1.15,1.35-2.32.68-4.31,3.23-4.31,5.83,0,1.65,1.35,2.99,3,2.99h5c1.65,0,3-1.34,3-2.99,0-2.6-2-5.15-4.31-5.83h0ZM17.03,13.31c-.05-.08-.02-.15,0-.19.02-.03.08-.12.2-.12h2.53c.12,0,.19.09.2.12.03.05.05.12,0,.19-.39.66-1.09,1.25-1.48,1.55-.39-.29-1.09-.88-1.48-1.55h0ZM21,22.99h-5c-1.1,0-2-.89-2-1.99,0-2.48,2.27-5.01,4.5-5.01s4.5,2.53,4.5,5.01c0,1.1-.9,1.99-2,1.99Z"/>
</svg>