<?xml version="1.0" encoding="UTF-8"?>
<svg id="Layer_1" data-name="Layer 1" xmlns="http://www.w3.org/2000/svg" viewBox="0 0 512 512">
  <defs>
    <style>
      .cls-1 {
        fill: #fff;
      }
    </style>
  </defs>
  <path class="cls-1" d="M384,288c0-5.89,4.78-10.67,10.67-10.67h21.33c5.89,0,10.67,4.78,10.67,10.67s-4.78,10.67-10.67,10.67h-21.33c-5.89,0-10.67-4.78-10.67-10.67ZM394.67,384h21.33c5.89,0,10.67-4.78,10.67-10.67s-4.78-10.67-10.67-10.67h-21.33c-5.89,0-10.67,4.78-10.67,10.67s4.78,10.67,10.67,10.67ZM309.33,128h21.33c5.89,0,10.67-4.78,10.67-10.67s-4.78-10.67-10.67-10.67h-21.33c-5.89,0-10.67,4.78-10.67,10.67s4.78,10.67,10.67,10.67ZM394.67,128h21.33c5.89,0,10.67-4.78,10.67-10.67s-4.78-10.67-10.67-10.67h-21.33c-5.89,0-10.67,4.78-10.67,10.67s4.78,10.67,10.67,10.67ZM394.67,213.33h21.33c5.89,0,10.67-4.78,10.67-10.67s-4.78-10.67-10.67-10.67h-21.33c-5.89,0-10.67,4.78-10.67,10.67s4.78,10.67,10.67,10.67ZM330.67,192h-21.33c-5.89,0-10.67,4.78-10.67,10.67s4.78,10.67,10.67,10.67h21.33c5.89,0,10.67-4.78,10.67-10.67s-4.78-10.67-10.67-10.67ZM416,0h-106.67c-52.93,0-96,43.07-96,96v64c0,5.89,4.78,10.67,10.67,10.67s10.67-4.78,10.67-10.67v-64c0-41.17,33.49-74.67,74.67-74.67h106.67c41.17,0,74.67,33.49,74.67,74.67v320c0,41.17-33.49,74.67-74.67,74.67h-64c-5.89,0-10.67,4.78-10.67,10.67s4.78,10.67,10.67,10.67h64c52.93,0,96-43.07,96-96V96c0-52.93-43.07-96-96-96ZM320,338.09v88.58c0,47.06-38.27,85.33-85.33,85.33H85.33c-47.06,0-85.33-38.27-85.33-85.33v-88.58c0-29.72,13.44-57.28,36.84-75.61l64-50.09c34.84-27.24,83.52-27.24,118.31,0l64.02,50.09c23.4,18.33,36.84,45.89,36.84,75.61h-.02ZM298.67,338.09c0-23.1-10.43-44.54-28.67-58.82l-64-50.09c-13.55-10.58-29.78-15.89-45.99-15.89s-32.45,5.31-46.02,15.89l-63.98,50.09c-18.22,14.27-28.67,35.71-28.67,58.82v88.58c0,35.29,28.71,64,64,64h149.33c35.29,0,64-28.71,64-64v-88.58ZM213.33,352v42.67c0,17.64-14.36,32-32,32h-42.67c-17.64,0-32-14.36-32-32v-42.67c0-17.64,14.36-32,32-32h42.67c17.64,0,32,14.36,32,32ZM192,352c0-5.87-4.8-10.67-10.67-10.67h-42.67c-5.87,0-10.67,4.8-10.67,10.67v42.67c0,5.87,4.8,10.67,10.67,10.67h42.67c5.87,0,10.67-4.8,10.67-10.67v-42.67Z"/>
</svg>