<?xml version="1.0" encoding="UTF-8"?>
<svg id="Layer_1" data-name="Layer 1" xmlns="http://www.w3.org/2000/svg" viewBox="0 0 512 469.33">
  <defs>
    <style>
      .cls-1 {
        fill: #fff;
      }
    </style>
  </defs>
  <path class="cls-1" d="M10.67,320h298.67c5.89,0,10.67-4.78,10.67-10.67V85.33C320,38.27,281.73,0,234.67,0H85.33C38.27,0,0,38.27,0,85.33v224c0,5.89,4.78,10.67,10.67,10.67ZM21.33,85.33c0-35.29,28.71-64,64-64h149.33c35.29,0,64,28.71,64,64v213.33H21.33V85.33ZM106.67,74.67v170.67c0,5.89-4.78,10.67-10.67,10.67s-10.67-4.78-10.67-10.67V74.67c0-5.89,4.78-10.67,10.67-10.67s10.67,4.78,10.67,10.67ZM170.67,74.67v170.67c0,5.89-4.78,10.67-10.67,10.67s-10.67-4.78-10.67-10.67V74.67c0-5.89,4.78-10.67,10.67-10.67s10.67,4.78,10.67,10.67ZM234.67,74.67v170.67c0,5.89-4.78,10.67-10.67,10.67s-10.67-4.78-10.67-10.67V74.67c0-5.89,4.78-10.67,10.67-10.67s10.67,4.78,10.67,10.67ZM511.32,241.58c-1.02-10.2-3.16-20.25-6.42-29.99l-19.22-57.71c-11.56-34.62-43.86-57.88-80.34-57.88-23.53,0-42.67,19.14-42.67,42.67v224H10.67c-5.89,0-10.67,4.78-10.67,10.67v32c0,18.05,7.68,35.35,21.08,47.47,11.8,10.67,27.2,16.51,43.07,16.51,2.13,0,4.29-.11,6.42-.32,19.2-1.92,35.93-13.12,46.29-29.08,11.39,17.69,31.25,29.42,53.8,29.42,35.29,0,64-28.71,64-64v-21.33h128v21.33c0,35.29,28.71,64,64,64s64-28.71,64-64v-23.17c12.42-4.39,21.33-16.26,21.33-30.17v-96.55c0-2.65-.36-8.49-.68-13.87h0ZM405.33,117.33c27.29,0,51.43,17.41,60.07,43.31l19.22,57.71c1.79,5.35,3.18,10.79,4.18,16.34h-104.81v-96.02c0-11.75,9.56-21.33,21.33-21.33h0ZM68.44,447.77c-12.27,1.32-24-2.6-33.05-10.79-8.92-8.06-14.06-19.61-14.06-31.64v-21.33h85.33v18.28c0,23.36-16.79,43.35-38.23,45.48ZM213.33,405.33c0,23.53-19.14,42.67-42.67,42.67s-42.67-19.14-42.67-42.67c0-.32,0-.64-.04-.96,0-.7.04-1.39.04-2.09v-18.28h85.33v21.33ZM426.67,448c-23.53,0-42.67-19.14-42.67-42.67v-21.33h85.33v21.33c0,23.53-19.14,42.67-42.67,42.67ZM480,362.67h-96v-106.67h106.67v96c0,5.89-4.8,10.67-10.67,10.67Z"/>
</svg>