<?xml version="1.0" encoding="UTF-8"?>
<svg id="Layer_1" data-name="Layer 1" xmlns="http://www.w3.org/2000/svg" viewBox="0 0 24 24">
  <defs>
    <style>
      .cls-1 {
        fill: #fff;
      }
    </style>
  </defs>
  <path class="cls-1" d="M19.5,0h-10c-2.48,0-4.5,2.02-4.5,4.5v2.5h-1c-2.21,0-4,1.79-4,4v10c0,1.65,1.35,3,3,3h16.5c2.48,0,4.5-2.02,4.5-4.5V4.5c0-2.48-2.02-4.5-4.5-4.5ZM5,21c0,1.1-.9,2-2,2s-2-.9-2-2v-10c0-1.65,1.35-3,3-3h1v13ZM23,19.5c0,1.93-1.57,3.5-3.5,3.5H5.23c.48-.53.77-1.23.77-2V4.5c0-1.93,1.57-3.5,3.5-3.5h10c1.93,0,3.5,1.57,3.5,3.5v15ZM21,7.5c0,.28-.22.5-.5.5h-5c-.28,0-.5-.22-.5-.5s.22-.5.5-.5h5c.28,0,.5.22.5.5ZM21,11.5c0,.28-.22.5-.5.5h-12c-.28,0-.5-.22-.5-.5s.22-.5.5-.5h12c.28,0,.5.22.5.5ZM21,15.5c0,.28-.22.5-.5.5h-12c-.28,0-.5-.22-.5-.5s.22-.5.5-.5h12c.28,0,.5.22.5.5ZM21,19.5c0,.28-.22.5-.5.5h-12c-.28,0-.5-.22-.5-.5s.22-.5.5-.5h12c.28,0,.5.22.5.5ZM9.5,8h2c.83,0,1.5-.67,1.5-1.5v-2c0-.83-.67-1.5-1.5-1.5h-2c-.83,0-1.5.67-1.5,1.5v2c0,.83.67,1.5,1.5,1.5ZM9,4.5c0-.28.22-.5.5-.5h2c.28,0,.5.22.5.5v2c0,.28-.22.5-.5.5h-2c-.28,0-.5-.22-.5-.5v-2Z"/>
</svg>