<?xml version="1.0" encoding="UTF-8"?>
<svg id="Layer_1" data-name="Layer 1" xmlns="http://www.w3.org/2000/svg" viewBox="0 0 512 512">
  <defs>
    <style>
      .cls-1 {
        fill: #fff;
      }
    </style>
  </defs>
  <path class="cls-1" d="M394.67,512H117.33c-64.68,0-117.33-52.65-117.33-117.33V42.67C0,19.14,19.14,0,42.67,0h27.52c19.95,0,37.48,14.14,41.69,33.64l43.71,201.02,79.19-78.91c8.66-6.98,19.09-8.13,28.01-3.86,8.98,4.31,14.55,13.18,14.55,23.13v48.28l86.34-68.33c7.74-6.21,18.18-7.4,27.11-3.07,8.98,4.31,14.55,13.18,14.55,23.13v44.63l64.11-63.89c8.66-6.98,19.09-8.13,28.01-3.86,8.98,4.31,14.55,13.18,14.55,23.13v219.65c0,64.68-52.65,117.33-117.33,117.33h0ZM42.67,21.33c-11.78,0-21.33,9.56-21.33,21.33v352c0,52.93,43.07,96,96,96h277.33c52.93,0,96-43.07,96-96v-219.65c0-2.35-1.54-3.46-2.45-3.9-.94-.45-2.77-.96-4.59.51l-81.43,81.26c-3.05,3.03-7.64,3.93-11.61,2.28-3.99-1.64-6.59-5.55-6.59-9.86v-70.31c0-2.35-1.54-3.46-2.45-3.9s-2.75-.96-4.59.51l-103.66,82.05c-3.2,2.54-7.59,3.03-11.26,1.26-3.69-1.79-6.02-5.53-6.02-9.6v-70.31c0-2.35-1.54-3.46-2.45-3.9s-2.77-.96-4.59.51l-81.43,81.26c-2.01,1.98-4.71,3.11-7.53,3.11h-13.12c-5.01,0-9.34-3.5-10.41-8.41L91.05,38.17c-2.13-9.75-10.88-16.83-20.86-16.83h-27.52ZM160,426.67h-21.33c-17.64,0-32-14.36-32-32v-21.33c0-17.64,14.36-32,32-32h21.33c17.64,0,32,14.36,32,32v21.33c0,17.64-14.36,32-32,32ZM138.67,362.67c-5.87,0-10.67,4.8-10.67,10.67v21.33c0,5.87,4.8,10.67,10.67,10.67h21.33c5.87,0,10.67-4.8,10.67-10.67v-21.33c0-5.87-4.8-10.67-10.67-10.67h-21.33ZM288,426.67h-21.33c-17.64,0-32-14.36-32-32v-21.33c0-17.64,14.36-32,32-32h21.33c17.64,0,32,14.36,32,32v21.33c0,17.64-14.36,32-32,32ZM266.67,362.67c-5.87,0-10.67,4.8-10.67,10.67v21.33c0,5.87,4.8,10.67,10.67,10.67h21.33c5.87,0,10.67-4.8,10.67-10.67v-21.33c0-5.87-4.8-10.67-10.67-10.67h-21.33ZM416,426.67h-21.33c-17.64,0-32-14.36-32-32v-21.33c0-17.64,14.36-32,32-32h21.33c17.64,0,32,14.36,32,32v21.33c0,17.64-14.36,32-32,32ZM394.67,362.67c-5.87,0-10.67,4.8-10.67,10.67v21.33c0,5.87,4.8,10.67,10.67,10.67h21.33c5.87,0,10.67-4.8,10.67-10.67v-21.33c0-5.87-4.8-10.67-10.67-10.67h-21.33Z"/>
</svg>