<?xml version="1.0" encoding="UTF-8"?>
<svg id="Layer_1" data-name="Layer 1" xmlns="http://www.w3.org/2000/svg" viewBox="0 0 511.98 512.08">
  <defs>
    <style>
      .cls-1 {
        fill: #fff;
      }
    </style>
  </defs>
  <path class="cls-1" d="M309.33,384.08h-106.67c-17.64,0-32-14.36-32-32v-106.67c0-17.64,14.36-32,32-32h106.67c17.64,0,32,14.36,32,32v106.67c0,17.64-14.36,32-32,32ZM202.67,234.75c-5.87,0-10.67,4.8-10.67,10.67v106.67c0,5.87,4.8,10.67,10.67,10.67h106.67c5.87,0,10.67-4.8,10.67-10.67v-106.67c0-5.87-4.8-10.67-10.67-10.67h-106.67ZM416,512.08H96c-52.93,0-96-43.07-96-96v-212.03c0-31.94,15.81-61.7,42.3-79.55L202.3,16.53c32.58-22.04,74.77-22.04,107.39,0l159.98,107.97c26.5,17.88,42.3,47.62,42.3,79.55v212.03c0,52.93-43.07,96-96,96h.02ZM256,21.33c-14.55,0-29.08,4.29-41.75,12.86L54.23,142.14c-20.61,13.91-32.9,37.03-32.9,61.89v212.03c0,41.17,33.49,74.67,74.67,74.67h320c41.17,0,74.67-33.49,74.67-74.67v-212.01c0-24.85-12.29-47.98-32.9-61.89l-160-107.97c-12.69-8.55-27.22-12.86-41.77-12.86Z"/>
</svg>