<?xml version="1.0" encoding="UTF-8"?>
<svg id="Layer_1" data-name="Layer 1" xmlns="http://www.w3.org/2000/svg" viewBox="0 0 490.65 511.98">
  <defs>
    <style>
      .cls-1 {
        fill: #424242;
      }
    </style>
  </defs>
  <path class="cls-1" d="M490.65,10.67c0,5.89-4.78,10.67-10.67,10.67H181.32c-5.89,0-10.67-4.78-10.67-10.67s4.78-10.67,10.67-10.67h298.67c5.89,0,10.67,4.78,10.67,10.67ZM415.98,106.67h-234.67c-5.89,0-10.67,4.78-10.67,10.67s4.78,10.67,10.67,10.67h234.67c5.89,0,10.67-4.78,10.67-10.67s-4.78-10.67-10.67-10.67ZM351.98,213.33h-170.67c-5.89,0-10.67,4.78-10.67,10.67s4.78,10.67,10.67,10.67h170.67c5.89,0,10.67-4.78,10.67-10.67s-4.78-10.67-10.67-10.67ZM287.98,320h-106.67c-5.89,0-10.67,4.78-10.67,10.67s4.78,10.67,10.67,10.67h106.67c5.89,0,10.67-4.78,10.67-10.67s-4.78-10.67-10.67-10.67ZM173.77,417.3l-67.11,67.11V10.67c0-5.89-4.78-10.67-10.67-10.67s-10.67,4.78-10.67,10.67v473.75l-67.11-67.11c-4.16-4.16-10.92-4.16-15.08,0s-4.16,10.92,0,15.08l70.25,70.25c6.23,6.23,14.42,9.34,22.63,9.34s16.38-3.11,22.63-9.34l70.25-70.25c4.16-4.16,4.16-10.92,0-15.08s-10.92-4.16-15.08,0h-.04Z"/>
</svg>