<?xml version="1.0" encoding="UTF-8"?>
<svg id="Layer_1" data-name="Layer 1" xmlns="http://www.w3.org/2000/svg" viewBox="0 0 22 24">
  <defs>
    <style>
      .cls-1 {
        fill: #6d6d6d;
      }
    </style>
  </defs>
  <path class="cls-1" d="M2,7h3c1.1,0,2-.9,2-2v-3c0-1.1-.9-2-2-2h-3C.9,0,0,.9,0,2v3c0,1.1.9,2,2,2ZM1,2c0-.55.45-1,1-1h3c.55,0,1,.45,1,1v3c0,.55-.45,1-1,1h-3c-.55,0-1-.45-1-1v-3ZM7,14v-3c0-1.1-.9-2-2-2h-3c-1.1,0-2,.9-2,2v3c0,1.1.9,2,2,2h3c1.1,0,2-.9,2-2ZM1,14v-3c0-.55.45-1,1-1h3c.55,0,1,.45,1,1v3c0,.55-.45,1-1,1h-3c-.55,0-1-.45-1-1ZM11,7h3c1.1,0,2-.9,2-2v-3c0-1.1-.9-2-2-2h-3c-1.1,0-2,.9-2,2v3c0,1.1.9,2,2,2ZM10,2c0-.55.45-1,1-1h3c.55,0,1,.45,1,1v3c0,.55-.45,1-1,1h-3c-.55,0-1-.45-1-1v-3ZM11.5,5h2c.28,0,.5-.22.5-.5v-2c0-.28-.22-.5-.5-.5h-2c-.28,0-.5.22-.5.5v2c0,.28.22.5.5.5ZM12,3h1v1h-1v-1ZM22,23.5c0,.28-.22.5-.5.5s-.5-.22-.5-.5c0-1.64-.99-3.03-2.6-3.63l-5.08-1.91c-.19-.07-.32-.26-.32-.47v-5.89c0-.79-.53-1.47-1.24-1.59-.45-.07-.89.05-1.23.34-.34.29-.53.7-.53,1.14v8.42c0,.42-.23.8-.61.98-.38.18-.82.13-1.15-.13,0,0-1.72-1.37-1.72-1.37-.61-.56-1.55-.53-2.11.07-.57.6-.53,1.56.06,2.12l1.63,1.55c.32.31.11.86-.34.86-.13,0-.25-.05-.34-.14l-1.64-1.55c-1-.94-1.05-2.52-.11-3.52.93-.99,2.48-1.05,3.49-.15,0,0,1.7,1.35,1.7,1.35l.14-.07v-8.42c0-.73.32-1.43.88-1.9.56-.48,1.31-.68,2.03-.56,1.19.19,2.08,1.3,2.08,2.57v5.55l4.76,1.78c2,.75,3.24,2.5,3.24,4.56h0Z"/>
</svg>