<?xml version="1.0" encoding="UTF-8"?>
<svg id="Layer_1" data-name="Layer 1" xmlns="http://www.w3.org/2000/svg" viewBox="0 0 20 24">
  <defs>
    <style>
      .cls-1 {
        fill: #6d6d6d;
      }
    </style>
  </defs>
  <path class="cls-1" d="M10,24c-1.22,0-2.51-.64-3.38-1.68C2.35,17.25,0,12.87,0,10,0,4.49,4.49,0,10,0s10,4.49,10,10c0,2.87-2.35,7.24-6.62,12.32-.87,1.03-2.17,1.68-3.38,1.68ZM10,1C5.04,1,1,5.04,1,10c0,2.6,2.33,6.85,6.38,11.68.67.8,1.7,1.32,2.62,1.32s1.94-.52,2.62-1.32c4.06-4.83,6.38-9.08,6.38-11.68,0-4.96-4.04-9-9-9Z"/>
  <path class="cls-1" d="M10,14c-2.21,0-4-1.79-4-4s1.79-4,4-4,4,1.79,4,4-1.79,4-4,4ZM10,7c-1.65,0-3,1.35-3,3s1.35,3,3,3,3-1.35,3-3-1.35-3-3-3Z"/>
</svg>