<?xml version="1.0" encoding="UTF-8"?>
<svg id="Layer_1" xmlns="http://www.w3.org/2000/svg" version="1.1" viewBox="0 0 290.1 309.1">
  <!-- Generator: Adobe Illustrator 29.0.0, SVG Export Plug-In . SVG Version: 2.1.0 Build 186)  -->
  <defs>
    <style>
      .st0 {
        fill: #fff;
      }

      .st1, .st2 {
        fill: #dfe0e0;
      }

      .st3 {
        fill: #f0dedd;
      }

      .st4, .st5 {
        fill: none;
      }

      .st6 {
        fill: #941303;
      }

      .st7 {
        fill: #ededed;
        opacity: .5;
      }

      .st2 {
        opacity: .6;
      }

      .st5 {
        stroke: #000;
        stroke-linecap: round;
        stroke-linejoin: round;
        stroke-width: 2.6px;
      }

      .st8 {
        fill: #c1c1c1;
      }
    </style>
  </defs>
  <rect class="st7" width="290.1" height="309.1" rx="23.8" ry="23.8"/>
  <g>
    <polygon class="st0" points="219.1 292.5 212.6 292.5 212.6 291.7 219.1 292.5"/>
    <g>
      <g>
        <line class="st5" x1="228.3" y1="252.4" x2="228.3" y2="265.1"/>
        <line class="st5" x1="234.7" y1="258.7" x2="222" y2="258.7"/>
      </g>
      <g>
        <line class="st5" x1="43.8" y1="186.2" x2="43.8" y2="198.9"/>
        <line class="st5" x1="50.2" y1="192.6" x2="37.5" y2="192.6"/>
      </g>
      <g>
        <line class="st5" x1="226.7" y1="147.1" x2="226.7" y2="163"/>
        <line class="st5" x1="234.7" y1="155.1" x2="218.7" y2="155.1"/>
      </g>
    </g>
  </g>
  <g>
    <g>
      <g>
        <polygon class="st3" points="235.5 24.2 249.3 42.2 241 42.2 241 118.1 235.5 118.1 230 118.1 230 42.2 221.7 42.2 235.5 24.2"/>
        <polygon class="st8" points="198.7 39.7 212.5 57.6 204.2 57.6 204.2 118.1 198.7 118.1 193.2 118.1 193.2 57.6 184.9 57.6 198.7 39.7"/>
        <polygon class="st3" points="161.9 55.2 175.6 73.1 167.4 73.1 167.4 118.1 161.9 118.1 156.3 118.1 156.3 73.1 148.1 73.1 161.9 55.2"/>
      </g>
      <g>
        <polygon class="st5" points="161.9 118.1 167.4 118.1 167.4 73.1 175.6 73.1 161.9 55.2 148.1 73.1 156.3 73.1 156.3 118.1 161.9 118.1"/>
        <polygon class="st5" points="198.7 118.1 204.2 118.1 204.2 57.6 212.5 57.6 198.7 39.7 184.9 57.6 193.2 57.6 193.2 118.1 198.7 118.1"/>
        <polygon class="st5" points="235.5 118.1 241 118.1 241 42.2 249.3 42.2 235.5 24.2 221.7 42.2 230 42.2 230 118.1 235.5 118.1"/>
      </g>
    </g>
    <g>
      <g>
        <path class="st3" d="M182.3,271.8h-107.9c-8.6,0-15.5-6.9-15.5-15.5s1.7-8.2,4.5-11c2.8-2.8,6.7-4.5,11-4.5h107.5c-8.4.2-15.1,7.1-15.1,15.5h0c0,8.6,7,15.5,15.5,15.5Z"/>
        <path class="st0" d="M181.9,240.8h-107.2v-.9l-.3-134c0-2.9,2.4-5.3,5.3-5.3h117c2.9,0,5.3,2.4,5.3,5.3l.2,90.2v.2c-.1,0-9.3-7.6-9.3-7.6h0c.7-2.9.8-6,.4-9.2-1.8-14.4-14.7-24.6-28.7-22.9-3.3.4-6.4,1.5-9.2,3l21.7,17.3-12.6,16.7-21.6-17.2c-.7,3-.9,6.2-.5,9.5,1.8,14.4,14.7,24.7,28.7,22.9,3.3-.4,6.5-1.5,9.2-3.1l22.3,18.4-.5.5v28.5c0,10.3-8.3,18.6-18.6,18.6h-1.5c-8.6,0-15.5-6.9-15.5-15.5h0c0-8.4,6.7-15.3,15.1-15.5Z"/>
        <path class="st6" d="M193.4,179.4c.4,3.2.2,6.2-.4,9.2-1.6,7.3-6.1,13.5-12.4,17.1-2.8,1.6-5.9,2.7-9.2,3.1-14,1.8-26.9-8.5-28.7-22.9-.4-3.3-.2-6.5.5-9.5l21.6,17.2,12.6-16.7-21.7-17.3c2.8-1.6,5.8-2.6,9.2-3,14-1.8,26.9,8.5,28.7,22.9Z"/>
        <path class="st6" d="M232,224.6c.3,2.4-.2,4.9-1.6,7.1-3.4,5.3-10.7,6.4-15.6,2.4l-12-9.9-22.3-18.4c6.3-3.6,10.9-9.8,12.4-17.1h0s9.2,7.6,9.2,7.6l26.1,21.6c2.1,1.8,3.4,4.2,3.7,6.8Z"/>
      </g>
      <g>
        <path class="st5" d="M202.4,224.7v28.5c0,10.3-8.3,18.6-18.6,18.6h-109"/>
        <path class="st5" d="M74.8,239.9l-.3-134c0-2.9,2.4-5.3,5.3-5.3h117c2.9,0,5.3,2.4,5.3,5.3l.2,90.2"/>
        <path class="st5" d="M74.5,271.8c-8.6,0-15.5-6.9-15.5-15.5s1.7-8.2,4.5-11c2.8-2.8,6.7-4.5,11-4.5h111.7"/>
        <path class="st5" d="M186.2,240.8h-3.9c-.1,0-.3,0-.4,0-8.4.2-15.1,7.1-15.1,15.5h0c0,8.6,7,15.5,15.5,15.5"/>
        <line class="st5" x1="103" y1="144.4" x2="180.1" y2="144.4"/>
        <line class="st5" x1="145.6" y1="159.7" x2="103" y2="159.7"/>
        <line class="st5" x1="135.6" y1="174.9" x2="103" y2="174.9"/>
        <line class="st5" x1="136.5" y1="190.1" x2="103" y2="190.1"/>
        <line class="st5" x1="103" y1="205.4" x2="144.2" y2="205.4"/>
        <path class="st5" d="M180.5,205.7l22.3,18.4,12,9.9c4.9,4,12.1,2.9,15.6-2.4,1.4-2.2,1.9-4.7,1.6-7.1-.3-2.6-1.6-5-3.7-6.8l-26.1-21.6-9.2-7.6h0"/>
        <path class="st5" d="M180.5,205.7c-2.8,1.6-5.9,2.7-9.2,3.1-14,1.8-26.9-8.5-28.7-22.9-.4-3.3-.2-6.5.5-9.5l21.6,17.2,12.6-16.7-21.7-17.3c2.8-1.6,5.8-2.6,9.2-3,14-1.8,26.9,8.5,28.7,22.9.4,3.2.2,6.2-.4,9.2-1.6,7.3-6.1,13.5-12.4,17.1Z"/>
      </g>
    </g>
  </g>
  <g>
    <path class="st2" d="M67.6,151.5h-.3c0,0-.2,0-.3,0h.6Z"/>
    <polyline class="st4" points="42.2 159.8 49 159.8 67.7 159.8"/>
  </g>
  <g>
    <g>
      <path class="st2" d="M49.7,151.5c-.2,0-.4,0-.6.2v-.2s.6,0,.6,0Z"/>
      <path class="st2" d="M74.3,151.5h-.3c0,0-.2,0-.3,0h.6Z"/>
    </g>
    <g>
      <path class="st1" d="M67.2,151.6c0,0-.2,0-.3,0h.6-.3Z"/>
      <line class="st4" x1="67.7" y1="159.8" x2="49" y2="159.8"/>
    </g>
  </g>
  <g>
    <g>
      <path class="st8" d="M88.3,171.1c0,2.7-2.2,4.9-4.9,4.9h-14.6c-2.7,0-4.9-2.2-4.9-4.9v-3h24.4v3Z"/>
      <path class="st8" d="M87.5,160.2c.1,0,.2,0,.3,0,.3.1.5.4.5.7v7.1h-24.4v-7.1c0-.2,0-.4.2-.5.1-.1.3-.2.5-.2h22.9Z"/>
      <path class="st3" d="M72.2,160.2h-7.5c-.2,0-.4,0-.5.2v-.2c-2.5-2.8-4-6.9-4-10.2h0c0-8.2-6.2-16.2-10.8-22.9-3.6-5.3-5.7-11.7-5.7-18.6,0-18.2,14.5-32.9,32.5-32.9s32.5,14.7,32.5,32.9-2.1,13.4-5.7,18.6c-2.3,3.4-5,7-7.1,10.8-2.1,3.8-3.7,7.8-3.7,11.9,0,3.3-1.5,7.5-4,10.4h-.3c-.1,0-.2,0-.3,0h-15.4Z"/>
    </g>
    <g>
      <path class="st5" d="M88.1,160.2c2.4-2.8,4-7,4-10.4,0-4,1.5-8.1,3.7-11.9,2.1-3.9,4.8-7.5,7.1-10.8,3.6-5.3,5.7-11.7,5.7-18.6,0-18.2-14.5-32.9-32.5-32.9s-32.5,14.7-32.5,32.9,2.1,13.4,5.7,18.6c4.6,6.7,10.8,14.6,10.8,22.7h0c0,3.5,1.6,7.6,4,10.4"/>
      <path class="st5" d="M88.3,168.1v3c0,2.7-2.2,4.9-4.9,4.9h-14.6c-2.7,0-4.9-2.2-4.9-4.9v-10.2c0-.2,0-.4.2-.5.1-.1.3-.2.5-.2h22.9c.1,0,.2,0,.3,0,.3.1.5.4.5.7v7.1Z"/>
      <line class="st5" x1="63.9" y1="168.1" x2="88.3" y2="168.1"/>
      <line class="st5" x1="76.1" y1="60.9" x2="76.1" y2="68.1"/>
      <line class="st5" x1="49.2" y1="69.3" x2="53.2" y2="75.2"/>
      <line class="st5" x1="31.5" y1="91.3" x2="38.2" y2="93.9"/>
      <line class="st5" x1="29.2" y1="119.3" x2="36.2" y2="117.8"/>
      <line class="st5" x1="103.1" y1="69.3" x2="99" y2="75.2"/>
      <line class="st5" x1="120.7" y1="91.3" x2="114.1" y2="93.9"/>
      <line class="st5" x1="123.1" y1="119.3" x2="116" y2="117.8"/>
    </g>
  </g>
</svg>