<?xml version="1.0" encoding="UTF-8"?>
<svg id="Layer_1" data-name="Layer 1" xmlns="http://www.w3.org/2000/svg" viewBox="0 0 290.13 309.08">
  <defs>
    <style>
      .cls-1, .cls-2 {
        fill: #fff;
      }

      .cls-2, .cls-3 {
        opacity: .5;
      }

      .cls-4, .cls-5 {
        fill: #941303;
      }

      .cls-5, .cls-6 {
        stroke: #000;
        stroke-linecap: round;
        stroke-linejoin: round;
        stroke-width: 2.6px;
      }

      .cls-3 {
        fill: #ededed;
      }

      .cls-6 {
        fill: none;
      }

      .cls-7 {
        fill: #c1c1c1;
      }
    </style>
  </defs>
  <rect class="cls-3" width="290.13" height="309.08" rx="23.83" ry="23.83"/>
  <g>
    <g>
      <g>
        <g>
          <g>
            <polygon class="cls-1" points="123.38 48.61 123.38 93.4 78.59 93.4 82.23 89.76 118.52 89.76 118.52 53.47 123.38 48.61"/>
            <polygon class="cls-4" points="118.52 53.47 118.52 89.76 82.23 89.76 118.52 53.47"/>
            <polygon class="cls-4" points="118.52 53.47 118.52 89.76 82.23 89.76 118.52 53.47"/>
            <polygon class="cls-1" points="245.48 270.59 78.59 269.92 78.59 93.4 123.38 93.4 123.38 48.61 245.78 48.61 245.78 162.15 245.7 162.28 245.48 270.59"/>
          </g>
          <g>
            <polyline class="cls-6" points="78.59 93.4 78.59 269.92 245.78 270.59 245.78 48.61 123.38 48.61"/>
            <line class="cls-6" x1="78.59" y1="93.4" x2="123.38" y2="48.61"/>
            <polyline class="cls-6" points="123.38 48.61 123.38 93.4 78.59 93.4"/>
            <g>
              <line class="cls-6" x1="170.08" y1="156.49" x2="213.7" y2="156.49"/>
              <line class="cls-6" x1="108.11" y1="156.49" x2="158.46" y2="156.49"/>
              <line class="cls-6" x1="186.17" y1="174.07" x2="213.7" y2="174.07"/>
              <line class="cls-6" x1="108.11" y1="174.07" x2="178.66" y2="174.07"/>
              <line class="cls-6" x1="131.76" y1="191.66" x2="213.7" y2="191.66"/>
              <line class="cls-6" x1="108.11" y1="191.66" x2="122.64" y2="191.66"/>
              <line class="cls-6" x1="203.69" y1="209.24" x2="213.7" y2="209.24"/>
              <line class="cls-6" x1="108.11" y1="209.24" x2="193.89" y2="209.24"/>
              <line class="cls-6" x1="142.57" y1="227.21" x2="213.7" y2="227.21"/>
              <line class="cls-6" x1="108.11" y1="227.21" x2="130.04" y2="227.21"/>
              <line class="cls-6" x1="175.08" y1="244.8" x2="213.7" y2="244.8"/>
              <line class="cls-6" x1="108.11" y1="244.8" x2="165.97" y2="244.8"/>
            </g>
          </g>
        </g>
        <g>
          <g>
            <path class="cls-7" d="M52.18,82.06c-2.97,0-5.38,2.41-5.38,5.38v43.4h21.44v-43.4c0-2.97-2.41-5.38-5.38-5.39h-10.67Z"/>
            <rect class="cls-1" x="46.8" y="130.85" width="21.44" height="105.64"/>
            <polygon class="cls-7" points="46.8 236.49 54.41 251.72 57.43 251.72 60.62 251.72 68.23 236.49 46.8 236.49"/>
          </g>
          <g>
            <path class="cls-6" d="M68.23,236.49V87.45c0-2.97-2.41-5.38-5.38-5.39h-10.67c-2.97,0-5.38,2.41-5.38,5.39v43.4s0,105.64,0,105.64"/>
            <polygon class="cls-6" points="46.8 236.49 68.23 236.49 60.62 251.72 57.43 251.72 54.41 251.72 46.8 236.49"/>
            <line class="cls-6" x1="46.8" y1="130.85" x2="68.23" y2="130.85"/>
            <polyline class="cls-6" points="35.49 142.97 35.49 89.68 46.79 89.67"/>
            <line class="cls-6" x1="57.44" y1="263.14" x2="57.43" y2="251.72"/>
          </g>
        </g>
      </g>
      <g>
        <g>
          <path class="cls-2" d="M210.41,121.57c-3.7,2.21-8.31,2.21-11.99,0-1.82-1.08-3.28-2.62-4.26-4.41-1.02-1.84-1.54-3.96-1.45-6.14h23.4c.18,4.3-2.01,8.35-5.7,10.55Z"/>
          <path class="cls-2" d="M164.75,121.57c-3.69,2.21-8.3,2.21-11.99,0-1.81-1.08-3.26-2.61-4.25-4.39.41.32.84.62,1.3.9,3.7,2.2,8.31,2.2,11.99,0,2.66-1.58,4.55-4.14,5.32-7.05h3.33c.18,4.3-2.01,8.35-5.71,10.55Z"/>
          <path class="cls-4" d="M167.12,111.02c-.78,2.92-2.66,5.47-5.32,7.05-3.69,2.2-8.3,2.2-11.99,0-.46-.27-.89-.58-1.3-.9-1.02-1.85-1.55-3.97-1.45-6.16h20.07Z"/>
        </g>
        <g>
          <path class="cls-4" d="M212.78,111.02c-.77,2.92-2.65,5.47-5.32,7.05-3.7,2.2-8.31,2.2-11.99,0-.47-.27-.91-.59-1.32-.91-1.02-1.84-1.54-3.96-1.45-6.14h20.07Z"/>
          <path class="cls-4" d="M167.12,111.02c-.78,2.92-2.66,5.47-5.32,7.05-3.69,2.2-8.3,2.2-11.99,0-.46-.27-.89-.58-1.3-.9-1.02-1.85-1.55-3.97-1.45-6.16h20.07Z"/>
        </g>
        <g>
          <polyline class="cls-6" points="181.39 70.31 181.39 79.94 181.39 79.96 181.39 133.63"/>
          <line class="cls-6" x1="166.04" y1="133.74" x2="196.64" y2="133.74"/>
          <polygon class="cls-6" points="170.45 111.02 159.31 86.15 147.05 111.02 170.45 111.02"/>
          <path class="cls-6" d="M147.05,111.02c-.18,4.3,2.01,8.35,5.7,10.55,3.7,2.2,8.31,2.2,11.99,0,3.7-2.2,5.89-6.25,5.71-10.55"/>
          <polygon class="cls-6" points="216.1 111.02 204.96 86.15 192.7 111.02 216.1 111.02"/>
          <path class="cls-6" d="M192.7,111.02c-.18,4.3,2.01,8.35,5.71,10.55,3.69,2.2,8.3,2.2,11.99,0,3.69-2.2,5.88-6.25,5.7-10.55"/>
          <path class="cls-6" d="M149.59,82.13s4.25,3.72,11.02,3.61c7.11-.12,7.41-4.98,20.64-5.79.05,0,.09,0,.14,0"/>
          <path class="cls-6" d="M212.91,82.13s-4.25,3.72-11.02,3.61c-7.08-.12-7.4-4.94-20.49-5.78-.05,0-.09,0-.14,0s-.1,0-.15,0"/>
        </g>
      </g>
      <circle class="cls-5" cx="181.39" cy="70.31" r="4.16"/>
    </g>
    <g>
      <g>
        <line class="cls-6" x1="273.56" y1="136.79" x2="273.56" y2="147.6"/>
        <line class="cls-6" x1="278.97" y1="142.2" x2="268.16" y2="142.2"/>
      </g>
      <g>
        <line class="cls-6" x1="26.12" y1="216.18" x2="26.12" y2="226.99"/>
        <line class="cls-6" x1="31.53" y1="221.59" x2="20.71" y2="221.59"/>
      </g>
      <g>
        <line class="cls-6" x1="74.29" y1="39.8" x2="74.29" y2="53.37"/>
        <line class="cls-6" x1="81.08" y1="46.58" x2="67.51" y2="46.58"/>
      </g>
    </g>
  </g>
  <line class="cls-6" x1="255.93" y1="124.81" x2="255.93" y2="134.2"/>
  <line class="cls-6" x1="255.93" y1="71.1" x2="255.93" y2="116.62"/>
</svg>