<?xml version="1.0" encoding="UTF-8"?>
<svg id="Layer_1" xmlns="http://www.w3.org/2000/svg" version="1.1" viewBox="0 0 290.1 309.1">
  <!-- Generator: Adobe Illustrator 29.0.0, SVG Export Plug-In . SVG Version: 2.1.0 Build 186)  -->
  <defs>
    <style>
      .st0 {
        stroke-width: 2.9px;
      }

      .st0, .st1, .st2, .st3 {
        fill: none;
        stroke-linejoin: round;
      }

      .st0, .st1, .st3 {
        stroke: #000;
        stroke-linecap: round;
      }

      .st4 {
        fill: #25103d;
        opacity: 0;
      }

      .st1 {
        stroke-width: 3px;
      }

      .st5 {
        fill: #fff;
      }

      .st2 {
        stroke: #4a207b;
        stroke-width: 2.5px;
      }

      .st6 {
        fill: #941303;
      }

      .st7 {
        fill: #ededed;
        opacity: .5;
      }

      .st3 {
        stroke-width: 2.6px;
      }

      .st8 {
        fill: #cb9390;
      }
    </style>
  </defs>
  <rect class="st7" width="290.1" height="309.1" rx="23.8" ry="23.8"/>
  <g>
    <g>
      <g>
        <line class="st1" x1="264.6" y1="143.3" x2="264.6" y2="156.8"/>
        <line class="st1" x1="271.3" y1="150" x2="257.9" y2="150"/>
      </g>
      <g>
        <line class="st1" x1="116.3" y1="259.1" x2="116.3" y2="272.5"/>
        <line class="st1" x1="123" y1="265.8" x2="109.6" y2="265.8"/>
      </g>
      <g>
        <line class="st1" x1="55.7" y1="95.6" x2="55.7" y2="112.5"/>
        <line class="st1" x1="64.1" y1="104.1" x2="47.2" y2="104.1"/>
      </g>
    </g>
    <g>
      <path class="st4" d="M83.9,194.1h27l33,12h27c5,0,9,4,9,9s-4,9-9,9h-33c-5,0-9,4-9,9"/>
      <line class="st4" x1="71.9" y1="239.1" x2="71.9" y2="233.1"/>
      <line class="st4" x1="71.9" y1="227.1" x2="71.9" y2="221.1"/>
      <rect class="st6" x="53.9" y="182" width="36" height="60.1"/>
      <path class="st5" d="M234.1,197c-3,0-52.7,19.9-52.7,19.9h-.1c2.8-1.5,4.7-4.4,4.7-7.8,0-5-4-9-9-9h-27l-33-12h-26.9v48h14.8s48,18,57.1,18,78.1-42,78.1-42c2.2-1.6,3-3,3-6,0-5-4-9-9-9Z"/>
      <rect class="st0" x="53.9" y="182" width="36" height="60.1"/>
      <path class="st2" d="M118.5,175.4"/>
      <path class="st0" d="M90,188h27l33,12h27c5,0,9,4,9,9s-4,9-9,9h-33c-5,0-9,4-9,9"/>
      <line class="st0" x1="78" y1="233" x2="78" y2="227"/>
      <line class="st0" x1="78" y1="221" x2="78" y2="215"/>
      <path class="st0" d="M181.4,216.8s49.7-19.9,52.7-19.9c5,0,9,4,9,9s-.8,4.4-3,6c0,0-69.1,42-78.1,42s-57.1-18-57.1-18h-14.8"/>
      <g>
        <path class="st5" d="M220.7,76.3c-1.7-2.5-4.2-4-6.9-4.5-2.7-.5-5.6,0-8.1,1.7l-4.4,3c-4.6-5.2-10.2-9.5-16.5-12.6l1.3-6.9c1.1-5.9-2.8-11.5-8.6-12.6h0c-5.8-1.1-11.5,2.8-12.5,8.6l-1,5.3c-7.2-.5-14.1.5-20.6,2.8l-4-5.8c-3.4-4.9-10.1-6.2-15-2.8-2.4,1.7-4,4.2-4.5,6.9-.3,1.7-.2,3.5.3,5.2.5-.4,1-.9,1.5-1.2,4.9-3.4,11.6-2.2,15,2.8l4,5.8c6.5-2.2,13.5-3.2,20.6-2.8l1-5.3c1.1-5.9,6.7-9.7,12.5-8.6h0c5.8,1.1,9.7,6.7,8.6,12.6l-1.3,6.9c6.3,3.1,11.9,7.4,16.5,12.6l4.4-3c2.5-1.7,5.4-2.2,8.1-1.7,2.7.5,5.2,2,6.9,4.5.6.9,1.1,1.9,1.4,2.8,3.7-3.6,4.3-9.4,1.3-13.7Z"/>
        <path class="st8" d="M228.8,129.4h0c-.4,2.3-1.5,4.2-3,5.7-2.4,2.4-6,3.6-9.6,3l-6.9-1.3c-3.1,6.4-7.4,11.9-12.6,16.5l3,4.4c0,.1.1.2.2.3,1.5,2.4,2,5.1,1.5,7.7-.4,2.1-1.4,4.1-3,5.7-.5.5-1,.9-1.5,1.2-4.9,3.4-11.6,2.1-15-2.8l-4-5.8c-6.5,2.2-13.5,3.2-20.6,2.8l-1,5.3c-1.1,5.9-6.7,9.7-12.5,8.6h0c-5.8-1.1-9.7-6.7-8.6-12.6l1.3-6.9c-6.3-3.1-11.9-7.4-16.5-12.6l-4.4,3c-2.5,1.7-5.4,2.2-8.1,1.7-2.7-.5-5.2-2-6.9-4.5-.6-.9-1.1-1.9-1.4-2.8-1.4-4.4.1-9.4,4.2-12.1l1.1-.7,4.7-3.2c-2.2-6.5-3.2-13.5-2.8-20.6l-5.3-1c-4.1-.8-7.2-3.7-8.3-7.4-.5-1.6-.7-3.4-.3-5.2h0c1.1-5.9,6.7-9.7,12.6-8.6l6.9,1.3c1.9-3.8,4.1-7.2,6.7-10.4,1.8-2.2,3.8-4.2,5.9-6.1l-3-4.4c-.6-.9-1.1-1.9-1.4-2.8.5-.4,1-.9,1.5-1.2,4.9-3.4,11.6-2.2,15,2.8l4,5.8c6.5-2.2,13.5-3.2,20.6-2.8l1-5.3c1.1-5.9,6.7-9.7,12.5-8.6h0c5.8,1.1,9.7,6.7,8.6,12.6l-1.3,6.9c6.3,3.1,11.9,7.4,16.5,12.6l4.4-3c2.5-1.7,5.4-2.2,8.1-1.7,2.7.5,5.2,2,6.9,4.5.6.9,1.1,1.9,1.4,2.8-.4.5-1,.9-1.5,1.2l-5.7,3.9c.8,2.5,1.5,5.1,2,7.7.8,4.2,1,8.6.8,12.9l5.3,1c5.9,1.1,9.7,6.7,8.7,12.5Z"/>
      </g>
      <path class="st5" d="M184.2,117c-.4,2.4-1.2,4.6-2.3,6.6-4.7,9.1-15.1,14.5-25.7,12.6-11.6-2.1-19.7-12.3-19.6-23.7,0-1.4.1-2.8.4-4.3,2.4-13,15-21.6,28-19.2,13,2.4,21.6,15,19.2,28Z"/>
      <path class="st0" d="M164.8,53.1l-1,5.3c-7.2-.4-14.1.5-20.6,2.8l-4-5.8c-3.4-4.9-10.1-6.2-15-2.8-2.4,1.7-4,4.2-4.5,6.9-.5,2.7,0,5.6,1.7,8.1l3.1,4.4c-5.2,4.6-9.5,10.2-12.7,16.5l-6.9-1.3c-5.9-1.1-11.5,2.8-12.6,8.6h0c-1.1,5.9,2.8,11.5,8.6,12.6l5.3,1c-.4,7.2.6,14.1,2.8,20.6l-5.7,3.9c-4.9,3.4-6.2,10.1-2.8,15,1.7,2.5,4.2,4,6.9,4.5,2.7.5,5.6,0,8.1-1.7l4.4-3.1c4.6,5.2,10.2,9.5,16.5,12.6l-1.3,6.9c-1.1,5.9,2.8,11.5,8.6,12.6h0c5.8,1.1,11.5-2.8,12.5-8.6l1-5.3c7.2.4,14.1-.5,20.6-2.8l4,5.8c3.4,4.9,10.1,6.2,15,2.8,2.4-1.7,4-4.2,4.5-6.9s0-5.6-1.7-8.1l-3.1-4.4c5.2-4.6,9.5-10.1,12.6-16.5l6.9,1.3c5.9,1.1,11.5-2.8,12.6-8.6h0c1.1-5.9-2.8-11.5-8.6-12.6l-5.3-1c.4-7.2-.6-14.2-2.8-20.7l5.7-3.9c4.9-3.4,6.2-10.1,2.8-15-1.7-2.5-4.2-4-6.9-4.5-2.7-.5-5.6,0-8.1,1.7l-4.4,3.1c-4.6-5.2-10.2-9.5-16.5-12.6l1.3-6.9c1.1-5.9-2.8-11.5-8.6-12.6h0c-5.8-1.1-11.5,2.8-12.5,8.6ZM184.2,117c-2.4,13-14.9,21.6-28,19.2-13-2.4-21.6-14.9-19.2-28,2.4-13,14.9-21.6,28-19.2,13,2.4,21.6,14.9,19.2,28Z"/>
    </g>
  </g>
  <g>
    <line class="st3" x1="26" y1="60.1" x2="82.4" y2="60.1"/>
    <line class="st3" x1="66.5" y1="48.6" x2="82.4" y2="48.6"/>
    <line class="st3" x1="26" y1="48.6" x2="55.3" y2="48.6"/>
    <line class="st3" x1="26" y1="37" x2="60.4" y2="37"/>
  </g>
  <g>
    <line class="st3" x1="265.4" y1="274.1" x2="209" y2="274.1"/>
    <line class="st3" x1="243.1" y1="262.5" x2="209" y2="262.5"/>
    <line class="st3" x1="265.4" y1="262.5" x2="251.6" y2="262.5"/>
    <line class="st3" x1="265.4" y1="251" x2="231" y2="251"/>
  </g>
</svg>