<?xml version="1.0" encoding="UTF-8"?>
<svg id="Layer_1" xmlns="http://www.w3.org/2000/svg" version="1.1" viewBox="0 0 309 311.4">
  <!-- Generator: Adobe Illustrator 29.0.0, SVG Export Plug-In . SVG Version: 2.1.0 Build 186)  -->
  <defs>
    <style>
      .st0 {
        fill: #fff;
      }

      .st1 {
        fill: #941303;
      }

      .st2 {
        fill: #ededed;
        opacity: .5;
      }

      .st3 {
        fill: none;
        stroke: #000;
        stroke-linecap: round;
        stroke-linejoin: round;
        stroke-width: 2.6px;
      }

      .st4 {
        fill: #c1c1c1;
      }

      .st5 {
        fill: #cb9390;
      }
    </style>
  </defs>
  <rect class="st2" y="2.3" width="290.1" height="309.1" rx="23.8" ry="23.8"/>
  <g>
    <g>
      <g>
        <g>
          <polygon class="st0" points="76.6 277.6 129.2 277.6 129.2 279.3 92.4 279.3 76.6 279.3 76.6 277.6"/>
          <path class="st0" d="M209.8,278.7c-6.4,0-12.5-.3-18-1.2h64c-5.5.9-11.6,1.2-18,1.2h-27.9,0Z"/>
        </g>
        <polyline class="st3" points="6.5 279.3 53.5 279.3 76.6 279.3 92.4 279.3 129.2 279.3 212 279.3 233.1 279.3 237.7 279.3 284.1 279.3"/>
      </g>
      <g>
        <g>
          <g>
            <g>
              <path class="st1" d="M262.3,1.9l45.4,47.4-56,53.6v-10.8s37.2-35.6,37.2-35.6c-5.2-7.5,1.3-13.7,1.3-13.7l-22.2-23.1s-6.4,6.2-13.7.7l-39.1,37.5-10.4-.8,49-46.9,8.6-8.2h0Z"/>
              <path class="st0" d="M268,19.7l22.2,23.1s-6.5,6.2-1.3,13.7l-37.2,35.6.7-19.2c6.3-3.1,6.2-14.5,2.4-18.4-4.5-4.7-12.1-4.9-16.8-.4-.6.6-2.2,3.2-2.7,3.9l-20.1-.2,39.1-37.5c7.3,5.5,13.7-.7,13.7-.7Z"/>
              <path class="st0" d="M278.1,252.7c0,14.6-11.8,26.4-26.4,26.4H102.1c6.3,0,12.1-2.2,16.6-5.9h123.7c12.5,0,23-8.7,25.7-20.5h9.9Z"/>
              <path class="st4" d="M268.2,252.7c-2.7,11.7-13.2,20.5-25.7,20.5h-123.7c5.9-4.8,9.7-12.2,9.7-20.5h139.6Z"/>
              <path class="st4" d="M268.2,252.7c-2.7,11.7-13.2,20.5-25.7,20.5h-123.7c5.9-4.8,9.7-12.2,9.7-20.5h139.6Z"/>
              <path class="st5" d="M249.8,67.5l-13.4-11.3c.5-.7,1-1.3,1.6-1.9,4.7-4.5,12.3-4.4,16.8.4,3.8,3.9,5.2,12.6-2.4,18.4"/>
              <polygon class="st5" points="239.7 8.6 246.2 2.3 253.7 10.1 204.7 57.1 189.1 57.1 239.7 8.6"/>
              <path class="st0" d="M251.7,120.2v132.5h-123.2c0,14.6-11.8,26.4-26.4,26.4h0c-14.6,0-26.4-11.8-26.4-26.4V84.2c0-14.3-11.3-25.9-25.5-26.4.2,0,.5,0,.7,0h181.6l6.6,1.4,7.1,4.6c2.9,3.9,5.4,10.4,5.4,13.5v43h0Z"/>
              <polygon class="st5" points="232.6 1.3 239.7 8.6 189.1 57.1 174.4 57.1 224.5 9.1 232.6 1.3"/>
              <path class="st5" d="M236.4,56.2l2.8,1.8c-.4,0-.9,0-1.3,0h-2.5c.3-.6.6-1.2,1-1.7Z"/>
              <polygon class="st0" points="217.5 124.6 217.5 133.9 209.2 133.9 209.2 188.8 200 188.8 200 137.3 208.3 137.3 208.3 128 156.2 96.8 163.7 92.3 217.5 124.6"/>
              <polygon class="st1" points="208.3 125.8 208.3 137.3 208.7 137.3 208.7 187.6 162.1 187.6 162.1 146.3 133.4 146.3 133.4 188.8 118.3 188.8 118.3 133.9 109.9 133.9 109.9 124.6 159.3 95.2 208.3 125.8"/>
              <path class="st0" d="M75.8,84.2v19h-6.4v-14.8c0-14.3-11.3-25.9-25.5-26.4h0c-2.9,0-5.7.8-8.3,1.9,3.9-3.6,9-5.8,14.7-6h0c14.1.5,25.5,12.1,25.5,26.4Z"/>
              <path class="st4" d="M69.4,88.4v14.8h-18.4c-12.5,0-22.7-10.1-22.7-22.7h0c0-6.6,2.8-12.5,7.3-16.6,2.5-1.1,5.3-1.8,8.3-1.9h0c14.2.5,25.5,12.1,25.5,26.4Z"/>
              <path class="st4" d="M69.4,88.4v14.8h-18.4c-12.5,0-22.7-10.1-22.7-22.7h0c0-6.6,2.8-12.5,7.3-16.6,2.5-1.1,5.3-1.8,8.3-1.9h0c14.2.5,25.5,12.1,25.5,26.4Z"/>
            </g>
            <g>
              <polyline class="st3" points="203.9 57.9 215.3 47 217.8 44.5 253.7 10.1 262.3 1.9 307.7 49.3 275.1 80.5 272.5 83 251.7 102.9"/>
              <path class="st3" d="M251.7,92.1l14-13.4,2.6-2.5,20.6-19.7c-5.2-7.5,1.3-13.7,1.3-13.7l-22.2-23.1s-6.4,6.2-13.7.7l-29.6,28.4-.6.6"/>
              <polyline class="st3" points="215.2 57.9 222.1 51.3 223.3 50.1 224 49.4"/>
              <path class="st3" d="M235.4,57.9c.3-.6.6-1.2,1-1.7.5-.7,1-1.3,1.6-1.9,4.7-4.5,12.3-4.4,16.8.4,3.8,3.9,4.3,9.8,1.7,14.2-1.1,1.9-2.8,3.6-5.1,4.7"/>
              <polyline class="st3" points="188.3 57.9 205.8 41 208.4 38.6 239.7 8.6 246.2 2.3 253.7 10.1"/>
              <polyline class="st3" points="173.6 57.9 197.1 35.4 199.5 33 224.5 9.1 232.6 1.3 239.7 8.6 239.7 8.6"/>
              <path class="st3" d="M75.8,103.2h-24.8c-12.5,0-22.7-10.1-22.7-22.7h0c0-12.3,9.7-22.3,21.9-22.7M102.1,279.1h0c-14.6,0-26.4-11.8-26.4-26.4v-47.4"/>
              <line class="st3" x1="251.7" y1="120.2" x2="251.7" y2="252.7"/>
              <path class="st3" d="M51,57.9h181.6c.9,0,1.8,0,2.7.2,6.3,1,11.7,5,14.4,10.5,1.3,2.6,2,5.5,2,8.6v43"/>
              <path class="st3" d="M75.8,205.3v-121.1c0-14.3-11.3-25.9-25.5-26.4"/>
              <path class="st3" d="M51,57.9c-.2,0-.5,0-.7,0h0c-.3,0-.6,0-.9,0h1.6ZM102.1,279.1h149.6c14.6,0,26.4-11.8,26.4-26.4h-149.6c0,14.6-11.8,26.4-26.4,26.4h0Z"/>
              <line class="st3" x1="199.9" y1="210.3" x2="228.7" y2="210.3"/>
              <line class="st3" x1="111.3" y1="210.3" x2="187.9" y2="210.3"/>
              <line class="st3" x1="155.4" y1="226.1" x2="228.7" y2="226.1"/>
              <line class="st3" x1="132.2" y1="226.1" x2="143.7" y2="226.1"/>
              <line class="st3" x1="110.7" y1="226.1" x2="132.2" y2="226.1"/>
            </g>
          </g>
          <g>
            <g>
              <path class="st0" d="M103.2,169.9v105.5c0,2.2-1.8,3.9-3.9,3.9H15.2c-2.2,0-3.9-1.8-3.9-3.9v-105.5c0-2.2,1.8-3.9,3.9-3.9h84.1c2.2,0,3.9,1.8,3.9,3.9ZM85.3,263.2v-11.1h-10.6v11.1h10.6ZM85.3,242v-11.1h-10.6v11.1h10.6ZM85.3,220.9v-11.1h-10.6v11.1h10.6ZM85.3,199.4v-17.4H29.5v17.4h55.8ZM62.7,263.2v-11.1h-10.6v11.1h10.6ZM62.7,242v-11.1h-10.6v11.1h10.6ZM62.7,220.9v-11.1h-10.6v11.1h10.6ZM40.1,263.2v-11.1h-10.6v11.1h10.6ZM40.1,242v-11.1h-10.6v11.1h10.6ZM40.1,220.9v-11.1h-10.6v11.1h10.6Z"/>
              <rect class="st5" x="74.7" y="252.2" width="10.6" height="11.1"/>
              <rect class="st5" x="52.1" y="252.2" width="10.6" height="11.1"/>
              <rect class="st5" x="29.5" y="252.2" width="10.6" height="11.1"/>
              <rect class="st5" x="29.5" y="209.8" width="10.6" height="11.1"/>
              <rect class="st5" x="29.5" y="231" width="10.6" height="11.1"/>
              <rect class="st5" x="52.1" y="231" width="10.6" height="11.1"/>
              <rect class="st5" x="74.7" y="231" width="10.6" height="11.1"/>
              <rect class="st5" x="52.1" y="209.8" width="10.6" height="11.1"/>
              <rect class="st5" x="74.7" y="209.8" width="10.6" height="11.1"/>
              <rect class="st5" x="29.5" y="182" width="55.8" height="17.4"/>
            </g>
            <g>
              <path class="st3" d="M103.2,275.4c0,2.2-1.8,3.9-3.9,3.9H15.2c-2.2,0-3.9-1.8-3.9-3.9v-105.5c0-2.2,1.8-3.9,3.9-3.9h84.1c2.2,0,3.9,1.8,3.9,3.9v105.5Z"/>
              <rect class="st3" x="29.5" y="182" width="55.8" height="17.4"/>
              <rect class="st3" x="29.5" y="209.8" width="10.6" height="11.1"/>
              <rect class="st3" x="52.1" y="209.8" width="10.6" height="11.1"/>
              <rect class="st3" x="74.7" y="209.8" width="10.6" height="11.1"/>
              <rect class="st3" x="29.5" y="231" width="10.6" height="11.1"/>
              <rect class="st3" x="52.1" y="231" width="10.6" height="11.1"/>
              <rect class="st3" x="74.7" y="231" width="10.6" height="11.1"/>
              <rect class="st3" x="29.5" y="252.2" width="10.6" height="11.1"/>
              <rect class="st3" x="52.1" y="252.2" width="10.6" height="11.1"/>
              <rect class="st3" x="74.7" y="252.2" width="10.6" height="11.1"/>
            </g>
          </g>
        </g>
        <g>
          <path class="st5" d="M115,23.1c4.3,0,7.7,3.5,7.7,7.7s-3.5,7.7-7.7,7.7h-29.4c-5.1,0-9.2-4.1-9.2-9.2s3.3-8.4,7.7-9.1c.8-5.2,5.3-9.2,10.7-9.2s7.1,1.9,9.1,5c.7-.2,1.5-.3,2.3-.3,4.3,0,8,3.2,8.6,7.4h.2,0Z"/>
          <path class="st3" d="M94.9,11.1c-5.4,0-9.9,4-10.7,9.2-4.4.7-7.7,4.5-7.7,9.1s4.1,9.2,9.2,9.2h29.4c4.3,0,7.7-3.5,7.7-7.7s-3.5-7.7-7.7-7.7h-.2c-.6-4.2-4.2-7.4-8.6-7.4s-1.6.1-2.3.3c-2-3-5.4-5-9.1-5h0Z"/>
        </g>
      </g>
    </g>
    <polyline class="st3" points="209.2 133 209.2 133 209.2 188"/>
    <polyline class="st3" points="118.3 187.9 118.3 133 118.3 128.9"/>
    <polyline class="st3" points="209.2 133 209.2 133 217.5 133 217.5 123.7 163.7 91.5 109.9 123.7 109.9 133 118.3 133"/>
    <polyline class="st3" points="133.4 187.9 133.4 145.7 161.3 145.7 161.3 187.9"/>
    <path class="st3" d="M168.7,123.8c0,2.8-2.2,5-5,5s-5-2.2-5-5,2.2-5,5-5,5,2.2,5,5Z"/>
    <polyline class="st3" points="174.4 169.8 174.4 143.6 195.2 143.6 195.2 169.8"/>
    <polyline class="st3" points="169.8 169.8 174.4 169.8 195.2 169.8 199.5 169.8"/>
    <polyline class="st3" points="109.9 188 118.3 188 133.4 188 161.3 188 209.2 188 213.1 188"/>
    <g>
      <g>
        <line class="st3" x1="279.1" y1="190.4" x2="279.1" y2="202.2"/>
        <line class="st3" x1="285" y1="196.3" x2="273.2" y2="196.3"/>
      </g>
      <g>
        <line class="st3" x1="28.4" y1="118.7" x2="28.4" y2="138.1"/>
        <line class="st3" x1="38.1" y1="128.4" x2="18.7" y2="128.4"/>
      </g>
    </g>
    <line class="st3" x1="260" y1="175.4" x2="260" y2="183.2"/>
    <line class="st3" x1="260" y1="131" x2="260" y2="169.5"/>
  </g>
</svg>