<?xml version="1.0" encoding="UTF-8"?>
<svg id="Layer_1" xmlns="http://www.w3.org/2000/svg" version="1.1" viewBox="0 0 378.4 309.1">
  <!-- Generator: Adobe Illustrator 29.0.0, SVG Export Plug-In . SVG Version: 2.1.0 Build 186)  -->
  <defs>
    <style>
      .st0 {
        fill: #f1e1e1;
      }

      .st1 {
        fill: #fff;
      }

      .st2 {
        fill: #940000;
      }

      .st3 {
        fill: #941303;
      }

      .st4 {
        fill: #ededed;
        opacity: .5;
      }

      .st5 {
        fill: none;
        stroke: #000;
        stroke-linecap: round;
        stroke-linejoin: round;
        stroke-width: 2.6px;
      }

      .st6 {
        fill: #c1c1c1;
      }

      .st7 {
        fill: #cb9390;
      }
    </style>
  </defs>
  <rect class="st4" x="26" width="290.1" height="309.1" rx="23.8" ry="23.8"/>
  <g>
    <g>
      <line class="st0" y1="24.2" x2="9.6" y2="24.2"/>
      <line class="st0" x1="4.8" y1="29" x2="4.8" y2="19.4"/>
    </g>
    <path class="st7" d="M334.5,269.2c0,.7,0,.3-.1,0h.1Z"/>
    <path class="st2" d="M321,130.1c-3.5,3.5-9.3,3.5-12.8,0-3.5-3.5-3.5-9.3,0-12.8,3.5-3.5,9.3-3.5,12.8,0,3.5,3.5,3.5,9.3,0,12.8Z"/>
    <path class="st1" d="M374.9,147.5l-5.9,5.9c2.9-2.9,2.9-7.5,0-10.4l-83.9-84c-1.6-1.6-3.8-2.3-6-2.1l-29.4,3-23.5,2.4c-.2,0-.4,0-.6,0,.6-3.2,3.2-5.7,6.5-6l23.5-2.4h0s29.4-3,29.4-3c2.2-.2,4.4.5,6,2.1l84,84c2.9,2.9,2.9,7.6,0,10.4Z"/>
    <path class="st2" d="M266.8,121.5c3.5-3.5,9.3-3.5,12.8,0,3.5,3.5,3.5,9.3,0,12.8s-9.3,3.5-12.8,0c-3.5-3.5-3.5-9.3,0-12.8Z"/>
    <rect class="st1" x="193.4" y="168.4" width="47.2" height="59.5"/>
    <rect class="st3" x="187" y="174.2" width="47.2" height="59.5"/>
    <path class="st6" d="M252.4,249.3c-4.9,2-9,5.8-11.5,10.2,3.2-2.8,7.1-4.9,11.5-5.6,0-.7-.1-1.3-.1-2s0-1.7.2-2.5Z"/>
    <path class="st1" d="M334.5,269.2h-.1c0-.3-.2-.6-.4,0h-5.5c-2.4-6.5-8.4-12.6-15.3-12.6s-.4,0-.6,0c0-.2,0-.4,0-.5,0-6.4-6.2-11.7-13.7-11.7s-3.9.4-5.6,1c-2.9-7.5-10.7-12.9-19.9-12.9s-4,.3-5.9.8c-3.1.8-6,2.3-8.3,4.2,2.6-4.9,7.4-8.7,13.2-10.2,1.9-.5,3.8-.8,5.9-.8,9.2,0,17.1,5.4,19.9,12.9,1.7-.7,3.6-1,5.6-1,7.6,0,13.7,5.2,13.7,11.7s0,.4,0,.5c.2,0,.4,0,.6,0,9.1,0,16.5,10.5,16.5,18.5Z"/>
    <path class="st6" d="M259.1,237.6c-3.6,3-6.1,7.1-6.8,11.7,1.5-.6,3.2-1.1,4.8-1.4,0-.7-.1-1.3-.1-2,0-3,.7-5.8,2.1-8.3Z"/>
    <path class="st6" d="M328.5,269.2h-90.5c0-3.3,1-6.7,2.8-9.8,3.2-2.8,7.1-4.9,11.5-5.6,0-.7-.1-1.3-.1-2s0-1.7.2-2.5c1.5-.6,3.2-1.1,4.8-1.4,0-.7-.1-1.3-.1-2,0-3,.7-5.8,2.1-8.3,2.4-2,5.2-3.4,8.3-4.2,1.9-.5,3.8-.8,5.9-.8,9.2,0,17.1,5.4,19.9,12.9,1.7-.6,3.6-1,5.6-1,7.6,0,13.7,5.2,13.7,11.7s0,.4,0,.5c.2,0,.4,0,.6,0,7,0,12.9,6.1,15.3,12.6Z"/>
    <path class="st1" d="M193.4,227.9h47.2v-59.5h-47.2v59.5h0ZM157.7,123.3c0,6.3,5.1,11.4,11.4,11.4s11.4-5.1,11.4-11.4-5.1-11.4-11.4-11.4-11.4,5.1-11.4,11.4ZM65.8,144.4h-19.1v-21.1l33.8-20.3,25.4-15.2,63.1-37.8,26.9,16.1,27.6,16.5-3.4,33.3c-.2,2.2.5,4.4,2.1,6l50.1,50.1h0v55.4c-8.8,2.3-15.2,9.7-15.2,18.5s0,1.4.1,2c-11,1.8-19.2,11.9-19.2,21.4h-74.5v-96.2h-63.5v96.2h-34.3v-124.9h0Z"/>
    <path class="st1" d="M157.7,123.3c0-6.3,5.1-11.4,11.4-11.4s11.4,5.1,11.4,11.4-5.1,11.4-11.4,11.4-11.4-5.1-11.4-11.4ZM144.8,216.3c3.2,0,5.8,2.6,5.8,5.8s-2.6,5.8-5.8,5.8-5.8-2.6-5.8-5.8,2.6-5.8,5.8-5.8Z"/>
    <polygon class="st1" points="163.5 173.1 163.5 269.2 155.9 269.2 155.9 179.6 100.1 179.6 100.1 173.1 163.5 173.1"/>
    <rect class="st3" x="100.1" y="179.6" width="55.8" height="89.6"/>
    <polygon class="st4" points="100.5 91 100.5 67.6 80 67.6 80 63.4 105.7 63.4 105.7 87.4 105.9 87.7 100.5 91"/>
    <polygon class="st6" points="100.5 67.6 100.5 91 80.6 103 80 102 80 67.6 100.5 67.6"/>
    <polygon class="st6" points="100.5 67.6 100.5 91 80.6 103 80 102 80 67.6 100.5 67.6"/>
    <polygon class="st1" points="55.6 235.8 54 238.1 47.6 229.1 19.1 229.1 19.1 226.4 48.8 226.4 55.6 235.8"/>
    <polygon class="st6" points="54 238.1 48.8 245.2 19.1 245.2 19.1 229.1 47.6 229.1 54 238.1"/>
    <polygon class="st6" points="54 238.1 48.8 245.2 19.1 245.2 19.1 229.1 47.6 229.1 54 238.1"/>
    <path class="st7" d="M374.9,147.5l-5.9,5.9-52.4,52.4h0c-.2.2-.4.4-.5.6h0c-.2.2-.4.3-.5.4-.2.1-.4.2-.6.4-.4.2-.9.4-1.3.5-.2,0-.4.1-.7.2-2.3.4-4.8-.2-6.6-2l-33.8-33.8-50.1-50.1c-1.6-1.6-2.3-3.8-2.1-6l3.4-33.3,2-19.6c0-.2,0-.4,0-.6.6-3.2,3.2-5.7,6.5-6l23.5-2.4,29.4-3c2.2-.2,4.4.5,6,2.1l84,84c2.9,2.9,2.9,7.6,0,10.4Z"/>
    <polyline class="st5" points="272.3 172 272.3 227.4 272.3 227.4"/>
    <polyline class="st5" points="65.8 269.2 65.8 144.4 65.8 134.9 169 74.7 211.2 99.3"/>
    <polyline class="st5" points="223.5 82.6 195.9 66 169 49.9 105.9 87.7 80.6 103 46.8 123.2 46.8 144.4 65.8 144.4"/>
    <polyline class="st5" points="100.1 269.2 100.1 173.1 163.6 173.1 163.6 269.2"/>
    <path class="st5" d="M150.6,222.1c0,3.2-2.6,5.8-5.8,5.8s-5.8-2.6-5.8-5.8,2.6-5.8,5.8-5.8,5.8,2.6,5.8,5.8ZM169,134.6c-6.3,0-11.4-5.1-11.4-11.4s5.1-11.4,11.4-11.4,11.4,5.1,11.4,11.4-5.1,11.4-11.4,11.4Z"/>
    <polyline class="st5" points="193.4 227.9 193.4 198.1 193.4 168.4 240.5 168.4 240.5 198.1 240.5 227.9"/>
    <polyline class="st5" points="182.9 227.9 193.4 227.9 240.5 227.9 250.4 227.9"/>
    <line class="st5" x1="193.9" y1="198.1" x2="240.5" y2="198.1"/>
    <polygon class="st5" points="48.8 226.4 55.6 235.8 48.8 245.2 35.3 245.2 19.1 245.2 19.1 226.4 48.8 226.4"/>
    <line class="st5" x1="35.3" y1="245.2" x2="35.3" y2="269.2"/>
    <path class="st5" d="M238,269c.1-9.4,8.3-19.3,19.2-21.1,0-.7-.1-1.4-.1-2,0-8.7,6.4-16.1,15.2-18.5,1.9-.5,3.8-.8,5.9-.8,9.2,0,17.1,5.4,19.9,12.9,1.7-.6,3.6-1,5.6-1,7.6,0,13.7,5.2,13.7,11.7s0,.4,0,.5c.2,0,.4,0,.6,0,9.1,0,16.5,10.5,16.5,18.5"/>
    <polyline class="st5" points="80 102 80 63.4 105.7 63.4 105.7 87.4"/>
    <path class="st1" d="M374.9,147.5l-5.9,5.9c2.9-2.9,2.9-7.5,0-10.4l-83.9-84c-1.6-1.6-3.8-2.3-6-2.1l-29.4,3-23.5,2.4c-.2,0-.4,0-.6,0,.6-3.2,3.2-5.7,6.5-6l23.5-2.4h0s29.4-3,29.4-3c2.2-.2,4.4.5,6,2.1l84,84c2.9,2.9,2.9,7.6,0,10.4Z"/>
    <path class="st5" d="M374.9,147.5l-5.9,5.9-52.4,52.4s0,0,0,0c-.2.2-.4.3-.5.5,0,0,0,0,0,0-.2.1-.4.3-.5.4-.2.1-.4.2-.6.4-.4.2-.9.4-1.3.5-.2,0-.4.1-.7.2-2.3.4-4.8-.2-6.6-2l-33.8-33.8-50.1-50.1c-1.6-1.6-2.3-3.8-2.1-6l3.4-33.3,2-19.6c0-.2,0-.4,0-.6.6-3.2,3.2-5.7,6.5-6l23.5-2.4,29.4-3c2.2-.2,4.4.5,6,2.1l84,84c2.9,2.9,2.9,7.6,0,10.4Z"/>
    <path class="st5" d="M195.9,66c-.3-1.7-.5-3.5-.5-5.3,0-16.8,13.6-30.5,30.5-30.5s26.6,10.1,29.7,23.7c.5,2.2.8,4.4.8,6.8,0,8.8-3.7,16.7-9.6,22.2"/>
    <path class="st5" d="M266.8,121.5c3.5-3.5,9.3-3.5,12.8,0,3.5,3.5,3.5,9.3,0,12.8s-9.3,3.5-12.8,0c-3.5-3.5-3.5-9.3,0-12.8ZM321,130.1c-3.5,3.5-9.3,3.5-12.8,0-3.5-3.5-3.5-9.3,0-12.8,3.5-3.5,9.3-3.5,12.8,0,3.5,3.5,3.5,9.3,0,12.8Z"/>
    <line class="st5" x1="290.5" y1="93.8" x2="296.9" y2="157.8"/>
    <line class="st5" x1="316.1" y1="36.9" x2="316.1" y2="48.2"/>
    <line class="st5" x1="321.7" y1="42.5" x2="310.4" y2="42.5"/>
    <line class="st5" x1="13.8" y1="144.6" x2="13.8" y2="163.2"/>
    <line class="st5" x1="23.1" y1="153.9" x2="4.5" y2="153.9"/>
    <line class="st5" x1="126.7" y1="113.3" x2="92.1" y2="134.3"/>
    <line class="st5" x1="141.2" y1="104.6" x2="132.6" y2="109.7"/>
    <line class="st5" x1="57.8" y1="209" x2="57.8" y2="215.5"/>
    <line class="st5" x1="57.8" y1="176.8" x2="57.8" y2="202.1"/>
    <line class="st5" x1="160.2" y1="8" x2="160.2" y2="19.4"/>
    <line class="st5" x1="165.9" y1="13.7" x2="154.6" y2="13.7"/>
    <polyline class="st5" points="11.9 269 293.8 269 322.5 269 334.4 269"/>
  </g>
</svg>