<?xml version="1.0" encoding="UTF-8"?>
<svg id="Layer_1" xmlns="http://www.w3.org/2000/svg" version="1.1" viewBox="0 0 24 24">
  <!-- Generator: Adobe Illustrator 29.0.0, SVG Export Plug-In . SVG Version: 2.1.0 Build 186)  -->
  <defs>
    <style>
      .st0 {
        fill: #fff;
      }
    </style>
  </defs>
  <path class="st0" d="M22.3,2.1c-1.1-.9-2.5-1.3-3.8-1l-4,.7c-1.1.2-2,.8-2.5,1.7-.5-.9-1.4-1.5-2.5-1.7l-4-.7c-1.4-.2-2.8.1-3.8,1C.6,3,0,4.3,0,5.7v11.4C0,19.3,1.6,21.3,3.8,21.7l6.6,1.2c.5,0,1.1.1,1.6.1s1.1,0,1.6-.1l6.6-1.2c2.2-.4,3.8-2.3,3.8-4.6V5.7c0-1.4-.6-2.7-1.7-3.6h0ZM11.5,22c-.3,0-.6,0-.9-.1l-6.6-1.2c-1.8-.3-3-1.8-3-3.6V5.7c0-1.1.5-2.1,1.3-2.8.7-.6,1.5-.9,2.4-.9s.4,0,.7,0l4,.7c1.3.2,2.2,1.3,2.2,2.6v16.6h0ZM23,17.1c0,1.8-1.3,3.3-3,3.6l-6.6,1.2c-.3,0-.6,0-.9.1V5.4c0-1.3.9-2.4,2.2-2.6l4-.7c1.1-.2,2.2,0,3,.8.8.7,1.3,1.7,1.3,2.8v11.4h0Z"/>
</svg>