<?xml version="1.0" encoding="UTF-8"?>
<svg id="Layer_1" xmlns="http://www.w3.org/2000/svg" version="1.1" viewBox="0 0 290.1 309.1">
  <!-- Generator: Adobe Illustrator 29.0.0, SVG Export Plug-In . SVG Version: 2.1.0 Build 186)  -->
  <defs>
    <style>
      .st0 {
        fill: #fff;
      }

      .st1 {
        fill: #941303;
      }

      .st2 {
        fill: #ededed;
        opacity: .5;
      }

      .st3 {
        fill: none;
        stroke: #000;
        stroke-linecap: round;
        stroke-linejoin: round;
        stroke-width: 2.6px;
      }

      .st4 {
        fill: #c1c1c1;
      }

      .st5 {
        fill: #cb9390;
      }
    </style>
  </defs>
  <rect class="st2" width="290.1" height="309.1" rx="23.8" ry="23.8"/>
  <g>
    <g>
      <g>
        <g>
          <g>
            <g>
              <path class="st0" d="M95.5,79.1v127.8h-4c-.3,0-.6,0-.8,0-.1,0-.2,0-.4,0-.2,0-.5,0-.7,0v-124.3h-6.7c-1,0-2.1.1-3,.4,2.2-2.5,5.4-4,9-4h6.6Z"/>
              <path class="st5" d="M89.6,82.8v124.3c-.2,0-.4,0-.6,0-.2,0-.4,0-.6.1-.2,0-.4,0-.6.1-.7.2-1.4.4-2.1.7-.2,0-.4.2-.5.2-.1,0-.2.1-.4.2-.1,0-.2.1-.3.2,0,0,0,0-.1,0-.3.2-.6.3-.9.5,0,0,0,0-.1.1-.2.1-.4.3-.6.4-.2.1-.4.3-.6.4-.4.3-.7.6-1,.9-2.6,2.6-4.3,6.3-4.3,10.3V91.2c0-3.1,1.2-5.9,3.1-8.1,1-.2,2-.4,3-.4h6.7Z"/>
              <path class="st0" d="M214,206.9v29.4h-5.9v-25.8h-118.4v-3.5c.2,0,.5,0,.7,0,.1,0,.2,0,.4,0,.3,0,.6,0,.8,0h122.4Z"/>
              <path class="st5" d="M208,210.5v25.8h-116.5c-8.1,0-14.7-6.6-14.7-14.7h0c0-4.1,1.7-7.8,4.3-10.4.3-.3.7-.6,1-.9.2-.2.4-.3.6-.4.2-.1.4-.3.6-.4,0,0,.1,0,.1-.1.3-.2.6-.4.9-.5,0,0,.1,0,.1,0,.1,0,.2-.1.3-.2.1,0,.2-.1.4-.2.2,0,.4-.2.5-.2.7-.3,1.4-.5,2.1-.7.2,0,.4,0,.6-.1.2,0,.4,0,.6-.1.2,0,.4,0,.6,0v3.5h118.4Z"/>
              <path class="st5" d="M89.6,82.8v127.8h-4c-1.6,0-3.1.2-4.5.7-1.6.5-3,1.3-4.3,2.2v-122.2c0-3.1,1.2-5.9,3.1-8.1,1-.2,2-.4,3-.4h6.7Z"/>
              <path class="st5" d="M208,210.5v25.8h-116.5c-8.1,0-14.7-6.6-14.7-14.7v-8.2c1.3-1,2.7-1.7,4.3-2.2,1.4-.4,2.9-.7,4.5-.7h122.4Z"/>
              <path class="st0" d="M214,79.1v127.8h-118.4v-127.8h118.4Z"/>
            </g>
            <g>
              <polyline class="st3" points="95.5 79.1 214 79.1 214 206.9"/>
              <path class="st3" d="M76.8,221.5V91.2c0-6.7,5.4-12.1,12.1-12.1h6.7v127.8"/>
              <path class="st3" d="M214,206.9v29.4h-122.4c-8.1,0-14.7-6.6-14.7-14.7h0c0-4.1,1.7-7.8,4.3-10.4,2.7-2.7,6.3-4.3,10.4-4.3h122.4Z"/>
              <line class="st3" x1="184.4" y1="221.6" x2="208.3" y2="221.6"/>
              <line class="st3" x1="103.9" y1="221.6" x2="163.8" y2="221.6"/>
            </g>
          </g>
          <path class="st0" d="M160,160.5h-4.6c1.8-14.1,22.6-12,19-32.9-2.2-11.8-12.3-17.5-25.9-17.5s-7,.5-10,1.5c4.1-2.3,9.1-3.6,14.8-3.6,13.5,0,23.7,5.7,25.9,17.5,3.9,21.9-19.1,18.5-19.1,35Z"/>
          <path class="st1" d="M155.4,160.5h-10.6c.3-24.8,20.3-19.4,18.6-31.5-.6-4.4-4.8-6.7-10.2-6.7s-5,.8-6.8,2.2c-2.2,1.7-3.5,4.3-3.7,7.5h-15.3c0-9.7,4.2-16.7,11-20.5,3-1,6.4-1.5,10-1.5,13.5,0,23.7,5.7,25.9,17.5,3.7,20.9-17.1,18.7-19,32.9Z"/>
          <path class="st0" d="M161.6,175.4c0,5.9-3.8,9.1-7.9,9.6,1.8-1.6,3.1-4.1,3.1-7.5,0-7-5.3-10.2-10.1-9.6,5.2-4.5,14.9-2,14.9,7.6Z"/>
          <path class="st1" d="M156.8,177.5c0,3.4-1.3,5.9-3.1,7.5-4.8.6-10.2-2.6-10.2-9.6s1.3-5.9,3.1-7.6c4.8-.6,10.1,2.6,10.1,9.6Z"/>
          <path class="st1" d="M155.4,160.5h-10.6c.3-24.8,20.3-19.4,18.6-31.5-.6-4.4-4.8-6.7-10.2-6.7s-5,.8-6.8,2.2c-4.1.7-7.2,3.5-8.2,7.5h-10.8c0-9.7,4.2-16.7,11-20.5,3-1,6.4-1.5,10-1.5,13.5,0,23.7,5.7,25.9,17.5,3.7,20.9-17.1,18.7-19,32.9Z"/>
          <path class="st1" d="M156.8,177.5c0,3.4-1.3,5.9-3.1,7.5-4.8.6-10.2-2.6-10.2-9.6s1.3-5.9,3.1-7.6c4.8-.6,10.1,2.6,10.1,9.6Z"/>
          <path class="st3" d="M179.1,125.6c3.9,21.9-19.1,18.5-19.1,35h-15.2c.3-24.8,20.3-19.4,18.6-31.5-.6-4.3-4.8-6.7-10.2-6.7s-10.2,3.9-10.5,9.8h-15.3c.1-15.5,10.8-24.1,25.8-24.1s23.7,5.7,25.9,17.5Z"/>
          <path class="st3" d="M143.5,175.4c0-13,18-13,18,0s-18,12.8-18,0Z"/>
          <g>
            <g>
              <path class="st0" d="M268.1,39.5v50.4c0,3.1-2.4,5.8-5.4,6.1v17.7l-8.2-8.1v-3.7c3.1-.3,5.4-2.9,5.4-6.1v-50.4c0-3.4-2.7-6.1-6.1-6.1h-89.5c0-3.3,2.8-5.9,6.1-5.9h91.7c3.4,0,6.1,2.7,6.1,6.1Z"/>
              <path class="st4" d="M259.8,45.4v50.4c0,3.1-2.4,5.8-5.4,6.1v3.7l-9.7-9.6h-74.4c-3.4,0-6.1-2.8-6.1-6.1v-50.4c0,0,0-.1,0-.2h89.5c3.4,0,6.1,2.7,6.1,6.1Z"/>
            </g>
            <path class="st4" d="M259.8,45.4v50.4c0,3.1-2.4,5.8-5.4,6.1v3.7l-9.7-9.6h-74.4c-3.4,0-6.1-2.8-6.1-6.1v-50.4c0,0,0-.1,0-.2h89.5c3.4,0,6.1,2.7,6.1,6.1Z"/>
            <path class="st3" d="M230.3,96h14.4l18,17.7v-17.7c3.1-.3,5.4-2.9,5.4-6.1v-50.4c0-3.4-2.7-6.1-6.1-6.1h-91.7c-3.4,0-6.1,2.7-6.1,6.1v44.4h0v6c0,3.4,2.7,6.1,6.1,6.1h60Z"/>
          </g>
          <g>
            <path class="st0" d="M63.9,253.7h-14.4l-18,17.7v-17.7c-3.1-.3-5.4-2.9-5.4-6.1v-50.4c0-3.4,2.7-6.1,6.1-6.1h91.7c3.4,0,6.1,2.7,6.1,6.1v44.4h0v6c0,3.4-2.7,6.1-6.1,6.1h-60Z"/>
            <path class="st3" d="M63.9,253.7h-14.4l-18,17.7v-17.7c-3.1-.3-5.4-2.9-5.4-6.1v-50.4c0-3.4,2.7-6.1,6.1-6.1h91.7c3.4,0,6.1,2.7,6.1,6.1v44.4h0v6c0,3.4-2.7,6.1-6.1,6.1h-60Z"/>
          </g>
        </g>
        <g>
          <circle class="st0" cx="193.7" cy="65.1" r="6.4"/>
          <circle class="st3" cx="193.7" cy="65.1" r="6.4"/>
        </g>
        <g>
          <circle class="st0" cx="215.9" cy="65.1" r="6.4"/>
          <circle class="st3" cx="215.9" cy="65.1" r="6.4"/>
        </g>
        <g>
          <circle class="st0" cx="238.1" cy="65.1" r="6.4"/>
          <circle class="st3" cx="238.1" cy="65.1" r="6.4"/>
        </g>
        <g>
          <line class="st3" x1="53.8" y1="211.4" x2="77.1" y2="211.4"/>
          <line class="st3" x1="91.6" y1="222.6" x2="100.9" y2="222.6"/>
          <line class="st3" x1="53.8" y1="222.6" x2="83.1" y2="222.6"/>
          <line class="st3" x1="53.8" y1="233.8" x2="100.9" y2="233.8"/>
        </g>
      </g>
      <g>
        <g>
          <line class="st3" x1="240.7" y1="129.6" x2="240.7" y2="141.8"/>
          <line class="st3" x1="246.8" y1="135.7" x2="234.5" y2="135.7"/>
        </g>
        <g>
          <line class="st3" x1="159.4" y1="263.5" x2="159.4" y2="275.7"/>
          <line class="st3" x1="165.5" y1="269.6" x2="153.3" y2="269.6"/>
        </g>
        <g>
          <line class="st3" x1="49" y1="83.4" x2="49" y2="98.8"/>
          <line class="st3" x1="56.6" y1="91.1" x2="41.3" y2="91.1"/>
        </g>
      </g>
    </g>
    <g>
      <line class="st3" x1="32.2" y1="61.5" x2="88.7" y2="61.5"/>
      <line class="st3" x1="72.7" y1="49.9" x2="88.7" y2="49.9"/>
      <line class="st3" x1="32.2" y1="49.9" x2="61.6" y2="49.9"/>
      <line class="st3" x1="32.2" y1="38.4" x2="66.7" y2="38.4"/>
    </g>
    <g>
      <line class="st3" x1="266" y1="273" x2="209.5" y2="273"/>
      <line class="st3" x1="243.7" y1="261.5" x2="209.5" y2="261.5"/>
      <line class="st3" x1="266" y1="261.5" x2="252.1" y2="261.5"/>
      <line class="st3" x1="266" y1="249.9" x2="231.5" y2="249.9"/>
    </g>
  </g>
</svg>