<?xml version="1.0" encoding="UTF-8"?>
<svg id="Layer_1" data-name="Layer 1" xmlns="http://www.w3.org/2000/svg" viewBox="0 0 23.87 23.87">
  <defs>
    <style>
      .cls-1 {
        fill: #d6d6d6;
      }
    </style>
  </defs>
  <path class="cls-1" d="M23.73,23.02l-6.32-6.32c1.61-1.77,2.6-4.12,2.6-6.7C20,4.49,15.51,0,10,0S0,4.49,0,10s4.49,10,10,10c2.58,0,4.92-.99,6.7-2.59l6.32,6.32c.1.1.23.15.35.15s.26-.05.35-.15c.19-.19.19-.51,0-.71h0ZM1,10C1,5.04,5.04,1,10,1s9,4.04,9,9-4.04,9-9,9S1,14.96,1,10Z"/>
</svg>