<?xml version="1.0" encoding="UTF-8"?>
<svg id="Layer_1" data-name="Layer 1" xmlns="http://www.w3.org/2000/svg" viewBox="0 0 512 512">
  <defs>
    <style>
      .cls-1 {
        fill: #fff;
      }
    </style>
  </defs>
  <path class="cls-1" d="M448,90.82V21.33h53.33c5.89,0,10.67-4.78,10.67-10.67s-4.78-10.67-10.67-10.67H96C43.07,0,0,43.07,0,96v405.33c0,5.89,4.78,10.67,10.67,10.67s10.67-4.78,10.67-10.67V96c0-41.17,33.49-74.67,74.67-74.67h53.33v69.48c-37.25,13.21-64,48.79-64,90.52v149.33c0,52.93,43.07,96,96,96h234.67c52.93,0,96-43.07,96-96v-149.33c0-41.73-26.75-77.31-64-90.52ZM170.67,21.33h256v64.6c-3.5-.38-7.06-.6-10.67-.6h-234.67c-3.61,0-7.17.21-10.67.6V21.33ZM490.67,330.67c0,41.17-33.49,74.67-74.67,74.67h-234.67c-41.17,0-74.67-33.49-74.67-74.67v-149.33c0-41.17,33.49-74.67,74.67-74.67h234.67c41.17,0,74.67,33.49,74.67,74.67v149.33Z"/>
</svg>