<?xml version="1.0" encoding="UTF-8"?>
<svg id="Layer_1" data-name="Layer 1" xmlns="http://www.w3.org/2000/svg" viewBox="0 0 24 24">
  <defs>
    <style>
      .cls-1 {
        fill: #940000;
      }
    </style>
  </defs>
  <path class="cls-1" d="M17,15c-3.7,0-5.8,2.25-6.72,3.59-.38.55-.38,1.26,0,1.81.92,1.34,3.01,3.59,6.72,3.59s5.8-2.25,6.72-3.59c.38-.55.38-1.26,0-1.81-.92-1.34-3.01-3.6-6.72-3.59ZM22.89,19.84c-.81,1.18-2.65,3.16-5.89,3.16s-5.08-1.98-5.89-3.16c-.15-.21-.15-.47,0-.68.81-1.18,2.65-3.16,5.89-3.16s5.08,1.98,5.89,3.16c.15.21.15.47,0,.68ZM17,17.5c-1.1,0-2,.9-2,2s.9,2,2,2,2-.9,2-2-.9-2-2-2ZM17,20.5c-.55,0-1-.45-1-1s.45-1,1-1,1,.45,1,1-.45,1-1,1ZM6,5.5c0,.55-.45,1-1,1s-1-.45-1-1,.45-1,1-1,1,.45,1,1ZM6,16.5c0,.55-.45,1-1,1s-1-.45-1-1,.45-1,1-1,1,.45,1,1ZM6,11c0,.55-.45,1-1,1s-1-.45-1-1,.45-1,1-1,1,.45,1,1ZM9,5.5c0-.28.22-.5.5-.5h10c.28,0,.5.22.5.5s-.22.5-.5.5h-10c-.28,0-.5-.22-.5-.5ZM19.5,11.5h-10c-.28,0-.5-.22-.5-.5s.22-.5.5-.5h10c.28,0,.5.22.5.5s-.22.5-.5.5ZM24,4.5v10c0,.28-.22.5-.5.5s-.5-.22-.5-.5V4.5c0-1.93-1.57-3.5-3.5-3.5H4.5c-1.93,0-3.5,1.57-3.5,3.5v13c0,1.93,1.57,3.5,3.5,3.5h3.5c.28,0,.5.22.5.5s-.22.5-.5.5h-3.5c-2.48,0-4.5-2.02-4.5-4.5V4.5C0,2.02,2.02,0,4.5,0h15c2.48,0,4.5,2.02,4.5,4.5Z"/>
</svg>