<?xml version="1.0" encoding="UTF-8"?>
<svg id="Layer_1" data-name="Layer 1" xmlns="http://www.w3.org/2000/svg" viewBox="0 0 24 21.5">
  <defs>
    <style>
      .cls-1 {
        fill: #fff;
      }
    </style>
  </defs>
  <path class="cls-1" d="M9.16,20.48c1.65,1.36,4.04,1.36,5.69,0,4.35-3.59,9.07-9.54,9.16-14.1.04-2.07-1.13-4.13-3.05-5.38-1.88-1.22-3.94-1.34-5.79-.33-1.43.78-2.55,2.13-3.16,3.7-.61-1.57-1.73-2.92-3.16-3.7C8.01.23,7.13,0,6.25,0c-1.08,0-2.17.34-3.2,1.01C1.13,2.26-.04,4.32,0,6.39c.09,4.56,4.81,10.5,9.16,14.1h0ZM3.59,1.85c1.56-1.01,3.25-1.12,4.77-.29,1.85,1,3.14,3.24,3.14,5.45,0,.28.22.5.5.5s.5-.22.5-.5c0-2.2,1.29-4.44,3.14-5.45,1.52-.82,3.21-.72,4.77.29,1.63,1.06,2.63,2.79,2.6,4.52-.08,4.24-4.61,9.89-8.79,13.35-1.28,1.06-3.13,1.06-4.41,0C5.61,16.26,1.08,10.61,1,6.37c-.03-1.73.96-3.46,2.59-4.52h0Z"/>
</svg>