<?xml version="1.0" encoding="UTF-8"?>
<svg id="Layer_1" data-name="Layer 1" xmlns="http://www.w3.org/2000/svg" viewBox="0 0 24.04 23.28">
  <defs>
    <style>
      .cls-1 {
        fill: #940000;
      }
    </style>
  </defs>
  <path class="cls-1" d="M22.54,10.28h-8c-.83,0-1.5.67-1.5,1.5v4.5H1.54c-.83,0-1.5.67-1.5,1.5v1.5c0,2.21,1.79,4,4,4h16c2.21,0,4-1.79,4-4v-7.5c0-.83-.67-1.5-1.5-1.5ZM14.04,11.78c0-.28.23-.5.5-.5h8c.27,0,.5.22.5.5v4.5h-9v-4.5ZM16.04,17.28v5h-8v-5h8ZM1.04,19.28v-1.5c0-.28.22-.5.5-.5h5.5v5h-3c-1.65,0-3-1.35-3-3ZM23.04,19.28c0,1.65-1.35,3-3,3h-3v-5h6v2ZM1.11,7.07l6.04,3.27c.36.15.73.23,1.1.23.54,0,1.07-.15,1.53-.46.79-.52,1.26-1.39,1.26-2.33v-2h2.06c.22.86,1.01,1.5,1.94,1.5h5c1.1,0,2-.9,2-2s-.9-2-2-2h-5c-.93,0-1.71.64-1.94,1.5h-2.06v-2c0-.94-.47-1.81-1.26-2.33-.79-.52-1.77-.6-2.68-.21L1.12,3.49c-.69.35-1.12,1.03-1.12,1.79s.43,1.44,1.11,1.79ZM15.04,4.28h5c.55,0,1,.45,1,1s-.45,1-1,1h-5c-.55,0-1-.45-1-1s.45-1,1-1ZM1.58,4.38L7.54,1.14c.23-.1.47-.15.71-.15.34,0,.68.1.98.3.51.34.81.88.81,1.49v5c0,.61-.29,1.16-.81,1.49-.51.34-1.13.39-1.65.17L1.58,6.19s0,0-.01,0c-.36-.18-.57-.52-.57-.9s.21-.72.58-.91h0Z"/>
</svg>