<?xml version="1.0" encoding="UTF-8"?>
<svg id="Layer_1" data-name="Layer 1" xmlns="http://www.w3.org/2000/svg" viewBox="0 0 24 24">
  <defs>
    <style>
      .cls-1 {
        fill: #940000;
      }
    </style>
  </defs>
  <path class="cls-1" d="M19.5,4H6v-1.5c0-1.38-1.12-2.5-2.5-2.5h-.5C1.35,0,0,1.35,0,3v18.08c0,1.69,1.33,2.92,3.14,2.92h16.36c2.48,0,4.5-2.02,4.5-4.5v-11c0-2.48-2.02-4.5-4.5-4.5ZM1,3c0-1.1.9-2,2-2h.5c.83,0,1.5.67,1.5,1.5v14c0,.83-.67,1.5-1.5,1.5h-.5c-.74,0-1.45.27-2,.76V3ZM23,19.5c0,1.93-1.57,3.5-3.5,3.5H3c-1.11,0-2-.9-2-2s.89-2,2-2h.5c1.38,0,2.5-1.12,2.5-2.5V5h13.5c1.93,0,3.5,1.57,3.5,3.5v11Z"/>
  <path class="cls-1" d="M21,8.5v11c0,.83-.67,1.5-1.5,1.5h-10c-.83,0-1.5-.67-1.5-1.5v-11c0-.83.67-1.5,1.5-1.5h1c.28,0,.5.22.5.5s-.22.5-.5.5h-1c-.27,0-.5.22-.5.5v2.5h1.5c.28,0,.5.22.5.5s-.22.5-.5.5h-1.5v7.5c0,.28.23.5.5.5h4.5v-5h-1.5c-.28,0-.5-.22-.5-.5s.22-.5.5-.5h4c.28,0,.5.22.5.5s-.22.5-.5.5h-1.5v5h4.5c.27,0,.5-.22.5-.5v-11c0-.28-.23-.5-.5-.5h-4c-.27,0-.5.22-.5.5v2c0,.28-.22.5-.5.5s-.5-.22-.5-.5v-2c0-.83.67-1.5,1.5-1.5h4c.83,0,1.5.67,1.5,1.5Z"/>
</svg>