<?xml version="1.0" encoding="UTF-8"?>
<svg id="Layer_1" data-name="Layer 1" xmlns="http://www.w3.org/2000/svg" viewBox="0 0 17.93 23.93">
  <defs>
    <style>
      .cls-1 {
        fill: #d6d6d6;
      }
    </style>
  </defs>
  <path class="cls-1" d="M17.93,11.98c0,4.69-3.62,8.55-8.22,8.93v2.27c0,.41-.33.75-.75.75s-.75-.33-.75-.75v-2.27C3.62,20.53,0,16.67,0,11.98c0-.41.33-.75.75-.75s.75.33.75.75c0,4.12,3.35,7.47,7.47,7.47s7.47-3.35,7.47-7.47c0-.41.33-.75.75-.75s.75.33.75.75ZM8.97,16.43c2.47,0,4.48-2.01,4.48-4.48v-7.47c0-2.47-2.01-4.48-4.48-4.48s-4.48,2.01-4.48,4.48v7.47c0,2.47,2.01,4.48,4.48,4.48ZM5.98,4.48c0-1.65,1.34-2.99,2.99-2.99s2.99,1.34,2.99,2.99v7.47c0,1.65-1.34,2.99-2.99,2.99s-2.99-1.34-2.99-2.99v-7.47Z"/>
</svg>