<?xml version="1.0" encoding="UTF-8"?>
<svg id="Layer_1" data-name="Layer 1" xmlns="http://www.w3.org/2000/svg" viewBox="0 0 469.07 512">
  <defs>
    <style>
      .cls-1 {
        fill: #940000;
      }
    </style>
  </defs>
  <path class="cls-1" d="M467.91,338.99l-31.15-174.51c-8.11-45.87-48-79.15-94.51-79.15h-11.95c6.61-8.96,10.67-20.05,10.67-32,0-29.44-23.89-53.33-53.33-53.33h-106.67c-29.44,0-53.33,23.89-53.33,53.33,0,11.95,4.05,23.04,10.67,32h-11.95c-46.51,0-86.4,33.28-94.51,79.15L1.14,338.99c-3.84,21.76,2.13,44.16,16.21,61.01,14.29,17.07,35.2,26.67,57.17,26.67h74.67c0,47.15,38.19,85.33,85.33,85.33s85.33-38.19,85.33-85.33h74.67c22.19,0,43.09-9.81,57.17-26.67,14.29-17.07,20.05-39.25,16.21-61.01ZM149.19,53.55c0-17.71,14.29-32,32-32h106.67c17.71,0,32,14.29,32,32s-14.29,32-32,32h-106.67c-17.71,0-32-14.29-32-32ZM234.53,490.88c-35.2,0-64-28.8-64-64h128c0,35.2-28.8,64-64,64ZM435.49,386.35c-10.24,12.16-25.17,19.2-40.96,19.2H74.53c-15.79,0-30.72-7.04-40.96-19.2s-14.29-27.95-11.52-43.52l31.15-174.51c6.4-35.63,37.33-61.44,73.6-61.44h215.68c36.27,0,67.2,25.81,73.6,61.44l31.15,174.51c2.77,15.57-1.49,31.57-11.52,43.52h-.21Z"/>
</svg>