<?xml version="1.0" encoding="UTF-8"?>
<svg id="Layer_1" data-name="Layer 1" xmlns="http://www.w3.org/2000/svg" viewBox="0 0 512 405.33">
  <defs>
    <style>
      .cls-1 {
        fill: #6d6d6d;
      }
    </style>
  </defs>
  <path class="cls-1" d="M512,10.67c0,5.97-4.69,10.67-10.67,10.67H10.67C4.69,21.33,0,16.64,0,10.67S4.69,0,10.67,0h490.67c5.97,0,10.67,4.69,10.67,10.67ZM160,384H10.67c-5.97,0-10.67,4.69-10.67,10.67s4.69,10.67,10.67,10.67h149.33c5.97,0,10.67-4.69,10.67-10.67s-4.69-10.67-10.67-10.67ZM330.67,192H10.67c-5.97,0-10.67,4.69-10.67,10.67s4.69,10.67,10.67,10.67h320c5.97,0,10.67-4.69,10.67-10.67s-4.69-10.67-10.67-10.67Z"/>
</svg>