<?xml version="1.0" encoding="UTF-8"?>
<svg id="Layer_1" data-name="Layer 1" xmlns="http://www.w3.org/2000/svg" viewBox="0 0 469.33 512.02">
  <defs>
    <style>
      .cls-1 {
        fill: #6d6d6d;
      }
    </style>
  </defs>
  <path class="cls-1" d="M273.71,112.41c23.68-12.63,52.5-33.73,65.28-65.86,4.12-10.37,2.84-21.72-3.54-31.1-6.55-9.66-17.39-15.45-29.01-15.45h-143.53c-11.61,0-22.46,5.78-29.01,15.45-6.38,9.39-7.66,20.74-3.56,31.1,12.78,32.13,41.6,53.23,65.28,65.86C90.41,141.25,0,279.36,0,389.35c0,67.63,55.04,122.67,122.67,122.67h224c67.63,0,122.67-55.04,122.67-122.67,0-109.99-90.41-248.11-195.63-276.95h0ZM150.17,38.68c-2.01-5.03,0-9.22,1.37-11.22,2.58-3.82,6.83-6.08,11.37-6.08h143.53c4.52,0,8.79,2.26,11.37,6.08,1.37,2.03,3.37,6.19,1.37,11.24-16.81,42.28-71.19,62.98-84.5,67.48-13.33-4.48-67.61-25.05-84.48-67.5h-.02ZM346.67,490.69H122.67c-55.87,0-101.33-45.46-101.33-101.33,0-114.11,103.45-261.33,213.33-261.33s213.33,147.22,213.33,261.33c0,55.87-45.46,101.33-101.33,101.33ZM320,370.67c0,30.89-25.13,56.02-56.02,56.02h-18.65v32c0,5.89-4.78,10.67-10.67,10.67s-10.67-4.78-10.67-10.67v-32h-19.75c-20.89,0-40.34-11.22-50.79-29.31-2.97-5.1-1.22-11.63,3.88-14.57,5.1-2.99,11.61-1.22,14.57,3.88,6.66,11.52,19.07,18.67,32.34,18.67h59.73c19.11,0,34.69-15.55,34.69-34.69,0-17.13-12.27-31.53-29.18-34.24l-73-11.73c-27.31-4.39-47.13-27.65-47.13-55.32,0-30.89,25.13-56.02,56.02-56.02h18.65v-32c0-5.89,4.78-10.67,10.67-10.67s10.67,4.78,10.67,10.67v32h19.75c20.86,0,40.34,11.24,50.79,29.33,2.97,5.1,1.22,11.63-3.88,14.57-5.14,2.94-11.61,1.19-14.57-3.88-6.66-11.52-19.07-18.67-32.34-18.67h-59.73c-19.11,0-34.69,15.55-34.69,34.69,0,17.13,12.27,31.53,29.18,34.24l73,11.73c27.31,4.39,47.13,27.65,47.13,55.32v-.02Z"/>
</svg>